<svg width="1089" height="1080" viewBox="0 0 1089 1080" fill="none" xmlns="http://www.w3.org/2000/svg">
<g clip-path="url(#clip0_927_778)">
<rect width="1089" height="1080" fill="#0D0D0D"/>
<rect width="1089" height="1080" rx="10" fill="#0D0D0D"/>
<path fill-rule="evenodd" clip-rule="evenodd" d="M436.642 717.936L416.233 681.237C295.802 618.527 509.353 449.605 566.945 412.971L525.654 486.583L693.785 362L541.095 563.092L618.967 516.199C618.967 516.199 563.052 620.158 547.267 642.37C531.482 664.583 519.439 671.665 519.439 671.665L526.858 710.295L499.783 712.613L484.471 689.177L477.051 690.551L479.03 714.373L468.492 715.274L456.965 694.114L448.363 696.109L449.954 716.863L436.685 718L436.642 717.936ZM389.459 531.544L476.944 440.956C476.944 440.956 411.416 475.745 399.975 494.309C393.114 505.523 389.476 518.405 389.459 531.544ZM570.579 669.111C570.579 669.111 578.923 661.407 604.58 619.75C630.236 578.094 634.257 558.371 634.257 558.371C634.257 558.371 629.634 626.231 617.268 647.199C604.902 668.167 570.579 669.09 570.579 669.09V669.111ZM636.15 484.694L671.935 465.379L708 413.099L636.15 484.78V484.694ZM406.341 614.921C414.47 612.883 423.545 621.36 426.793 633.958C430.04 646.555 425.911 658.338 417.76 660.376C409.61 662.415 400.556 653.938 397.309 641.34C394.061 628.742 398.19 616.96 406.341 614.921ZM459.567 672.137L441.632 676.429L440.406 655.591L447.976 654.217L459.567 672.137ZM471.804 597.495C481.632 595.027 492.729 605.35 496.535 620.523C500.342 635.696 495.46 650.032 485.611 652.5C475.761 654.968 464.707 644.645 460.879 629.472C457.051 614.299 461.954 599.963 471.804 597.495Z" fill="#141414"/>
</g>
<defs>
<clipPath id="clip0_927_778">
<rect width="1089" height="1080" fill="white"/>
</clipPath>
</defs>
</svg>
