<svg width="1089" height="1080" viewBox="0 0 1089 1080" fill="none" xmlns="http://www.w3.org/2000/svg">
<g clip-path="url(#clip0_927_603)">
<rect width="1089" height="1080" fill="#0D0D0D"/>
<rect width="1089" height="1080" rx="10" fill="#0D0D0D"/>
<path d="M597.285 1048.53L527.334 558.855L1051.91 558.855L1051.91 1048.53L597.285 1048.53ZM876.934 873.192L876.934 734.421L727.379 734.421L747.529 873.192L876.934 873.192Z" fill="#141414"/>
<path d="M490.254 557.612L560.205 1047.29L35.6328 1047.29L35.6328 557.612L490.254 557.612ZM210.605 732.948L210.605 871.719L360.16 871.719L340.01 732.948L210.605 732.948Z" fill="#141414"/>
<path d="M360.188 207.001L35.5078 207.001L35.5078 32.6032L560.156 32.6032L490.34 521.434L35.5078 521.434L35.5078 347.457L339.77 347.457L360.188 207.001Z" fill="#141414"/>
<rect x="35.6953" y="149.277" width="174.302" height="327.534" fill="#141414"/>
<path d="M726.56 345.819L1052 345.819L1052 520.32L526.124 520.32L596.104 31.1992L1052 31.1992L1052 205.279L747.026 205.279L726.56 345.819Z" fill="#141414"/>
</g>
<defs>
<clipPath id="clip0_927_603">
<rect width="1089" height="1080" fill="white"/>
</clipPath>
</defs>
</svg>
