<svg width="1089" height="1080" viewBox="0 0 1089 1080" fill="none" xmlns="http://www.w3.org/2000/svg">
<g clip-path="url(#clip0_927_624)">
<rect width="1089" height="1080" fill="#0D0D0D"/>
<rect width="1089" height="1080" rx="10" fill="#0D0D0D"/>
<path d="M564.597 733.808L538.001 547.625L737.453 547.625L737.453 733.808L564.597 733.808ZM670.925 667.142L670.925 614.379L614.062 614.379L621.723 667.142L670.925 667.142Z" fill="white"/>
<path d="M523.903 547.149L550.499 733.332L351.047 733.332L351.047 547.149L523.903 547.149ZM417.575 613.815L417.575 666.578L474.438 666.578L466.777 613.815L417.575 613.815Z" fill="white"/>
<path d="M474.45 413.841L351 413.841L351 347.532L550.482 347.531L523.936 533.395L351 533.395L351 467.245L466.686 467.245L474.45 413.841Z" fill="white"/>
<rect x="351.07" y="391.895" width="66.273" height="124.535" fill="white"/>
<path d="M613.754 466.625L737.492 466.625L737.492 532.974L537.544 532.974L564.151 347L737.492 347L737.492 413.189L621.535 413.189L613.754 466.625Z" fill="white"/>
</g>
<defs>
<clipPath id="clip0_927_624">
<rect width="1089" height="1080" fill="white"/>
</clipPath>
</defs>
</svg>
