<?xml version="1.0" encoding="utf-8"?>
<!-- Generator: Adobe Illustrator 26.1.0, SVG Export Plug-In . SVG Version: 6.00 Build 0)  -->
<svg version="1.1" id="Layer_1" xmlns="http://www.w3.org/2000/svg" xmlns:xlink="http://www.w3.org/1999/xlink" x="0px" y="0px"
	 viewBox="0 0 24 24" style="enable-background:new 0 0 24 24;" xml:space="preserve">
<style type="text/css">
	.st0{fill:none;}
	.st1{fill:#6D6D6D;}
</style>
<g>
	<path class="st0" d="M0,0h24v24H0V0z"/>
	<path class="st1" d="M12,2c5.5,0,10,4.5,10,10s-4.5,10-10,10S2,17.5,2,12S6.5,2,12,2z M12,7c-2.8,0-5,2.2-5,5s2.2,5,5,5
		c1.8,0,3.4-1,4.3-2.4l-1.7-1c-0.9,1.4-2.7,1.9-4.1,1s-1.9-2.7-1-4.1C10,9.6,10.9,9,12,9c1.1,0,2.1,0.6,2.6,1.5l1.7-1
		C15.4,7.9,13.8,7,12,7z"/>
</g>
</svg>
