<svg width="1089" height="1080" viewBox="0 0 1089 1080" fill="none" xmlns="http://www.w3.org/2000/svg">
<g clip-path="url(#clip0_927_836)">
<rect width="1089" height="1080" fill="#0D0D0D"/>
<rect width="1089" height="1080" rx="10" fill="#0D0D0D"/>
<path d="M479.395 650.281L516.128 650.279L516.12 521.453L424.179 521.458L424.182 466.222L516.123 466.217L516.139 429.498L387.465 429.367L387.453 650.285L424.159 650.284L424.163 558.177L479.4 558.174L479.395 650.281ZM571.543 650.152L700.203 650.297L700.215 429.379L663.468 429.394L663.463 521.501L608.227 521.504L608.246 429.411L571.568 429.468L571.561 558.279L663.517 558.288L663.514 613.525L571.503 613.461L571.543 650.152ZM617.479 512.279L654.198 512.263L654.26 383.671L433.41 383.642L433.409 420.347L525.501 420.356L525.471 475.565L433.406 475.583L433.404 512.316L562.215 512.309L562.22 420.34L617.457 420.337L617.479 512.279ZM433.271 696.103L654.189 696.009L654.177 659.29L562.139 659.336L562.142 604.099L654.221 604.095L654.237 567.376L525.425 567.382L525.407 659.338L470.17 659.341L470.189 567.385L433.456 567.387L433.271 696.103Z" fill="#141414"/>
</g>
<defs>
<clipPath id="clip0_927_836">
<rect width="1089" height="1080" fill="white"/>
</clipPath>
</defs>
</svg>
