<svg width="1080" height="1080" viewBox="0 0 1080 1080" fill="none" xmlns="http://www.w3.org/2000/svg">
<rect width="1080" height="1080" fill="#0D0D0D"/>
<path d="M295 657.846C307.086 601.026 319.196 544.117 331.33 487.12H379.362L368.431 538.94H378.17C381.902 521.699 385.609 504.506 389.377 487.072H437.409C434.014 502.918 430.715 518.354 427.345 534.151L404.064 553.666L418.991 573.157C415.644 588.978 412.297 604.836 408.843 621.199L352.638 659.627L371.898 568.573H362.148C358.38 586.115 354.636 603.464 350.832 621.235L296.372 658.532L295 657.846Z" fill="white"/>
<path d="M751.898 553.69L766.885 573.072C763.594 588.673 760.216 604.715 756.749 621.198L700.484 659.698C707.105 628.417 713.376 598.892 719.744 568.753H709.958L698.642 621.342L642.461 659.686L679.177 487.144H727.16L716.265 538.879H726.004C729.748 521.505 733.456 504.301 737.187 487.023H785.219C781.824 502.893 778.513 518.305 775.131 534.138L751.898 553.69Z" fill="white"/>
<path d="M640.8 620.993H534.734C544.268 576.176 553.718 531.78 563.228 487.107H669.294C659.748 531.828 650.322 576.236 640.8 620.993ZM605.253 515.526L589.037 592.226H598.812C604.229 566.743 609.646 541.429 615.1 515.526H605.253Z" fill="white"/>
<path d="M473.164 592.119H482.794C484.889 582.782 487.007 573.301 489.21 563.484L539.119 553.859L524.927 620.934H418.812C428.334 576.105 437.772 531.637 447.258 487H495.313C487.886 522.12 480.555 556.866 473.164 592.119Z" fill="white"/>
</svg>
