<svg width="270" height="270" viewBox="0 0 270 270" fill="none" xmlns="http://www.w3.org/2000/svg">
<path fill-rule="evenodd" clip-rule="evenodd" d="M110.188 94.5172C109.487 90.3738 109.746 86.1247 110.946 82.0973C112.146 78.0699 114.254 74.3715 117.108 71.287C111.731 75.6327 107.604 81.3283 105.15 87.7916C102.696 94.2549 102.002 101.254 103.14 108.073C104.277 114.893 107.205 121.288 111.624 126.604C116.044 131.921 121.795 135.969 128.292 138.334C111.263 124.469 107.25 100.082 118.933 81.4906C116.379 82.5929 114.195 84.4075 112.645 86.7176C111.094 89.0276 110.241 91.7354 110.188 94.5172ZM93.3961 112.131C90.7167 108.893 88.8163 105.084 87.8413 100.996C86.8662 96.9079 86.8425 92.6507 87.772 88.5522C85.2871 95.0046 84.5605 102.001 85.6664 108.826C86.7723 115.652 89.6711 122.061 94.0664 127.398C98.4617 132.736 104.196 136.81 110.682 139.205C117.168 141.599 124.174 142.228 130.984 141.027C109.304 137.534 93.6326 118.422 94.4549 96.4783C92.7941 98.7102 91.8111 101.373 91.6233 104.149C91.4355 106.925 92.051 109.696 93.3961 112.131ZM87.6601 135.782C83.7205 134.318 80.1697 131.968 77.2813 128.915C74.3929 125.862 72.2439 122.187 71 118.172C72.0745 125.002 74.9436 131.425 79.314 136.782C83.6844 142.14 89.3993 146.241 95.8742 148.665C102.349 151.09 109.352 151.752 116.166 150.582C122.981 149.413 129.363 146.455 134.659 142.011C114.137 149.826 91.0099 141.111 80.7525 121.694C80.4295 124.457 80.9091 127.255 82.1341 129.753C83.3591 132.251 85.2775 134.344 87.6601 135.78V135.782ZM94.5172 159.132C90.3738 159.833 86.1248 159.574 82.0974 158.374C78.0699 157.175 74.3715 155.067 71.287 152.213C75.6329 157.59 81.3287 161.716 87.792 164.17C94.2554 166.624 101.254 167.317 108.074 166.18C114.893 165.042 121.288 162.114 126.604 157.695C131.921 153.275 135.969 147.524 138.334 141.027C124.469 158.056 100.082 162.069 81.4906 150.386C82.5928 152.94 84.4075 155.124 86.7175 156.674C89.0276 158.225 91.7354 159.077 94.5172 159.13V159.132ZM112.131 175.923C108.893 178.602 105.084 180.502 100.996 181.477C96.9078 182.452 92.6507 182.476 88.5522 181.546C95.0046 184.031 102.001 184.758 108.827 183.652C115.652 182.546 122.061 179.647 127.399 175.252C132.736 170.856 136.81 165.122 139.205 158.636C141.6 152.149 142.228 145.143 141.027 138.334C137.534 160.014 118.422 175.684 96.4783 174.862C98.7101 176.523 101.373 177.507 104.149 177.695C106.924 177.883 109.695 177.268 112.131 175.923ZM135.782 181.659C134.318 185.598 131.969 189.149 128.916 192.037C125.863 194.925 122.188 197.074 118.174 198.318C125.004 197.243 131.426 194.374 136.783 190.004C142.141 185.633 146.241 179.918 148.666 173.443C151.09 166.968 151.752 159.966 150.583 153.151C149.413 146.337 146.455 139.955 142.011 134.659C149.826 155.181 141.111 178.308 121.694 188.567C124.457 188.889 127.255 188.41 129.753 187.185C132.251 185.96 134.343 184.041 135.78 181.659H135.782ZM159.132 174.801C159.833 178.944 159.574 183.193 158.375 187.221C157.175 191.248 155.067 194.947 152.213 198.031C157.59 193.685 161.717 187.99 164.171 181.526C166.625 175.063 167.319 168.063 166.181 161.244C165.044 154.424 162.115 148.029 157.696 142.713C153.276 137.396 147.524 133.348 141.027 130.984C158.056 144.848 162.069 169.235 150.386 187.827C152.94 186.724 155.123 184.91 156.674 182.6C158.224 180.29 159.077 177.583 159.13 174.801H159.132ZM175.923 157.187C178.602 160.425 180.502 164.235 181.477 168.322C182.453 172.41 182.476 176.667 181.547 180.766C184.031 174.314 184.757 167.317 183.651 160.492C182.545 153.667 179.646 147.258 175.25 141.921C170.855 136.584 165.121 132.509 158.635 130.115C152.149 127.72 145.143 127.091 138.334 128.292C160.014 131.785 175.684 150.897 174.862 172.841C176.524 170.609 177.507 167.946 177.695 165.17C177.883 162.394 177.268 159.623 175.923 157.187ZM181.659 133.536C185.598 135.001 189.148 137.35 192.037 140.402C194.925 143.455 197.074 147.13 198.318 151.144C197.243 144.314 194.374 137.892 190.003 132.535C185.633 127.178 179.918 123.077 173.443 120.653C166.968 118.229 159.966 117.567 153.151 118.736C146.337 119.906 139.955 122.864 134.659 127.308C155.181 119.493 178.308 128.209 188.567 147.625C188.89 144.861 188.41 142.063 187.185 139.564C185.96 137.066 184.042 134.973 181.659 133.536ZM174.801 110.188C178.944 109.487 183.193 109.746 187.221 110.946C191.248 112.145 194.947 114.253 198.031 117.107C193.685 111.73 187.99 107.603 181.526 105.149C175.063 102.694 168.064 102.001 161.244 103.138C154.425 104.276 148.03 107.204 142.713 111.624C137.396 116.043 133.348 121.795 130.984 128.292C144.848 111.263 169.235 107.25 187.827 118.933C186.724 116.379 184.91 114.196 182.6 112.645C180.29 111.094 177.583 110.241 174.801 110.188ZM157.187 93.3961C160.425 90.7167 164.234 88.8163 168.322 87.8412C172.41 86.8661 176.667 86.8425 180.766 87.772C174.314 85.2877 167.317 84.5615 160.492 85.6676C153.667 86.7738 147.258 89.6726 141.921 94.0677C136.584 98.4629 132.509 104.197 130.115 110.683C127.72 117.169 127.09 124.174 128.291 130.984C131.784 109.304 150.896 93.6326 172.84 94.4549C170.608 92.7939 167.945 91.8107 165.169 91.623C162.394 91.4352 159.623 92.0508 157.187 93.3961ZM133.536 87.6601C135.001 83.7206 137.35 80.1698 140.403 77.2814C143.456 74.393 147.131 72.244 151.146 71C144.316 72.0746 137.894 74.9439 132.536 79.3143C127.179 83.6847 123.078 89.3996 120.653 95.8745C118.229 102.349 117.567 109.352 118.737 116.167C119.906 122.981 122.864 129.363 127.308 134.659C119.493 114.137 128.209 91.0099 147.625 80.7516C144.861 80.4283 142.063 80.9079 139.564 82.133C137.066 83.3582 134.973 85.277 133.536 87.6601Z" fill="white"/>
<mask id="mask0_48_954" style="mask-type:luminance" maskUnits="userSpaceOnUse" x="71" y="71" width="128" height="128">
<path d="M110.188 94.5191C109.487 90.3757 109.746 86.1267 110.946 82.0993C112.146 78.0718 114.254 74.3735 117.108 71.289C111.731 75.6346 107.604 81.3303 105.15 87.7935C102.696 94.2568 102.002 101.256 103.14 108.075C104.277 114.895 107.205 121.289 111.624 126.606C116.044 131.923 121.795 135.971 128.292 138.336C111.263 124.471 107.25 100.084 118.933 81.4926C116.379 82.5948 114.195 84.4095 112.645 86.7195C111.094 89.0296 110.241 91.7373 110.188 94.5191ZM93.3961 112.133C90.7167 108.895 88.8163 105.086 87.8413 100.998C86.8662 96.9098 86.8425 92.6527 87.772 88.5542C85.2871 95.0065 84.5605 102.003 85.6664 108.828C86.7723 115.654 89.6711 122.063 94.0664 127.4C98.4617 132.738 104.196 136.812 110.682 139.207C117.168 141.601 124.174 142.23 130.984 141.029C109.304 137.536 93.6326 118.424 94.4549 96.4802C92.7941 98.7122 91.8111 101.375 91.6233 104.151C91.4355 106.927 92.051 109.698 93.3961 112.133ZM87.6601 135.784C83.7205 134.32 80.1697 131.97 77.2813 128.917C74.3929 125.864 72.2439 122.189 71 118.174C72.0745 125.004 74.9436 131.427 79.314 136.784C83.6844 142.142 89.3993 146.243 95.8742 148.667C102.349 151.092 109.352 151.754 116.166 150.584C122.981 149.415 129.363 146.457 134.659 142.013C114.137 149.828 91.0099 141.113 80.7525 121.696C80.4295 124.459 80.9091 127.257 82.1341 129.755C83.3591 132.253 85.2775 134.346 87.6601 135.782V135.784ZM94.5172 159.134C90.3738 159.835 86.1248 159.576 82.0974 158.376C78.0699 157.177 74.3715 155.069 71.287 152.215C75.6329 157.592 81.3287 161.718 87.792 164.172C94.2554 166.626 101.254 167.319 108.074 166.182C114.893 165.044 121.288 162.116 126.604 157.697C131.921 153.277 135.969 147.526 138.334 141.029C124.469 158.058 100.082 162.071 81.4906 150.388C82.5928 152.942 84.4075 155.125 86.7175 156.676C89.0276 158.227 91.7354 159.079 94.5172 159.132V159.134ZM112.131 175.925C108.893 178.604 105.084 180.504 100.996 181.479C96.9078 182.454 92.6507 182.478 88.5522 181.548C95.0046 184.033 102.001 184.76 108.827 183.654C115.652 182.548 122.061 179.649 127.399 175.254C132.736 170.858 136.81 165.124 139.205 158.638C141.6 152.151 142.228 145.145 141.027 138.336C137.534 160.016 118.422 175.686 96.4783 174.864C98.7101 176.525 101.373 177.508 104.149 177.697C106.924 177.885 109.695 177.27 112.131 175.925ZM135.782 181.661C134.318 185.6 131.969 189.151 128.916 192.039C125.863 194.927 122.188 197.076 118.174 198.32C125.004 197.245 131.426 194.376 136.783 190.006C142.141 185.635 146.241 179.92 148.666 173.445C151.09 166.97 151.752 159.968 150.583 153.153C149.413 146.339 146.455 139.957 142.011 134.661C149.826 155.183 141.111 178.31 121.694 188.569C124.457 188.891 127.255 188.412 129.753 187.187C132.251 185.962 134.343 184.043 135.78 181.661H135.782ZM159.132 174.803C159.833 178.946 159.574 183.195 158.375 187.223C157.175 191.25 155.067 194.949 152.213 198.033C157.59 193.687 161.717 187.992 164.171 181.528C166.625 175.065 167.319 168.065 166.181 161.246C165.044 154.426 162.115 148.031 157.696 142.715C153.276 137.398 147.524 133.35 141.027 130.985C158.056 144.849 162.069 169.237 150.386 187.829C152.94 186.726 155.123 184.912 156.674 182.602C158.224 180.292 159.077 177.585 159.13 174.803H159.132ZM175.923 157.189C178.602 160.427 180.502 164.237 181.477 168.324C182.453 172.412 182.476 176.669 181.547 180.768C184.031 174.315 184.757 167.319 183.651 160.494C182.545 153.669 179.646 147.26 175.25 141.923C170.855 136.586 165.121 132.511 158.635 130.117C152.149 127.722 145.143 127.093 138.334 128.294C160.014 131.787 175.684 150.899 174.862 172.843C176.524 170.611 177.507 167.948 177.695 165.172C177.883 162.396 177.268 159.625 175.923 157.189ZM181.659 133.538C185.598 135.003 189.148 137.352 192.037 140.404C194.925 143.457 197.074 147.132 198.318 151.146C197.243 144.316 194.374 137.894 190.003 132.537C185.633 127.18 179.918 123.079 173.443 120.655C166.968 118.23 159.966 117.569 153.151 118.738C146.337 119.908 139.955 122.866 134.659 127.31C155.181 119.495 178.308 128.211 188.567 147.627C188.89 144.863 188.41 142.065 187.185 139.566C185.96 137.068 184.042 134.975 181.659 133.538ZM174.801 110.19C178.944 109.489 183.193 109.748 187.221 110.948C191.248 112.147 194.947 114.255 198.031 117.109C193.685 111.732 187.99 107.605 181.526 105.151C175.063 102.696 168.064 102.003 161.244 103.14C154.425 104.278 148.03 107.206 142.713 111.626C137.396 116.045 133.348 121.797 130.984 128.294C144.848 111.265 169.235 107.252 187.827 118.935C186.724 116.381 184.91 114.198 182.6 112.647C180.29 111.096 177.583 110.243 174.801 110.19ZM157.187 93.398C160.425 90.7186 164.234 88.8182 168.322 87.8431C172.41 86.8681 176.667 86.8444 180.766 87.774C174.314 85.2896 167.317 84.5634 160.492 85.6696C153.667 86.7757 147.258 89.6746 141.921 94.0697C136.584 98.4648 132.509 104.199 130.115 110.685C127.72 117.171 127.09 124.176 128.291 130.985C131.784 109.306 150.896 93.6345 172.84 94.4569C170.608 92.7958 167.945 91.8127 165.169 91.6249C162.394 91.4372 159.623 92.0527 157.187 93.398ZM133.536 87.662C135.001 83.7225 137.35 80.1718 140.403 77.2834C143.456 74.395 147.131 72.246 151.146 71.002C144.316 72.0766 137.894 74.9458 132.536 79.3163C127.179 83.6867 123.078 89.4016 120.653 95.8765C118.229 102.351 117.567 109.354 118.737 116.169C119.906 122.983 122.864 129.365 127.308 134.661C119.493 114.139 128.209 91.0119 147.625 80.7536C144.861 80.4303 142.063 80.9099 139.564 82.135C137.066 83.3601 134.973 85.279 133.536 87.662Z" fill="white"/>
</mask>
<g mask="url(#mask0_48_954)">
<path d="M221.78 71.002H47.5352V247.092H221.78V71.002Z" fill="white"/>
</g>
</svg>
