<svg width="270" height="270" viewBox="0 0 270 270" fill="none" xmlns="http://www.w3.org/2000/svg">
<path d="M170.247 83.3975C176.453 87.4062 181.736 92.6891 185.745 98.8956L179.874 111.373C179.728 111.681 179.652 112.017 179.652 112.358C179.652 112.699 179.728 113.035 179.874 113.343C180.531 114.725 184.192 124.451 183.328 132.289H165.069C164.581 125.781 162.015 119.602 157.75 114.663L172.178 100.235C172.581 99.8338 172.821 99.2969 172.852 98.7285C172.882 98.1601 172.7 97.6007 172.342 97.1586C169.261 93.4379 165.677 90.1645 161.693 87.4329L170.247 83.3975Z" fill="white"/>
<path d="M123.612 73.1599C130.836 71.6134 138.305 71.6134 145.529 73.1599L150.198 86.1199C150.3 86.444 150.479 86.7389 150.719 86.9795C150.959 87.22 151.253 87.3994 151.577 87.5022C155.412 88.5102 163.135 92.5095 167.42 98.4625L154.496 111.403C149.556 107.14 143.377 104.575 136.87 104.087V83.6901C136.873 83.1193 136.664 82.5679 136.283 82.143C135.902 81.7182 135.376 81.4503 134.808 81.3916C130.002 80.94 125.156 81.161 120.41 82.0483L123.612 73.1599Z" fill="white"/>
<path d="M83.3984 98.8956C87.4097 92.6911 92.6921 87.4087 98.8965 83.3975L111.374 89.2684C111.991 89.5573 112.763 89.6525 113.344 89.2684C118.108 86.0341 127.243 85.5679 132.293 85.8141V104.074C125.776 104.561 119.589 107.13 114.644 111.402L100.236 96.955C99.8346 96.5507 99.297 96.31 98.7279 96.2796C98.1588 96.2493 97.5987 96.4315 97.1563 96.7908C93.4332 99.8776 90.1596 103.469 87.4306 107.462L83.3984 98.8956Z" fill="white"/>
<path d="M72 134.565C71.9985 130.882 72.3892 127.209 73.1656 123.608L86.119 118.952C86.4449 118.854 86.7415 118.676 86.9826 118.436C87.2236 118.195 87.4018 117.899 87.5014 117.573C88.3223 114.145 93.8385 105.26 98.4617 101.73L111.402 114.641C107.135 119.58 104.568 125.759 104.08 132.267H83.6925C83.1218 132.264 82.5703 132.473 82.1455 132.855C81.7206 133.236 81.4528 133.761 81.3941 134.329C80.9424 139.136 81.1635 143.982 82.0508 148.727L73.1656 145.522C72.389 141.922 71.9983 138.249 72 134.565Z" fill="white"/>
<path d="M98.8966 185.739C92.6931 181.728 87.4109 176.447 83.3984 170.244L89.2693 157.767C89.4191 157.463 89.497 157.129 89.497 156.79C89.497 156.451 89.4191 156.117 89.2693 155.813C87.5652 152.5 84.8071 142.679 85.8151 136.864H104.078C104.565 143.375 107.132 149.556 111.4 154.497L96.9691 168.921C96.5657 169.323 96.3256 169.859 96.2952 170.428C96.2649 170.996 96.4465 171.556 96.805 171.998C99.8855 175.718 103.472 178.988 107.46 181.714L98.8966 185.739Z" fill="white"/>
<path d="M145.532 195.973C138.308 197.519 130.839 197.519 123.615 195.973L118.956 183.01C118.854 182.684 118.676 182.388 118.435 182.147C118.194 181.906 117.898 181.726 117.573 181.624C113.305 180.54 105.319 175.3 101.73 170.664L114.654 157.743C119.594 162.008 125.773 164.572 132.28 165.059V185.446C132.277 186.017 132.487 186.568 132.868 186.993C133.249 187.418 133.774 187.686 134.342 187.744C139.149 188.196 143.995 187.975 148.74 187.088L145.532 195.973Z" fill="white"/>
<path d="M185.742 170.24C181.732 176.445 176.449 181.726 170.244 185.735L157.767 179.867C157.465 179.7 157.126 179.613 156.782 179.613C156.437 179.613 156.098 179.7 155.797 179.867C153.337 181.466 142.699 184.221 136.848 183.322V165.059C143.356 164.573 149.536 162.008 154.477 157.743L168.904 172.168C169.306 172.571 169.843 172.811 170.411 172.841C170.98 172.872 171.539 172.69 171.981 172.332C175.699 169.252 178.969 165.67 181.697 161.687L185.742 170.24Z" fill="white"/>
<path d="M195.983 145.525L183.017 150.194C182.694 150.301 182.401 150.482 182.161 150.722C181.92 150.961 181.739 151.254 181.631 151.576C180.423 155.628 176.193 163.443 170.674 167.419L157.75 154.495C162.016 149.555 164.582 143.375 165.069 136.866H185.453C186.023 136.869 186.574 136.66 186.999 136.28C187.424 135.899 187.692 135.374 187.751 134.807C188.203 130.001 187.982 125.155 187.095 120.409L195.99 123.611C197.539 130.833 197.539 138.302 195.99 145.525H195.983Z" fill="white"/>
</svg>
