<svg width="270" height="270" viewBox="0 0 270 270" fill="none" xmlns="http://www.w3.org/2000/svg">
<path d="M115.595 106.545L124.718 115.638L78.1856 162.04L69.3433 153.164L87.9997 134.691L69 115.759L78.2968 106.414L96.9823 125.196L115.595 106.545Z" fill="white"/>
<path d="M106.617 77.9584L115.252 69.2901L134.193 88.4155L153.478 69C156.664 72.2101 159.604 75.1785 162.567 78.1856L143.534 97.0741L162.098 115.561L153.164 124.491L106.617 77.9584Z" fill="white"/>
<path d="M190.925 106.414L199.786 115.363L181.028 134.068L200.018 153.014C196.634 156.335 193.622 159.299 190.47 162.412L171.809 143.451L153.35 161.982C150.195 158.83 147.193 155.829 144.344 152.98L190.925 106.414Z" fill="white"/>
<path d="M115.682 200.089L106.496 190.83L125.249 172.193L106.578 153.672L115.817 144.419L162.306 190.884L153.526 199.586L134.899 180.789L115.682 200.089Z" fill="white"/>
</svg>
