<svg width="1080" height="1080" viewBox="0 0 1080 1080" fill="none" xmlns="http://www.w3.org/2000/svg">
<rect width="1080" height="1080" fill="#FF3A3A"/>
<path d="M546.031 620.531C546.031 596.415 546.031 572.292 546.031 548.164C546.031 545.136 546.078 545.094 549.393 545.094H612.352C616.149 545.094 616.158 545.094 616.158 548.407V692.706C616.158 696.107 616.158 696.094 612.455 696.094H549.501C546.097 696.094 546.041 696.065 546.041 692.899C546.041 668.782 546.041 644.659 546.041 620.531H546.031ZM585.831 620.598C585.831 606.451 585.831 592.305 585.831 578.161C585.831 571.736 586.543 572.723 579.552 572.664C576.574 572.639 576.42 572.802 576.42 575.53C576.42 604.728 576.42 633.926 576.42 663.123C576.42 669.298 575.586 668.461 582.563 668.524C585.681 668.549 585.84 668.407 585.84 665.541C585.831 650.563 585.823 635.582 585.817 620.598H585.831Z" fill="white"/>
<path d="M534.688 459.755C534.688 483.808 534.688 507.859 534.688 531.909C534.688 534.955 534.688 534.988 531.354 534.996C523.32 534.996 515.28 534.942 507.245 535.034C504.965 535.059 504.295 534.31 504.314 532.344C504.403 524.259 504.356 516.173 504.347 508.083C504.347 505.514 504.145 505.301 501.303 505.322C493.971 505.38 494.973 504.565 494.931 510.969C494.884 518.08 494.931 525.191 494.931 532.303C494.931 534.854 494.743 535.005 491.854 535.005H468.911C464.992 535.005 464.982 535.005 464.982 531.591C464.982 487.463 464.982 443.334 464.982 399.205C464.982 394.951 465.043 390.697 464.954 386.447C464.917 384.607 465.727 384 467.726 384C489.106 384.042 510.488 384.042 531.874 384C534.496 384 534.726 385.117 534.726 386.974C534.676 411.236 534.663 435.496 534.688 459.755ZM504.351 444.613C504.351 435.41 504.351 426.207 504.351 417.004C504.351 410.613 504.984 411.688 498.218 411.566C495.08 411.52 494.94 411.688 494.94 414.495C494.94 433.737 494.907 452.979 494.94 472.188C494.94 478.504 494.003 477.626 501.196 477.734C504.173 477.78 504.342 477.592 504.347 474.877C504.356 464.802 504.358 454.713 504.351 444.613Z" fill="white"/>
<path d="M464.97 620.614C464.97 596.494 464.97 572.372 464.97 548.247C464.97 545.13 465.007 545.109 468.51 545.109C476.154 545.109 483.802 545.109 491.453 545.109C494.824 545.109 494.927 545.206 494.927 548.113C494.927 577.115 494.927 606.118 494.927 635.121C494.927 638.84 494.927 638.848 498.978 638.852C504.873 638.852 504.344 639.367 504.344 633.996C504.344 605.484 504.344 576.973 504.344 548.464C504.344 545.118 504.344 545.118 508.117 545.118C515.843 545.118 523.568 545.118 531.29 545.118C534.615 545.118 534.68 545.185 534.68 548.176C534.68 577.457 534.68 606.739 534.68 636.02C534.68 655.05 534.68 674.081 534.68 693.111C534.68 696.039 534.526 696.127 531.229 696.118C523.349 696.097 515.469 696.118 507.588 696.093C504.432 696.093 504.353 696.018 504.348 693.127C504.348 685.108 504.283 677.094 504.348 669.079C504.372 667.109 503.674 666.326 501.403 666.381C493.953 666.569 494.951 665.544 494.909 672.149C494.862 679.261 494.843 686.372 494.946 693.483C494.974 695.499 494.159 696.148 491.945 696.127C483.985 696.043 476.025 696.102 468.065 696.102C465.092 696.102 464.96 695.984 464.956 693.211C464.95 669.005 464.954 644.806 464.97 620.614Z" fill="white"/>
<path d="M383.009 459.531C383.009 435.763 383.009 411.993 383.009 388.222C383.009 384.039 383.009 384.039 387.757 384.039C408.359 384.039 428.962 384.039 449.564 384.039C453.197 384.039 453.202 384.039 453.202 387.285C453.202 404.222 453.249 421.168 453.155 438.097C453.155 439.854 452.49 441.648 451.882 443.355C450.683 446.743 449.138 450.048 448.084 453.457C447.583 455.096 447.541 456.82 447.963 458.477C449.054 462.392 450.688 466.186 451.825 470.093C452.615 472.554 453.058 475.093 453.146 477.652C453.258 495.773 453.207 513.898 453.202 532.032C453.202 534.96 453.16 534.989 449.957 534.994C441.922 534.994 433.883 534.931 425.848 535.031C423.46 535.061 422.786 534.291 422.795 532.224C422.865 514.522 422.622 496.815 422.959 479.099C423.067 473.39 421.98 468.148 418.899 463.304C416.193 459.05 415.463 455.181 419.185 451.081C422.725 447.178 423.057 442.523 422.903 437.654C422.641 429.505 422.837 421.34 422.823 413.191C422.823 410.518 422.631 410.376 419.62 410.338C418.529 410.338 417.438 410.338 416.343 410.338C413.065 410.338 412.972 410.434 412.972 413.438C412.972 442.998 412.972 472.558 412.972 502.119C412.972 512.158 412.972 522.198 412.972 532.237C412.972 534.86 412.798 535.015 409.98 535.015C401.945 535.015 393.905 534.96 385.87 535.035C383.749 535.035 382.995 534.437 383 532.526C383.053 508.202 383.064 483.876 383.033 459.548L383.009 459.531Z" fill="white"/>
<path d="M546.042 459.492C546.042 435.369 546.042 411.247 546.042 387.125C546.042 384.104 546.103 384.062 549.418 384.062C570.563 384.062 591.71 384.062 612.859 384.062C616.066 384.062 616.179 384.155 616.179 386.991C616.179 398.984 616.146 410.976 616.225 422.965C616.225 424.919 615.434 425.5 613.341 425.475C605.306 425.404 597.267 425.391 589.232 425.475C587.008 425.5 586.156 424.843 586.23 422.831C586.357 419.418 586.23 415.996 586.287 412.583C586.319 410.951 585.542 410.307 583.758 410.382C582.199 410.462 580.635 410.462 579.076 410.382C576.992 410.257 576.388 411.131 576.388 412.892C576.423 443.01 576.423 473.129 576.388 503.247C576.388 505.28 577.24 505.907 579.427 505.874C587.387 505.744 586.249 506.74 586.263 499.8C586.301 479.721 586.301 459.642 586.263 439.564C586.263 436.414 586.263 436.422 589.78 436.422C597.506 436.422 605.231 436.397 612.957 436.422C616.033 436.422 616.193 436.577 616.193 439.221C616.193 470.242 616.193 501.267 616.193 532.294C616.193 534.335 615.584 535.113 613.163 535.105C591.706 535.038 570.247 535.038 548.786 535.105C546.122 535.105 545.977 533.946 545.977 532.122C546.014 507.933 546.022 483.741 546 459.546L546.042 459.492Z" fill="white"/>
<path d="M453.21 650.101C453.21 664.396 453.21 678.688 453.21 692.977C453.21 696.081 453.21 696.073 449.647 696.073L386.675 696.098C383.701 696.098 383.5 695.939 383.5 693.253C383.5 676.8 383.5 660.346 383.5 643.893C383.5 641.019 383.608 640.919 386.778 640.915C394.66 640.915 402.54 640.915 410.419 640.915C413.284 640.915 413.439 641.069 413.443 643.675C413.443 650.996 413.443 658.316 413.443 665.641C413.443 668.356 413.631 668.544 416.595 668.51C423.651 668.427 422.841 669.347 422.864 662.976C422.892 653.497 422.864 644.014 422.864 634.531C422.864 631.733 422.71 631.603 419.526 631.603L386.525 631.637C383.678 631.637 383.514 631.503 383.509 628.884C383.509 601.903 383.509 574.922 383.509 547.942C383.509 545.231 383.664 545.105 386.679 545.105H449.652C453.201 545.105 453.21 545.105 453.21 548.222C453.21 562.584 453.21 576.946 453.21 591.308C453.21 594.357 453.154 594.403 449.872 594.403H426.226C422.949 594.403 422.878 594.344 422.874 591.316C422.874 586.02 422.874 580.72 422.874 575.42C422.874 572.764 422.686 572.63 419.638 572.638C418.546 572.689 417.452 572.689 416.361 572.638C414.047 572.421 413.401 573.383 413.415 575.32C413.49 584.035 413.49 592.749 413.415 601.464C413.415 603.464 414.179 604.137 416.412 604.124C427.495 604.049 438.573 604.087 449.657 604.091C453.192 604.091 453.215 604.12 453.215 607.216C453.231 621.511 453.229 635.806 453.21 650.101Z" fill="white"/>
<path d="M627.462 498.771C627.462 487.683 627.462 476.597 627.462 465.511C627.462 462.884 627.608 462.742 630.454 462.738C638.489 462.738 646.529 462.771 654.564 462.679C656.732 462.654 657.406 463.353 657.373 465.24C657.308 477.718 657.336 490.2 657.345 502.682C657.345 505.69 657.429 505.794 660.712 505.786C667.67 505.765 666.761 506.46 666.799 500.315C666.836 493.203 666.476 486.092 666.911 478.981C667.262 473.196 666.134 467.825 662.861 462.981C659.916 458.622 660.051 454.886 663.47 450.85C666.152 447.683 667.047 443.994 666.897 439.869C666.565 430.955 666.742 422.02 666.845 413.097C666.845 410.972 666.021 410.299 663.708 410.341C656.362 410.45 657.397 409.642 657.397 416.009C657.35 427.027 657.336 438.045 657.429 449.055C657.429 451.176 656.647 451.829 654.311 451.803C646.351 451.703 638.391 451.72 630.431 451.803C628.207 451.803 627.439 451.143 627.444 449.139C627.491 428.302 627.486 407.457 627.43 386.606C627.43 384.745 628.081 384 630.239 384C651.625 384.05 673.007 384.05 694.387 384C696.55 384 697.224 384.707 697.22 386.585C697.168 403.945 697.295 421.305 697.084 438.669C697.051 441.354 696.035 444.228 694.687 446.667C691.268 452.828 691.1 458.835 694.251 465.072C696.972 470.46 697.327 476.187 697.267 482.043C697.093 498.708 697.196 515.369 697.187 532.035C697.187 534.917 697.131 534.963 693.909 534.963C672.761 534.963 651.612 534.963 630.464 534.963C627.594 534.963 627.448 534.829 627.444 532.206C627.45 521.074 627.456 509.929 627.462 498.771Z" fill="white"/>
<path d="M627.511 620.623C627.511 596.437 627.511 572.252 627.511 548.068C627.511 545.173 627.6 545.119 630.76 545.115L693.035 545.094C697.249 545.094 697.249 545.094 697.249 548.925V662.852C697.249 666.386 697.249 666.395 693.209 666.395C682.52 666.395 671.832 666.395 661.144 666.395C658.012 666.395 657.866 666.524 657.866 669.39C657.866 677.338 657.895 685.285 657.866 693.233C657.866 695.948 657.726 696.057 654.687 696.065C646.73 696.065 638.77 696.065 630.807 696.065C627.586 696.065 627.497 696.011 627.492 693.17C627.502 668.992 627.508 644.81 627.511 620.623ZM667.311 605.79C667.311 596.659 667.348 587.527 667.311 578.399C667.278 571.832 668.294 572.756 660.84 572.623C658.587 572.581 657.862 573.304 657.871 575.291C657.927 594.596 657.871 613.905 657.927 633.21C657.927 639.594 656.775 638.795 664.262 638.849C667.114 638.849 667.315 638.678 667.315 636.105C667.306 625.999 667.297 615.894 667.287 605.79H667.311Z" fill="white"/>
<rect x="666.789" y="675.109" width="30.3679" height="20.8551" rx="2" fill="white"/>
</svg>
