<svg width="1080" height="1080" viewBox="0 0 1080 1080" fill="none" xmlns="http://www.w3.org/2000/svg">
<rect width="1080" height="1080" fill="#0D0D0D"/>
<rect x="341" y="341" width="399" height="399" fill="white"/>
<rect x="341" y="341" width="399" height="399" stroke="#FF3A3A"/>
<path d="M547.609 627.496C547.609 601.398 547.609 575.293 547.609 549.182C547.609 545.905 547.659 545.859 551.199 545.859H618.425C622.48 545.859 622.49 545.859 622.49 549.445V705.602C622.49 709.283 622.49 709.269 618.535 709.269H551.314C547.679 709.269 547.619 709.237 547.619 705.811C547.619 679.712 547.619 653.607 547.619 627.496H547.609ZM590.107 627.569C590.107 612.259 590.107 596.951 590.107 581.644C590.107 574.691 590.867 575.759 583.402 575.696C580.222 575.669 580.057 575.845 580.057 578.797C580.057 610.394 580.057 641.991 580.057 673.589C580.057 680.27 579.167 679.365 586.617 679.433C589.947 679.46 590.117 679.306 590.117 676.205C590.107 659.996 590.099 643.784 590.092 627.569H590.107Z" fill="#1F1F1F"/>
<path d="M535.509 453.508C535.509 479.538 535.509 505.565 535.509 531.592C535.509 534.887 535.509 534.924 531.949 534.933C523.369 534.933 514.785 534.874 506.205 534.973C503.771 535 503.056 534.19 503.076 532.063C503.171 523.312 503.121 514.562 503.111 505.807C503.111 503.027 502.896 502.797 499.861 502.819C492.031 502.883 493.101 502 493.056 508.93C493.006 516.626 493.056 524.322 493.056 532.017C493.056 534.779 492.856 534.942 489.771 534.942H465.273C461.088 534.942 461.078 534.942 461.078 531.248C461.078 483.493 461.078 435.738 461.078 387.982C461.078 383.379 461.143 378.775 461.048 374.176C461.008 372.184 461.873 371.527 464.008 371.527C486.837 371.573 509.669 371.573 532.504 371.527C535.304 371.527 535.549 372.736 535.549 374.746C535.495 401.002 535.482 427.256 535.509 453.508ZM503.116 437.121C503.116 427.162 503.116 417.203 503.116 407.244C503.116 400.327 503.791 401.49 496.566 401.359C493.216 401.309 493.066 401.49 493.066 404.528C493.066 425.351 493.031 446.175 493.066 466.962C493.066 473.798 492.066 472.847 499.746 472.965C502.926 473.015 503.106 472.811 503.111 469.873C503.121 458.969 503.122 448.052 503.116 437.121Z" fill="#1F1F1F"/>
<path d="M461.065 627.596C461.065 601.494 461.065 575.39 461.065 549.282C461.065 545.909 461.105 545.887 464.845 545.887C473.007 545.887 481.174 545.887 489.343 545.887C492.943 545.887 493.053 545.991 493.053 549.137C493.053 580.523 493.053 611.909 493.053 643.295C493.053 647.32 493.053 647.329 497.378 647.333C503.672 647.333 503.107 647.89 503.107 642.077C503.107 611.223 503.107 580.369 503.107 549.517C503.107 545.896 503.107 545.896 507.137 545.896C515.386 545.896 523.634 545.896 531.881 545.896C535.43 545.896 535.5 545.968 535.5 549.205C535.5 580.893 535.5 612.581 535.5 644.268C535.5 664.863 535.5 685.457 535.5 706.051C535.5 709.219 535.335 709.315 531.816 709.306C523.401 709.283 514.987 709.306 506.572 709.278C503.202 709.278 503.117 709.197 503.112 706.069C503.112 697.391 503.042 688.717 503.112 680.044C503.137 677.912 502.392 677.065 499.967 677.124C492.013 677.328 493.078 676.219 493.033 683.367C492.983 691.062 492.963 698.758 493.073 706.454C493.103 708.636 492.233 709.337 489.868 709.315C481.369 709.224 472.869 709.287 464.37 709.287C461.195 709.287 461.055 709.161 461.05 706.159C461.043 679.964 461.048 653.776 461.065 627.596Z" fill="#1F1F1F"/>
<path d="M373.549 453.254C373.549 427.533 373.549 401.81 373.549 376.085C373.549 371.559 373.549 371.559 378.619 371.559C400.617 371.559 422.616 371.559 444.615 371.559C448.495 371.559 448.5 371.559 448.5 375.071C448.5 393.401 448.55 411.739 448.45 430.059C448.45 431.96 447.74 433.902 447.09 435.749C445.81 439.416 444.16 442.992 443.035 446.681C442.499 448.455 442.455 450.321 442.905 452.114C444.07 456.351 445.815 460.457 447.03 464.685C447.872 467.348 448.346 470.096 448.44 472.865C448.56 492.475 448.505 512.09 448.5 531.714C448.5 534.882 448.455 534.914 445.035 534.919C436.455 534.919 427.871 534.851 419.291 534.959C416.742 534.991 416.022 534.158 416.032 531.922C416.107 512.764 415.847 493.602 416.207 474.431C416.322 468.252 415.162 462.58 411.872 457.338C408.982 452.734 408.202 448.546 412.177 444.11C415.957 439.887 416.312 434.848 416.147 429.579C415.867 420.761 416.077 411.924 416.062 403.106C416.062 400.213 415.857 400.06 412.642 400.019C411.477 400.019 410.312 400.019 409.142 400.019C405.642 400.019 405.542 400.123 405.542 403.373C405.542 435.363 405.542 467.352 405.542 499.342C405.542 510.207 405.542 521.071 405.542 531.935C405.542 534.774 405.357 534.941 402.347 534.941C393.768 534.941 385.183 534.882 376.604 534.964C374.339 534.964 373.534 534.316 373.539 532.248C373.596 505.926 373.607 479.601 373.574 453.273L373.549 453.254Z" fill="#1F1F1F"/>
<path d="M547.625 453.214C547.625 427.109 547.625 401.004 547.625 374.9C547.625 371.631 547.69 371.586 551.229 371.586C573.808 371.586 596.388 371.586 618.97 371.586C622.395 371.586 622.515 371.686 622.515 374.755C622.515 387.733 622.48 400.712 622.565 413.686C622.565 415.8 621.72 416.429 619.485 416.402C610.906 416.325 602.321 416.311 593.742 416.402C591.367 416.429 590.457 415.718 590.537 413.541C590.672 409.847 590.537 406.144 590.597 402.45C590.632 400.684 589.802 399.987 587.897 400.069C586.232 400.155 584.563 400.155 582.898 400.069C580.673 399.933 580.028 400.879 580.028 402.785C580.064 435.378 580.064 467.971 580.028 500.565C580.028 502.765 580.938 503.444 583.273 503.407C591.772 503.267 590.557 504.344 590.572 496.834C590.612 475.106 590.612 453.377 590.572 431.648C590.572 428.239 590.572 428.248 594.327 428.248C602.576 428.248 610.826 428.221 619.075 428.248C622.36 428.248 622.53 428.416 622.53 431.277C622.53 464.848 622.53 498.422 622.53 531.999C622.53 534.208 621.88 535.05 619.295 535.041C596.383 534.969 573.47 534.969 550.555 535.041C547.71 535.041 547.555 533.787 547.555 531.813C547.595 505.636 547.603 479.456 547.58 453.273L547.625 453.214Z" fill="#1F1F1F"/>
<path d="M448.514 659.491C448.514 674.961 448.514 690.427 448.514 705.891C448.514 709.25 448.514 709.241 444.709 709.241L377.468 709.268C374.293 709.268 374.078 709.096 374.078 706.19C374.078 688.384 374.078 670.579 374.078 652.773C374.078 649.663 374.193 649.554 377.578 649.55C385.994 649.55 394.409 649.55 402.821 649.55C405.881 649.55 406.046 649.717 406.051 652.538C406.051 660.46 406.051 668.382 406.051 676.308C406.051 679.246 406.251 679.45 409.416 679.413C416.951 679.323 416.086 680.319 416.111 673.424C416.141 663.167 416.111 652.904 416.111 642.642C416.111 639.613 415.946 639.473 412.546 639.473L377.308 639.509C374.268 639.509 374.093 639.364 374.088 636.531C374.088 607.333 374.088 578.134 374.088 548.936C374.088 546.003 374.253 545.867 377.473 545.867H444.714C448.504 545.867 448.514 545.867 448.514 549.24C448.514 564.782 448.514 580.324 448.514 595.866C448.514 599.166 448.454 599.216 444.949 599.216H419.7C416.201 599.216 416.126 599.153 416.121 595.875C416.121 590.144 416.121 584.409 416.121 578.673C416.121 575.799 415.921 575.654 412.666 575.663C411.5 575.717 410.332 575.717 409.166 575.663C406.696 575.427 406.006 576.469 406.021 578.565C406.101 587.995 406.101 597.426 406.021 606.857C406.021 609.021 406.836 609.75 409.221 609.736C421.055 609.655 432.885 609.696 444.719 609.7C448.494 609.7 448.519 609.732 448.519 613.082C448.535 628.551 448.534 644.021 448.514 659.491Z" fill="#1F1F1F"/>
<path d="M634.574 495.73C634.574 483.731 634.574 471.733 634.574 459.737C634.574 456.894 634.729 456.741 637.769 456.736C646.348 456.736 654.933 456.772 663.512 456.673C665.827 456.645 666.547 457.401 666.512 459.443C666.442 472.947 666.472 486.455 666.482 499.963C666.482 503.218 666.572 503.331 670.077 503.322C677.507 503.299 676.537 504.051 676.577 497.401C676.617 489.705 676.232 482.009 676.697 474.314C677.072 468.053 675.867 462.241 672.372 456.999C669.227 452.282 669.372 448.239 673.022 443.871C675.887 440.444 676.842 436.451 676.682 431.988C676.327 422.341 676.517 412.672 676.627 403.016C676.627 400.716 675.747 399.988 673.277 400.033C665.432 400.151 666.537 399.277 666.537 406.167C666.487 418.09 666.472 430.014 666.572 441.929C666.572 444.224 665.737 444.93 663.242 444.903C654.743 444.794 646.243 444.812 637.744 444.903C635.369 444.903 634.549 444.188 634.554 442.019C634.604 419.47 634.599 396.912 634.539 374.348C634.539 372.333 635.234 371.527 637.539 371.527C660.374 371.582 683.206 371.582 706.035 371.527C708.345 371.527 709.065 372.292 709.06 374.325C709.005 393.111 709.14 411.898 708.915 430.689C708.88 433.595 707.795 436.705 706.355 439.344C702.705 446.012 702.525 452.512 705.89 459.262C708.795 465.093 709.175 471.29 709.11 477.627C708.925 495.662 709.035 513.693 709.025 531.728C709.025 534.847 708.965 534.896 705.525 534.896C682.943 534.896 660.361 534.896 637.779 534.896C634.714 534.896 634.559 534.752 634.554 531.913C634.561 519.866 634.567 507.805 634.574 495.73Z" fill="#1F1F1F"/>
<path d="M634.614 627.596C634.614 601.422 634.614 575.249 634.614 549.078C634.614 545.945 634.709 545.887 638.084 545.882L704.58 545.859C709.079 545.859 709.079 545.859 709.079 550.006V673.294C709.079 677.12 709.079 677.129 704.765 677.129C693.352 677.129 681.939 677.129 670.527 677.129C667.182 677.129 667.027 677.269 667.027 680.37C667.027 688.971 667.057 697.572 667.027 706.173C667.027 709.111 666.877 709.228 663.632 709.237C655.136 709.237 646.636 709.237 638.134 709.237C634.694 709.237 634.599 709.179 634.594 706.105C634.604 679.94 634.61 653.77 634.614 627.596ZM677.111 611.544C677.111 601.662 677.151 591.78 677.111 581.902C677.076 574.795 678.161 575.795 670.202 575.65C667.797 575.605 667.022 576.388 667.032 578.539C667.092 599.43 667.032 620.326 667.092 641.217C667.092 648.125 665.862 647.261 673.856 647.319C676.901 647.319 677.116 647.134 677.116 644.35C677.106 633.413 677.096 622.478 677.086 611.544H677.111Z" fill="#1F1F1F"/>
<rect x="677" y="686" width="32.4188" height="22.8428" rx="3" fill="#1F1F1F"/>
</svg>
