<svg width="1920" height="1080" viewBox="0 0 1920 1080" fill="none" xmlns="http://www.w3.org/2000/svg">
<rect width="1920" height="1080" fill="white"/>
<path d="M616.176 614H634.176L654.876 496.7H699.876L671.376 659H563.376L607.776 407H652.776L647.976 434H710.976L702.876 479H639.876L616.176 614ZM797.353 659H689.353L728.953 434H836.953L808.453 596H745.453L742.153 614H805.153L797.353 659ZM783.853 479H765.853L753.253 551H771.253L783.853 479ZM943.729 542L923.329 659H878.329L890.929 587H872.929L860.329 659H815.329L859.729 407H904.729L891.829 479H910.129L918.229 434H962.929L947.029 524H884.029L880.729 542H943.729ZM994.106 614H1012.11L1032.81 496.7H1077.81L1049.31 659H941.306L985.706 407H1030.71L1025.91 434H1088.91L1080.81 479H1017.81L994.106 614ZM1194.18 551H1131.18L1127.88 569H1190.88L1175.28 659H1130.58L1138.38 614H1120.08L1112.28 659H1067.28L1106.88 434H1214.88L1194.18 551ZM1157.28 506L1161.78 479H1143.78L1139.28 506H1157.28ZM1226.56 470H1271.56L1238.26 659H1193.26L1226.56 470ZM1237.66 407H1282.66L1274.56 452H1229.56L1237.66 407ZM1301.25 659L1296.45 686H1251.45L1295.85 434H1403.85L1364.25 659H1301.25ZM1332.75 479L1309.05 614H1327.05L1350.75 479H1332.75Z" fill="black"/>
</svg>
