<svg width="1920" height="1080" viewBox="0 0 1920 1080" fill="none" xmlns="http://www.w3.org/2000/svg">
<rect width="1920" height="1080" fill="#0D0D0D"/>
<rect x="761" y="341" width="399" height="399" fill="white"/>
<rect x="761" y="341" width="399" height="399" stroke="#FF3A3A"/>
<path d="M967.609 627.496C967.609 601.398 967.609 575.293 967.609 549.182C967.609 545.905 967.659 545.859 971.199 545.859H1038.43C1042.48 545.859 1042.49 545.859 1042.49 549.445V705.602C1042.49 709.283 1042.49 709.269 1038.54 709.269H971.314C967.679 709.269 967.619 709.237 967.619 705.811C967.619 679.712 967.619 653.607 967.619 627.496H967.609ZM1010.11 627.569C1010.11 612.259 1010.11 596.951 1010.11 581.644C1010.11 574.691 1010.87 575.759 1003.4 575.696C1000.22 575.669 1000.06 575.845 1000.06 578.797C1000.06 610.394 1000.06 641.991 1000.06 673.589C1000.06 680.27 999.167 679.365 1006.62 679.433C1009.95 679.46 1010.12 679.306 1010.12 676.205C1010.11 659.996 1010.1 643.784 1010.09 627.569H1010.11Z" fill="#1F1F1F"/>
<path d="M955.509 453.508C955.509 479.538 955.509 505.565 955.509 531.592C955.509 534.887 955.509 534.924 951.949 534.933C943.369 534.933 934.785 534.874 926.205 534.973C923.771 535 923.056 534.19 923.076 532.063C923.171 523.312 923.121 514.562 923.111 505.807C923.111 503.027 922.896 502.797 919.861 502.819C912.031 502.883 913.101 502 913.056 508.93C913.006 516.626 913.056 524.322 913.056 532.017C913.056 534.779 912.856 534.942 909.771 534.942H885.273C881.088 534.942 881.078 534.942 881.078 531.248C881.078 483.493 881.078 435.738 881.078 387.982C881.078 383.379 881.143 378.775 881.048 374.176C881.008 372.184 881.873 371.527 884.008 371.527C906.837 371.573 929.669 371.573 952.504 371.527C955.304 371.527 955.549 372.736 955.549 374.746C955.495 401.002 955.482 427.256 955.509 453.508ZM923.116 437.121C923.116 427.162 923.116 417.203 923.116 407.244C923.116 400.327 923.791 401.49 916.566 401.359C913.216 401.309 913.066 401.49 913.066 404.528C913.066 425.351 913.031 446.175 913.066 466.962C913.066 473.798 912.066 472.847 919.746 472.965C922.926 473.015 923.106 472.811 923.111 469.873C923.121 458.969 923.122 448.052 923.116 437.121Z" fill="#1F1F1F"/>
<path d="M881.065 627.596C881.065 601.494 881.065 575.39 881.065 549.282C881.065 545.909 881.105 545.887 884.845 545.887C893.007 545.887 901.174 545.887 909.343 545.887C912.943 545.887 913.053 545.991 913.053 549.137C913.053 580.523 913.053 611.909 913.053 643.295C913.053 647.32 913.053 647.329 917.378 647.333C923.672 647.333 923.107 647.89 923.107 642.077C923.107 611.223 923.107 580.369 923.107 549.517C923.107 545.896 923.107 545.896 927.137 545.896C935.386 545.896 943.634 545.896 951.881 545.896C955.43 545.896 955.5 545.968 955.5 549.205C955.5 580.893 955.5 612.581 955.5 644.268C955.5 664.863 955.5 685.457 955.5 706.051C955.5 709.219 955.335 709.315 951.816 709.305C943.401 709.283 934.987 709.305 926.572 709.278C923.202 709.278 923.117 709.197 923.112 706.069C923.112 697.391 923.042 688.717 923.112 680.044C923.137 677.912 922.392 677.065 919.967 677.124C912.013 677.328 913.078 676.219 913.033 683.367C912.983 691.062 912.963 698.758 913.073 706.454C913.103 708.636 912.233 709.337 909.868 709.315C901.369 709.224 892.869 709.287 884.37 709.287C881.195 709.287 881.055 709.161 881.05 706.159C881.043 679.964 881.048 653.776 881.065 627.596Z" fill="#1F1F1F"/>
<path d="M793.549 453.254C793.549 427.533 793.549 401.81 793.549 376.085C793.549 371.559 793.549 371.559 798.619 371.559C820.617 371.559 842.616 371.559 864.615 371.559C868.495 371.559 868.5 371.559 868.5 375.071C868.5 393.401 868.55 411.739 868.45 430.059C868.45 431.96 867.74 433.902 867.09 435.749C865.81 439.416 864.16 442.992 863.035 446.681C862.499 448.455 862.455 450.321 862.905 452.114C864.07 456.351 865.815 460.457 867.03 464.685C867.872 467.348 868.346 470.096 868.44 472.865C868.56 492.475 868.505 512.09 868.5 531.714C868.5 534.882 868.455 534.914 865.035 534.919C856.455 534.919 847.871 534.851 839.291 534.959C836.742 534.991 836.022 534.158 836.032 531.922C836.107 512.764 835.847 493.602 836.207 474.431C836.322 468.252 835.162 462.58 831.872 457.338C828.982 452.734 828.202 448.546 832.177 444.11C835.957 439.887 836.312 434.848 836.147 429.579C835.867 420.761 836.077 411.924 836.062 403.106C836.062 400.213 835.857 400.06 832.642 400.019C831.477 400.019 830.312 400.019 829.142 400.019C825.642 400.019 825.542 400.123 825.542 403.373C825.542 435.363 825.542 467.352 825.542 499.342C825.542 510.207 825.542 521.071 825.542 531.935C825.542 534.774 825.357 534.941 822.347 534.941C813.768 534.941 805.183 534.882 796.604 534.964C794.339 534.964 793.534 534.316 793.539 532.248C793.596 505.926 793.607 479.601 793.574 453.273L793.549 453.254Z" fill="#1F1F1F"/>
<path d="M967.625 453.214C967.625 427.109 967.625 401.004 967.625 374.9C967.625 371.631 967.69 371.586 971.229 371.586C993.808 371.586 1016.39 371.586 1038.97 371.586C1042.4 371.586 1042.52 371.686 1042.52 374.755C1042.52 387.733 1042.48 400.712 1042.57 413.686C1042.57 415.8 1041.72 416.429 1039.49 416.402C1030.91 416.325 1022.32 416.311 1013.74 416.402C1011.37 416.429 1010.46 415.718 1010.54 413.541C1010.67 409.847 1010.54 406.144 1010.6 402.45C1010.63 400.684 1009.8 399.987 1007.9 400.069C1006.23 400.155 1004.56 400.155 1002.9 400.069C1000.67 399.933 1000.03 400.879 1000.03 402.785C1000.06 435.378 1000.06 467.971 1000.03 500.565C1000.03 502.765 1000.94 503.444 1003.27 503.407C1011.77 503.267 1010.56 504.344 1010.57 496.834C1010.61 475.106 1010.61 453.377 1010.57 431.648C1010.57 428.239 1010.57 428.248 1014.33 428.248C1022.58 428.248 1030.83 428.221 1039.08 428.248C1042.36 428.248 1042.53 428.416 1042.53 431.277C1042.53 464.848 1042.53 498.422 1042.53 531.999C1042.53 534.208 1041.88 535.05 1039.3 535.041C1016.38 534.969 993.47 534.969 970.555 535.041C967.71 535.041 967.555 533.787 967.555 531.813C967.595 505.636 967.603 479.456 967.58 453.273L967.625 453.214Z" fill="#1F1F1F"/>
<path d="M868.514 659.491C868.514 674.961 868.514 690.427 868.514 705.891C868.514 709.25 868.514 709.241 864.709 709.241L797.468 709.268C794.293 709.268 794.078 709.096 794.078 706.19C794.078 688.384 794.078 670.579 794.078 652.773C794.078 649.663 794.193 649.554 797.578 649.55C805.994 649.55 814.409 649.55 822.821 649.55C825.881 649.55 826.046 649.717 826.051 652.538C826.051 660.46 826.051 668.382 826.051 676.308C826.051 679.246 826.251 679.45 829.416 679.413C836.951 679.323 836.086 680.319 836.111 673.424C836.141 663.167 836.111 652.904 836.111 642.642C836.111 639.613 835.946 639.473 832.546 639.473L797.308 639.509C794.268 639.509 794.093 639.364 794.088 636.531C794.088 607.333 794.088 578.134 794.088 548.936C794.088 546.003 794.253 545.867 797.473 545.867H864.714C868.504 545.867 868.514 545.867 868.514 549.24C868.514 564.782 868.514 580.324 868.514 595.866C868.514 599.166 868.454 599.216 864.949 599.216H839.7C836.201 599.216 836.126 599.153 836.121 595.875C836.121 590.144 836.121 584.409 836.121 578.673C836.121 575.799 835.921 575.654 832.666 575.663C831.5 575.717 830.332 575.717 829.166 575.663C826.696 575.427 826.006 576.469 826.021 578.565C826.101 587.995 826.101 597.426 826.021 606.857C826.021 609.021 826.836 609.75 829.221 609.736C841.055 609.655 852.885 609.696 864.719 609.7C868.494 609.7 868.519 609.732 868.519 613.082C868.535 628.551 868.534 644.021 868.514 659.491Z" fill="#1F1F1F"/>
<path d="M1054.57 495.73C1054.57 483.731 1054.57 471.733 1054.57 459.737C1054.57 456.894 1054.73 456.741 1057.77 456.736C1066.35 456.736 1074.93 456.772 1083.51 456.673C1085.83 456.645 1086.55 457.401 1086.51 459.443C1086.44 472.947 1086.47 486.455 1086.48 499.963C1086.48 503.218 1086.57 503.331 1090.08 503.322C1097.51 503.299 1096.54 504.051 1096.58 497.401C1096.62 489.705 1096.23 482.009 1096.7 474.314C1097.07 468.053 1095.87 462.241 1092.37 456.999C1089.23 452.282 1089.37 448.239 1093.02 443.871C1095.89 440.444 1096.84 436.451 1096.68 431.988C1096.33 422.341 1096.52 412.672 1096.63 403.016C1096.63 400.716 1095.75 399.988 1093.28 400.033C1085.43 400.151 1086.54 399.277 1086.54 406.167C1086.49 418.09 1086.47 430.014 1086.57 441.929C1086.57 444.224 1085.74 444.93 1083.24 444.903C1074.74 444.794 1066.24 444.812 1057.74 444.903C1055.37 444.903 1054.55 444.188 1054.55 442.019C1054.6 419.47 1054.6 396.912 1054.54 374.348C1054.54 372.333 1055.23 371.527 1057.54 371.527C1080.37 371.582 1103.21 371.582 1126.03 371.527C1128.34 371.527 1129.06 372.292 1129.06 374.325C1129 393.111 1129.14 411.898 1128.91 430.689C1128.88 433.595 1127.79 436.705 1126.35 439.344C1122.71 446.012 1122.53 452.512 1125.89 459.262C1128.79 465.093 1129.17 471.29 1129.11 477.627C1128.92 495.662 1129.03 513.693 1129.02 531.728C1129.02 534.847 1128.96 534.896 1125.52 534.896C1102.94 534.896 1080.36 534.896 1057.78 534.896C1054.71 534.896 1054.56 534.752 1054.55 531.913C1054.56 519.866 1054.57 507.805 1054.57 495.73Z" fill="#1F1F1F"/>
<path d="M1054.61 627.596C1054.61 601.422 1054.61 575.249 1054.61 549.078C1054.61 545.945 1054.71 545.887 1058.08 545.882L1124.58 545.859C1129.08 545.859 1129.08 545.859 1129.08 550.006V673.294C1129.08 677.12 1129.08 677.129 1124.76 677.129C1113.35 677.129 1101.94 677.129 1090.53 677.129C1087.18 677.129 1087.03 677.269 1087.03 680.37C1087.03 688.971 1087.06 697.572 1087.03 706.173C1087.03 709.111 1086.88 709.228 1083.63 709.237C1075.14 709.237 1066.64 709.237 1058.13 709.237C1054.69 709.237 1054.6 709.179 1054.59 706.105C1054.6 679.94 1054.61 653.77 1054.61 627.596ZM1097.11 611.544C1097.11 601.662 1097.15 591.78 1097.11 581.902C1097.08 574.795 1098.16 575.795 1090.2 575.65C1087.8 575.605 1087.02 576.388 1087.03 578.539C1087.09 599.43 1087.03 620.326 1087.09 641.217C1087.09 648.125 1085.86 647.261 1093.86 647.319C1096.9 647.319 1097.12 647.134 1097.12 644.35C1097.11 633.413 1097.1 622.478 1097.09 611.544H1097.11Z" fill="#1F1F1F"/>
<rect x="1097" y="686" width="32.4188" height="22.8428" rx="3" fill="#1F1F1F"/>
</svg>
