<svg width="1920" height="1080" viewBox="0 0 1920 1080" fill="none" xmlns="http://www.w3.org/2000/svg">
<rect width="1920" height="1080" fill="#0D0D0D"/>
<path d="M966.031 620.531C966.031 596.415 966.031 572.292 966.031 548.164C966.031 545.136 966.078 545.094 969.393 545.094H1032.35C1036.15 545.094 1036.16 545.094 1036.16 548.407V692.706C1036.16 696.107 1036.16 696.094 1032.45 696.094H969.501C966.097 696.094 966.041 696.065 966.041 692.899C966.041 668.782 966.041 644.659 966.041 620.531H966.031ZM1005.83 620.598C1005.83 606.451 1005.83 592.305 1005.83 578.161C1005.83 571.736 1006.54 572.723 999.552 572.664C996.574 572.639 996.42 572.802 996.42 575.53C996.42 604.728 996.42 633.926 996.42 663.123C996.42 669.298 995.586 668.461 1002.56 668.524C1005.68 668.549 1005.84 668.407 1005.84 665.541C1005.83 650.563 1005.82 635.582 1005.82 620.598H1005.83Z" fill="white"/>
<path d="M954.688 459.755C954.688 483.808 954.688 507.859 954.688 531.909C954.688 534.955 954.688 534.988 951.354 534.996C943.32 534.996 935.28 534.942 927.245 535.034C924.965 535.059 924.295 534.31 924.314 532.344C924.403 524.259 924.356 516.173 924.347 508.083C924.347 505.514 924.145 505.301 921.303 505.322C913.971 505.38 914.973 504.565 914.931 510.969C914.884 518.08 914.931 525.191 914.931 532.303C914.931 534.854 914.743 535.005 911.854 535.005H888.911C884.992 535.005 884.982 535.005 884.982 531.591C884.982 487.463 884.982 443.334 884.982 399.205C884.982 394.951 885.043 390.697 884.954 386.447C884.917 384.607 885.727 384 887.726 384C909.106 384.042 930.488 384.042 951.874 384C954.496 384 954.726 385.117 954.726 386.974C954.676 411.236 954.663 435.496 954.688 459.755ZM924.351 444.613C924.351 435.41 924.351 426.207 924.351 417.004C924.351 410.613 924.984 411.688 918.218 411.566C915.08 411.52 914.94 411.688 914.94 414.495C914.94 433.737 914.907 452.979 914.94 472.188C914.94 478.504 914.003 477.626 921.196 477.734C924.173 477.78 924.342 477.592 924.347 474.877C924.356 464.802 924.358 454.713 924.351 444.613Z" fill="white"/>
<path d="M884.97 620.614C884.97 596.494 884.97 572.372 884.97 548.247C884.97 545.13 885.007 545.109 888.51 545.109C896.154 545.109 903.802 545.109 911.453 545.109C914.824 545.109 914.927 545.206 914.927 548.113C914.927 577.115 914.927 606.118 914.927 635.121C914.927 638.84 914.927 638.848 918.978 638.852C924.873 638.852 924.344 639.367 924.344 633.996C924.344 605.484 924.344 576.973 924.344 548.464C924.344 545.118 924.344 545.118 928.117 545.118C935.843 545.118 943.568 545.118 951.29 545.118C954.615 545.118 954.68 545.185 954.68 548.176C954.68 577.457 954.68 606.739 954.68 636.02C954.68 655.05 954.68 674.081 954.68 693.111C954.68 696.039 954.526 696.127 951.229 696.118C943.349 696.097 935.469 696.118 927.588 696.093C924.432 696.093 924.353 696.018 924.348 693.127C924.348 685.108 924.283 677.094 924.348 669.079C924.372 667.109 923.674 666.326 921.403 666.381C913.953 666.569 914.951 665.544 914.909 672.149C914.862 679.261 914.843 686.372 914.946 693.483C914.974 695.499 914.159 696.148 911.945 696.127C903.985 696.043 896.025 696.102 888.065 696.102C885.092 696.102 884.96 695.984 884.956 693.211C884.95 669.005 884.954 644.806 884.97 620.614Z" fill="white"/>
<path d="M803.009 459.531C803.009 435.763 803.009 411.993 803.009 388.222C803.009 384.039 803.009 384.039 807.757 384.039C828.359 384.039 848.962 384.039 869.564 384.039C873.197 384.039 873.202 384.039 873.202 387.285C873.202 404.222 873.249 421.168 873.155 438.097C873.155 439.854 872.49 441.648 871.882 443.355C870.683 446.743 869.138 450.048 868.084 453.457C867.583 455.096 867.541 456.82 867.963 458.477C869.054 462.392 870.688 466.186 871.825 470.093C872.615 472.554 873.058 475.093 873.146 477.652C873.258 495.773 873.207 513.898 873.202 532.032C873.202 534.96 873.16 534.989 869.957 534.994C861.922 534.994 853.883 534.931 845.848 535.031C843.46 535.061 842.786 534.291 842.795 532.224C842.865 514.522 842.622 496.815 842.959 479.099C843.067 473.39 841.98 468.148 838.899 463.304C836.193 459.05 835.463 455.181 839.185 451.081C842.725 447.178 843.057 442.523 842.903 437.654C842.641 429.505 842.837 421.34 842.823 413.191C842.823 410.518 842.631 410.376 839.62 410.338C838.529 410.338 837.438 410.338 836.343 410.338C833.065 410.338 832.972 410.434 832.972 413.438C832.972 442.998 832.972 472.558 832.972 502.119C832.972 512.158 832.972 522.198 832.972 532.237C832.972 534.86 832.798 535.015 829.98 535.015C821.945 535.015 813.905 534.96 805.87 535.035C803.749 535.035 802.995 534.437 803 532.526C803.053 508.202 803.064 483.876 803.033 459.548L803.009 459.531Z" fill="white"/>
<path d="M966.042 459.492C966.042 435.369 966.042 411.247 966.042 387.125C966.042 384.104 966.103 384.062 969.418 384.062C990.563 384.062 1011.71 384.062 1032.86 384.062C1036.07 384.062 1036.18 384.155 1036.18 386.991C1036.18 398.984 1036.15 410.976 1036.23 422.965C1036.23 424.919 1035.43 425.5 1033.34 425.475C1025.31 425.404 1017.27 425.391 1009.23 425.475C1007.01 425.5 1006.16 424.843 1006.23 422.831C1006.36 419.418 1006.23 415.996 1006.29 412.583C1006.32 410.951 1005.54 410.307 1003.76 410.382C1002.2 410.462 1000.64 410.462 999.076 410.382C996.992 410.257 996.388 411.131 996.388 412.892C996.423 443.01 996.423 473.129 996.388 503.247C996.388 505.28 997.24 505.907 999.427 505.874C1007.39 505.744 1006.25 506.74 1006.26 499.8C1006.3 479.721 1006.3 459.642 1006.26 439.564C1006.26 436.414 1006.26 436.422 1009.78 436.422C1017.51 436.422 1025.23 436.397 1032.96 436.422C1036.03 436.422 1036.19 436.577 1036.19 439.221C1036.19 470.242 1036.19 501.267 1036.19 532.294C1036.19 534.335 1035.58 535.113 1033.16 535.105C1011.71 535.038 990.247 535.038 968.786 535.105C966.122 535.105 965.977 533.946 965.977 532.122C966.014 507.933 966.022 483.741 966 459.546L966.042 459.492Z" fill="white"/>
<path d="M873.21 650.101C873.21 664.396 873.21 678.688 873.21 692.977C873.21 696.081 873.21 696.073 869.647 696.073L806.675 696.098C803.701 696.098 803.5 695.939 803.5 693.253C803.5 676.8 803.5 660.346 803.5 643.893C803.5 641.019 803.608 640.919 806.778 640.915C814.66 640.915 822.54 640.915 830.419 640.915C833.284 640.915 833.439 641.069 833.443 643.675C833.443 650.996 833.443 658.316 833.443 665.641C833.443 668.356 833.631 668.544 836.595 668.51C843.651 668.427 842.841 669.347 842.864 662.976C842.892 653.497 842.864 644.014 842.864 634.531C842.864 631.733 842.71 631.603 839.526 631.603L806.525 631.637C803.678 631.637 803.514 631.503 803.509 628.884C803.509 601.903 803.509 574.922 803.509 547.942C803.509 545.231 803.664 545.105 806.679 545.105H869.652C873.201 545.105 873.21 545.105 873.21 548.222C873.21 562.584 873.21 576.946 873.21 591.308C873.21 594.357 873.154 594.403 869.872 594.403H846.226C842.949 594.403 842.878 594.344 842.874 591.316C842.874 586.02 842.874 580.72 842.874 575.42C842.874 572.764 842.686 572.63 839.638 572.638C838.546 572.689 837.452 572.689 836.361 572.638C834.047 572.421 833.401 573.383 833.415 575.32C833.49 584.035 833.49 592.749 833.415 601.464C833.415 603.464 834.179 604.137 836.412 604.124C847.495 604.049 858.573 604.087 869.657 604.091C873.192 604.091 873.215 604.12 873.215 607.216C873.231 621.511 873.229 635.806 873.21 650.101Z" fill="white"/>
<path d="M1047.46 498.771C1047.46 487.683 1047.46 476.597 1047.46 465.511C1047.46 462.884 1047.61 462.742 1050.45 462.738C1058.49 462.738 1066.53 462.771 1074.56 462.679C1076.73 462.654 1077.41 463.353 1077.37 465.24C1077.31 477.718 1077.34 490.2 1077.35 502.682C1077.35 505.69 1077.43 505.794 1080.71 505.786C1087.67 505.765 1086.76 506.46 1086.8 500.315C1086.84 493.203 1086.48 486.092 1086.91 478.981C1087.26 473.196 1086.13 467.825 1082.86 462.981C1079.92 458.622 1080.05 454.886 1083.47 450.85C1086.15 447.683 1087.05 443.994 1086.9 439.869C1086.56 430.955 1086.74 422.02 1086.85 413.097C1086.85 410.972 1086.02 410.299 1083.71 410.341C1076.36 410.45 1077.4 409.642 1077.4 416.009C1077.35 427.027 1077.34 438.045 1077.43 449.055C1077.43 451.176 1076.65 451.829 1074.31 451.803C1066.35 451.703 1058.39 451.72 1050.43 451.803C1048.21 451.803 1047.44 451.143 1047.44 449.139C1047.49 428.302 1047.49 407.457 1047.43 386.606C1047.43 384.745 1048.08 384 1050.24 384C1071.62 384.05 1093.01 384.05 1114.39 384C1116.55 384 1117.22 384.707 1117.22 386.585C1117.17 403.945 1117.29 421.305 1117.08 438.669C1117.05 441.354 1116.04 444.228 1114.69 446.667C1111.27 452.828 1111.1 458.835 1114.25 465.072C1116.97 470.46 1117.33 476.187 1117.27 482.043C1117.09 498.708 1117.2 515.369 1117.19 532.035C1117.19 534.917 1117.13 534.963 1113.91 534.963C1092.76 534.963 1071.61 534.963 1050.46 534.963C1047.59 534.963 1047.45 534.829 1047.44 532.206C1047.45 521.074 1047.46 509.929 1047.46 498.771Z" fill="white"/>
<path d="M1047.51 620.623C1047.51 596.437 1047.51 572.252 1047.51 548.068C1047.51 545.173 1047.6 545.119 1050.76 545.115L1113.04 545.094C1117.25 545.094 1117.25 545.094 1117.25 548.925V662.852C1117.25 666.386 1117.25 666.395 1113.21 666.395C1102.52 666.395 1091.83 666.395 1081.14 666.395C1078.01 666.395 1077.87 666.524 1077.87 669.39C1077.87 677.338 1077.89 685.285 1077.87 693.233C1077.87 695.948 1077.73 696.057 1074.69 696.065C1066.73 696.065 1058.77 696.065 1050.81 696.065C1047.59 696.065 1047.5 696.011 1047.49 693.17C1047.5 668.992 1047.51 644.81 1047.51 620.623ZM1087.31 605.79C1087.31 596.659 1087.35 587.527 1087.31 578.399C1087.28 571.832 1088.29 572.756 1080.84 572.623C1078.59 572.581 1077.86 573.304 1077.87 575.291C1077.93 594.596 1077.87 613.905 1077.93 633.21C1077.93 639.594 1076.78 638.795 1084.26 638.849C1087.11 638.849 1087.32 638.678 1087.32 636.105C1087.31 625.999 1087.3 615.894 1087.29 605.79H1087.31Z" fill="white"/>
<rect x="1086.79" y="675.109" width="30.3679" height="20.8551" rx="2" fill="white"/>
</svg>
