<svg width="1920" height="1080" viewBox="0 0 1920 1080" fill="none" xmlns="http://www.w3.org/2000/svg">
<rect width="1920" height="1080" fill="white"/>
<path d="M1025.26 589C1028.17 565.909 1031.06 542.956 1033.98 519.866H1019.74C1016.84 542.827 1013.92 565.863 1011 588.975H982.512C985.419 565.92 988.318 542.931 991.233 519.829H976.992C974.081 542.858 971.178 565.844 968.256 588.949H854C858.079 556.61 862.154 524.293 866.224 492H894.721C891.814 515.065 888.914 538.044 886.011 561.153H900.252C903.162 538.105 906.069 515.109 908.988 492.022H937.481C934.578 515.018 931.682 537.989 928.764 561.12H943.001C945.899 538.154 948.809 515.114 951.729 492H1066C1061.91 524.388 1057.83 556.721 1053.77 589H1025.26Z" fill="black"/>
</svg>
