<svg width="1440" height="800" viewBox="0 0 1440 800" fill="none" xmlns="http://www.w3.org/2000/svg">
<rect width="1440" height="800" fill="black"/>
<path d="M548.338 455.5H557.338L567.688 396.85H590.188L575.938 478H521.938L544.138 352H566.638L564.238 365.5H595.738L591.688 388H560.188L548.338 455.5ZM638.926 478H584.926L604.726 365.5H658.726L644.476 446.5H612.976L611.326 455.5H642.826L638.926 478ZM632.176 388H623.176L616.876 424H625.876L632.176 388ZM712.115 419.5L701.915 478H679.415L685.715 442H676.715L670.415 478H647.915L670.115 352H692.615L686.165 388H695.315L699.365 365.5H721.715L713.765 410.5H682.265L680.615 419.5H712.115ZM737.303 455.5H746.303L756.653 396.85H779.153L764.903 478H710.903L733.103 352H755.603L753.203 365.5H784.703L780.653 388H749.153L737.303 455.5ZM837.341 424H805.841L804.191 433H835.691L827.891 478H805.541L809.441 455.5H800.291L796.391 478H773.891L793.691 365.5H847.691L837.341 424ZM818.891 401.5L821.141 388H812.141L809.891 401.5H818.891ZM853.529 383.5H876.029L859.379 478H836.879L853.529 383.5ZM859.079 352H881.579L877.529 374.5H855.029L859.079 352ZM890.874 478L888.474 491.5H865.974L888.174 365.5H942.174L922.374 478H890.874ZM906.624 388L894.774 455.5H903.774L915.624 388H906.624Z" fill="white"/>
</svg>
