<svg width="1080" height="1080" viewBox="0 0 1080 1080" fill="none" xmlns="http://www.w3.org/2000/svg">
<rect width="1080" height="1080" fill="black"/>
<path d="M544.941 607.292C544.941 585.85 544.941 564.403 544.941 542.952C544.941 540.259 544.983 540.222 547.93 540.222H603.905C607.281 540.222 607.29 540.222 607.29 543.168V671.46C607.29 674.484 607.29 674.473 603.997 674.473H548.026C545 674.473 544.95 674.447 544.95 671.631C544.95 650.19 544.95 628.743 544.95 607.292H544.941ZM580.326 607.351C580.326 594.773 580.326 582.197 580.326 569.621C580.326 563.909 580.959 564.787 574.744 564.734C572.096 564.712 571.959 564.857 571.959 567.282C571.959 593.241 571.959 619.2 571.959 645.159C571.959 650.648 571.218 649.905 577.421 649.96C580.193 649.983 580.335 649.856 580.335 647.309C580.326 633.992 580.319 620.673 580.314 607.351H580.326Z" fill="white"/>
<path d="M534.862 464.352C534.862 485.737 534.862 507.12 534.862 528.502C534.862 531.21 534.862 531.239 531.898 531.247C524.754 531.247 517.606 531.198 510.463 531.28C508.435 531.303 507.84 530.637 507.857 528.889C507.936 521.7 507.894 514.511 507.886 507.318C507.886 505.035 507.707 504.845 505.18 504.864C498.661 504.916 499.552 504.191 499.514 509.885C499.473 516.207 499.514 522.529 499.514 528.852C499.514 531.12 499.348 531.254 496.779 531.254H476.381C472.896 531.254 472.888 531.254 472.888 528.22C472.888 488.986 472.888 449.752 472.888 410.519C472.888 406.736 472.942 402.954 472.863 399.176C472.83 397.539 473.55 397 475.328 397C494.336 397.037 513.346 397.037 532.36 397C534.691 397 534.895 397.993 534.895 399.644C534.85 421.215 534.839 442.784 534.862 464.352ZM507.89 450.889C507.89 442.707 507.89 434.525 507.89 426.343C507.89 420.661 508.452 421.616 502.437 421.509C499.647 421.468 499.523 421.616 499.523 424.112C499.523 441.22 499.493 458.327 499.523 475.405C499.523 481.021 498.69 480.24 505.084 480.337C507.732 480.378 507.882 480.21 507.886 477.797C507.894 468.839 507.896 459.869 507.89 450.889Z" fill="white"/>
<path d="M472.877 607.369C472.877 585.925 472.877 564.479 472.877 543.03C472.877 540.259 472.91 540.24 476.024 540.24C482.821 540.24 489.62 540.24 496.422 540.24C499.42 540.24 499.511 540.326 499.511 542.911C499.511 568.696 499.511 594.481 499.511 620.267C499.511 623.573 499.511 623.581 503.112 623.584C508.353 623.584 507.883 624.042 507.883 619.266C507.883 593.917 507.883 568.57 507.883 543.223C507.883 540.248 507.883 540.248 511.238 540.248C518.107 540.248 524.975 540.248 531.841 540.248C534.796 540.248 534.855 540.307 534.855 542.966C534.855 569 534.855 595.033 534.855 621.066C534.855 637.986 534.855 654.905 534.855 671.824C534.855 674.427 534.717 674.506 531.786 674.498C524.78 674.48 517.774 674.498 510.768 674.476C507.962 674.476 507.891 674.409 507.887 671.839C507.887 664.71 507.829 657.584 507.887 650.458C507.908 648.706 507.288 648.011 505.269 648.059C498.645 648.227 499.532 647.316 499.495 653.188C499.453 659.51 499.436 665.833 499.528 672.155C499.553 673.948 498.829 674.524 496.86 674.506C489.783 674.431 482.706 674.483 475.629 674.483C472.985 674.483 472.869 674.379 472.864 671.913C472.859 650.392 472.863 628.878 472.877 607.369Z" fill="white"/>
<path d="M400.008 464.154C400.008 443.022 400.008 421.889 400.008 400.755C400.008 397.036 400.008 397.036 404.23 397.036C422.546 397.036 440.863 397.036 459.18 397.036C462.411 397.036 462.415 397.036 462.415 399.922C462.415 414.981 462.456 430.046 462.373 445.098C462.373 446.66 461.782 448.255 461.241 449.772C460.175 452.785 458.801 455.723 457.865 458.754C457.419 460.211 457.381 461.744 457.756 463.217C458.726 466.698 460.179 470.071 461.191 473.545C461.893 475.733 462.287 477.99 462.365 480.265C462.465 496.376 462.419 512.491 462.415 528.613C462.415 531.216 462.377 531.242 459.53 531.246C452.386 531.246 445.239 531.19 438.095 531.279C435.972 531.305 435.372 530.621 435.381 528.784C435.443 513.045 435.227 497.302 435.526 481.552C435.622 476.475 434.656 471.815 431.917 467.509C429.511 463.726 428.862 460.286 432.171 456.641C435.318 453.172 435.614 449.032 435.476 444.703C435.243 437.459 435.418 430.199 435.406 422.954C435.406 420.578 435.235 420.451 432.558 420.418C431.588 420.418 430.618 420.418 429.644 420.418C426.73 420.418 426.647 420.503 426.647 423.174C426.647 449.455 426.647 475.736 426.647 502.018C426.647 510.943 426.647 519.869 426.647 528.795C426.647 531.127 426.493 531.264 423.987 531.264C416.843 531.264 409.695 531.216 402.552 531.283C400.666 531.283 399.996 530.751 400 529.051C400.047 507.426 400.057 485.799 400.029 464.169L400.008 464.154Z" fill="white"/>
<path d="M544.955 464.117C544.955 442.67 544.955 421.224 544.955 399.777C544.955 397.092 545.009 397.055 547.956 397.055C566.756 397.055 585.557 397.055 604.36 397.055C607.212 397.055 607.311 397.137 607.311 399.658C607.311 410.321 607.282 420.983 607.353 431.642C607.353 433.379 606.65 433.896 604.789 433.873C597.645 433.81 590.497 433.799 583.354 433.873C581.376 433.896 580.619 433.312 580.685 431.523C580.798 428.488 580.685 425.446 580.735 422.411C580.764 420.961 580.073 420.388 578.487 420.455C577.101 420.526 575.711 420.526 574.324 420.455C572.472 420.343 571.935 421.121 571.935 422.686C571.965 449.464 571.965 476.241 571.935 503.018C571.935 504.826 572.693 505.383 574.637 505.354C581.714 505.238 580.702 506.123 580.715 499.954C580.748 482.102 580.748 464.251 580.715 446.399C580.715 443.599 580.715 443.606 583.841 443.606C590.71 443.606 597.579 443.584 604.447 443.606C607.182 443.606 607.324 443.744 607.324 446.094C607.324 473.675 607.324 501.258 607.324 528.843C607.324 530.658 606.783 531.35 604.631 531.342C585.553 531.283 566.475 531.283 547.394 531.342C545.026 531.342 544.897 530.312 544.897 528.691C544.93 507.185 544.937 485.676 544.918 464.165L544.955 464.117Z" fill="white"/>
<path d="M462.419 633.58C462.419 646.289 462.419 658.996 462.419 671.7C462.419 674.46 462.419 674.452 459.251 674.452L403.263 674.475C400.62 674.475 400.441 674.333 400.441 671.946C400.441 657.317 400.441 642.689 400.441 628.061C400.441 625.506 400.537 625.416 403.355 625.413C410.363 625.413 417.369 625.413 424.374 625.413C426.921 625.413 427.059 625.55 427.063 627.867C427.063 634.376 427.063 640.884 427.063 647.396C427.063 649.81 427.229 649.977 429.864 649.947C436.138 649.873 435.418 650.691 435.439 645.027C435.464 636.6 435.439 628.169 435.439 619.737C435.439 617.249 435.301 617.134 432.47 617.134L403.13 617.164C400.599 617.164 400.453 617.045 400.449 614.717C400.449 590.729 400.449 566.741 400.449 542.753C400.449 540.343 400.587 540.231 403.268 540.231H459.255C462.41 540.231 462.419 540.231 462.419 543.002C462.419 555.771 462.419 568.54 462.419 581.308C462.419 584.02 462.369 584.061 459.45 584.061H438.428C435.514 584.061 435.451 584.008 435.447 581.316C435.447 576.608 435.447 571.895 435.447 567.183C435.447 564.822 435.28 564.703 432.57 564.71C431.6 564.755 430.627 564.755 429.656 564.71C427.6 564.517 427.025 565.372 427.038 567.094C427.104 574.842 427.104 582.59 427.038 590.338C427.038 592.116 427.716 592.715 429.702 592.704C439.556 592.637 449.405 592.67 459.259 592.674C462.402 592.674 462.423 592.7 462.423 595.452C462.437 608.161 462.435 620.871 462.419 633.58Z" fill="white"/>
<path d="M617.347 499.04C617.347 489.182 617.347 479.325 617.347 469.47C617.347 467.134 617.476 467.008 620.007 467.004C627.151 467.004 634.298 467.034 641.442 466.952C643.369 466.929 643.969 467.551 643.94 469.228C643.881 480.322 643.906 491.419 643.915 502.517C643.915 505.191 643.99 505.284 646.908 505.277C653.094 505.258 652.286 505.875 652.32 500.412C652.353 494.09 652.032 487.767 652.42 481.445C652.732 476.301 651.729 471.526 648.819 467.22C646.2 463.344 646.321 460.023 649.36 456.434C651.745 453.619 652.54 450.339 652.407 446.672C652.112 438.746 652.27 430.803 652.361 422.87C652.361 420.98 651.629 420.382 649.572 420.419C643.041 420.516 643.961 419.798 643.961 425.458C643.919 435.254 643.906 445.05 643.99 454.839C643.99 456.724 643.295 457.305 641.217 457.282C634.14 457.193 627.063 457.208 619.986 457.282C618.009 457.282 617.326 456.695 617.33 454.913C617.372 436.387 617.368 417.855 617.318 399.317C617.318 397.662 617.897 397 619.816 397C638.829 397.045 657.84 397.045 676.848 397C678.771 397 679.37 397.629 679.366 399.298C679.32 414.732 679.433 430.167 679.246 445.604C679.216 447.992 678.313 450.547 677.114 452.715C674.075 458.193 673.925 463.534 676.727 469.079C679.146 473.869 679.462 478.961 679.408 484.167C679.254 498.984 679.345 513.797 679.337 528.614C679.337 531.176 679.287 531.217 676.423 531.217C657.621 531.217 638.818 531.217 620.015 531.217C617.464 531.217 617.335 531.098 617.33 528.766C617.336 518.869 617.341 508.96 617.347 499.04Z" fill="white"/>
<path d="M617.388 607.373C617.388 585.87 617.388 564.368 617.388 542.866C617.388 540.293 617.467 540.244 620.277 540.241L675.644 540.222C679.391 540.222 679.391 540.222 679.391 543.629V644.917C679.391 648.06 679.391 648.067 675.798 648.067C666.296 648.067 656.793 648.067 647.291 648.067C644.506 648.067 644.376 648.183 644.376 650.73C644.376 657.796 644.401 664.863 644.376 671.929C644.376 674.343 644.252 674.439 641.55 674.447C634.476 674.447 627.399 674.447 620.319 674.447C617.455 674.447 617.376 674.398 617.372 671.873C617.38 650.377 617.385 628.877 617.388 607.373ZM652.773 594.186C652.773 586.067 652.806 577.948 652.773 569.833C652.744 563.994 653.647 564.816 647.02 564.697C645.018 564.66 644.372 565.303 644.381 567.07C644.431 584.234 644.381 601.401 644.431 618.564C644.431 624.239 643.407 623.529 650.063 623.577C652.598 623.577 652.777 623.425 652.777 621.138C652.769 612.152 652.761 603.168 652.752 594.186H652.773Z" fill="white"/>
<rect x="652.7" y="655.865" width="27.0388" height="26.6791" rx="2" fill="#FF4800"/>
</svg>
