<svg width="1080" height="1080" viewBox="0 0 1080 1080" fill="none" xmlns="http://www.w3.org/2000/svg">
<rect width="1080" height="1080" fill="black"/>
<path d="M352.984 613H346.539L336.188 598.645C333.648 600.923 330.947 603.072 328.082 605.09C325.283 607.043 322.32 608.768 319.195 610.266C316.07 611.698 312.848 612.837 309.527 613.684C306.272 614.53 302.952 614.953 299.566 614.953C292.21 614.953 285.276 613.716 278.766 611.242C272.32 608.768 266.656 605.188 261.773 600.5C256.956 595.747 253.147 589.953 250.348 583.117C247.548 576.281 246.148 568.501 246.148 559.777C246.148 551.639 247.548 544.185 250.348 537.414C253.147 530.578 256.956 524.719 261.773 519.836C266.656 514.953 272.32 511.177 278.766 508.508C285.276 505.773 292.21 504.406 299.566 504.406C302.952 504.406 306.305 504.829 309.625 505.676C312.945 506.522 316.168 507.694 319.293 509.191C322.418 510.689 325.38 512.447 328.18 514.465C331.044 516.483 333.714 518.664 336.188 521.008L346.539 508.605H352.984V613ZM326.129 559.777C326.129 556.132 325.413 552.616 323.98 549.23C322.613 545.78 320.725 542.753 318.316 540.148C315.908 537.479 313.076 535.363 309.82 533.801C306.63 532.173 303.212 531.359 299.566 531.359C295.921 531.359 292.47 531.978 289.215 533.215C286.025 534.452 283.225 536.275 280.816 538.684C278.473 541.092 276.617 544.087 275.25 547.668C273.883 551.184 273.199 555.22 273.199 559.777C273.199 564.335 273.883 568.404 275.25 571.984C276.617 575.5 278.473 578.462 280.816 580.871C283.225 583.28 286.025 585.103 289.215 586.34C292.47 587.577 295.921 588.195 299.566 588.195C303.212 588.195 306.63 587.414 309.82 585.852C313.076 584.224 315.908 582.108 318.316 579.504C320.725 576.835 322.613 573.807 323.98 570.422C325.413 566.971 326.129 563.423 326.129 559.777ZM394.84 479.992C394.84 482.466 394.352 484.777 393.375 486.926C392.464 489.074 391.194 490.962 389.566 492.59C387.939 494.152 386.018 495.422 383.805 496.398C381.656 497.31 379.345 497.766 376.871 497.766C374.397 497.766 372.053 497.31 369.84 496.398C367.691 495.422 365.803 494.152 364.176 492.59C362.613 490.962 361.344 489.074 360.367 486.926C359.456 484.777 359 482.466 359 479.992C359 477.583 359.456 475.305 360.367 473.156C361.344 470.943 362.613 469.055 364.176 467.492C365.803 465.865 367.691 464.595 369.84 463.684C372.053 462.707 374.397 462.219 376.871 462.219C379.345 462.219 381.656 462.707 383.805 463.684C386.018 464.595 387.939 465.865 389.566 467.492C391.194 469.055 392.464 470.943 393.375 473.156C394.352 475.305 394.84 477.583 394.84 479.992ZM390.25 613H363.395V508.41H390.25V613ZM505.734 613H499.289L488.938 598.645C486.398 600.923 483.697 603.072 480.832 605.09C478.033 607.043 475.07 608.768 471.945 610.266C468.82 611.698 465.598 612.837 462.277 613.684C459.022 614.53 455.702 614.953 452.316 614.953C444.96 614.953 438.026 613.586 431.516 610.852C425.07 608.052 419.406 604.211 414.523 599.328C409.706 594.38 405.897 588.553 403.098 581.848C400.298 575.077 398.898 567.72 398.898 559.777C398.898 551.9 400.298 544.576 403.098 537.805C405.897 531.034 409.706 525.174 414.523 520.227C419.406 515.279 425.07 511.405 431.516 508.605C438.026 505.806 444.96 504.406 452.316 504.406C454.66 504.406 457.069 504.602 459.543 504.992C462.082 505.383 464.523 506.034 466.867 506.945C469.276 507.792 471.522 508.931 473.605 510.363C475.689 511.796 477.447 513.553 478.879 515.637V466.809H505.734V613ZM478.879 559.777C478.879 556.132 478.163 552.616 476.73 549.23C475.363 545.78 473.475 542.753 471.066 540.148C468.658 537.479 465.826 535.363 462.57 533.801C459.38 532.173 455.962 531.359 452.316 531.359C448.671 531.359 445.22 532.01 441.965 533.312C438.775 534.615 435.975 536.503 433.566 538.977C431.223 541.385 429.367 544.348 428 547.863C426.633 551.379 425.949 555.35 425.949 559.777C425.949 563.618 426.633 567.264 428 570.715C429.367 574.165 431.223 577.193 433.566 579.797C435.975 582.401 438.775 584.452 441.965 585.949C445.22 587.447 448.671 588.195 452.316 588.195C455.962 588.195 459.38 587.414 462.57 585.852C465.826 584.224 468.658 582.108 471.066 579.504C473.475 576.835 475.363 573.807 476.73 570.422C478.163 566.971 478.879 563.423 478.879 559.777ZM620.219 559.777C620.219 567.59 618.819 574.882 616.02 581.652C613.22 588.358 609.411 594.185 604.594 599.133C599.776 604.016 594.112 607.889 587.602 610.754C581.156 613.553 574.223 614.953 566.801 614.953C559.444 614.953 552.51 613.553 546 610.754C539.555 607.889 533.891 604.016 529.008 599.133C524.19 594.185 520.382 588.358 517.582 581.652C514.783 574.882 513.383 567.59 513.383 559.777C513.383 551.835 514.783 544.478 517.582 537.707C520.382 530.936 524.19 525.109 529.008 520.227C533.891 515.279 539.555 511.405 546 508.605C552.51 505.806 559.444 504.406 566.801 504.406C574.223 504.406 581.156 505.741 587.602 508.41C594.112 511.014 599.776 514.758 604.594 519.641C609.411 524.458 613.22 530.285 616.02 537.121C618.819 543.892 620.219 551.444 620.219 559.777ZM593.363 559.777C593.363 555.48 592.647 551.607 591.215 548.156C589.848 544.641 587.96 541.646 585.551 539.172C583.142 536.633 580.31 534.712 577.055 533.41C573.865 532.043 570.447 531.359 566.801 531.359C563.155 531.359 559.704 532.043 556.449 533.41C553.259 534.712 550.46 536.633 548.051 539.172C545.707 541.646 543.852 544.641 542.484 548.156C541.117 551.607 540.434 555.48 540.434 559.777C540.434 563.814 541.117 567.557 542.484 571.008C543.852 574.458 545.707 577.453 548.051 579.992C550.46 582.531 553.259 584.549 556.449 586.047C559.704 587.479 563.155 588.195 566.801 588.195C570.447 588.195 573.865 587.512 577.055 586.145C580.31 584.777 583.142 582.857 585.551 580.383C587.96 577.909 589.848 574.914 591.215 571.398C592.647 567.883 593.363 564.009 593.363 559.777ZM734.039 559.777C734.039 567.59 732.639 574.882 729.84 581.652C727.04 588.358 723.232 594.185 718.414 599.133C713.596 604.016 707.932 607.889 701.422 610.754C694.977 613.553 688.043 614.953 680.621 614.953C673.264 614.953 666.331 613.553 659.82 610.754C653.375 607.889 647.711 604.016 642.828 599.133C638.01 594.185 634.202 588.358 631.402 581.652C628.603 574.882 627.203 567.59 627.203 559.777C627.203 551.835 628.603 544.478 631.402 537.707C634.202 530.936 638.01 525.109 642.828 520.227C647.711 515.279 653.375 511.405 659.82 508.605C666.331 505.806 673.264 504.406 680.621 504.406C688.043 504.406 694.977 505.741 701.422 508.41C707.932 511.014 713.596 514.758 718.414 519.641C723.232 524.458 727.04 530.285 729.84 537.121C732.639 543.892 734.039 551.444 734.039 559.777ZM707.184 559.777C707.184 555.48 706.467 551.607 705.035 548.156C703.668 544.641 701.78 541.646 699.371 539.172C696.962 536.633 694.13 534.712 690.875 533.41C687.685 532.043 684.267 531.359 680.621 531.359C676.975 531.359 673.525 532.043 670.27 533.41C667.079 534.712 664.28 536.633 661.871 539.172C659.527 541.646 657.672 544.641 656.305 548.156C654.938 551.607 654.254 555.48 654.254 559.777C654.254 563.814 654.938 567.557 656.305 571.008C657.672 574.458 659.527 577.453 661.871 579.992C664.28 582.531 667.079 584.549 670.27 586.047C673.525 587.479 676.975 588.195 680.621 588.195C684.267 588.195 687.685 587.512 690.875 586.145C694.13 584.777 696.962 582.857 699.371 580.383C701.78 577.909 703.668 574.914 705.035 571.398C706.467 567.883 707.184 564.009 707.184 559.777ZM767.641 613H740.785V466.809H767.641V558.996L807.387 508.605H838.051L803.383 552.16L838.051 613H807.387L786.195 575.012L767.641 599.621V613Z" fill="white"/>
</svg>
