<svg width="1440" height="800" viewBox="0 0 1440 800" fill="none" xmlns="http://www.w3.org/2000/svg">
<rect width="1440" height="800" fill="#DE2F2F"/>
<path d="M524 472.995C533.662 424.107 543.342 375.143 553.042 326.103H591.439L582.701 370.688H590.486C593.469 355.854 596.433 341.062 599.445 326.062H637.841C635.127 339.695 632.491 352.977 629.796 366.568L611.185 383.359L623.118 400.129C620.442 413.741 617.767 427.385 615.005 441.463L570.075 474.527L585.472 396.185H577.678C574.665 411.278 571.673 426.205 568.632 441.494L525.097 473.585L524 472.995Z" fill="white"/>
<path d="M889.244 383.379L901.224 400.055C898.594 413.478 895.893 427.28 893.122 441.462L848.143 474.588C853.436 447.673 858.45 422.27 863.54 396.339H855.717L846.671 441.586L801.76 474.577L831.111 326.123H869.468L860.759 370.636H868.544C871.537 355.688 874.501 340.885 877.484 326.02H915.88C913.167 339.673 910.52 352.934 907.816 366.557L889.244 383.379Z" fill="white"/>
<path d="M800.432 441.286H715.644C723.265 402.726 730.819 364.528 738.421 326.092H823.21C815.579 364.569 808.044 402.778 800.432 441.286ZM772.016 350.543L759.053 416.535H766.867C771.198 394.61 775.528 372.83 779.887 350.543H772.016Z" fill="white"/>
<path d="M666.422 416.443H674.12C675.795 408.41 677.488 400.253 679.249 391.806L719.147 383.525L707.801 441.236H622.974C630.585 402.665 638.13 364.405 645.713 326H684.128C678.191 356.217 672.33 386.113 666.422 416.443Z" fill="white"/>
</svg>
