<svg width="1080" height="1080" viewBox="0 0 1080 1080" fill="none" xmlns="http://www.w3.org/2000/svg">
<rect width="1080" height="1080" fill="black"/>
<path d="M344 612.995C353.662 564.107 363.342 515.143 373.042 466.103H411.439L402.701 510.688H410.486C413.469 495.854 416.433 481.062 419.445 466.062H457.841C455.127 479.695 452.491 492.977 449.796 506.568L431.185 523.359L443.118 540.129C440.442 553.741 437.767 567.385 435.005 581.463L390.075 614.527L405.472 536.185H397.678C394.665 551.278 391.673 566.205 388.632 581.494L345.097 613.585L344 612.995Z" fill="white"/>
<path d="M709.244 523.379L721.224 540.055C718.594 553.478 715.893 567.28 713.122 581.462L668.143 614.588C673.436 587.673 678.45 562.27 683.54 536.339H675.717L666.671 581.586L621.76 614.577L651.111 466.123H689.468L680.759 510.636H688.544C691.537 495.688 694.501 480.885 697.484 466.02H735.88C733.167 479.673 730.52 492.934 727.816 506.557L709.244 523.379Z" fill="white"/>
<path d="M620.432 581.286H535.644C543.265 542.726 550.819 504.528 558.421 466.092H643.21C635.579 504.569 628.044 542.778 620.432 581.286ZM592.016 490.543L579.053 556.535H586.867C591.198 534.61 595.528 512.83 599.887 490.543H592.016Z" fill="white"/>
<path d="M486.422 556.443H494.12C495.795 548.41 497.488 540.253 499.249 531.806L539.147 523.525L527.801 581.236H442.974C450.585 542.665 458.13 504.405 465.713 466H504.128C498.191 496.217 492.33 526.113 486.422 556.443Z" fill="white"/>
</svg>
