<svg width="1080" height="1080" viewBox="0 0 1080 1080" fill="none" xmlns="http://www.w3.org/2000/svg">
<rect width="1080" height="1080" fill="black"/>
<path d="M268.665 609.9V504V484.8V459.9H339.465C339.465 477.9 339.465 495.75 339.465 513.75L327.015 521.1L339.465 528.3C339.465 555.45 339.465 582.75 339.465 609.9H268.665ZM293.715 585H314.565V542.7L301.965 535.5L293.715 540.3V585ZM293.715 511.35L314.565 499.35V484.8H293.715V511.35ZM372.084 484.8V526.65L392.934 514.5V484.8H372.084ZM392.934 557.25L380.934 550.35L372.084 555.45V609.9H347.034V505.2V484.8V459.9H417.984C417.984 482.85 417.984 505.95 417.984 529.05C405.984 535.8 405.984 535.8 405.984 535.8L417.984 542.85V571.65V609.9H392.934V557.25ZM471.3 609.9V546.45L450.45 558.45V609.9H425.55V500.1V484.8V459.9H496.35C496.35 509.85 496.35 559.95 496.35 609.9H471.3ZM450.45 529.5L471.3 517.65V484.8H450.45V529.5ZM526.869 459.9V484.8V503.1V511.95L534.519 507.6L551.919 497.55V484.8V459.9H574.869V484.35V484.8V513.15L559.569 522L574.869 530.7V559.65V585V609.9H551.919V585V546.45L534.519 536.4L526.869 540.75V585V609.9H503.919V585V553.95V525.15V518.7V490.05V484.8V459.9H526.869ZM582.435 585L607.485 570.6V585H628.335V542.55L582.435 568.95V496.2V484.8V459.9H653.235V484.8L628.335 499.2V484.8H607.485V525.75L653.235 499.35V609.9H582.435V585ZM685.854 484.8V585H706.704V484.8H685.854ZM660.804 484.8V459.9H731.754V609.9H660.804V506.85V484.8ZM739.319 609.9V501.75V484.8V459.9H764.369L785.219 484.2V459.9H810.269C810.269 509.85 810.269 559.95 810.269 609.9H785.219V522.45L764.369 498.3V609.9H739.319Z" fill="white"/>
</svg>
