<svg width="1440" height="800" viewBox="0 0 1440 800" fill="none" xmlns="http://www.w3.org/2000/svg">
<rect width="1440" height="800" fill="black"/>
<path d="M723.399 443.51C723.399 429.693 723.399 415.873 723.399 402.05C723.399 400.315 723.426 400.291 725.325 400.291H761.394C763.57 400.291 763.575 400.291 763.575 402.189V484.86C763.575 486.808 763.575 486.801 761.453 486.801H725.386C723.436 486.801 723.404 486.784 723.404 484.97C723.404 471.153 723.404 457.333 723.404 443.51H723.399ZM746.2 443.548C746.2 435.443 746.2 427.339 746.2 419.236C746.2 415.554 746.608 416.12 742.603 416.087C740.897 416.072 740.808 416.166 740.808 417.728C740.808 434.456 740.808 451.184 740.808 467.911C740.808 471.449 740.331 470.969 744.328 471.005C746.115 471.02 746.206 470.938 746.206 469.297C746.2 460.715 746.196 452.133 746.192 443.548H746.2Z" fill="white"/>
<path d="M716.904 351.401C716.904 365.181 716.904 378.96 716.904 392.739C716.904 394.483 716.904 394.503 714.994 394.507C710.39 394.507 705.784 394.476 701.181 394.529C699.875 394.543 699.491 394.114 699.502 392.988C699.553 388.356 699.526 383.723 699.521 379.088C699.521 377.617 699.405 377.494 697.777 377.506C693.576 377.54 694.15 377.073 694.126 380.742C694.099 384.816 694.126 388.89 694.126 392.964C694.126 394.426 694.019 394.512 692.364 394.512H679.219C676.974 394.512 676.968 394.512 676.968 392.557C676.968 367.275 676.968 341.993 676.968 316.711C676.968 314.274 677.003 311.837 676.952 309.402C676.931 308.347 677.395 308 678.54 308C690.789 308.024 703.039 308.024 715.291 308C716.794 308 716.925 308.64 716.925 309.704C716.896 323.604 716.889 337.503 716.904 351.401ZM699.523 342.726C699.523 337.453 699.523 332.181 699.523 326.909C699.523 323.247 699.885 323.863 696.009 323.793C694.212 323.767 694.131 323.863 694.131 325.471C694.131 336.495 694.113 347.519 694.131 358.524C694.131 362.142 693.595 361.639 697.715 361.701C699.421 361.728 699.518 361.62 699.521 360.065C699.526 354.292 699.527 348.512 699.523 342.726Z" fill="white"/>
<path d="M676.961 443.56C676.961 429.742 676.961 415.922 676.961 402.1C676.961 400.315 676.983 400.303 678.989 400.303C683.369 400.303 687.75 400.303 692.134 400.303C694.065 400.303 694.124 400.358 694.124 402.023C694.124 418.639 694.124 435.255 694.124 451.871C694.124 454.002 694.124 454.006 696.445 454.009C699.822 454.009 699.519 454.304 699.519 451.227C699.519 434.892 699.519 418.558 699.519 402.225C699.519 400.308 699.519 400.308 701.681 400.308C706.107 400.308 710.532 400.308 714.957 400.308C716.862 400.308 716.899 400.346 716.899 402.059C716.899 418.835 716.899 435.611 716.899 452.386C716.899 463.289 716.899 474.192 716.899 485.094C716.899 486.772 716.811 486.822 714.922 486.817C710.407 486.805 705.893 486.817 701.378 486.803C699.57 486.803 699.524 486.76 699.521 485.104C699.521 480.51 699.484 475.918 699.521 471.326C699.535 470.197 699.135 469.749 697.834 469.78C693.566 469.888 694.138 469.301 694.113 473.085C694.087 477.159 694.076 481.233 694.135 485.307C694.151 486.463 693.684 486.834 692.415 486.822C687.855 486.774 683.295 486.808 678.734 486.808C677.031 486.808 676.956 486.741 676.953 485.152C676.95 471.284 676.952 457.42 676.961 443.56Z" fill="white"/>
<path d="M630.005 351.274C630.005 337.656 630.005 324.039 630.005 310.42C630.005 308.023 630.005 308.023 632.725 308.023C644.529 308.023 656.332 308.023 668.135 308.023C670.217 308.023 670.219 308.023 670.219 309.883C670.219 319.587 670.246 329.295 670.193 338.994C670.193 340 669.812 341.028 669.463 342.006C668.776 343.947 667.891 345.841 667.287 347.794C667 348.733 666.976 349.72 667.218 350.67C667.843 352.913 668.779 355.086 669.431 357.325C669.883 358.735 670.137 360.189 670.187 361.655C670.252 372.037 670.222 382.421 670.219 392.81C670.219 394.488 670.195 394.504 668.36 394.507C663.757 394.507 659.151 394.471 654.548 394.528C653.18 394.545 652.794 394.104 652.799 392.92C652.839 382.778 652.7 372.634 652.893 362.484C652.955 359.213 652.332 356.21 650.567 353.435C649.017 350.998 648.598 348.781 650.731 346.433C652.759 344.197 652.949 341.529 652.861 338.74C652.71 334.071 652.823 329.393 652.815 324.725C652.815 323.193 652.705 323.112 650.98 323.09C650.355 323.09 649.73 323.09 649.102 323.09C647.225 323.09 647.171 323.146 647.171 324.866C647.171 341.802 647.171 358.737 647.171 375.673C647.171 381.424 647.171 387.176 647.171 392.928C647.171 394.43 647.072 394.519 645.457 394.519C640.854 394.519 636.248 394.488 631.644 394.531C630.429 394.531 629.997 394.188 630 393.093C630.03 379.158 630.037 365.221 630.019 351.283L630.005 351.274Z" fill="white"/>
<path d="M723.407 351.249C723.407 337.429 723.407 323.609 723.407 309.789C723.407 308.059 723.442 308.035 725.342 308.035C737.456 308.035 749.571 308.035 761.687 308.035C763.525 308.035 763.589 308.088 763.589 309.713C763.589 316.584 763.571 323.454 763.616 330.323C763.616 331.442 763.163 331.775 761.964 331.761C757.36 331.72 752.755 331.713 748.151 331.761C746.877 331.775 746.389 331.399 746.432 330.246C746.504 328.291 746.432 326.33 746.464 324.375C746.483 323.44 746.037 323.071 745.015 323.114C744.122 323.16 743.226 323.16 742.333 323.114C741.139 323.042 740.793 323.543 740.793 324.552C740.813 341.807 740.813 359.062 740.793 376.317C740.793 377.482 741.281 377.841 742.534 377.822C747.094 377.748 746.442 378.318 746.451 374.342C746.472 362.839 746.472 351.336 746.451 339.832C746.451 338.028 746.451 338.032 748.465 338.032C752.891 338.032 757.318 338.018 761.744 338.032C763.506 338.032 763.597 338.121 763.597 339.636C763.597 357.408 763.597 375.183 763.597 392.958C763.597 394.128 763.249 394.574 761.862 394.569C749.569 394.531 737.274 394.531 724.979 394.569C723.453 394.569 723.37 393.905 723.37 392.86C723.391 379.002 723.396 365.142 723.383 351.28L723.407 351.249Z" fill="white"/>
<path d="M670.222 460.45C670.222 468.639 670.222 476.828 670.222 485.014C670.222 486.792 670.222 486.788 668.181 486.788L632.103 486.802C630.4 486.802 630.284 486.711 630.284 485.172C630.284 475.746 630.284 466.32 630.284 456.893C630.284 455.247 630.346 455.189 632.162 455.187C636.678 455.187 641.192 455.187 645.706 455.187C647.348 455.187 647.436 455.276 647.439 456.769C647.439 460.963 647.439 465.156 647.439 469.353C647.439 470.908 647.546 471.016 649.244 470.997C653.287 470.949 652.823 471.476 652.836 467.826C652.852 462.396 652.836 456.963 652.836 451.53C652.836 449.927 652.748 449.852 650.924 449.852L632.017 449.871C630.386 449.871 630.292 449.795 630.29 448.295C630.29 432.837 630.29 417.379 630.29 401.922C630.29 400.369 630.378 400.297 632.106 400.297H668.183C670.217 400.297 670.222 400.297 670.222 402.082C670.222 410.31 670.222 418.538 670.222 426.767C670.222 428.514 670.19 428.54 668.309 428.54H654.762C652.885 428.54 652.844 428.506 652.842 426.771C652.842 423.737 652.842 420.701 652.842 417.664C652.842 416.143 652.734 416.066 650.988 416.071C650.363 416.1 649.736 416.1 649.11 416.071C647.785 415.946 647.415 416.497 647.423 417.607C647.466 422.6 647.466 427.593 647.423 432.585C647.423 433.731 647.86 434.117 649.14 434.109C655.489 434.066 661.836 434.088 668.186 434.09C670.211 434.09 670.225 434.107 670.225 435.881C670.234 444.07 670.233 452.26 670.222 460.45Z" fill="white"/>
<path d="M770.056 373.754C770.056 367.401 770.056 361.05 770.056 354.699C770.056 353.194 770.139 353.112 771.77 353.11C776.374 353.11 780.979 353.129 785.583 353.076C786.825 353.062 787.211 353.462 787.192 354.543C787.155 361.692 787.171 368.843 787.176 375.994C787.176 377.717 787.224 377.777 789.105 377.772C793.091 377.76 792.571 378.158 792.592 374.638C792.614 370.564 792.407 366.49 792.657 362.416C792.858 359.101 792.211 356.024 790.336 353.249C788.649 350.752 788.727 348.612 790.685 346.299C792.222 344.485 792.734 342.371 792.649 340.008C792.458 334.901 792.56 329.782 792.619 324.67C792.619 323.453 792.147 323.067 790.822 323.091C786.613 323.153 787.206 322.691 787.206 326.338C787.179 332.651 787.171 338.963 787.224 345.271C787.224 346.486 786.776 346.86 785.438 346.845C780.878 346.788 776.317 346.797 771.757 346.845C770.483 346.845 770.043 346.467 770.045 345.319C770.072 333.381 770.07 321.439 770.037 309.493C770.037 308.427 770.41 308 771.647 308C783.899 308.029 796.149 308.029 808.398 308C809.637 308 810.023 308.405 810.021 309.481C809.991 319.427 810.064 329.372 809.943 339.32C809.924 340.859 809.342 342.505 808.57 343.902C806.611 347.432 806.515 350.874 808.32 354.447C809.879 357.534 810.082 360.815 810.048 364.17C809.948 373.718 810.007 383.263 810.002 392.811C810.002 394.462 809.97 394.488 808.124 394.488C796.008 394.488 783.892 394.488 771.776 394.488C770.131 394.488 770.048 394.412 770.045 392.909C770.049 386.531 770.053 380.146 770.056 373.754Z" fill="white"/>
<path d="M770.083 443.563C770.083 429.706 770.083 415.85 770.083 401.995C770.083 400.337 770.134 400.305 771.945 400.303L807.623 400.291C810.037 400.291 810.037 400.291 810.037 402.486V467.756C810.037 469.781 810.037 469.785 807.722 469.785C801.598 469.785 795.475 469.785 789.352 469.785C787.557 469.785 787.474 469.86 787.474 471.501C787.474 476.055 787.49 480.608 787.474 485.162C787.474 486.717 787.393 486.779 785.653 486.784C781.094 486.784 776.534 486.784 771.972 486.784C770.126 486.784 770.075 486.753 770.072 485.126C770.078 471.274 770.081 457.419 770.083 443.563ZM792.885 435.065C792.885 429.833 792.906 424.601 792.885 419.372C792.866 415.61 793.448 416.139 789.177 416.063C787.887 416.039 787.471 416.453 787.477 417.592C787.509 428.652 787.477 439.714 787.509 450.774C787.509 454.431 786.849 453.973 791.138 454.004C792.772 454.004 792.887 453.906 792.887 452.432C792.882 446.642 792.877 440.853 792.871 435.065H792.885Z" fill="white"/>
<rect x="792.838" y="474.811" width="17.4236" height="17.1918" rx="2" fill="#FF4800"/>
</svg>
