<svg width="1080" height="1080" viewBox="0 0 1080 1080" fill="none" xmlns="http://www.w3.org/2000/svg">
<rect width="1080" height="1080" fill="black"/>
<path d="M368.338 576.5H377.338L387.688 517.85H410.188L395.938 599H341.938L364.138 473H386.638L384.238 486.5H415.738L411.688 509H380.188L368.338 576.5ZM458.926 599H404.926L424.726 486.5H478.726L464.476 567.5H432.976L431.326 576.5H462.826L458.926 599ZM452.176 509H443.176L436.876 545H445.876L452.176 509ZM532.115 540.5L521.915 599H499.415L505.715 563H496.715L490.415 599H467.915L490.115 473H512.615L506.165 509H515.315L519.365 486.5H541.715L533.765 531.5H502.265L500.615 540.5H532.115ZM557.303 576.5H566.303L576.653 517.85H599.153L584.903 599H530.903L553.103 473H575.603L573.203 486.5H604.703L600.653 509H569.153L557.303 576.5ZM657.341 545H625.841L624.191 554H655.691L647.891 599H625.541L629.441 576.5H620.291L616.391 599H593.891L613.691 486.5H667.691L657.341 545ZM638.891 522.5L641.141 509H632.141L629.891 522.5H638.891ZM673.529 504.5H696.029L679.379 599H656.879L673.529 504.5ZM679.079 473H701.579L697.529 495.5H675.029L679.079 473ZM710.874 599L708.474 612.5H685.974L708.174 486.5H762.174L742.374 599H710.874ZM726.624 509L714.774 576.5H723.774L735.624 509H726.624Z" fill="white"/>
</svg>
