<svg width="1080" height="1080" viewBox="0 0 1080 1080" fill="none" xmlns="http://www.w3.org/2000/svg">
<rect width="1080" height="1080" fill="black"/>
<path d="M543.399 583.51C543.399 569.693 543.399 555.873 543.399 542.05C543.399 540.315 543.426 540.291 545.325 540.291H581.394C583.57 540.291 583.575 540.291 583.575 542.189V624.86C583.575 626.808 583.575 626.801 581.453 626.801H545.387C543.436 626.801 543.404 626.784 543.404 624.97C543.404 611.153 543.404 597.333 543.404 583.51H543.399ZM566.2 583.548C566.2 575.443 566.2 567.339 566.2 559.236C566.2 555.554 566.608 556.12 562.603 556.087C560.897 556.072 560.809 556.166 560.809 557.728C560.809 574.456 560.809 591.184 560.809 607.911C560.809 611.449 560.331 610.969 564.328 611.005C566.115 611.02 566.206 610.938 566.206 609.297C566.2 600.715 566.196 592.133 566.192 583.548H566.2Z" fill="white"/>
<path d="M536.904 491.401C536.904 505.181 536.904 518.96 536.904 532.739C536.904 534.483 536.904 534.503 534.994 534.507C530.39 534.507 525.785 534.476 521.181 534.529C519.875 534.543 519.491 534.114 519.502 532.988C519.553 528.356 519.526 523.723 519.521 519.088C519.521 517.617 519.405 517.494 517.777 517.506C513.576 517.54 514.15 517.073 514.126 520.742C514.099 524.816 514.126 528.89 514.126 532.964C514.126 534.426 514.019 534.512 512.364 534.512H499.219C496.974 534.512 496.969 534.512 496.969 532.557C496.969 507.275 496.969 481.993 496.969 456.711C496.969 454.274 497.003 451.837 496.952 449.402C496.931 448.347 497.395 448 498.541 448C510.789 448.024 523.039 448.024 535.292 448C536.794 448 536.925 448.64 536.925 449.704C536.897 463.604 536.889 477.503 536.904 491.401ZM519.523 482.726C519.523 477.453 519.523 472.181 519.523 466.909C519.523 463.247 519.886 463.863 516.009 463.793C514.212 463.767 514.132 463.863 514.132 465.471C514.132 476.495 514.113 487.519 514.132 498.524C514.132 502.142 513.595 501.639 517.715 501.701C519.422 501.728 519.518 501.62 519.521 500.065C519.526 494.292 519.527 488.512 519.523 482.726Z" fill="white"/>
<path d="M496.961 583.56C496.961 569.742 496.961 555.922 496.961 542.1C496.961 540.315 496.983 540.303 498.989 540.303C503.369 540.303 507.751 540.303 512.134 540.303C514.065 540.303 514.124 540.358 514.124 542.023C514.124 558.639 514.124 575.255 514.124 591.871C514.124 594.002 514.124 594.006 516.445 594.009C519.822 594.009 519.519 594.304 519.519 591.227C519.519 574.892 519.519 558.558 519.519 542.225C519.519 540.308 519.519 540.308 521.681 540.308C526.107 540.308 530.533 540.308 534.957 540.308C536.862 540.308 536.899 540.346 536.899 542.059C536.899 558.835 536.899 575.611 536.899 592.386C536.899 603.289 536.899 614.192 536.899 625.094C536.899 626.772 536.811 626.822 534.922 626.817C530.407 626.805 525.893 626.817 521.378 626.803C519.57 626.803 519.524 626.76 519.522 625.104C519.522 620.51 519.484 615.918 519.522 611.326C519.535 610.197 519.135 609.749 517.834 609.78C513.566 609.888 514.138 609.301 514.114 613.085C514.087 617.159 514.076 621.233 514.135 625.307C514.151 626.463 513.684 626.834 512.416 626.822C507.855 626.774 503.295 626.808 498.735 626.808C497.031 626.808 496.956 626.741 496.953 625.152C496.95 611.284 496.952 597.42 496.961 583.56Z" fill="white"/>
<path d="M450.005 491.274C450.005 477.656 450.005 464.039 450.005 450.42C450.005 448.023 450.005 448.023 452.725 448.023C464.529 448.023 476.332 448.023 488.135 448.023C490.217 448.023 490.219 448.023 490.219 449.883C490.219 459.587 490.246 469.295 490.193 478.994C490.193 480 489.812 481.028 489.463 482.006C488.776 483.947 487.891 485.841 487.287 487.794C487 488.733 486.976 489.72 487.218 490.67C487.843 492.913 488.779 495.086 489.431 497.325C489.883 498.735 490.137 500.189 490.187 501.655C490.252 512.037 490.222 522.421 490.219 532.81C490.219 534.488 490.195 534.504 488.36 534.507C483.757 534.507 479.151 534.471 474.548 534.528C473.18 534.545 472.794 534.104 472.799 532.92C472.839 522.778 472.7 512.634 472.893 502.484C472.955 499.213 472.332 496.21 470.567 493.435C469.017 490.998 468.598 488.781 470.731 486.433C472.759 484.197 472.949 481.529 472.861 478.74C472.71 474.071 472.823 469.393 472.815 464.725C472.815 463.193 472.705 463.112 470.98 463.09C470.355 463.09 469.73 463.09 469.102 463.09C467.225 463.09 467.171 463.146 467.171 464.866C467.171 481.802 467.171 498.737 467.171 515.673C467.171 521.424 467.171 527.176 467.171 532.928C467.171 534.43 467.072 534.519 465.457 534.519C460.854 534.519 456.248 534.488 451.644 534.531C450.429 534.531 449.997 534.188 450 533.093C450.03 519.158 450.037 505.221 450.019 491.283L450.005 491.274Z" fill="white"/>
<path d="M543.407 491.249C543.407 477.429 543.407 463.609 543.407 449.789C543.407 448.059 543.442 448.035 545.342 448.035C557.456 448.035 569.571 448.035 581.687 448.035C583.525 448.035 583.589 448.088 583.589 449.713C583.589 456.584 583.571 463.454 583.616 470.323C583.616 471.442 583.163 471.775 581.964 471.761C577.36 471.72 572.755 471.713 568.151 471.761C566.877 471.775 566.389 471.399 566.432 470.246C566.504 468.291 566.432 466.33 566.464 464.375C566.483 463.44 566.037 463.071 565.015 463.114C564.122 463.16 563.226 463.16 562.333 463.114C561.139 463.042 560.793 463.543 560.793 464.552C560.813 481.807 560.813 499.062 560.793 516.317C560.793 517.482 561.281 517.841 562.534 517.822C567.094 517.748 566.442 518.318 566.451 514.342C566.472 502.839 566.472 491.336 566.451 479.832C566.451 478.028 566.451 478.032 568.465 478.032C572.891 478.032 577.318 478.018 581.744 478.032C583.506 478.032 583.597 478.121 583.597 479.636C583.597 497.408 583.597 515.183 583.597 532.958C583.597 534.128 583.249 534.574 581.862 534.569C569.569 534.531 557.274 534.531 544.979 534.569C543.453 534.569 543.37 533.905 543.37 532.86C543.391 519.002 543.396 505.142 543.383 491.28L543.407 491.249Z" fill="white"/>
<path d="M490.222 600.45C490.222 608.639 490.222 616.828 490.222 625.014C490.222 626.792 490.222 626.788 488.18 626.788L452.103 626.802C450.399 626.802 450.284 626.711 450.284 625.172C450.284 615.746 450.284 606.32 450.284 596.893C450.284 595.247 450.346 595.189 452.162 595.187C456.677 595.187 461.192 595.187 465.706 595.187C467.348 595.187 467.436 595.276 467.439 596.769C467.439 600.963 467.439 605.156 467.439 609.353C467.439 610.908 467.546 611.016 469.244 610.997C473.287 610.949 472.823 611.476 472.836 607.826C472.852 602.396 472.836 596.963 472.836 591.53C472.836 589.927 472.748 589.852 470.924 589.852L452.017 589.871C450.386 589.871 450.292 589.795 450.289 588.295C450.289 572.837 450.289 557.379 450.289 541.922C450.289 540.369 450.378 540.297 452.106 540.297H488.183C490.217 540.297 490.222 540.297 490.222 542.082C490.222 550.31 490.222 558.538 490.222 566.767C490.222 568.514 490.19 568.54 488.309 568.54H474.762C472.885 568.54 472.844 568.506 472.842 566.771C472.842 563.737 472.842 560.701 472.842 557.664C472.842 556.143 472.734 556.066 470.988 556.071C470.362 556.1 469.736 556.1 469.11 556.071C467.785 555.946 467.415 556.497 467.423 557.607C467.466 562.6 467.466 567.593 467.423 572.585C467.423 573.731 467.86 574.117 469.14 574.109C475.489 574.066 481.836 574.088 488.186 574.09C490.211 574.09 490.225 574.107 490.225 575.881C490.234 584.07 490.233 592.26 490.222 600.45Z" fill="white"/>
<path d="M590.056 513.754C590.056 507.401 590.056 501.05 590.056 494.699C590.056 493.194 590.139 493.112 591.77 493.11C596.374 493.11 600.98 493.129 605.583 493.076C606.825 493.062 607.211 493.462 607.192 494.543C607.155 501.692 607.171 508.843 607.176 515.994C607.176 517.717 607.225 517.777 609.105 517.772C613.091 517.76 612.571 518.158 612.592 514.638C612.614 510.564 612.407 506.49 612.657 502.416C612.858 499.101 612.211 496.024 610.336 493.249C608.649 490.752 608.727 488.612 610.685 486.299C612.222 484.485 612.735 482.371 612.649 480.008C612.458 474.901 612.56 469.782 612.619 464.67C612.619 463.453 612.147 463.067 610.822 463.091C606.613 463.153 607.206 462.691 607.206 466.338C607.179 472.651 607.171 478.963 607.225 485.271C607.225 486.486 606.777 486.86 605.438 486.845C600.878 486.788 596.317 486.797 591.757 486.845C590.483 486.845 590.043 486.467 590.046 485.319C590.072 473.381 590.07 461.439 590.037 449.493C590.037 448.427 590.41 448 591.647 448C603.899 448.029 616.149 448.029 628.398 448C629.637 448 630.024 448.405 630.021 449.481C629.991 459.427 630.064 469.372 629.943 479.32C629.924 480.859 629.342 482.505 628.57 483.902C626.611 487.432 626.515 490.874 628.32 494.447C629.879 497.534 630.083 500.815 630.048 504.17C629.948 513.718 630.007 523.263 630.002 532.811C630.002 534.462 629.97 534.488 628.124 534.488C616.008 534.488 603.892 534.488 591.776 534.488C590.131 534.488 590.048 534.412 590.046 532.909C590.049 526.531 590.053 520.146 590.056 513.754Z" fill="white"/>
<path d="M590.083 583.563C590.083 569.706 590.083 555.85 590.083 541.995C590.083 540.337 590.134 540.305 591.945 540.303L627.623 540.291C630.037 540.291 630.037 540.291 630.037 542.486V607.756C630.037 609.781 630.037 609.785 627.722 609.785C621.598 609.785 615.475 609.785 609.352 609.785C607.557 609.785 607.474 609.86 607.474 611.501C607.474 616.055 607.49 620.608 607.474 625.162C607.474 626.717 607.393 626.779 605.653 626.784C601.094 626.784 596.534 626.784 591.972 626.784C590.126 626.784 590.075 626.753 590.072 625.126C590.078 611.274 590.081 597.419 590.083 583.563ZM612.885 575.065C612.885 569.833 612.906 564.601 612.885 559.372C612.866 555.61 613.448 556.139 609.177 556.063C607.887 556.039 607.471 556.453 607.477 557.592C607.509 568.652 607.477 579.714 607.509 590.774C607.509 594.431 606.849 593.973 611.138 594.004C612.772 594.004 612.887 593.906 612.887 592.432C612.882 586.642 612.877 580.853 612.871 575.065H612.885Z" fill="white"/>
<rect x="612.838" y="614.811" width="17.4236" height="17.1918" rx="2" fill="#FF4800"/>
</svg>
