<svg width="1080" height="1080" viewBox="0 0 1080 1080" fill="none" xmlns="http://www.w3.org/2000/svg">
<rect width="1080" height="1080" fill="#0D0D0D"/>
<path d="M510.188 592.441L527.464 592.44L527.46 531.852L484.219 531.855L484.221 505.877L527.462 505.874L527.469 488.605L466.953 488.544L466.947 592.443L484.21 592.442L484.212 549.124L510.19 549.123L510.188 592.441ZM553.526 592.381L614.036 592.449L614.041 488.549L596.759 488.556L596.757 531.875L570.779 531.876L570.788 488.564L553.538 488.591L553.535 549.172L596.782 549.176L596.781 575.154L553.507 575.124L553.526 592.381ZM575.13 527.538L592.4 527.53L592.429 467.052L488.561 467.038L488.56 484.301L531.872 484.305L531.858 510.271L488.559 510.279L488.558 527.555L549.139 527.552L549.141 484.298L575.12 484.297L575.13 527.538ZM488.495 613.991L592.395 613.947L592.39 596.678L549.103 596.7L549.105 570.722L592.41 570.719L592.418 553.45L531.836 553.453L531.828 596.701L505.85 596.702L505.858 553.455L488.583 553.456L488.495 613.991Z" fill="white"/>
</svg>
