<svg width="1920" height="1080" viewBox="0 0 1920 1080" fill="none" xmlns="http://www.w3.org/2000/svg">
<rect width="1920" height="1080" fill="#0D0D0D"/>
<path d="M930.188 592.441L947.464 592.44L947.46 531.852L904.219 531.855L904.221 505.877L947.462 505.874L947.469 488.605L886.953 488.544L886.947 592.443L904.21 592.442L904.212 549.124L930.19 549.123L930.188 592.441ZM973.526 592.381L1034.04 592.449L1034.04 488.549L1016.76 488.556L1016.76 531.875L990.779 531.876L990.788 488.564L973.538 488.591L973.535 549.172L1016.78 549.176L1016.78 575.154L973.507 575.124L973.526 592.381ZM995.13 527.538L1012.4 527.53L1012.43 467.052L908.561 467.038L908.56 484.301L951.872 484.305L951.858 510.271L908.559 510.279L908.558 527.555L969.139 527.552L969.141 484.298L995.12 484.297L995.13 527.538ZM908.495 613.991L1012.4 613.947L1012.39 596.678L969.103 596.7L969.105 570.722L1012.41 570.719L1012.42 553.45L951.836 553.453L951.828 596.701L925.85 596.702L925.858 553.455L908.583 553.456L908.495 613.991Z" fill="white"/>
</svg>
