<svg width="1080" height="1080" viewBox="0 0 1080 1080" fill="none" xmlns="http://www.w3.org/2000/svg">
<rect width="1080" height="1080" fill="black"/>
<path d="M537.6 419.695C526.36 400.211 501.46 393.539 481.984 404.793C462.508 416.046 455.831 440.964 467.071 460.448C478.311 479.932 503.211 486.604 522.687 475.35C542.163 464.096 548.84 439.179 537.6 419.695Z" fill="black"/>
<path opacity="0.5" d="M485.26 403.068C476.917 408.907 471.062 417.661 468.849 427.603C466.636 437.546 468.224 447.956 473.302 456.782C478.379 465.609 486.578 472.21 496.281 475.286C505.984 478.362 516.488 477.69 525.722 473.401C521.093 476.641 515.841 478.882 510.3 479.982C504.76 481.082 499.051 481.016 493.538 479.789C488.025 478.562 482.828 476.201 478.277 472.855C473.725 469.509 469.92 465.252 467.103 460.355C464.285 455.457 462.517 450.026 461.911 444.407C461.305 438.788 461.873 433.104 463.581 427.717C465.289 422.329 468.098 417.355 471.83 413.111C475.562 408.868 480.136 405.447 485.26 403.068Z" fill="black"/>
<path d="M635.253 420.519C638.985 406.589 630.727 392.274 616.807 388.544C602.888 384.815 588.578 393.083 584.846 407.012C581.114 420.942 589.372 435.257 603.291 438.987C617.211 442.716 631.52 434.448 635.253 420.519Z" fill="black"/>
<path opacity="0.5" d="M599.106 390.044C593.792 393.796 590.069 399.397 588.666 405.751C587.263 412.104 588.281 418.752 591.521 424.392C594.76 430.032 599.988 434.258 606.18 436.242C612.372 438.226 619.082 437.825 624.995 435.117C622.028 437.191 618.662 438.626 615.112 439.329C611.561 440.032 607.904 439.988 604.372 439.2C600.84 438.413 597.51 436.899 594.595 434.754C591.679 432.609 589.242 429.881 587.437 426.743C585.633 423.605 584.5 420.125 584.112 416.524C583.724 412.924 584.089 409.282 585.183 405.83C586.277 402.378 588.077 399.191 590.468 396.472C592.86 393.753 595.79 391.561 599.072 390.036L599.106 390.044Z" fill="black"/>
<path d="M449.118 466.713L384 388.692V490.365V724.584H449.118V568.386L534.251 670.477L576.687 619.667L449.118 466.713Z" fill="white"/>
<path d="M576.687 619.668L696 476.604V578.276L619.071 670.478L576.687 721.34L534.251 670.478L576.687 619.668Z" fill="white"/>
<path d="M576.628 498.064L695.94 355V456.673L619.012 548.874L576.628 599.737L534.192 548.874L576.628 498.064Z" fill="white"/>
</svg>
