<svg width="1080" height="1080" viewBox="0 0 1080 1080" fill="none" xmlns="http://www.w3.org/2000/svg">
<rect width="1080" height="1080" fill="black"/>
<path d="M390.381 841.34L390.381 755.145L539.696 668.94L539.696 668.929L614.348 625.848L614.348 625.827L688.989 582.745L689 582.745L689 668.929L688.989 668.94L614.348 712.032L539.696 755.135L539.696 755.145L390.381 841.34Z" fill="white"/>
<path d="M390.381 668.939L390.381 410.334L689 237.934L689 324.118L688.989 324.118L614.348 367.221L614.348 367.232L465.033 453.437L465.033 539.632L539.675 496.529L539.696 496.539L539.696 496.518L614.337 453.437L614.348 453.437L614.348 539.632L614.337 539.632L539.696 582.734L465.033 625.826L390.381 668.939Z" fill="white"/>
</svg>
