<svg width="1080" height="1080" viewBox="0 0 1080 1080" fill="none" xmlns="http://www.w3.org/2000/svg">
<rect width="1080" height="1080" fill="black"/>
<path d="M329.925 730.471L447.044 384.895C445.369 395.326 443.373 407.194 441.016 420.252C439.531 428.468 439.108 430.43 434.386 455.604C432.175 467.387 429.965 479.169 427.757 490.95L421.123 526.305L414.492 561.65C412.28 573.435 410.069 585.22 407.858 597.004C405.654 608.762 403.458 620.532 401.466 632.441C410.604 626.947 419.435 621.152 428.32 615.446C437.204 609.74 446.028 604.026 454.881 598.31C463.796 592.558 472.709 586.804 481.62 581.048C490.531 575.292 499.45 569.544 508.378 563.803C517.294 558.054 526.207 552.299 535.117 546.539C543.967 540.816 552.809 535.086 561.643 529.35C570.554 523.594 579.474 517.849 588.403 512.116C597.333 506.382 606.247 500.631 615.147 494.861C624 489.148 632.854 483.435 641.707 477.721C650.617 471.975 659.531 466.236 668.544 460.428C669.098 461.314 668.694 462.081 668.559 462.801C665.931 476.873 663.29 490.942 660.638 505.009C649.607 563.715 638.574 622.42 627.54 681.126C627.314 682.489 626.967 683.829 626.505 685.131C629.349 635.667 632.511 586.226 635.631 536.244C601.402 558.26 567.684 580.058 533.859 601.664C499.998 623.3 466.02 644.752 432.093 666.288L330.373 730.871L329.925 730.471Z" fill="white"/>
<path d="M678.508 446.586C678.369 446.528 678.227 446.478 678.082 446.436C678.012 446.426 677.941 446.431 677.873 446.449C677.734 446.487 677.602 446.551 677.465 446.611C677.397 446.643 677.331 446.681 677.269 446.724C677.146 446.804 677.026 446.886 676.904 446.962L676.349 447.309L412.061 617.858C411.939 617.939 411.813 618.008 411.685 618.079C411.62 618.114 411.553 618.144 411.483 618.169C411.414 618.188 411.344 618.206 411.167 618.254C410.626 617.59 411.052 616.878 411.171 616.221C413.932 601.435 416.706 586.651 419.494 571.869C430.364 514.099 441.228 456.326 452.083 398.55C452.379 396.933 452.723 395.319 453.043 393.706L444.145 542.527C450.945 538.416 457.206 534.276 463.541 530.262C469.877 526.248 476.162 522.214 482.473 518.191L501.587 506.002C507.959 501.941 514.331 497.879 520.704 493.816C527.015 489.79 533.325 485.767 539.633 481.746C546.007 477.684 552.38 473.624 558.754 469.565C565.129 465.507 571.499 461.442 577.867 457.371L596.978 445.176C603.288 441.151 609.6 437.127 615.911 433.105C622.281 429.041 628.651 424.975 635.02 420.905C641.39 416.836 647.761 412.773 654.135 408.718L673.068 396.646C679.441 392.582 685.812 388.518 692.181 384.453C698.551 380.388 704.923 376.326 711.299 372.269C717.608 368.244 723.918 364.221 730.228 360.199C736.581 356.149 742.936 352.105 749.193 348.119C749.471 348.313 749.55 348.337 749.583 348.387C749.621 348.45 749.645 348.521 749.653 348.594C749.668 348.804 723.031 427.41 632.263 694.534C647.679 611.876 663.094 529.227 678.508 446.586Z" fill="white"/>
</svg>
