<svg width="1080" height="1080" viewBox="0 0 1080 1080" fill="none" xmlns="http://www.w3.org/2000/svg">
<rect width="1080" height="1080" fill="black"/>
<path d="M342.944 719.394L453.147 394.226C451.571 404.041 449.692 415.207 447.475 427.495C446.077 435.225 445.68 437.071 441.236 460.759C439.156 471.846 437.077 482.932 434.999 494.018L428.757 527.284L422.517 560.542C420.436 571.631 418.355 582.72 416.275 593.809C414.201 604.873 412.134 615.947 410.26 627.153C418.858 621.984 427.168 616.531 435.528 611.162C443.888 605.793 452.191 600.416 460.521 595.038C468.909 589.625 477.296 584.211 485.681 578.795C494.066 573.379 502.458 567.97 510.859 562.569C519.248 557.159 527.634 551.744 536.018 546.324C544.346 540.939 552.666 535.547 560.978 530.15C569.363 524.734 577.757 519.328 586.158 513.933C594.56 508.538 602.948 503.126 611.323 497.698C619.653 492.322 627.984 486.946 636.314 481.57C644.698 476.163 653.086 470.763 661.567 465.298C662.087 466.132 661.707 466.854 661.581 467.531C659.108 480.772 656.623 494.01 654.127 507.247C643.748 562.485 633.367 617.724 622.984 672.963C622.771 674.246 622.445 675.507 622.01 676.731C624.686 630.189 627.661 583.668 630.597 536.636C598.39 557.353 566.662 577.864 534.835 598.193C502.974 618.552 471.002 638.737 439.079 659.001L343.365 719.77L342.944 719.394Z" fill="white"/>
<path d="M670.942 452.273C670.811 452.219 670.677 452.172 670.541 452.132C670.475 452.123 670.408 452.127 670.344 452.145C670.214 452.18 670.09 452.24 669.96 452.296C669.896 452.327 669.835 452.362 669.776 452.403C669.661 452.479 669.548 452.556 669.433 452.627L668.911 452.953L420.23 613.431C420.114 613.507 419.996 613.572 419.876 613.639C419.815 613.672 419.751 613.7 419.686 613.724C419.62 613.741 419.555 613.759 419.389 613.803C418.879 613.179 419.28 612.509 419.392 611.89C421.99 597.978 424.6 584.067 427.223 570.158C437.452 515.8 447.674 461.438 457.888 407.074C458.167 405.552 458.491 404.034 458.791 402.515L450.419 542.549C456.817 538.68 462.708 534.784 468.67 531.008C474.631 527.231 480.545 523.435 486.483 519.65L504.469 508.18C510.464 504.359 516.46 500.537 522.457 496.714C528.395 492.926 534.332 489.14 540.268 485.356C546.265 481.535 552.263 477.714 558.26 473.895C564.258 470.076 570.253 466.252 576.244 462.422L594.226 450.946C600.164 447.159 606.103 443.373 612.042 439.588C618.035 435.765 624.029 431.938 630.022 428.109C636.016 424.28 642.011 420.457 648.008 416.641L665.823 405.283C671.82 401.458 677.814 397.634 683.808 393.809C689.801 389.984 695.797 386.163 701.796 382.345C707.733 378.558 713.67 374.772 719.608 370.987C725.586 367.176 731.565 363.371 737.453 359.621C737.714 359.804 737.788 359.826 737.82 359.873C737.856 359.933 737.878 359.999 737.885 360.068C737.9 360.266 712.836 434.229 627.428 685.579C641.933 607.802 656.438 530.034 670.942 452.273Z" fill="white"/>
</svg>
