<svg width="1080" height="1080" viewBox="0 0 1080 1080" fill="none" xmlns="http://www.w3.org/2000/svg">
<rect width="1080" height="1080" fill="black"/>
<path d="M557.073 704.307L534.467 546.058L703.994 546.058L703.994 704.307L557.073 704.307ZM647.448 647.643L647.448 602.796L599.116 602.796L605.628 647.643L647.448 647.643Z" fill="white"/>
<rect x="363.5" y="363.5" width="353" height="353" stroke="white" stroke-width="7"/>
<path d="M522.491 545.659L545.097 703.908L375.569 703.908L375.569 545.659L522.491 545.659ZM432.116 602.323L432.116 647.17L480.448 647.17L473.936 602.323L432.116 602.323Z" fill="white"/>
<path d="M480.46 432.349L375.532 432.349L375.532 375.989L545.085 375.989L522.522 533.966L375.532 533.966L375.532 477.741L473.862 477.741L480.46 432.349Z" fill="white"/>
<rect x="375.588" y="413.691" width="56.3297" height="105.85" fill="white"/>
<path d="M598.846 477.21L704.02 477.21L704.02 533.604L534.07 533.604L556.686 375.533L704.02 375.533L704.02 431.791L605.46 431.791L598.846 477.21Z" fill="white"/>
</svg>
