<svg width="1080" height="1080" viewBox="0 0 1080 1080" fill="none" xmlns="http://www.w3.org/2000/svg">
<rect width="1080" height="1080" fill="black"/>
<path d="M475.685 443.669L506.949 474.834L347.48 633.856L317.176 603.437L381.113 540.129L316 475.248L347.861 443.222L411.897 507.589L475.685 443.669Z" fill="white"/>
<path d="M444.901 345.701L474.492 315.994L539.407 381.538L605.497 315C616.416 326.001 626.489 336.174 636.646 346.48L571.416 411.212L635.039 474.569L604.42 505.17L444.901 345.701Z" fill="white"/>
<path d="M733.835 443.222L764.204 473.889L699.92 537.992L765 602.923C753.402 614.305 743.08 624.462 732.277 635.132L668.324 570.151L605.066 633.657C594.253 622.855 583.964 612.571 574.2 602.807L733.835 443.222Z" fill="white"/>
<path d="M475.983 764.247L444.503 732.519L508.771 668.648L444.785 605.175L476.447 573.464L635.767 732.701L605.679 762.524L541.842 698.107L475.983 764.247Z" fill="white"/>
</svg>
