<svg width="1080" height="1080" viewBox="0 0 1080 1080" fill="none" xmlns="http://www.w3.org/2000/svg">
<rect width="1080" height="1080" fill="black"/>
<path d="M437.99 536.683L529.828 627.93L500.507 657.495C460.739 617.216 420.923 576.888 381.06 536.513L572.621 334.028C640.091 401.075 707.547 468.107 774.99 535.126C774.579 535.566 774.238 535.963 773.874 536.333C752.145 558.416 730.414 580.498 708.683 602.578C668.514 643.401 628.348 684.225 588.187 725.051C571.223 742.295 554.264 759.541 537.309 776.792C536.459 777.662 535.441 778.35 534.316 778.813C503.03 791.994 471.748 805.188 440.473 818.396C439.933 818.653 439.342 818.785 438.743 818.782C439.136 818.372 439.526 817.962 439.916 817.556C462.898 794.026 485.878 770.497 508.859 746.968C539.653 715.434 570.446 683.898 601.238 652.361C630.356 622.537 659.474 592.712 688.591 562.887C695.794 555.51 702.997 548.131 710.201 540.75C711.43 539.486 712.49 538.111 712.799 536.264C713.239 533.641 712.213 531.572 710.484 529.772C708.351 527.551 706.182 525.367 704.034 523.168C663.974 482.244 623.912 441.32 583.846 400.397C583.379 399.898 582.883 399.425 582.363 398.982C579.627 396.76 575.872 396.834 573.225 399.155C572.785 399.541 572.379 399.967 571.967 400.385L500.327 473.247C479.943 493.979 459.56 514.712 439.177 535.446C438.808 535.817 438.447 536.201 437.99 536.683Z" fill="white"/>
<path d="M641.453 536.544L549.958 442.063C559.213 432.805 568.448 423.628 577.801 414.282L694.451 536.613L501.895 736.236L305 534.778C305.293 534.424 305.491 534.155 305.721 533.917C336.106 502.668 366.492 471.419 396.88 440.171C416.298 420.202 435.715 400.232 455.131 380.258C470.63 364.319 486.121 348.372 501.604 332.419C502.62 331.383 503.63 331 505.054 331C521.327 331.04 537.6 331.045 553.873 331.015C554.446 331.015 555.019 331.015 555.787 331.015C555.418 331.912 554.827 332.346 554.349 332.846C547.256 340.263 540.158 347.674 533.055 355.078C513.011 376.004 492.968 396.931 472.926 417.858C456.501 435.013 440.077 452.167 423.656 469.318C408.007 485.658 392.357 501.996 376.705 518.332C373.223 521.966 369.749 525.604 366.28 529.248C365.612 529.959 365 530.72 364.449 531.525C362.851 533.828 362.866 536.595 364.474 538.928C364.933 539.617 365.451 540.265 366.022 540.865C402.563 577.99 439.11 615.11 475.663 652.222C482.04 658.699 488.419 665.174 494.801 671.646C495.387 672.232 495.973 672.844 496.648 673.308C499.051 674.956 502.072 674.947 504.501 673.301C505.14 672.851 505.734 672.341 506.277 671.778C550.998 627.065 595.716 582.351 640.43 537.636C640.732 537.32 641.026 536.997 641.453 536.544Z" fill="white"/>
</svg>
