<svg width="1080" height="1080" viewBox="0 0 1080 1080" fill="none" xmlns="http://www.w3.org/2000/svg">
<rect width="1080" height="1080" fill="black"/>
<path d="M443.403 688.22V657.236C443.403 656.75 443.384 656.264 443.403 655.778C443.427 654.896 443.061 654.274 442.347 653.73C438.58 650.857 434.813 647.99 431.117 645.025C429.101 643.405 427.21 641.623 425.312 639.866C423.293 637.995 421.28 636.114 419.358 634.147C414.693 629.365 410.3 624.325 406.2 619.051C400.611 611.875 395.717 604.243 391.383 596.261C387.506 589.147 384.155 581.758 381.357 574.155C378.383 566.039 376.09 557.737 374.352 549.27C373.184 543.554 372.329 537.778 371.791 531.969C371.505 528.91 371.394 525.833 371.227 522.763C371.124 520.865 370.967 518.962 371.006 517.064C371.091 513.02 371.265 508.978 371.443 504.937C371.697 499.183 372.437 493.481 373.416 487.813C375.586 475.236 379.033 463.026 383.971 451.24C388.261 440.953 393.551 431.113 399.766 421.862C403.633 416.113 407.758 410.548 412.388 405.388C415.414 402.014 418.425 398.613 421.662 395.449C427.588 389.635 433.937 384.267 440.657 379.39C446.527 375.136 452.649 371.241 458.989 367.725C465.696 364.03 472.656 360.816 479.818 358.107C488.414 354.836 497.261 352.264 506.272 350.418C512.264 349.195 518.319 348.3 524.409 347.738C531.344 347.091 538.311 346.869 545.273 347.073C566.584 347.718 587.582 352.376 607.166 360.803C621.928 367.136 635.447 375.526 647.862 385.703C653.307 390.177 658.457 394.998 663.281 400.135C669.093 406.29 674.427 412.879 679.238 419.844C684.331 427.208 688.841 434.958 692.726 443.025C697.305 452.581 701.018 462.466 703.683 472.727C705.352 479.167 706.747 485.654 707.649 492.242C708.302 497.014 708.765 501.805 709.066 506.619C709.394 511.884 709.335 517.148 709.204 522.404C709.063 528.025 708.51 533.63 707.737 539.21C705.363 556.373 700.334 573.063 692.83 588.682C688.931 596.876 684.364 604.735 679.176 612.181C675.556 617.36 671.662 622.343 667.512 627.108C663.736 631.456 659.657 635.507 655.51 639.484C652.623 642.255 649.521 644.807 646.421 647.343C643.79 649.496 641.044 651.51 638.311 653.533C637.482 654.14 637.036 654.847 637.08 655.874C637.103 656.4 637.08 656.928 637.08 657.454C637.08 677.786 637.074 698.118 637.063 718.449C637.078 720.069 636.944 721.687 636.662 723.282C636.136 726.056 634.661 728.561 632.49 730.367C630.319 732.172 627.588 733.166 624.764 733.178C617.231 733.224 609.697 733.19 602.164 733.189C602.002 733.189 601.839 733.189 601.678 733.178C600.565 733.098 600.253 732.805 600.169 731.697C600.129 731.173 600.142 730.645 600.142 730.118C600.142 718.979 600.05 707.841 600.183 696.704C600.239 692.033 596.96 687.535 593.117 686.005C588.422 684.136 583.292 685.11 579.994 688.598C578.135 690.563 576.956 692.885 576.809 695.645C576.71 697.625 576.591 699.606 576.586 701.587C576.564 711.266 576.56 720.946 576.575 730.627C576.588 731.113 576.575 731.6 576.535 732.085C576.452 732.827 576.205 733.057 575.458 733.158C575.135 733.19 574.811 733.202 574.486 733.193C567.682 733.193 560.878 733.193 554.073 733.193C552.185 733.193 552.023 733.023 552.022 731.08C552.017 722.535 552.017 713.989 552.022 705.442C552.022 702.566 552.039 699.69 552.013 696.815C551.982 693.586 550.816 690.815 548.54 688.519C545.138 685.088 539.92 684.031 535.539 686.076C530.998 688.192 528.471 691.756 528.464 696.882C528.449 708.142 528.449 719.401 528.464 730.661C528.464 733.163 528.434 733.193 525.98 733.194H506.296C503.724 733.194 503.677 733.146 503.677 730.512C503.677 719.212 503.677 707.913 503.677 696.613C503.677 693.91 502.843 691.531 501.137 689.444C499.612 687.555 497.539 686.185 495.203 685.521C492.868 684.858 490.384 684.934 488.093 685.739C483.367 687.368 480.358 691.563 480.124 696.864C480.1 697.43 480.108 697.998 480.108 698.565C480.108 709.258 480.108 719.95 480.108 730.642C480.122 731.129 480.109 731.616 480.067 732.101C479.983 732.838 479.733 733.073 478.981 733.161C478.577 733.197 478.171 733.209 477.766 733.198C470.517 733.198 463.267 733.198 456.016 733.198C449.427 733.187 444.51 728.887 443.623 722.358C443.487 721.356 443.418 720.346 443.417 719.334C443.399 708.959 443.394 698.588 443.403 688.22ZM622.956 551.468C625.955 551.711 630.68 549.281 632.777 546.06C634.285 543.742 635.006 541.269 634.918 538.487C634.825 535.505 633.855 532.874 631.817 530.778C628.206 527.065 624.444 523.498 620.748 519.866C619.853 518.986 618.947 518.115 618.085 517.204C617.407 516.489 617.426 516.154 618.046 515.426C618.177 515.273 618.324 515.132 618.467 514.989C621.819 511.638 625.169 508.288 628.52 504.938C629.603 503.853 630.761 502.828 631.747 501.657C634.192 498.76 635.054 495.384 634.358 491.671C633.066 484.791 626.359 480.324 619.494 481.655C616.587 482.218 614.262 483.741 612.204 485.773C610.304 487.654 608.42 489.55 606.53 491.44C604.554 493.415 602.577 495.39 600.6 497.364C599.394 498.565 599.186 498.555 597.944 497.334C597.684 497.078 597.428 496.819 597.17 496.561C593.62 493.011 590.081 489.446 586.506 485.921C585.677 485.09 584.771 484.34 583.801 483.68C579.495 480.82 575.015 480.684 570.46 483.045C565.712 485.505 563.19 491.258 564.184 496.168C564.681 498.687 565.916 501.002 567.733 502.818C569.264 504.374 570.909 505.819 572.472 507.352C575.096 509.939 577.704 512.543 580.294 515.165C581.266 516.148 581.248 516.439 580.254 517.473C580.058 517.678 579.858 517.879 579.654 518.081C577.699 519.958 575.726 521.819 573.789 523.716C571.735 525.73 569.754 527.815 567.676 529.801C564.727 532.62 563.408 536.048 563.718 540.083C563.984 543.473 565.411 546.313 568.056 548.474C570.597 550.55 573.496 551.584 576.823 551.427C579.911 551.282 582.62 550.245 584.831 548.114C589.205 543.901 593.512 539.619 597.847 535.368C598.107 535.112 598.368 534.857 598.645 534.622C599.081 534.257 599.531 534.272 599.965 534.635C600.151 534.79 600.329 534.957 600.502 535.121C604.78 539.315 609.056 543.512 613.329 547.711C615.819 550.173 618.81 551.372 622.956 551.468ZM515.335 493.733C515.518 491.903 514.911 489.973 513.952 488.086C513.308 486.82 512.373 485.846 511.38 484.892C508.398 482.016 504.819 481.004 500.771 481.611C497.809 482.05 495.386 483.541 493.299 485.621C489.336 489.561 485.401 493.519 481.437 497.468C480.368 498.533 480.091 498.531 479.043 497.511C475.964 494.522 472.891 491.529 469.823 488.532C468.751 487.485 467.688 486.43 466.645 485.354C464.69 483.335 462.319 482.139 459.565 481.632C453.065 480.434 446.362 485.002 445.136 491.497C444.315 495.846 445.556 499.575 448.57 502.754C449.321 503.547 450.105 504.311 450.887 505.075C454.186 508.3 457.487 511.523 460.79 514.746C462.338 516.266 462.336 516.354 460.747 517.905C459.766 518.867 458.712 519.757 457.737 520.725C454.374 524.062 451.026 527.414 447.693 530.78C447.132 531.364 446.64 532.012 446.229 532.71C443.737 536.824 444.163 543.052 447.212 546.751C451.874 552.41 460.509 553.178 465.975 547.906C470.227 543.802 474.422 539.643 478.638 535.498C480.203 533.958 480.247 533.95 481.812 535.512C485.564 539.261 489.3 543.026 493.072 546.758C495.982 549.637 499.257 551.648 503.601 551.44C508.34 551.213 511.935 549.118 514.213 545.047C516.793 540.429 516.475 535.777 513.269 531.598C511.46 529.24 509.175 527.24 507.058 525.125C504.397 522.464 501.678 519.86 499.01 517.205C498.312 516.511 498.345 516.154 498.972 515.431C499.215 515.155 499.477 514.906 499.735 514.648C503.744 510.639 507.753 506.629 511.764 502.619C514.143 500.25 515.455 497.445 515.335 493.733Z" fill="white"/>
</svg>
