<svg width="1080" height="1080" viewBox="0 0 1080 1080" fill="none" xmlns="http://www.w3.org/2000/svg">
<rect width="1080" height="1080" fill="black"/>
<path d="M610.298 516.303V514.211C610.384 503.236 610.463 492.261 610.535 481.286C610.569 480.207 610.463 479.129 610.219 478.078C609.901 476.641 609.137 475.34 608.036 474.362C606.936 473.384 605.555 472.778 604.09 472.63C603.395 472.523 602.692 472.47 601.988 472.472C591.184 472.472 580.373 472.472 569.556 472.472C568.039 472.38 566.522 472.669 565.144 473.311C563.825 473.963 562.723 474.985 561.973 476.252C561.223 477.519 560.857 478.976 560.92 480.447C560.92 484.069 560.92 487.691 560.92 491.303V493.179C560.219 492.823 559.706 492.577 559.203 492.31L525.586 474.377C522.754 472.759 519.501 472.03 516.25 472.285C513.333 472.526 510.568 473.687 508.354 475.601C498.754 483.924 489.147 492.235 479.534 500.532C466.033 512.204 452.544 523.883 439.069 535.569C438.282 536.297 437.238 536.684 436.167 536.645C397.083 536.645 357.992 536.645 318.895 536.645H317V369.186H761.976H762.134L762.292 369.235C762.627 370.36 762.756 533.881 762.4 536.457C761.966 536.457 761.502 536.566 761.038 536.566C723.573 536.566 686.104 536.566 648.632 536.566C647.886 536.577 647.148 536.407 646.481 536.072C634.749 529.736 623.027 523.364 611.315 516.955C610.979 516.767 610.673 516.55 610.298 516.303Z" fill="white"/>
<path d="M572.714 516.588V487.67H595.503C595.414 500.145 595.326 512.611 595.237 525.175C596.836 526.083 598.375 526.971 599.935 527.83C614.7 535.963 629.475 544.085 644.26 552.198C644.763 552.416 645.185 552.789 645.462 553.263C645.739 553.737 645.857 554.288 645.799 554.834C645.76 594.464 645.76 634.087 645.799 673.704V675.678H439.641C439.641 675.066 439.572 674.494 439.572 673.921V654.281C439.572 621.836 439.572 589.397 439.572 556.965C439.538 556.387 439.646 555.809 439.885 555.282C440.124 554.754 440.487 554.292 440.943 553.935C466.092 532.137 491.233 510.315 516.368 488.47C516.812 488.085 517.266 487.71 517.789 487.275L572.714 516.588Z" fill="white"/>
<path d="M645.437 619.059H439.209V745.632H645.437V619.059Z" fill="white"/>
<path d="M762.19 355H317V389.917H762.19V355Z" fill="white"/>
</svg>
