<svg width="1080" height="1080" viewBox="0 0 1080 1080" fill="none" xmlns="http://www.w3.org/2000/svg">
<rect width="1080" height="1080" fill="black"/>
<path d="M559.444 727.127L533.698 546.898L726.771 546.898L726.771 727.127L559.444 727.127ZM662.371 662.593L662.371 611.517L607.326 611.517L614.743 662.593L662.371 662.593Z" fill="white"/>
<rect x="338.5" y="338.5" width="403" height="403" stroke="white" stroke-width="7"/>
<path d="M520.059 546.443L545.805 726.672L352.732 726.672L352.732 546.443L520.059 546.443ZM417.132 610.977L417.132 662.053L472.177 662.053L464.76 610.977L417.132 610.977Z" fill="white"/>
<path d="M472.191 417.397L352.689 417.397L352.689 353.209L545.791 353.209L520.094 533.127L352.689 533.127L352.689 469.093L464.676 469.093L472.191 417.397Z" fill="white"/>
<rect x="352.753" y="396.148" width="64.1533" height="120.552" fill="white"/>
<path d="M607.019 468.49L726.8 468.49L726.8 532.717L533.247 532.717L559.003 352.691L726.8 352.691L726.8 416.763L614.552 416.763L607.019 468.49Z" fill="white"/>
</svg>
