<svg width="1080" height="1080" viewBox="0 0 1080 1080" fill="none" xmlns="http://www.w3.org/2000/svg">
<rect width="1080" height="1080" fill="black"/>
<g clip-path="url(#clip0_334_120)">
<path d="M439.296 456.031H393.866V623.948H439.296V456.031Z" fill="white"/>
<path d="M562.719 517.399V685.316H393.866V640.135H517.288V517.399H562.719Z" fill="white"/>
<path d="M624.426 394.663H393.866V439.843H624.426V394.663Z" fill="white"/>
<path d="M686.133 394.663H640.702V623.947H686.133V394.663Z" fill="white"/>
<path d="M686.133 640.135V685.316H578.995V501.212H501.012V623.948H455.581V456.031H624.426V640.135H686.133Z" fill="white"/>
</g>
<rect x="359.999" y="701.104" width="322.388" height="17.9105" transform="rotate(-90 359.999 701.104)" fill="white"/>
<rect x="702.089" y="701.104" width="322.388" height="17.9105" transform="rotate(-90 702.089 701.104)" fill="white"/>
<rect x="720" y="378.715" width="360" height="17.9105" transform="rotate(180 720 378.715)" fill="white"/>
<rect x="720" y="719.014" width="360" height="17.9105" transform="rotate(180 720 719.014)" fill="white"/>
<defs>
<clipPath id="clip0_334_120">
<rect x="393.866" y="394.663" width="292.267" height="290.652" fill="white"/>
</clipPath>
</defs>
</svg>
