<svg width="1080" height="1080" viewBox="0 0 1080 1080" fill="none" xmlns="http://www.w3.org/2000/svg">
<rect width="1080" height="1080" fill="black"/>
<rect x="428.915" y="376.377" width="231.258" height="231.258" transform="rotate(45 428.915 376.377)" fill="white"/>
<rect x="563.543" y="593.752" width="125.381" height="143.956" transform="rotate(45 563.543 593.752)" fill="white"/>
<rect x="715.903" y="441.393" width="125.381" height="197.823" transform="rotate(45 715.903 441.393)" fill="white"/>
<rect x="555.662" y="478.168" width="139.312" height="212.683" transform="rotate(-45 555.662 478.168)" fill="white"/>
<rect x="240.436" y="539.9" width="272.122" height="5.57247" transform="rotate(45 240.436 539.9)" fill="white"/>
<rect x="449.273" y="708.02" width="143.027" height="5.57247" transform="rotate(45 449.273 708.02)" fill="white"/>
<rect x="449.273" y="715.902" width="23.2186" height="5.57247" transform="rotate(135 449.273 715.902)" fill="white"/>
<rect x="658.111" y="350.764" width="162.53" height="5.57246" transform="rotate(135 658.111 350.764)" fill="white"/>
<rect x="432.855" y="347.48" width="277.695" height="5.57246" transform="rotate(135 432.855 347.48)" fill="white"/>
<rect x="833.456" y="533.99" width="400.289" height="5.57245" transform="rotate(135 833.456 533.99)" fill="white"/>
<rect x="833.456" y="533.99" width="253.548" height="5.57245" transform="rotate(-135 833.456 533.99)" fill="white"/>
<rect x="543.185" y="465.691" width="161.602" height="5.57246" transform="rotate(-135 543.185 465.691)" fill="white"/>
</svg>
