<svg width="1080" height="1080" viewBox="0 0 1080 1080" fill="none" xmlns="http://www.w3.org/2000/svg">
<rect width="1080" height="1080" fill="black"/>
<path d="M614.482 504.655V502.45C614.572 490.883 614.656 479.317 614.732 467.751C614.768 466.615 614.656 465.478 614.399 464.371C614.063 462.856 613.258 461.485 612.099 460.455C610.939 459.424 609.484 458.785 607.94 458.629C607.207 458.516 606.466 458.46 605.724 458.463C594.338 458.463 582.946 458.463 571.546 458.463C569.947 458.366 568.349 458.67 566.896 459.347C565.506 460.034 564.345 461.111 563.554 462.446C562.764 463.781 562.379 465.317 562.445 466.867C562.445 470.684 562.445 474.501 562.445 478.308V480.285C561.706 479.91 561.165 479.65 560.635 479.369L525.208 460.47C522.223 458.765 518.795 457.997 515.368 458.265C512.295 458.519 509.381 459.743 507.047 461.76C496.93 470.532 486.807 479.289 476.676 488.033C462.447 500.335 448.232 512.643 434.03 524.958C433.201 525.725 432.102 526.133 430.972 526.092C389.783 526.092 348.587 526.092 307.384 526.092H305.387V349.613H774.329H774.495L774.662 349.665C775.016 350.851 775.151 523.179 774.776 525.894C774.319 525.894 773.83 526.009 773.341 526.009C733.858 526.009 694.371 526.009 654.881 526.009C654.094 526.02 653.316 525.841 652.613 525.488C640.25 518.811 627.896 512.095 615.554 505.341C615.2 505.144 614.877 504.915 614.482 504.655Z" fill="white"/>
<path d="M574.874 504.956V474.481H598.89C598.797 487.628 598.703 500.765 598.61 514.005C600.295 514.962 601.917 515.898 603.561 516.803C619.121 525.374 634.692 533.934 650.273 542.484C650.804 542.714 651.248 543.107 651.54 543.606C651.832 544.106 651.956 544.686 651.895 545.261C651.854 587.026 651.854 628.783 651.895 670.534V672.614H434.634C434.634 671.97 434.561 671.366 434.561 670.763V650.064C434.561 615.872 434.561 581.686 434.561 547.508C434.526 546.898 434.639 546.289 434.891 545.733C435.142 545.177 435.525 544.69 436.006 544.315C462.509 521.342 489.004 498.345 515.493 475.323C515.961 474.917 516.44 474.522 516.991 474.064L574.874 504.956Z" fill="white"/>
<path d="M651.513 612.945H434.178V746.336H651.513V612.945Z" fill="white"/>
<path d="M774.554 334.664H305.387V371.461H774.554V334.664Z" fill="white"/>
</svg>
