<svg width="1080" height="1080" viewBox="0 0 1080 1080" fill="none" xmlns="http://www.w3.org/2000/svg">
<rect width="1080" height="1080" fill="black"/>
<path d="M586.503 579.823L585.514 582.017L672.027 633.145L539.5 746L406.973 633.123L493.486 581.995L492.497 579.801L386.295 611.224L312 500.475L342.478 377.439L453.734 335L539.434 402.717L625.266 335L736.522 377.439L767 500.475L692.705 611.224L586.503 579.823ZM663.413 475.46C663.413 478.828 664.413 482.12 666.287 484.92C668.161 487.72 670.824 489.903 673.94 491.192C677.055 492.48 680.484 492.818 683.792 492.161C687.1 491.504 690.138 489.882 692.523 487.5C694.908 485.119 696.532 482.085 697.19 478.782C697.848 475.479 697.51 472.055 696.219 468.943C694.929 465.832 692.743 463.172 689.939 461.301C687.135 459.43 683.838 458.432 680.465 458.432C675.948 458.432 671.617 460.223 668.423 463.413C665.229 466.602 663.435 470.927 663.435 475.438L663.413 475.46ZM623.574 435.654C623.574 439.022 624.574 442.314 626.447 445.115C628.321 447.915 630.984 450.097 634.1 451.386C637.216 452.675 640.645 453.012 643.952 452.355C647.26 451.698 650.299 450.076 652.683 447.695C655.068 445.314 656.692 442.28 657.35 438.976C658.008 435.673 657.67 432.25 656.38 429.138C655.089 426.027 652.904 423.367 650.099 421.496C647.295 419.625 643.998 418.626 640.626 418.626C636.103 418.626 631.766 420.42 628.568 423.614C625.37 426.807 623.574 431.138 623.574 435.654ZM623.574 515.243C623.569 518.612 624.566 521.906 626.437 524.709C628.308 527.513 630.969 529.698 634.085 530.991C637.2 532.283 640.63 532.623 643.939 531.969C647.248 531.314 650.289 529.694 652.676 527.314C655.063 524.933 656.689 521.899 657.349 518.595C658.008 515.291 657.672 511.867 656.382 508.754C655.092 505.641 652.906 502.98 650.102 501.108C647.297 499.236 643.999 498.237 640.626 498.237C636.107 498.237 631.773 500.028 628.576 503.217C625.379 506.405 623.579 510.731 623.574 515.243ZM583.734 475.438C583.739 478.8 584.741 482.086 586.615 484.88C588.489 487.674 591.15 489.85 594.262 491.134C597.375 492.418 600.798 492.751 604.1 492.093C607.402 491.434 610.435 489.812 612.814 487.433C615.194 485.054 616.813 482.024 617.469 478.726C618.124 475.427 617.786 472.009 616.496 468.903C615.206 465.797 613.024 463.142 610.223 461.274C607.423 459.407 604.132 458.41 600.764 458.41C598.526 458.41 596.31 458.85 594.242 459.706C592.175 460.562 590.296 461.817 588.714 463.398C587.133 464.98 585.879 466.857 585.024 468.923C584.17 470.989 583.731 473.203 583.734 475.438ZM381.571 483.381C381.571 484.424 381.776 485.457 382.176 486.421C382.576 487.385 383.162 488.261 383.901 488.998C384.639 489.736 385.516 490.321 386.481 490.72C387.446 491.119 388.481 491.325 389.525 491.325H416.971V518.842C416.971 520.949 417.809 522.969 419.301 524.459C420.793 525.948 422.816 526.785 424.926 526.785H440.835C442.945 526.785 444.968 525.948 446.46 524.459C447.952 522.969 448.79 520.949 448.79 518.842V491.347H476.346C478.456 491.347 480.479 490.51 481.971 489.02C483.462 487.53 484.301 485.51 484.301 483.403V467.516C484.301 465.407 483.463 463.385 481.972 461.892C480.481 460.398 478.458 459.557 476.346 459.551H448.79V432.056C448.79 429.949 447.952 427.928 446.46 426.439C444.968 424.949 442.945 424.112 440.835 424.112H424.926C422.816 424.112 420.793 424.949 419.301 426.439C417.809 427.928 416.971 429.949 416.971 432.056V459.551H389.437C387.326 459.557 385.302 460.398 383.811 461.892C382.32 463.385 381.483 465.407 381.483 467.516L381.571 483.381Z" fill="white"/>
</svg>
