<svg width="1080" height="1080" viewBox="0 0 1080 1080" fill="none" xmlns="http://www.w3.org/2000/svg">
<rect width="1080" height="1080" fill="black"/>
<g clip-path="url(#clip0_2_203)">
<path d="M751.296 717H538.919L469.902 541.25H248L292.939 472.012L260.935 454.518H348.634L321.024 499.01H384.769C367.106 453.867 349.513 408.847 331.587 363H544.244L613.56 539.349H832C816.341 563.478 801.806 585.83 786.674 609.096L817.782 626.15H731.576L759.134 581.852H698.447C715.97 626.643 733.369 671.135 751.296 717ZM611.363 541.549H543.366C558.146 579.265 572.523 615.907 586.758 652.216H654.756L611.363 541.549ZM428.355 427.679L471.958 538.768H539.745C524.929 501.034 510.483 464.198 496.142 427.679H428.355Z" fill="white"/>
</g>
<defs>
<clipPath id="clip0_2_203">
<rect width="584" height="354" fill="white" transform="translate(248 363)"/>
</clipPath>
</defs>
</svg>
