<svg width="1080" height="1080" viewBox="0 0 1080 1080" fill="none" xmlns="http://www.w3.org/2000/svg">
<rect width="1080" height="1080" fill="black"/>
<path d="M415 793.413L415 721.073L540.314 648.725L540.314 648.716L602.967 612.559L602.967 612.542L665.61 576.385L665.619 576.385L665.619 648.716L665.61 648.725L602.967 684.89L540.314 721.064L540.314 721.073L415 793.413Z" fill="white"/>
<path d="M415 648.726L415 431.689L665.619 287L665.619 359.331L665.61 359.331L602.967 395.505L602.967 395.514L477.653 467.863L477.653 540.203L540.296 504.028L540.314 504.037L540.314 504.02L602.958 467.863L602.967 467.863L602.967 540.203L602.958 540.203L540.314 576.377L477.653 612.542L415 648.726Z" fill="white"/>
</svg>
