<svg width="1080" height="1080" viewBox="0 0 1080 1080" fill="none" xmlns="http://www.w3.org/2000/svg">
<rect width="1080" height="1080" fill="black"/>
<path d="M693.908 656C700.782 601.011 707.603 546.349 714.486 491.36H680.898C674.051 546.042 667.18 600.901 660.286 655.94H593.094C599.95 601.037 606.788 546.289 613.662 491.274H580.075C573.21 546.116 566.362 600.855 559.471 655.879H290C299.621 578.865 309.231 501.905 318.829 425H386.039C379.183 479.929 372.344 534.651 365.497 589.683H399.084C405.949 534.797 412.805 480.032 419.688 425.052H486.889C480.041 479.817 473.212 534.521 466.329 589.605H499.908C506.743 534.912 513.605 480.044 520.494 425H790C780.361 502.13 770.742 579.13 761.144 656H693.908Z" fill="white"/>
</svg>
