<svg width="1080" height="1080" viewBox="0 0 1080 1080" fill="none" xmlns="http://www.w3.org/2000/svg">
<rect width="1080" height="1080" fill="black"/>
<path d="M468.334 434.259L502.662 468.478L327.565 643.083L294.292 609.683L364.494 540.172L293 468.932L327.983 433.768L398.295 504.443L468.334 434.259Z" fill="white"/>
<path d="M434.534 326.69L467.024 294.072L538.3 366.039L610.867 292.98C622.856 305.06 633.916 316.23 645.068 327.545L573.447 398.621L643.303 468.186L609.685 501.786L434.534 326.69Z" fill="white"/>
<path d="M751.781 433.768L785.127 467.441L714.542 537.825L786 609.119C773.265 621.617 761.932 632.768 750.071 644.484L679.85 573.135L610.394 642.865C598.521 631.004 587.224 619.712 576.502 608.991L751.781 433.768Z" fill="white"/>
<path d="M468.661 786.253L434.096 751.415L504.662 681.286L434.405 611.593L469.17 576.773L644.103 751.615L611.066 784.361L540.973 713.631L468.661 786.253Z" fill="white"/>
</svg>
