<svg width="1080" height="1080" viewBox="0 0 1080 1080" fill="none" xmlns="http://www.w3.org/2000/svg">
<path d="M640.88 396.121C658.371 407.419 673.259 422.307 684.557 439.798L668.011 474.962C667.6 475.83 667.386 476.778 667.386 477.739C667.386 478.699 667.6 479.647 668.011 480.515C669.862 484.41 680.18 511.82 677.746 533.908H626.287C624.912 515.568 617.681 498.154 605.66 484.235L646.321 443.574C647.458 442.442 648.135 440.929 648.22 439.328C648.306 437.726 647.794 436.149 646.783 434.903C638.102 424.417 628.001 415.192 616.774 407.494L640.88 396.121Z" fill="white"/>
<path d="M509.459 367.269C529.818 362.91 550.868 362.91 571.227 367.269L584.386 403.793C584.674 404.707 585.177 405.538 585.853 406.216C586.53 406.894 587.36 407.399 588.272 407.689C599.081 410.53 620.845 421.801 632.921 438.578L596.499 475.046C582.576 463.032 565.164 455.805 546.825 454.429V396.945C546.834 395.337 546.243 393.783 545.169 392.585C544.095 391.388 542.614 390.633 541.014 390.468C527.468 389.195 513.81 389.818 500.437 392.319L509.459 367.269Z" fill="white"/>
<path d="M396.13 439.798C407.434 422.313 422.322 407.426 439.807 396.121L474.971 412.667C476.711 413.481 478.886 413.749 480.523 412.667C493.951 403.552 519.694 402.238 533.926 402.932V454.391C515.561 455.764 498.123 463.005 484.188 475.046L443.583 434.33C442.451 433.19 440.936 432.512 439.332 432.426C437.728 432.341 436.149 432.854 434.903 433.867C424.41 442.566 415.185 452.689 407.493 463.941L396.13 439.798Z" fill="white"/>
<path d="M364 540.325C363.996 529.944 365.097 519.593 367.285 509.445L403.791 496.324C404.709 496.045 405.545 495.545 406.224 494.867C406.904 494.189 407.406 493.355 407.687 492.437C410 482.776 425.546 457.736 438.575 447.788L475.044 484.174C463.019 498.092 455.785 515.506 454.408 533.847H396.952C395.344 533.839 393.79 534.429 392.592 535.503C391.395 536.577 390.64 538.059 390.475 539.659C389.202 553.205 389.825 566.862 392.326 580.236L367.285 571.204C365.096 561.057 363.995 550.705 364 540.325Z" fill="white"/>
<path d="M439.807 684.544C422.325 673.239 407.438 658.356 396.13 640.876L412.675 605.712C413.097 604.855 413.317 603.913 413.317 602.959C413.317 602.004 413.097 601.062 412.675 600.206C407.873 590.869 400.1 563.191 402.941 546.803H454.41C455.782 565.151 463.016 582.572 475.045 596.495L434.375 637.146C433.238 638.278 432.562 639.791 432.476 641.393C432.391 642.995 432.903 644.571 433.913 645.817C442.594 656.302 452.702 665.518 463.941 673.199L439.807 684.544Z" fill="white"/>
<path d="M571.225 713.385C550.867 717.744 529.816 717.744 509.457 713.385L496.326 676.852C496.04 675.935 495.536 675.1 494.858 674.42C494.18 673.74 493.347 673.235 492.43 672.947C480.4 669.893 457.896 655.124 447.781 642.058L484.204 605.645C498.124 617.663 515.538 624.891 533.877 626.262V683.718C533.869 685.326 534.459 686.88 535.533 688.078C536.608 689.275 538.089 690.03 539.689 690.195C553.235 691.469 566.892 690.846 580.266 688.345L571.225 713.385Z" fill="white"/>
<path d="M684.555 640.864C673.254 658.35 658.366 673.235 640.878 684.532L605.714 667.996C604.864 667.525 603.909 667.278 602.938 667.278C601.967 667.278 601.011 667.525 600.162 667.996C593.231 672.502 563.249 680.266 546.759 677.731V626.262C565.101 624.892 582.519 617.664 596.442 605.645L637.102 646.296C638.234 647.433 639.747 648.11 641.349 648.195C642.951 648.281 644.527 647.769 645.773 646.759C656.251 638.081 665.467 627.983 673.155 616.758L684.555 640.864Z" fill="white"/>
<path d="M713.41 571.21L676.867 584.369C675.959 584.671 675.133 585.18 674.455 585.856C673.778 586.532 673.266 587.357 672.962 588.265C669.557 599.684 657.638 621.707 642.083 632.914L605.66 596.491C617.683 582.569 624.914 565.152 626.287 546.808H683.733C685.341 546.817 686.893 546.228 688.091 545.156C689.288 544.083 690.043 542.604 690.211 541.006C691.484 527.46 690.861 513.803 688.36 500.429L713.428 509.451C717.796 529.806 717.796 550.855 713.428 571.21H713.41Z" fill="white"/>
</svg>
