<svg width="1080" height="1080" viewBox="0 0 1080 1080" fill="none" xmlns="http://www.w3.org/2000/svg">
<path d="M589.23 535.32V533.863C589.289 526.221 589.344 518.579 589.395 510.937C589.418 510.186 589.344 509.435 589.175 508.703C588.953 507.702 588.421 506.797 587.655 506.116C586.888 505.434 585.927 505.012 584.907 504.909C584.422 504.835 583.933 504.798 583.443 504.799C575.92 504.799 568.392 504.799 560.86 504.799C559.803 504.736 558.747 504.936 557.788 505.384C556.869 505.838 556.102 506.549 555.58 507.431C555.058 508.314 554.803 509.328 554.847 510.352C554.847 512.875 554.847 515.397 554.847 517.912V519.218C554.359 518.97 554.001 518.799 553.651 518.613L530.243 506.126C528.271 504.999 526.006 504.492 523.742 504.669C521.711 504.837 519.786 505.645 518.244 506.978C511.559 512.774 504.87 518.56 498.176 524.338C488.774 532.466 479.382 540.598 469.999 548.735C469.451 549.242 468.724 549.511 467.978 549.484C440.763 549.484 413.544 549.484 386.32 549.484H385V432.879H694.846H694.956L695.066 432.913C695.299 433.697 695.389 547.56 695.141 549.354C694.839 549.354 694.516 549.429 694.193 549.429C668.105 549.429 642.015 549.429 615.922 549.429C615.403 549.437 614.889 549.319 614.424 549.086C606.255 544.674 598.093 540.236 589.937 535.774C589.704 535.643 589.491 535.492 589.23 535.32Z" fill="#F5F5F5"/>
<path d="M563.057 535.516V515.379H578.926C578.864 524.066 578.802 532.746 578.74 541.495C579.854 542.127 580.926 542.746 582.012 543.344C592.293 549.006 602.581 554.662 612.876 560.312C613.227 560.463 613.52 560.723 613.713 561.053C613.906 561.383 613.988 561.766 613.948 562.147C613.92 589.742 613.92 617.333 613.948 644.919V646.293H470.396C470.396 645.867 470.347 645.469 470.347 645.07V631.394C470.347 608.802 470.347 586.214 470.347 563.631C470.324 563.228 470.399 562.826 470.565 562.459C470.732 562.091 470.985 561.769 471.303 561.521C488.814 546.342 506.32 531.147 523.822 515.936C524.131 515.668 524.448 515.407 524.812 515.104L563.057 535.516Z" fill="#F5F5F5"/>
<path d="M613.698 606.863H470.097V694.999H613.698V606.863Z" fill="#F5F5F5"/>
<path d="M694.995 423H385V447.313H694.995V423Z" fill="#F5F5F5"/>
</svg>
