<svg width="1080" height="1080" viewBox="0 0 1080 1080" fill="none" xmlns="http://www.w3.org/2000/svg">
<rect width="1080" height="1080" fill="#101010"/>
<path d="M987.256 1050.29C983.539 1050.29 981.337 1047.17 981.337 1042.23C981.337 1037.32 983.561 1034.21 987.256 1034.21C990.962 1034.21 993.153 1037.31 993.153 1042.22C993.153 1047.16 990.973 1050.29 987.256 1050.29ZM987.256 1048.27C989.469 1048.27 990.726 1045.98 990.726 1042.23C990.726 1038.54 989.447 1036.23 987.256 1036.23C985.064 1036.23 983.775 1038.55 983.775 1042.23C983.775 1045.97 985.043 1048.27 987.256 1048.27ZM998.686 1042.99V1041.09H1000.55C1002.23 1041.09 1003.38 1040.04 1003.38 1038.58C1003.38 1037.14 1002.39 1036.19 1000.55 1036.19C998.879 1036.19 997.762 1037.15 997.622 1038.68H995.355C995.538 1035.96 997.59 1034.21 1000.66 1034.21C1003.59 1034.21 1005.73 1035.87 1005.73 1038.26C1005.73 1040.19 1004.46 1041.58 1002.54 1041.92V1041.96C1004.87 1042.13 1006.38 1043.55 1006.38 1045.72C1006.38 1048.43 1003.92 1050.29 1000.68 1050.29C997.343 1050.29 995.194 1048.45 995.044 1045.78H997.354C997.504 1047.26 998.729 1048.28 1000.68 1048.28C1002.57 1048.28 1003.93 1047.21 1003.93 1045.69C1003.93 1044.02 1002.66 1042.99 1000.62 1042.99H998.686ZM1013.96 1053.31H1011.9L1017.4 1034.5H1019.46L1013.96 1053.31ZM1030.33 1050.29C1027.57 1050.29 1025.43 1048.64 1024.97 1046.18H1027.39C1027.75 1047.44 1028.94 1048.29 1030.36 1048.29C1032.78 1048.29 1034.2 1046.06 1034.2 1042.15C1034.2 1042.15 1034.19 1042.15 1034.18 1042.15H1034.17H1034.16C1033.53 1043.67 1031.9 1044.68 1029.9 1044.68C1026.96 1044.68 1024.76 1042.5 1024.76 1039.56C1024.76 1036.45 1027.14 1034.2 1030.42 1034.2C1032.72 1034.2 1034.56 1035.37 1035.56 1037.45C1036.2 1038.69 1036.52 1040.21 1036.52 1042.03C1036.52 1047.22 1034.22 1050.29 1030.33 1050.29ZM1030.42 1042.72C1032.32 1042.72 1033.74 1041.35 1033.74 1039.53C1033.74 1037.69 1032.3 1036.25 1030.45 1036.25C1028.6 1036.25 1027.15 1037.68 1027.15 1039.48C1027.15 1041.34 1028.54 1042.72 1030.42 1042.72ZM1043.87 1050.29C1041.11 1050.29 1038.97 1048.64 1038.51 1046.18H1040.92C1041.29 1047.44 1042.47 1048.29 1043.9 1048.29C1046.32 1048.29 1047.73 1046.06 1047.73 1042.15C1047.73 1042.15 1047.72 1042.15 1047.71 1042.15H1047.7H1047.69C1047.07 1043.67 1045.44 1044.68 1043.44 1044.68C1040.49 1044.68 1038.29 1042.5 1038.29 1039.56C1038.29 1036.45 1040.68 1034.2 1043.95 1034.2C1046.25 1034.2 1048.1 1035.37 1049.1 1037.45C1049.73 1038.69 1050.05 1040.21 1050.05 1042.03C1050.05 1047.22 1047.76 1050.29 1043.87 1050.29ZM1043.95 1042.72C1045.85 1042.72 1047.27 1041.35 1047.27 1039.53C1047.27 1037.69 1045.83 1036.25 1043.99 1036.25C1042.14 1036.25 1040.69 1037.68 1040.69 1039.48C1040.69 1041.34 1042.07 1042.72 1043.95 1042.72Z" fill="white" fill-opacity="0.75"/>
<path d="M37.9482 1050H30.0742V1034.5H37.6904C40.8594 1034.5 42.7178 1035.95 42.7178 1038.37C42.7178 1040.15 41.3643 1041.49 39.5703 1041.72V1041.8C41.665 1041.86 43.416 1043.44 43.416 1045.49C43.416 1048.21 41.2676 1050 37.9482 1050ZM34.6289 1037.62V1040.71H36.3906C37.5615 1040.71 38.292 1040.1 38.292 1039.16C38.292 1038.21 37.6045 1037.62 36.4551 1037.62H34.6289ZM34.6289 1046.87H36.5732C37.9805 1046.87 38.7861 1046.24 38.7861 1045.07C38.7861 1043.96 37.9697 1043.32 36.6055 1043.32H34.6289V1046.87ZM44.9199 1034.5H51.5479C56.2529 1034.5 59.0137 1037.17 59.0137 1042.14C59.0137 1047.1 56.2422 1050 51.5479 1050H44.9199V1034.5ZM49.4746 1038.12V1046.38H50.9033C53.1807 1046.38 54.373 1044.99 54.373 1042.14C54.373 1039.53 53.084 1038.12 50.9033 1038.12H49.4746ZM78.3389 1050H74.3643V1041.02H74.2783L70.7871 1049.82H68.3486L64.8574 1041.02H64.7715V1050H60.7969V1034.5H66.0605L69.5303 1043.54H69.6162L73.0752 1034.5H78.3389V1050ZM85.0527 1050H80.498V1034.5H85.0527V1041.07H85.1387L89.9297 1034.5H94.71L89.6074 1041.38L94.9463 1050H89.6504L86.2666 1044.31L85.0527 1045.94V1050Z" fill="white" fill-opacity="0.75"/>
<path d="M100.221 1039.04C100.221 1036.25 102.466 1034.21 105.549 1034.21C108.503 1034.21 110.705 1036.09 110.705 1038.55C110.705 1040.35 109.738 1041.7 107.472 1044.02L103.594 1047.92V1047.97H110.952V1050H100.35V1048.37L105.946 1042.66C107.837 1040.7 108.331 1039.88 108.331 1038.67C108.331 1037.29 107.085 1036.2 105.474 1036.2C103.776 1036.2 102.498 1037.42 102.498 1039.03V1039.06H100.221V1039.04ZM118.74 1050.29C115.023 1050.29 112.821 1047.17 112.821 1042.23C112.821 1037.32 115.045 1034.21 118.74 1034.21C122.446 1034.21 124.638 1037.31 124.638 1042.22C124.638 1047.16 122.457 1050.29 118.74 1050.29ZM118.74 1048.27C120.953 1048.27 122.21 1045.98 122.21 1042.23C122.21 1038.54 120.932 1036.23 118.74 1036.23C116.549 1036.23 115.26 1038.55 115.26 1042.23C115.26 1045.97 116.527 1048.27 118.74 1048.27ZM126.496 1039.04C126.496 1036.25 128.741 1034.21 131.824 1034.21C134.778 1034.21 136.98 1036.09 136.98 1038.55C136.98 1040.35 136.014 1041.7 133.747 1044.02L129.869 1047.92V1047.97H137.228V1050H126.625V1048.37L132.222 1042.66C134.112 1040.7 134.606 1039.88 134.606 1038.67C134.606 1037.29 133.36 1036.2 131.749 1036.2C130.052 1036.2 128.773 1037.42 128.773 1039.03V1039.06H126.496V1039.04ZM146.283 1050V1046.94H138.527V1044.83C139.859 1042.33 141.621 1039.55 145.112 1034.5H148.593V1044.92H150.72V1046.94H148.593V1050H146.283ZM140.772 1044.9V1044.95H146.305V1036.36H146.262C143.576 1040.24 142.008 1042.65 140.772 1044.9Z" fill="white" fill-opacity="0.6"/>
<path d="M939.528 30.499H945.34C948.348 30.499 950.442 32.5723 950.442 35.5908C950.442 38.6201 948.305 40.7041 945.265 40.7041H941.935V46H939.528V30.499ZM941.935 32.5293V38.6846H944.695C946.79 38.6846 947.982 37.5566 947.982 35.6016C947.982 33.6465 946.79 32.5293 944.706 32.5293H941.935ZM949.658 42.0254H952.021C952.054 43.3145 952.988 44.1953 954.331 44.1953C955.91 44.1953 956.77 43.25 956.77 41.4775V30.499H959.176V41.4883C959.176 44.5605 957.371 46.3438 954.353 46.3438C951.56 46.3438 949.658 44.6035 949.658 42.0254ZM968.93 40.7578H961.883V38.6631H968.93V40.7578ZM977.029 46.29C973.312 46.29 971.11 43.1748 971.11 38.2334C971.11 33.3242 973.334 30.209 977.029 30.209C980.735 30.209 982.927 33.3135 982.927 38.2227C982.927 43.1641 980.746 46.29 977.029 46.29ZM977.029 44.2705C979.242 44.2705 980.499 41.9824 980.499 38.2334C980.499 34.5381 979.221 32.2285 977.029 32.2285C974.838 32.2285 973.549 34.5488 973.549 38.2334C973.549 41.9717 974.816 44.2705 977.029 44.2705ZM988.835 46V32.8838H988.781L984.731 35.7627V33.3994L988.813 30.499H991.188V46H988.835ZM996.655 46.1182C995.871 46.1182 995.248 45.4951 995.248 44.7109C995.248 43.9268 995.871 43.3037 996.655 43.3037C997.439 43.3037 998.062 43.9268 998.062 44.7109C998.062 45.4951 997.439 46.1182 996.655 46.1182ZM996.655 38.2871C995.871 38.2871 995.248 37.6748 995.248 36.8799C995.248 36.0957 995.871 35.4727 996.655 35.4727C997.439 35.4727 998.062 36.0957 998.062 36.8799C998.062 37.6748 997.439 38.2871 996.655 38.2871ZM1012.96 46H1005.09V30.499H1012.7C1015.87 30.499 1017.73 31.9492 1017.73 34.3662C1017.73 36.1494 1016.38 37.4922 1014.58 37.7178V37.8037C1016.68 37.8574 1018.43 39.4365 1018.43 41.4883C1018.43 44.2061 1016.28 46 1012.96 46ZM1009.64 33.625V36.708H1011.4C1012.58 36.708 1013.31 36.0957 1013.31 35.1611C1013.31 34.2051 1012.62 33.625 1011.47 33.625H1009.64ZM1009.64 42.874H1011.59C1012.99 42.874 1013.8 42.2402 1013.8 41.0693C1013.8 39.9629 1012.98 39.3184 1011.62 39.3184H1009.64V42.874ZM1027.25 46.2686C1022.5 46.2686 1019.56 43.3574 1019.56 38.2441C1019.56 33.1309 1022.51 30.2305 1027.25 30.2305C1031.34 30.2305 1034.44 32.8945 1034.45 36.7402H1030.08C1029.98 34.9785 1028.83 33.8076 1027.25 33.8076C1025.38 33.8076 1024.2 35.4619 1024.2 38.2334C1024.2 41.0371 1025.37 42.6914 1027.26 42.6914C1028.83 42.6914 1029.97 41.542 1030.11 39.748H1034.47C1034.45 43.6152 1031.43 46.2686 1027.25 46.2686ZM1036.2 30.499H1042.83C1047.53 30.499 1050.29 33.1738 1050.29 38.1367C1050.29 43.0996 1047.52 46 1042.83 46H1036.2V30.499ZM1040.75 34.1191V42.3799H1042.18C1044.46 42.3799 1045.65 40.9941 1045.65 38.1367C1045.65 35.5264 1044.36 34.1191 1042.18 34.1191H1040.75Z" fill="#F5F5F5" fill-opacity="0.75"/>
<path d="M37.6807 46H35.2744V32.5723H30.5264V30.499H42.418V32.5723H37.6807V46ZM44.1904 46V30.499H46.4893V36.5898H46.543C47.166 35.2686 48.4014 34.5059 50.1201 34.5059C52.6016 34.5059 54.084 36.1602 54.084 38.7168V46H51.7529V39.168C51.7529 37.5029 50.915 36.5039 49.2822 36.5039C47.5635 36.5039 46.5107 37.6855 46.5107 39.4688V46H44.1904ZM61.0557 36.3643C59.4336 36.3643 58.2949 37.5996 58.1768 39.3076H63.8271C63.7734 37.5781 62.6777 36.3643 61.0557 36.3643ZM63.8164 42.6807H66.0186C65.6963 44.7432 63.7412 46.2148 61.1523 46.2148C57.833 46.2148 55.8242 43.9697 55.8242 40.4033C55.8242 36.8584 57.8652 34.4951 61.0557 34.4951C64.1924 34.4951 66.1475 36.708 66.1475 40.1348V40.9297H58.166V41.0693C58.166 43.0352 59.3477 44.335 61.2061 44.335C62.5273 44.335 63.5049 43.6689 63.8164 42.6807ZM77.6738 46.29C74.9131 46.29 72.7754 44.6357 72.3135 42.1758H74.7305C75.0957 43.4434 76.2773 44.292 77.7061 44.292C80.123 44.292 81.541 42.0576 81.541 38.1475C81.541 38.1475 81.5303 38.1475 81.5195 38.1475H81.5088H81.498C80.875 39.6729 79.2422 40.6826 77.2441 40.6826C74.3008 40.6826 72.0986 38.502 72.0986 35.5586C72.0986 32.4541 74.4834 30.1982 77.7598 30.1982C80.0586 30.1982 81.9062 31.3691 82.9053 33.4531C83.5391 34.6885 83.8613 36.2139 83.8613 38.0293C83.8613 43.2178 81.5625 46.29 77.6738 46.29ZM77.7598 38.7168C79.6611 38.7168 81.0791 37.3525 81.0791 35.5264C81.0791 33.6895 79.6396 32.25 77.792 32.25C75.9443 32.25 74.4941 33.6787 74.4941 35.4834C74.4941 37.3418 75.8799 38.7168 77.7598 38.7168ZM91.209 46.29C88.4482 46.29 86.3105 44.6357 85.8486 42.1758H88.2656C88.6309 43.4434 89.8125 44.292 91.2412 44.292C93.6582 44.292 95.0762 42.0576 95.0762 38.1475C95.0762 38.1475 95.0654 38.1475 95.0547 38.1475H95.0439H95.0332C94.4102 39.6729 92.7773 40.6826 90.7793 40.6826C87.8359 40.6826 85.6338 38.502 85.6338 35.5586C85.6338 32.4541 88.0186 30.1982 91.2949 30.1982C93.5938 30.1982 95.4414 31.3691 96.4404 33.4531C97.0742 34.6885 97.3965 36.2139 97.3965 38.0293C97.3965 43.2178 95.0977 46.29 91.209 46.29ZM91.2949 38.7168C93.1963 38.7168 94.6143 37.3525 94.6143 35.5264C94.6143 33.6895 93.1748 32.25 91.3271 32.25C89.4795 32.25 88.0293 33.6787 88.0293 35.4834C88.0293 37.3418 89.415 38.7168 91.2949 38.7168ZM113.864 43.916V46H104.239V30.499H106.646V43.916H113.864ZM120.224 46.2148C116.99 46.2148 114.863 43.9912 114.863 40.3496C114.863 36.7188 117.001 34.4951 120.224 34.4951C123.446 34.4951 125.584 36.7188 125.584 40.3496C125.584 43.9912 123.457 46.2148 120.224 46.2148ZM120.224 44.3027C122.05 44.3027 123.221 42.8633 123.221 40.3496C123.221 37.8467 122.039 36.4072 120.224 36.4072C118.408 36.4072 117.227 37.8467 117.227 40.3496C117.227 42.8633 118.408 44.3027 120.224 44.3027ZM132.19 44.1201C134.006 44.1201 135.198 42.6484 135.198 40.3174C135.198 37.9971 134.006 36.4717 132.19 36.4717C130.407 36.4717 129.247 37.9648 129.247 40.3174C129.247 42.6807 130.407 44.1201 132.19 44.1201ZM132.212 50.2539C129.548 50.2539 127.571 48.8359 127.281 46.8809H129.612C129.945 47.8262 130.977 48.4492 132.298 48.4492C134.113 48.4492 135.188 47.418 135.188 45.8711V44.0127H135.145C134.511 45.2373 133.179 46.043 131.567 46.043C128.731 46.043 126.873 43.8301 126.873 40.3066C126.873 36.751 128.721 34.5166 131.621 34.5166C133.222 34.5166 134.532 35.3223 135.22 36.6328H135.263V34.6992H137.519V45.7959C137.519 48.4922 135.435 50.2539 132.212 50.2539ZM144.673 46.2148C141.439 46.2148 139.312 43.9912 139.312 40.3496C139.312 36.7188 141.45 34.4951 144.673 34.4951C147.896 34.4951 150.033 36.7188 150.033 40.3496C150.033 43.9912 147.906 46.2148 144.673 46.2148ZM144.673 44.3027C146.499 44.3027 147.67 42.8633 147.67 40.3496C147.67 37.8467 146.488 36.4072 144.673 36.4072C142.857 36.4072 141.676 37.8467 141.676 40.3496C141.676 42.8633 142.857 44.3027 144.673 44.3027ZM151.623 37.9004C151.623 35.8809 153.406 34.4951 156.049 34.4951C158.562 34.4951 160.324 35.9023 160.399 37.9111H158.219C158.111 36.8906 157.284 36.2568 155.984 36.2568C154.728 36.2568 153.89 36.8691 153.89 37.7607C153.89 38.459 154.448 38.9316 155.619 39.2217L157.521 39.6621C159.798 40.21 160.657 41.0693 160.657 42.7344C160.657 44.7969 158.734 46.2148 155.963 46.2148C153.288 46.2148 151.516 44.8291 151.333 42.7559H153.632C153.814 43.8408 154.652 44.4424 156.07 44.4424C157.467 44.4424 158.326 43.8623 158.326 42.9492C158.326 42.2295 157.896 41.832 156.715 41.5312L154.695 41.0371C152.654 40.543 151.623 39.4795 151.623 37.9004ZM173.752 46.2578C169.401 46.2578 166.651 43.1855 166.651 38.2441C166.651 33.335 169.423 30.2412 173.752 30.2412C177.265 30.2412 179.918 32.4004 180.326 35.6338H177.941C177.512 33.6465 175.857 32.3467 173.752 32.3467C170.938 32.3467 169.111 34.6562 169.111 38.2441C169.111 41.8643 170.916 44.1523 173.763 44.1523C175.922 44.1523 177.458 43.0459 177.941 41.1768H180.337C179.746 44.3779 177.318 46.2578 173.752 46.2578ZM182.313 46V30.499H184.612V36.5898H184.666C185.289 35.2686 186.524 34.5059 188.243 34.5059C190.725 34.5059 192.207 36.1602 192.207 38.7168V46H189.876V39.168C189.876 37.5029 189.038 36.5039 187.405 36.5039C185.687 36.5039 184.634 37.6855 184.634 39.4688V46H182.313ZM198.405 44.3564C200.027 44.3564 201.295 43.2393 201.295 41.7676V40.876L198.513 41.0479C197.127 41.1445 196.343 41.7568 196.343 42.7236C196.343 43.7119 197.159 44.3564 198.405 44.3564ZM197.761 46.1934C195.548 46.1934 194.001 44.8184 194.001 42.7881C194.001 40.8115 195.516 39.5977 198.201 39.4473L201.295 39.2646V38.3945C201.295 37.1377 200.446 36.3857 199.028 36.3857C197.686 36.3857 196.848 37.0303 196.644 38.04H194.452C194.581 35.999 196.321 34.4951 199.114 34.4951C201.854 34.4951 203.604 35.9453 203.604 38.2119V46H201.381V44.1416H201.327C200.672 45.3984 199.243 46.1934 197.761 46.1934ZM205.946 46V30.499H208.267V46H205.946ZM210.737 46V30.499H213.058V46H210.737ZM220.169 36.3643C218.547 36.3643 217.408 37.5996 217.29 39.3076H222.94C222.887 37.5781 221.791 36.3643 220.169 36.3643ZM222.93 42.6807H225.132C224.81 44.7432 222.854 46.2148 220.266 46.2148C216.946 46.2148 214.938 43.9697 214.938 40.4033C214.938 36.8584 216.979 34.4951 220.169 34.4951C223.306 34.4951 225.261 36.708 225.261 40.1348V40.9297H217.279V41.0693C217.279 43.0352 218.461 44.335 220.319 44.335C221.641 44.335 222.618 43.6689 222.93 42.6807ZM227.065 46V34.6992H229.278V36.5898H229.332C229.944 35.3008 231.147 34.5059 232.888 34.5059C235.38 34.5059 236.809 36.0957 236.809 38.6846V46H234.478V39.1357C234.478 37.4385 233.683 36.5039 232.071 36.5039C230.438 36.5039 229.386 37.6641 229.386 39.415V46H227.065ZM243.866 44.1201C245.682 44.1201 246.874 42.6484 246.874 40.3174C246.874 37.9971 245.682 36.4717 243.866 36.4717C242.083 36.4717 240.923 37.9648 240.923 40.3174C240.923 42.6807 242.083 44.1201 243.866 44.1201ZM243.888 50.2539C241.224 50.2539 239.247 48.8359 238.957 46.8809H241.288C241.621 47.8262 242.652 48.4492 243.974 48.4492C245.789 48.4492 246.863 47.418 246.863 45.8711V44.0127H246.82C246.187 45.2373 244.854 46.043 243.243 46.043C240.407 46.043 238.549 43.8301 238.549 40.3066C238.549 36.751 240.396 34.5166 243.297 34.5166C244.897 34.5166 246.208 35.3223 246.896 36.6328H246.938V34.6992H249.194V45.7959C249.194 48.4922 247.11 50.2539 243.888 50.2539ZM256.22 36.3643C254.598 36.3643 253.459 37.5996 253.341 39.3076H258.991C258.938 37.5781 257.842 36.3643 256.22 36.3643ZM258.98 42.6807H261.183C260.86 44.7432 258.905 46.2148 256.316 46.2148C252.997 46.2148 250.988 43.9697 250.988 40.4033C250.988 36.8584 253.029 34.4951 256.22 34.4951C259.356 34.4951 261.312 36.708 261.312 40.1348V40.9297H253.33V41.0693C253.33 43.0352 254.512 44.335 256.37 44.335C257.691 44.335 258.669 43.6689 258.98 42.6807Z" fill="white" fill-opacity="0.6"/>
<path d="M414.235 498.366L475.279 377H664.409L636.428 433.853H511.544C510.619 435.759 509.771 437.504 508.685 439.754H698.046L668.516 498.366H414.235Z" fill="#F5F5F5"/>
<path d="M665.376 504.623C644.998 545.141 624.872 585.162 604.711 625.239H415.56C424.929 606.22 434.172 587.468 443.59 568.393H568.404L571.284 562.457H382C391.888 542.836 401.488 523.768 411.138 504.623H665.376Z" fill="#F5F5F5"/>
</svg>
