<svg width="1080" height="1080" viewBox="0 0 1080 1080" fill="none" xmlns="http://www.w3.org/2000/svg">
<path d="M404.795 485.879L373.594 454.824L440.977 387.441L508.359 454.824L477.158 485.879L440.977 449.551L404.795 485.879ZM394.395 568.643L363.34 599.844L295.957 532.461L363.34 465.078L394.395 496.279L358.066 532.461L394.395 568.643ZM477.158 579.043L508.359 610.098L440.977 677.48L373.594 610.098L404.795 579.043L440.977 615.371L477.158 579.043ZM588.193 485.879L556.992 454.824L624.375 387.441L691.758 454.824L660.557 485.879L624.375 449.551L588.193 485.879ZM670.957 496.279L702.012 465.078L769.395 532.461L702.012 599.844L670.957 568.643L707.285 532.461L670.957 496.279ZM660.557 579.043L691.758 610.098L624.375 677.48L556.992 610.098L588.193 579.043L624.375 615.371L660.557 579.043ZM577.793 568.643L546.738 599.844L479.355 532.461L546.738 465.078L577.793 496.279L541.465 532.461L577.793 568.643Z" fill="#E8E8E8"/>
</svg>
