<svg width="1080" height="1080" viewBox="0 0 1080 1080" fill="none" xmlns="http://www.w3.org/2000/svg">
<path d="M479.613 450.942L508.514 479.751L361.1 626.752L333.087 598.632L392.191 540.11L332 480.134L361.452 450.528L420.648 510.03L479.613 450.942Z" fill="white"/>
<path d="M451.157 360.38L478.511 332.919L538.518 393.508L599.613 332C609.706 342.17 619.018 351.574 628.407 361.1L568.108 420.939L626.921 479.506L598.617 507.794L451.157 360.38Z" fill="white"/>
<path d="M718.249 450.528L746.322 478.878L686.897 538.135L747.058 598.157C736.337 608.679 726.795 618.068 716.809 627.931L657.69 567.862L599.214 626.568C589.218 616.582 579.707 607.076 570.681 598.05L718.249 450.528Z" fill="white"/>
<path d="M479.889 747.285L450.789 717.955L510.199 658.913L451.049 600.238L480.318 570.924L627.594 718.124L599.781 745.692L540.769 686.144L479.889 747.285Z" fill="white"/>
</svg>
