<svg width="1080" height="1080" viewBox="0 0 1080 1080" fill="none" xmlns="http://www.w3.org/2000/svg">
<path d="M557.795 710.102L534.41 546.399L709.779 546.399L709.779 710.102L557.795 710.102ZM651.285 651.485L651.285 605.093L601.287 605.093L608.023 651.485L651.285 651.485Z" fill="white"/>
<path d="M522.023 545.986L545.408 709.688L370.039 709.688L370.039 545.986L522.023 545.986ZM428.533 604.603L428.533 650.995L478.531 650.995L471.795 604.603L428.533 604.603Z" fill="white"/>
<path d="M478.543 428.772L370 428.772L370 370.469L545.395 370.469L522.054 533.89L370 533.89L370 475.728L471.718 475.728L478.543 428.772Z" fill="white"/>
<rect x="370.058" y="409.471" width="58.2707" height="109.498" fill="white"/>
<path d="M601.008 475.18L709.805 475.18L709.805 533.518L534 533.518L557.395 370L709.805 370L709.805 428.196L607.85 428.196L601.008 475.18Z" fill="white"/>
</svg>
