<svg width="1080" height="1080" viewBox="0 0 1080 1080" fill="none" xmlns="http://www.w3.org/2000/svg">
<g clip-path="url(#clip0_45_160)">
<path d="M595.515 744.258C543.257 758.26 498.143 754.779 460.173 733.814C421.397 712.862 395.211 677.012 381.613 626.263C367.964 575.326 373.088 530.681 396.984 492.331C418.983 456.712 452.528 432.862 497.617 420.78C542.706 408.699 582.17 411.47 616.01 429.093C649.987 446.477 671.829 473.281 681.534 509.503C690.179 541.763 685.474 569.108 667.422 591.537C650.815 612.567 624.589 627.885 588.744 637.489C561.955 644.667 537.825 645.168 516.354 638.991C515.148 640.528 514.949 642.805 515.758 645.824C517.274 651.483 526.117 654.675 542.284 655.398C558.553 656.498 576.12 654.52 594.986 649.465C614.04 644.36 630.671 637.376 644.877 628.515C659.221 619.414 670.225 610.298 677.889 601.168C683.478 603.916 689.034 610.313 694.557 620.359C700.217 630.166 704.235 639.502 706.611 648.369C708.937 657.048 710.16 665.01 710.282 672.257C698.903 688.651 686.187 701.562 672.132 710.989C652.371 724.777 626.832 735.866 595.515 744.258ZM540.502 553.662C549.935 551.134 553.691 546.286 551.77 539.117C549.95 532.325 544.041 530.269 534.042 532.948C524.043 535.628 519.729 542.546 521.102 553.704C527.243 555.496 533.71 555.482 540.502 553.662Z" fill="white"/>
</g>
<defs>
<clipPath id="clip0_45_160">
<rect width="1080" height="1080" fill="white"/>
</clipPath>
</defs>
</svg>
