<svg width="1080" height="1080" viewBox="0 0 1080 1080" fill="none" xmlns="http://www.w3.org/2000/svg">
<path d="M554.039 674.102L535.605 545.056L673.848 545.056L673.848 674.102L554.039 674.102ZM627.736 627.895L627.736 591.324L588.323 591.324L593.634 627.895L627.736 627.895Z" fill="#E8E8E8"/>
<path d="M525.839 544.73L544.274 673.776L406.031 673.776L406.031 544.73L525.839 544.73ZM452.142 590.937L452.142 627.509L491.555 627.509L486.245 590.937L452.142 590.937Z" fill="#E8E8E8"/>
<path d="M491.565 452.33L406 452.33L406 406.37L544.263 406.37L525.864 535.194L406 535.194L406 489.345L486.184 489.345L491.565 452.33Z" fill="#E8E8E8"/>
<rect x="406.046" y="437.115" width="45.9347" height="86.3168" fill="#E8E8E8"/>
<path d="M588.103 488.913L673.868 488.913L673.868 534.901L535.281 534.901L553.724 406L673.868 406L673.868 451.876L593.497 451.876L588.103 488.913Z" fill="#E8E8E8"/>
</svg>
