<svg width="1080" height="1080" viewBox="0 0 1080 1080" fill="none" xmlns="http://www.w3.org/2000/svg">
<path d="M716 452.957V518.22C698.838 528.594 680.765 537.414 662.003 544.57V712.704C644.214 717.15 626.185 720.587 608.001 723V560.35C585.786 564.817 563.173 567.057 540.505 567.037C517.835 567.057 495.221 564.817 473.004 560.35V722.976C454.822 720.563 436.794 717.126 419.007 712.68V544.57C400.241 537.415 382.165 528.596 365 518.22L365 452.957C381.651 466.11 399.77 477.328 419.002 486.39C436.287 494.56 454.383 500.925 472.999 505.383C495.078 510.823 517.748 513.562 540.5 513.538C563.251 513.562 585.918 510.823 607.996 505.383V449.879C586.155 456.668 563.391 460.09 540.5 460.025C517.608 460.09 494.841 456.668 472.999 449.879C453.975 444.151 435.814 435.919 419.002 425.403V358C434.632 372.954 452.945 384.883 472.999 393.173C494.388 402 517.329 406.545 540.5 406.546C563.669 406.545 586.609 402 607.996 393.173C628.054 384.885 646.37 372.956 662.003 358V486.39C681.232 477.326 699.349 466.109 716 452.957Z" fill="white"/>
</svg>
