<svg width="1080" height="1080" viewBox="0 0 1080 1080" fill="none" xmlns="http://www.w3.org/2000/svg">
<path d="M428.455 484.778C418.603 512.71 410.347 540.915 403.121 570.017C396.187 597.942 390.152 626.984 384.51 657.602C431.699 683.02 485.814 695.735 540.056 695.735C594.298 695.735 648.409 683.02 695.602 657.602C689.958 626.984 683.924 597.942 676.989 570.017C669.767 540.947 661.529 512.769 651.683 484.867C622.937 475.712 581.434 471.095 539.615 471.095C498.034 471.095 456.91 475.642 428.455 484.778ZM366.313 560.965C374.564 527.734 384.135 495.537 395.849 463.475L398.803 455.389L406.836 452.28C439.821 439.467 489.938 433.116 539.615 433.116C589.632 433.116 640.136 439.52 673.196 452.206L681.262 455.302L684.253 463.485C695.967 495.545 705.537 527.743 713.788 560.974C722.077 594.355 728.984 628.403 735.364 664.158L737.637 676.948L726.377 683.672C670.487 717.043 605.2 733.731 540.047 733.731C474.894 733.731 409.598 717.043 353.714 683.672L342.456 676.948L344.73 664.158C351.124 628.393 358.03 594.346 366.318 560.965H366.313Z" fill="white"/>
<path fill-rule="evenodd" clip-rule="evenodd" d="M413.636 469.941C390.712 532.682 376.123 596.202 363.415 667.425C469.053 730.515 611.001 730.515 716.64 667.425C703.935 596.202 689.344 532.682 666.42 469.941C604.846 446.316 475.199 446.024 413.636 469.941Z" fill="black"/>
<path fill-rule="evenodd" clip-rule="evenodd" d="M419.881 475.028C397.979 534.948 384.045 595.609 371.912 663.63C422.353 693.754 481.466 708.814 540.579 708.814C463.056 650.522 482.764 500.684 540.579 458.001C494.923 457.958 449.27 463.607 419.881 475.028Z" fill="black"/>
<path fill-rule="evenodd" clip-rule="evenodd" d="M437.342 497.41C418.717 544.099 406.862 591.367 396.541 644.364C436.261 666.089 480.943 679.177 540.029 679.177C599.116 679.177 643.796 666.089 683.518 644.364C673.194 591.365 661.34 544.099 642.716 497.41C592.685 482.559 487.373 482.322 437.342 497.41Z" fill="white"/>
<path fill-rule="evenodd" clip-rule="evenodd" d="M484.786 537.914C502.436 537.914 516.744 557.951 516.744 582.668C516.744 607.385 502.436 627.422 484.786 627.422C467.136 627.422 452.838 607.385 452.838 582.668C452.838 557.951 467.146 537.914 484.796 537.914H484.786Z" fill="black"/>
<path fill-rule="evenodd" clip-rule="evenodd" d="M595.274 537.914C612.924 537.914 627.232 557.951 627.232 582.668C627.232 607.385 612.924 627.422 595.274 627.422C577.624 627.422 563.316 607.385 563.316 582.668C563.316 557.951 577.624 537.914 595.274 537.914Z" fill="black"/>
<path fill-rule="evenodd" clip-rule="evenodd" d="M524.692 398.952H536.071H543.986H555.365L565.261 444.472H543.986H536.071H514.794L524.692 398.952Z" fill="white"/>
<path fill-rule="evenodd" clip-rule="evenodd" d="M540.057 346C546.908 346 553.604 348.031 559.3 351.837C564.995 355.643 569.435 361.052 572.056 367.381C574.677 373.71 575.363 380.674 574.027 387.393C572.69 394.111 569.391 400.283 564.547 405.126C559.703 409.97 553.532 413.269 546.813 414.605C540.094 415.941 533.13 415.255 526.802 412.633C520.473 410.011 515.064 405.572 511.258 399.876C507.453 394.18 505.422 387.483 505.422 380.633C505.422 376.085 506.318 371.581 508.059 367.379C509.799 363.177 512.351 359.359 515.567 356.143C518.783 352.927 522.601 350.376 526.803 348.636C531.005 346.895 535.509 346 540.057 346Z" fill="white"/>
<path fill-rule="evenodd" clip-rule="evenodd" d="M551.423 358.281C553.887 358.281 556.297 359.011 558.346 360.38C560.395 361.749 561.993 363.695 562.936 365.972C563.88 368.249 564.127 370.754 563.646 373.172C563.166 375.589 561.979 377.809 560.236 379.552C558.494 381.295 556.273 382.482 553.856 382.963C551.439 383.444 548.934 383.197 546.657 382.254C544.38 381.311 542.433 379.714 541.064 377.665C539.695 375.616 538.964 373.207 538.964 370.742C538.964 369.106 539.286 367.485 539.912 365.974C540.538 364.462 541.455 363.088 542.612 361.931C543.769 360.774 545.143 359.856 546.654 359.23C548.166 358.604 549.786 358.281 551.423 358.281Z" fill="black"/>
<path fill-rule="evenodd" clip-rule="evenodd" d="M357.278 508.633L387.994 504.626C378.792 543.781 369.59 582.941 360.387 622.108C351.925 615.892 343.462 609.674 335 603.453C340.888 570.95 347.586 538.918 357.278 508.633Z" fill="white"/>
<path fill-rule="evenodd" clip-rule="evenodd" d="M722.786 508.633L692.071 504.626L719.677 622.108C728.14 615.892 736.602 609.674 745.065 603.453C739.176 570.95 732.481 538.918 722.786 508.633Z" fill="white"/>
<path fill-rule="evenodd" clip-rule="evenodd" d="M439.241 366.036L462.596 352.994L487.61 391.35L472.965 396.996L499.173 422.671L447.532 396.966L465.728 387.083L439.241 366.036Z" fill="white"/>
<path fill-rule="evenodd" clip-rule="evenodd" d="M636.789 383.066L621.874 368.646L595.793 398.969L605.634 405.797L581.112 424.876L624.625 409.05L612.953 398.06L636.789 383.066Z" fill="white"/>
</svg>
