<svg width="1080" height="1080" viewBox="0 0 1080 1080" fill="none" xmlns="http://www.w3.org/2000/svg">
<path d="M580.892 608.678L580.042 610.557L654.386 654.346L540.5 751L426.614 654.327L500.958 610.538L500.108 608.659L408.845 635.571L345 540.721L371.191 435.346L466.798 399L540.443 456.996L614.202 399L709.809 435.346L736 540.721L672.155 635.571L580.892 608.678ZM646.984 519.296C646.984 522.181 647.843 525 649.453 527.399C651.063 529.797 653.352 531.666 656.029 532.77C658.707 533.874 661.653 534.163 664.496 533.6C667.338 533.037 669.949 531.648 671.999 529.609C674.048 527.569 675.444 524.971 676.009 522.142C676.574 519.313 676.284 516.38 675.175 513.715C674.066 511.051 672.188 508.773 669.778 507.171C667.368 505.568 664.535 504.713 661.637 504.713C657.756 504.713 654.033 506.247 651.289 508.979C648.544 511.71 647.002 515.415 647.002 519.278L646.984 519.296ZM612.748 485.205C612.748 488.09 613.607 490.909 615.218 493.307C616.828 495.706 619.116 497.575 621.794 498.679C624.471 499.783 627.418 500.071 630.26 499.509C633.103 498.946 635.714 497.557 637.763 495.517C639.812 493.478 641.208 490.879 641.773 488.05C642.339 485.221 642.049 482.289 640.94 479.624C639.83 476.959 637.952 474.682 635.543 473.079C633.133 471.477 630.3 470.622 627.401 470.622C623.515 470.622 619.788 472.158 617.04 474.893C614.292 477.628 612.748 481.337 612.748 485.205ZM612.748 553.369C612.744 556.254 613.6 559.075 615.208 561.476C616.816 563.877 619.103 565.749 621.781 566.856C624.458 567.962 627.405 568.254 630.249 567.693C633.092 567.133 635.705 565.745 637.756 563.706C639.808 561.668 641.205 559.069 641.772 556.24C642.339 553.41 642.05 550.477 640.941 547.811C639.833 545.145 637.955 542.866 635.544 541.263C633.134 539.66 630.3 538.804 627.401 538.804C623.518 538.804 619.794 540.338 617.047 543.069C614.299 545.8 612.753 549.504 612.748 553.369ZM578.512 519.278C578.516 522.157 579.378 524.972 580.988 527.364C582.598 529.757 584.885 531.621 587.56 532.72C590.234 533.82 593.176 534.106 596.014 533.542C598.851 532.977 601.457 531.589 603.502 529.551C605.547 527.513 606.939 524.918 607.502 522.093C608.065 519.269 607.774 516.341 606.666 513.681C605.558 511.02 603.682 508.747 601.276 507.147C598.869 505.548 596.041 504.694 593.147 504.694C591.224 504.694 589.319 505.071 587.542 505.804C585.765 506.538 584.151 507.612 582.792 508.967C581.433 510.321 580.355 511.929 579.621 513.698C578.887 515.467 578.51 517.363 578.512 519.278ZM404.785 526.081C404.785 526.974 404.962 527.859 405.305 528.684C405.649 529.51 406.152 530.26 406.787 530.891C407.422 531.523 408.175 532.024 409.005 532.366C409.834 532.708 410.723 532.884 411.621 532.884H435.206V556.451C435.206 558.255 435.926 559.986 437.208 561.262C438.49 562.537 440.229 563.254 442.042 563.254H455.713C457.526 563.254 459.265 562.537 460.547 561.262C461.829 559.986 462.549 558.255 462.549 556.451V532.903H486.229C488.042 532.903 489.781 532.186 491.063 530.91C492.345 529.634 493.065 527.904 493.065 526.1V512.493C493.065 510.687 492.345 508.955 491.064 507.676C489.782 506.397 488.044 505.676 486.229 505.671H462.549V482.123C462.549 480.319 461.829 478.588 460.547 477.313C459.265 476.037 457.526 475.32 455.713 475.32H442.042C440.229 475.32 438.49 476.037 437.208 477.313C435.926 478.588 435.206 480.319 435.206 482.123V505.671H411.545C409.73 505.676 407.992 506.397 406.71 507.676C405.429 508.955 404.709 510.687 404.709 512.493L404.785 526.081Z" fill="white"/>
</svg>
