<svg width="1080" height="1080" viewBox="0 0 1080 1080" fill="none" xmlns="http://www.w3.org/2000/svg">
<path d="M677.902 646C684.061 595.534 690.172 545.368 696.339 494.902H666.245C660.11 545.086 653.953 595.433 647.776 645.945H587.572C593.715 595.557 599.842 545.313 606.001 494.823H575.907C569.756 545.154 563.621 595.391 557.446 645.889H316C324.621 575.209 333.231 504.58 341.831 434H402.051C395.908 484.411 389.78 534.632 383.645 585.138H413.739C419.89 534.766 426.034 484.506 432.2 434.048H492.412C486.277 484.308 480.158 534.513 473.991 585.066H504.077C510.202 534.872 516.35 484.517 522.522 434H764C755.363 504.786 746.745 575.452 738.145 646H677.902Z" fill="white"/>
</svg>
