<svg width="1080" height="1080" viewBox="0 0 1080 1080" fill="none" xmlns="http://www.w3.org/2000/svg">
<path d="M412.001 799.973L412.001 725.839L540.422 651.697L540.422 651.688L604.628 614.634L604.628 614.616L668.825 577.563L668.834 577.563L668.834 651.688L668.825 651.697L604.628 688.759L540.422 725.83L540.422 725.839L412.001 799.973Z" fill="white"/>
<path d="M412.001 651.695L412.001 429.277L668.834 281.001L668.834 355.125L668.825 355.125L604.628 392.196L604.628 392.206L476.207 466.348L476.207 540.481L540.404 503.41L540.422 503.419L540.422 503.401L604.619 466.348L604.628 466.348L604.628 540.482L604.619 540.482L540.422 577.553L476.207 614.615L412.001 651.695Z" fill="white"/>
</svg>
