<svg width="1080" height="1080" viewBox="0 0 1080 1080" fill="none" xmlns="http://www.w3.org/2000/svg">
<path d="M438.359 695.867V663.19C438.359 662.677 438.34 662.164 438.359 661.652C438.385 660.722 437.999 660.065 437.246 659.491C433.273 656.462 429.301 653.438 425.402 650.311C423.276 648.603 421.281 646.723 419.28 644.87C417.151 642.897 415.028 640.913 413 638.838C408.081 633.795 403.448 628.48 399.124 622.917C393.229 615.349 388.067 607.3 383.496 598.882C379.408 591.379 375.874 583.587 372.923 575.568C369.786 567.009 367.368 558.253 365.536 549.324C364.304 543.295 363.402 537.204 362.834 531.077C362.533 527.85 362.415 524.606 362.24 521.367C362.131 519.366 361.965 517.359 362.006 515.357C362.096 511.093 362.279 506.829 362.468 502.567C362.736 496.5 363.516 490.486 364.548 484.508C366.836 471.243 370.472 458.366 375.679 445.936C380.204 435.088 385.784 424.71 392.338 414.953C396.416 408.889 400.766 403.02 405.65 397.579C408.841 394.021 412.016 390.434 415.43 387.097C421.681 380.965 428.377 375.304 435.463 370.16C441.654 365.674 448.111 361.566 454.798 357.858C461.87 353.961 469.211 350.571 476.764 347.714C485.831 344.264 495.161 341.552 504.664 339.605C510.984 338.315 517.369 337.371 523.792 336.778C531.106 336.096 538.454 335.862 545.796 336.077C568.272 336.757 590.417 341.67 611.072 350.558C626.64 357.237 640.898 366.085 653.992 376.818C659.734 381.537 665.166 386.62 670.253 392.038C676.382 398.53 682.008 405.479 687.083 412.825C692.454 420.591 697.209 428.765 701.307 437.272C706.136 447.351 710.053 457.775 712.863 468.597C714.624 475.389 716.095 482.231 717.045 489.179C717.735 494.212 718.223 499.265 718.54 504.342C718.886 509.895 718.824 515.446 718.686 520.989C718.537 526.917 717.954 532.829 717.139 538.713C714.635 556.815 709.33 574.417 701.417 590.889C697.305 599.531 692.488 607.82 687.017 615.672C683.199 621.134 679.092 626.389 674.715 631.415C670.733 636.001 666.431 640.273 662.057 644.468C659.012 647.389 655.741 650.082 652.472 652.756C649.697 655.027 646.801 657.15 643.918 659.284C643.044 659.924 642.574 660.67 642.62 661.753C642.644 662.308 642.62 662.864 642.62 663.419C642.62 684.862 642.614 706.305 642.602 727.748C642.619 729.456 642.477 731.162 642.179 732.844C641.625 735.77 640.069 738.412 637.78 740.316C635.49 742.221 632.609 743.269 629.631 743.282C621.686 743.33 613.741 743.294 605.796 743.293C605.626 743.293 605.454 743.293 605.284 743.282C604.11 743.197 603.78 742.888 603.692 741.72C603.65 741.167 603.664 740.61 603.664 740.054C603.664 728.307 603.566 716.56 603.707 704.814C603.766 699.888 600.308 695.144 596.255 693.531C591.303 691.56 585.893 692.586 582.415 696.265C580.454 698.337 579.211 700.786 579.056 703.698C578.951 705.785 578.825 707.875 578.82 709.964C578.797 720.172 578.793 730.381 578.809 740.591C578.823 741.104 578.809 741.617 578.767 742.128C578.679 742.911 578.419 743.153 577.631 743.26C577.291 743.294 576.948 743.307 576.606 743.297C569.43 743.297 562.254 743.297 555.078 743.297C553.086 743.297 552.916 743.118 552.915 741.069C552.909 732.057 552.909 723.044 552.915 714.03C552.915 710.997 552.932 707.964 552.904 704.932C552.872 701.526 551.642 698.604 549.242 696.182C545.654 692.563 540.151 691.448 535.53 693.605C530.742 695.837 528.076 699.596 528.068 705.002C528.053 716.877 528.053 728.752 528.068 740.626C528.068 743.265 528.038 743.297 525.449 743.298H504.69C501.977 743.298 501.927 743.247 501.927 740.47C501.927 728.553 501.927 716.635 501.927 704.718C501.927 701.868 501.048 699.359 499.249 697.157C497.64 695.165 495.454 693.72 492.99 693.02C490.527 692.321 487.908 692.401 485.492 693.25C480.507 694.968 477.335 699.392 477.087 704.983C477.062 705.58 477.071 706.178 477.071 706.777C477.071 718.054 477.071 729.33 477.071 740.607C477.086 741.12 477.071 741.634 477.027 742.145C476.939 742.923 476.675 743.17 475.881 743.264C475.455 743.302 475.027 743.314 474.6 743.302C466.955 743.302 459.309 743.302 451.662 743.302C444.713 743.291 439.527 738.756 438.591 731.87C438.448 730.813 438.376 729.748 438.375 728.681C438.356 717.739 438.351 706.801 438.359 695.867ZM627.724 551.642C630.887 551.898 635.871 549.335 638.082 545.938C639.673 543.493 640.433 540.885 640.34 537.951C640.242 534.806 639.219 532.032 637.07 529.821C633.262 525.905 629.294 522.143 625.396 518.312C624.452 517.385 623.497 516.466 622.587 515.505C621.872 514.751 621.893 514.398 622.546 513.63C622.684 513.469 622.84 513.32 622.991 513.169C626.525 509.635 630.059 506.102 633.592 502.569C634.735 501.424 635.956 500.344 636.996 499.109C639.574 496.054 640.484 492.492 639.75 488.576C638.387 481.321 631.314 476.61 624.074 478.013C621.007 478.607 618.556 480.214 616.385 482.356C614.381 484.34 612.394 486.34 610.4 488.333C608.317 490.417 606.232 492.499 604.147 494.581C602.874 495.847 602.655 495.837 601.346 494.549C601.071 494.279 600.801 494.006 600.529 493.734C596.785 489.99 593.053 486.23 589.282 482.513C588.409 481.636 587.453 480.845 586.43 480.15C581.888 477.133 577.163 476.989 572.359 479.479C567.353 482.074 564.692 488.141 565.741 493.319C566.265 495.976 567.568 498.418 569.484 500.332C571.098 501.974 572.833 503.498 574.481 505.115C577.249 507.843 579.999 510.589 582.731 513.355C583.757 514.391 583.737 514.699 582.689 515.789C582.483 516.005 582.271 516.217 582.056 516.43C579.994 518.41 577.913 520.372 575.87 522.373C573.705 524.497 571.615 526.696 569.423 528.791C566.314 531.764 564.923 535.378 565.25 539.635C565.53 543.21 567.035 546.205 569.825 548.484C572.504 550.673 575.562 551.763 579.07 551.598C582.328 551.446 585.184 550.351 587.516 548.104C592.13 543.661 596.671 539.145 601.243 534.661C601.517 534.392 601.793 534.123 602.085 533.874C602.545 533.49 603.019 533.505 603.477 533.889C603.673 534.053 603.861 534.228 604.043 534.401C608.556 538.825 613.065 543.251 617.571 547.679C620.197 550.276 623.352 551.541 627.724 551.642ZM514.222 490.751C514.416 488.821 513.775 486.786 512.764 484.796C512.085 483.461 511.098 482.433 510.051 481.427C506.907 478.394 503.131 477.326 498.863 477.967C495.739 478.43 493.184 480.002 490.982 482.196C486.803 486.352 482.653 490.525 478.472 494.69C477.345 495.814 477.053 495.811 475.947 494.736C472.7 491.584 469.459 488.427 466.223 485.266C465.093 484.162 463.972 483.049 462.872 481.914C460.81 479.786 458.309 478.523 455.405 477.989C448.549 476.726 441.481 481.544 440.188 488.393C439.322 492.979 440.63 496.912 443.809 500.266C444.601 501.101 445.428 501.907 446.253 502.713C449.732 506.114 453.213 509.514 456.697 512.912C458.329 514.516 458.327 514.609 456.652 516.244C455.616 517.259 454.505 518.197 453.476 519.218C449.93 522.738 446.399 526.273 442.884 529.822C442.292 530.439 441.774 531.122 441.34 531.859C438.712 536.198 439.161 542.765 442.376 546.667C447.293 552.635 456.401 553.445 462.165 547.885C466.65 543.557 471.073 539.171 475.52 534.798C477.17 533.175 477.217 533.166 478.867 534.814C482.824 538.767 486.765 542.738 490.742 546.674C493.811 549.711 497.266 551.831 501.847 551.612C506.845 551.373 510.637 549.163 513.04 544.869C515.76 540 515.424 535.093 512.044 530.686C510.136 528.199 507.725 526.09 505.493 523.859C502.687 521.052 499.819 518.306 497.005 515.506C496.269 514.774 496.304 514.398 496.965 513.635C497.221 513.344 497.498 513.082 497.77 512.81C501.998 508.581 506.227 504.352 510.456 500.124C512.965 497.625 514.349 494.666 514.222 490.751Z" fill="white"/>
</svg>
