<svg width="1080" height="1080" viewBox="0 0 1080 1080" fill="none" xmlns="http://www.w3.org/2000/svg">
<path d="M367 600.095C367.037 629.129 378.179 657.049 398.142 678.131C418.105 699.212 445.377 711.859 474.366 713.477V486.712C445.375 488.324 418.099 500.968 398.135 522.052C378.17 543.135 367.03 571.059 367 600.095Z" fill="white"/>
<path d="M606.47 593.764C635.499 592.221 662.83 579.603 682.833 558.509C702.835 537.415 713.985 509.452 713.985 480.382C713.985 451.312 702.835 423.35 682.833 402.256C662.83 381.162 635.499 368.543 606.47 367V593.764Z" fill="white"/>
<path d="M534.918 713.64H594.117V654.441C581.656 680.308 560.785 701.179 534.918 713.64Z" fill="white"/>
<path d="M486.713 480.382V713.482C515.705 711.871 542.982 699.227 562.949 678.144C582.916 657.061 594.059 629.138 594.092 600.1V367C565.1 368.611 537.823 381.255 517.856 402.338C497.889 423.421 486.747 451.345 486.713 480.382Z" fill="white"/>
</svg>
