<svg width="1080" height="1080" viewBox="0 0 1080 1080" fill="none" xmlns="http://www.w3.org/2000/svg">
<path d="M404.795 502.879L373.594 471.824L440.977 404.441L508.359 471.824L477.158 502.879L440.977 466.551L404.795 502.879ZM394.395 585.643L363.34 616.844L295.957 549.461L363.34 482.078L394.395 513.279L358.066 549.461L394.395 585.643ZM477.158 596.043L508.359 627.098L440.977 694.48L373.594 627.098L404.795 596.043L440.977 632.371L477.158 596.043ZM588.193 502.879L556.992 471.824L624.375 404.441L691.758 471.824L660.557 502.879L624.375 466.551L588.193 502.879ZM670.957 513.279L702.012 482.078L769.395 549.461L702.012 616.844L670.957 585.643L707.285 549.461L670.957 513.279ZM660.557 596.043L691.758 627.098L624.375 694.48L556.992 627.098L588.193 596.043L624.375 632.371L660.557 596.043ZM577.793 585.643L546.738 616.844L479.355 549.461L546.738 482.078L577.793 513.279L541.465 549.461L577.793 585.643Z" fill="white"/>
</svg>
