<svg width="1080" height="1080" viewBox="0 0 1080 1080" fill="none" xmlns="http://www.w3.org/2000/svg">
<path d="M470.931 658.379L510.302 658.377L510.294 520.299L411.749 520.305L411.752 461.101L510.297 461.096L510.314 421.74L372.398 421.6L372.386 658.384L411.727 658.382L411.733 559.661L470.936 559.658L470.931 658.379ZM569.697 658.241L707.597 658.396L707.61 421.612L668.224 421.629L668.219 520.35L609.016 520.353L609.035 421.646L569.724 421.707L569.716 559.77L668.276 559.78L668.273 618.983L569.655 618.915L569.697 658.241ZM618.932 510.466L658.289 510.449L658.355 372.622L421.644 372.59L421.642 411.931L520.349 411.941L520.316 471.115L421.639 471.135L421.637 510.506L559.7 510.498L559.705 411.924L618.908 411.921L618.932 510.466ZM421.494 707.492L658.278 707.391L658.266 668.035L559.618 668.085L559.621 608.881L658.313 608.876L658.33 569.52L520.267 569.527L520.247 668.087L461.044 668.09L461.063 569.53L421.693 569.532L421.494 707.492Z" fill="white"/>
</svg>
