<svg width="1080" height="1080" viewBox="0 0 1080 1080" fill="none" xmlns="http://www.w3.org/2000/svg">
<rect width="1080" height="1080" fill="#0D0D0D"/>
<path d="M565.206 527.409V526.651C565.237 522.677 565.266 518.702 565.292 514.728C565.304 514.338 565.266 513.947 565.177 513.567C565.062 513.046 564.785 512.575 564.387 512.221C563.989 511.867 563.488 511.647 562.958 511.594C562.706 511.555 562.452 511.536 562.197 511.537C558.285 511.537 554.37 511.537 550.453 511.537C549.903 511.504 549.354 511.608 548.855 511.841C548.378 512.077 547.979 512.447 547.707 512.905C547.436 513.364 547.303 513.892 547.326 514.424C547.326 515.736 547.326 517.048 547.326 518.356V519.035C547.072 518.906 546.886 518.817 546.704 518.72L534.531 512.227C533.506 511.641 532.328 511.377 531.15 511.469C530.094 511.556 529.093 511.977 528.291 512.67C524.815 515.684 521.336 518.693 517.855 521.697C512.966 525.924 508.082 530.153 503.202 534.385C502.917 534.648 502.539 534.788 502.151 534.774C487.999 534.774 473.844 534.774 459.686 534.774H459V474.136H620.13H620.187L620.244 474.154C620.366 474.561 620.412 533.774 620.284 534.706C620.126 534.706 619.958 534.746 619.79 534.746C606.224 534.746 592.656 534.746 579.087 534.746C578.817 534.75 578.55 534.688 578.308 534.567C574.06 532.273 569.815 529.965 565.574 527.644C565.453 527.576 565.342 527.498 565.206 527.409Z" fill="white"/>
<path d="M551.597 527.512V517.04H559.849C559.817 521.558 559.785 526.072 559.753 530.621C560.332 530.95 560.889 531.272 561.454 531.583C566.801 534.528 572.151 537.469 577.504 540.407C577.687 540.486 577.839 540.621 577.94 540.792C578.04 540.964 578.083 541.163 578.062 541.361C578.048 555.711 578.048 570.059 578.062 584.405V585.12H503.41C503.41 584.898 503.385 584.691 503.385 584.484V577.372C503.385 565.623 503.385 553.877 503.385 542.133C503.373 541.923 503.412 541.714 503.498 541.523C503.585 541.332 503.716 541.165 503.882 541.036C512.988 533.142 522.092 525.24 531.194 517.33C531.354 517.191 531.519 517.055 531.708 516.897L551.597 527.512Z" fill="white"/>
<path d="M577.927 564.617H503.25V610.451H577.927V564.617Z" fill="white"/>
<path d="M620.207 469H459V481.644H620.207V469Z" fill="white"/>
</svg>
