<svg width="1920" height="1080" viewBox="0 0 1920 1080" fill="none" xmlns="http://www.w3.org/2000/svg">
<rect width="1920" height="1080" fill="#0D0D0D"/>
<path d="M985.206 527.409V526.652C985.237 522.678 985.266 518.703 985.292 514.729C985.304 514.339 985.266 513.948 985.177 513.568C985.062 513.047 984.785 512.576 984.387 512.222C983.989 511.868 983.488 511.648 982.958 511.595C982.706 511.556 982.452 511.537 982.197 511.538C978.285 511.538 974.37 511.538 970.453 511.538C969.903 511.505 969.354 511.609 968.855 511.842C968.378 512.078 967.979 512.448 967.707 512.906C967.436 513.365 967.303 513.893 967.326 514.425C967.326 515.737 967.326 517.049 967.326 518.357V519.036C967.072 518.907 966.886 518.818 966.704 518.721L954.531 512.228C953.506 511.642 952.328 511.378 951.15 511.47C950.094 511.557 949.093 511.978 948.291 512.671C944.815 515.685 941.336 518.694 937.855 521.698C932.966 525.925 928.082 530.154 923.202 534.386C922.917 534.649 922.539 534.789 922.151 534.775C907.999 534.775 893.844 534.775 879.686 534.775H879V474.137H1040.13H1040.19L1040.24 474.155C1040.37 474.562 1040.41 533.775 1040.28 534.707C1040.13 534.707 1039.96 534.747 1039.79 534.747C1026.22 534.747 1012.66 534.747 999.087 534.747C998.817 534.751 998.55 534.689 998.308 534.568C994.06 532.274 989.815 529.966 985.574 527.645C985.453 527.577 985.342 527.499 985.206 527.409Z" fill="white"/>
<path d="M971.597 527.513V517.041H979.849C979.817 521.559 979.785 526.073 979.753 530.622C980.332 530.951 980.889 531.273 981.454 531.584C986.801 534.529 992.151 537.47 997.504 540.408C997.687 540.487 997.839 540.622 997.94 540.793C998.04 540.965 998.083 541.164 998.062 541.362C998.048 555.712 998.048 570.06 998.062 584.406V585.121H923.41C923.41 584.899 923.385 584.692 923.385 584.485V577.373C923.385 565.624 923.385 553.878 923.385 542.134C923.373 541.924 923.412 541.715 923.498 541.524C923.585 541.333 923.716 541.166 923.882 541.037C932.988 533.143 942.092 525.241 951.194 517.331C951.354 517.191 951.519 517.056 951.708 516.898L971.597 527.513Z" fill="white"/>
<path d="M997.927 564.617H923.25V610.451H997.927V564.617Z" fill="white"/>
<path d="M1040.21 469H879V481.644H1040.21V469Z" fill="white"/>
</svg>
