<svg width="1089" height="1080" viewBox="0 0 1089 1080" fill="none" xmlns="http://www.w3.org/2000/svg">
<g clip-path="url(#clip0_925_312)">
<rect width="1089" height="1080" fill="#0D0D0D"/>
<rect width="1089" height="1080" rx="10" fill="#0D0D0D"/>
<path d="M563.719 801.773C563.719 723.475 563.719 645.158 563.719 566.824C563.719 556.991 563.871 556.855 574.634 556.855H779.036C791.365 556.855 791.395 556.855 791.395 567.612V1036.1C791.395 1047.14 791.395 1047.1 779.371 1047.1H574.983C563.932 1047.1 563.749 1047 563.749 1036.72C563.749 958.424 563.749 880.108 563.749 801.773H563.719ZM692.934 801.99C692.934 756.06 692.934 710.134 692.934 664.212C692.934 643.352 695.244 646.557 672.548 646.367C662.88 646.286 662.378 646.815 662.378 655.67C662.378 750.465 662.378 845.259 662.378 940.054C662.378 960.099 659.672 957.383 682.323 957.587C692.447 957.668 692.964 957.206 692.964 947.903C692.934 899.275 692.908 850.637 692.888 801.99H692.934Z" fill="white" fill-opacity="0.03"/>
<path d="M526.896 279.794C526.896 357.884 526.896 435.969 526.896 514.05C526.896 523.937 526.896 524.046 516.072 524.073C489.986 524.073 463.885 523.896 437.798 524.195C430.395 524.277 428.221 521.846 428.282 515.463C428.571 489.211 428.419 462.959 428.389 436.693C428.389 428.355 427.735 427.662 418.507 427.73C394.701 427.92 397.955 425.272 397.818 446.064C397.666 469.152 397.818 492.239 397.818 515.327C397.818 523.611 397.21 524.1 387.83 524.1H313.342C300.618 524.1 300.587 524.1 300.587 513.018C300.587 369.749 300.587 226.479 300.587 83.2103C300.587 69.3985 300.785 55.5867 300.496 41.7886C300.375 35.813 303.004 33.8438 309.496 33.8438C378.907 33.9796 448.328 33.9796 517.76 33.8438C526.273 33.8438 527.018 37.4698 527.018 43.4998C526.855 122.269 526.815 201.033 526.896 279.794ZM428.404 230.631C428.404 200.753 428.404 170.875 428.404 140.997C428.404 120.245 430.456 123.736 408.489 123.342C398.304 123.192 397.848 123.736 397.848 132.848C397.848 195.32 397.742 257.792 397.848 320.156C397.848 340.663 394.808 337.811 418.158 338.164C427.826 338.314 428.373 337.702 428.389 328.888C428.419 296.177 428.424 263.424 428.404 230.631Z" fill="white" fill-opacity="0.03"/>
<path d="M300.546 802.041C300.546 723.734 300.546 645.417 300.546 567.092C300.546 556.974 300.668 556.906 312.039 556.906C336.858 556.906 361.688 556.906 386.528 556.906C397.473 556.906 397.807 557.219 397.807 566.657C397.807 660.818 397.807 754.979 397.807 849.14C397.807 861.213 397.807 861.24 410.957 861.254C430.096 861.254 428.378 862.924 428.378 845.486C428.378 752.919 428.378 660.356 428.378 567.798C428.378 556.933 428.378 556.933 440.631 556.933C465.714 556.933 490.791 556.933 515.864 556.933C526.657 556.933 526.87 557.151 526.87 566.861C526.87 661.927 526.87 756.993 526.87 852.059C526.87 913.843 526.87 975.627 526.87 1037.41C526.87 1046.92 526.369 1047.2 515.666 1047.18C490.082 1047.11 464.497 1047.18 438.913 1047.09C428.667 1047.09 428.408 1046.85 428.393 1037.47C428.393 1011.43 428.18 985.41 428.393 959.389C428.469 952.993 426.204 950.453 418.831 950.629C394.645 951.241 397.883 947.913 397.746 969.357C397.594 992.445 397.534 1015.53 397.868 1038.62C397.959 1045.17 395.314 1047.27 388.124 1047.2C362.281 1046.93 336.438 1047.12 310.595 1047.12C300.942 1047.12 300.516 1046.74 300.501 1037.74C300.481 959.149 300.496 880.584 300.546 802.041Z" fill="white" fill-opacity="0.03"/>
<path d="M34.4523 279.063C34.4523 201.896 34.4523 124.725 34.4523 47.5496C34.4523 33.9688 34.4523 33.9688 49.8669 33.9688C116.755 33.9688 183.642 33.9688 250.53 33.9688C262.327 33.9688 262.342 33.9688 262.342 44.5075C262.342 99.4965 262.494 154.513 262.19 209.474C262.19 215.178 260.031 221.005 258.055 226.546C254.163 237.546 249.147 248.275 245.726 259.343C244.097 264.664 243.961 270.262 245.331 275.641C248.873 288.352 254.178 300.67 257.872 313.355C260.435 321.344 261.875 329.588 262.159 337.895C262.524 396.728 262.357 455.574 262.342 514.447C262.342 523.953 262.205 524.048 251.807 524.062C225.721 524.062 199.619 523.858 173.533 524.184C165.78 524.279 163.591 521.78 163.622 515.071C163.85 457.597 163.059 400.109 164.154 342.594C164.503 324.056 160.977 307.04 150.974 291.313C142.187 277.501 139.816 264.939 151.901 251.63C163.394 238.959 164.473 223.843 163.971 208.035C163.12 181.579 163.758 155.069 163.713 128.614C163.713 119.936 163.09 119.474 153.315 119.352C149.773 119.352 146.231 119.352 142.674 119.352C132.032 119.352 131.728 119.664 131.728 129.415C131.728 225.387 131.728 321.358 131.728 417.33C131.728 449.924 131.728 482.518 131.728 515.112C131.728 523.627 131.166 524.13 122.014 524.13C95.9282 524.13 69.8268 523.953 43.7406 524.198C36.8542 524.198 34.4067 522.256 34.4219 516.049C34.5942 437.081 34.6297 358.104 34.5284 279.117L34.4523 279.063Z" fill="white" fill-opacity="0.03"/>
<path d="M563.76 278.933C563.76 200.617 563.76 122.301 563.76 43.9842C563.76 34.1788 563.957 34.043 574.72 34.043C643.371 34.043 712.027 34.043 780.689 34.043C791.102 34.043 791.467 34.3417 791.467 43.5496C791.467 82.486 791.36 121.422 791.619 160.345C791.619 166.687 789.05 168.575 782.255 168.494C756.168 168.263 730.067 168.222 703.981 168.494C696.76 168.575 693.993 166.443 694.236 159.911C694.647 148.829 694.236 137.719 694.419 126.637C694.525 121.341 692.002 119.249 686.21 119.494C681.147 119.752 676.071 119.752 671.008 119.494C664.243 119.086 662.282 121.925 662.282 127.642C662.394 225.425 662.394 323.207 662.282 420.99C662.282 427.59 665.049 429.627 672.148 429.518C697.991 429.097 694.297 432.33 694.343 409.799C694.464 344.611 694.464 279.422 694.343 214.234C694.343 204.008 694.343 204.035 705.759 204.035C730.842 204.035 755.925 203.953 781.008 204.035C790.996 204.035 791.512 204.537 791.512 213.121C791.512 313.836 791.512 414.561 791.512 515.295C791.512 521.923 789.536 524.449 781.677 524.422C712.012 524.204 642.343 524.204 572.668 524.422C564.018 524.422 563.547 520.66 563.547 514.738C563.668 436.205 563.694 357.662 563.623 279.11L563.76 278.933Z" fill="white" fill-opacity="0.03"/>
<path d="M262.371 897.775C262.371 944.185 262.371 990.586 262.371 1036.98C262.371 1047.06 262.371 1047.03 250.802 1047.03L46.3537 1047.11C36.7006 1047.11 36.0469 1046.59 36.0469 1037.87C36.0469 984.457 36.0469 931.039 36.0469 877.621C36.0469 868.291 36.3965 867.965 46.6881 867.951C72.2777 867.951 97.8623 867.951 123.442 867.951C132.745 867.951 133.247 868.454 133.262 876.914C133.262 900.681 133.262 924.447 133.262 948.228C133.262 957.042 133.87 957.653 143.493 957.544C166.402 957.273 163.772 960.26 163.848 939.577C163.939 908.802 163.848 878.014 163.848 847.227C163.848 838.141 163.346 837.72 153.009 837.72L45.8672 837.829C36.6245 837.829 36.0925 837.394 36.0773 828.892C36.0773 741.296 36.0773 653.699 36.0773 566.102C36.0773 557.302 36.5789 556.895 46.3689 556.895H250.817C262.34 556.895 262.371 556.895 262.371 567.012C262.371 613.64 262.371 660.268 262.371 706.895C262.371 716.796 262.188 716.945 251.532 716.945H174.763C164.122 716.945 163.894 716.755 163.878 706.922C163.878 689.729 163.878 672.522 163.878 655.315C163.878 646.691 163.27 646.257 153.374 646.284C149.829 646.447 146.278 646.447 142.733 646.284C135.223 645.578 133.125 648.701 133.171 654.989C133.414 683.283 133.414 711.576 133.171 739.87C133.171 746.361 135.649 748.548 142.9 748.507C178.883 748.263 214.85 748.385 250.833 748.399C262.31 748.399 262.386 748.494 262.386 758.543C262.437 804.954 262.431 851.364 262.371 897.775Z" fill="white" fill-opacity="0.03"/>
<path d="M828.099 406.462C828.099 370.464 828.099 334.47 828.099 298.481C828.099 289.952 828.57 289.49 837.813 289.477C863.899 289.477 890 289.585 916.086 289.287C923.125 289.205 925.314 291.473 925.207 297.598C924.995 338.11 925.086 378.635 925.116 419.161C925.116 428.925 925.39 429.265 936.046 429.238C958.636 429.17 955.687 431.424 955.809 411.474C955.93 388.386 954.76 365.299 956.173 342.211C957.314 323.429 953.65 305.991 943.024 290.264C933.462 276.113 933.903 263.985 945 250.88C953.711 240.599 956.614 228.621 956.128 215.23C955.048 186.289 955.626 157.28 955.961 128.312C955.961 121.413 953.285 119.227 945.775 119.363C921.924 119.716 925.283 117.095 925.283 137.765C925.131 173.537 925.086 209.309 925.39 245.054C925.39 251.939 922.851 254.058 915.265 253.976C889.422 253.65 863.579 253.705 837.736 253.976C830.516 253.976 828.023 251.831 828.038 245.325C828.19 177.674 828.175 110.001 827.992 42.3046C827.992 36.2611 830.105 33.8438 837.113 33.8438C906.545 34.0067 975.966 34.0067 1045.38 33.8438C1052.4 33.8438 1054.59 36.1389 1054.57 42.2367C1054.41 98.5974 1054.82 154.958 1054.13 211.332C1054.03 220.051 1050.73 229.381 1046.35 237.299C1035.25 257.304 1034.71 276.806 1044.94 297.055C1053.77 314.547 1054.92 333.139 1054.73 352.153C1054.16 406.259 1054.5 460.351 1054.47 514.458C1054.47 523.815 1054.29 523.964 1043.83 523.964C975.165 523.964 906.504 523.964 837.843 523.964C828.524 523.964 828.053 523.53 828.038 515.014C828.058 478.871 828.078 442.687 828.099 406.462Z" fill="white" fill-opacity="0.03"/>
<path d="M828.264 802.072C828.264 723.547 828.264 645.027 828.264 566.511C828.264 557.114 828.553 556.937 838.814 556.923L1041 556.855C1054.68 556.855 1054.68 556.855 1054.68 569.296V939.171C1054.68 950.647 1054.68 950.674 1041.56 950.674C1006.86 950.674 972.159 950.674 937.458 950.674C927.288 950.674 926.817 951.095 926.817 960.398C926.817 986.202 926.908 1012.01 926.817 1037.81C926.817 1046.62 926.361 1046.98 916.495 1047C890.662 1047 864.819 1047 838.966 1047C828.507 1047 828.218 1046.83 828.203 1037.61C828.234 959.108 828.254 880.597 828.264 802.072ZM957.479 753.914C957.479 724.267 957.6 694.62 957.479 664.986C957.372 643.664 960.671 646.666 936.47 646.231C929.158 646.095 926.802 648.445 926.832 654.896C927.015 717.572 926.832 780.261 927.015 842.937C927.015 863.661 923.275 861.067 947.582 861.244C956.84 861.244 957.494 860.687 957.494 852.335C957.464 819.523 957.433 786.716 957.403 753.914H957.479Z" fill="white" fill-opacity="0.03"/>
<rect x="955.773" y="978.965" width="98.5934" height="67.7087" rx="2" fill="white" fill-opacity="0.03"/>
</g>
<defs>
<clipPath id="clip0_925_312">
<rect width="1089" height="1080" fill="white"/>
</clipPath>
</defs>
</svg>
