<svg width="1440" height="1080" viewBox="0 0 1440 1080" fill="none" xmlns="http://www.w3.org/2000/svg">
<rect width="1440" height="1080" fill="#0D0D0D"/>
<rect x="527" y="347" width="387" height="387" fill="white"/>
<rect x="527" y="347" width="387" height="387" stroke="#FF3A3A"/>
<path d="M727.398 624.881C727.398 599.567 727.398 574.247 727.398 548.922C727.398 545.743 727.447 545.699 730.88 545.699H796.084C800.017 545.699 800.027 545.699 800.027 549.177V700.638C800.027 704.208 800.027 704.194 796.191 704.194H730.992C727.466 704.194 727.408 704.164 727.408 700.84C727.408 675.526 727.408 650.206 727.408 624.881H727.398ZM768.618 624.951C768.618 610.102 768.618 595.254 768.618 580.408C768.618 573.664 769.355 574.7 762.115 574.638C759.031 574.612 758.871 574.783 758.871 577.646C758.871 608.293 758.871 638.94 758.871 669.587C758.871 676.068 758.007 675.189 765.233 675.255C768.463 675.282 768.627 675.132 768.627 672.125C768.618 656.403 768.61 640.679 768.603 624.951H768.618Z" fill="#1F1F1F"/>
<path d="M715.66 456.125C715.66 481.371 715.66 506.616 715.66 531.86C715.66 535.056 715.66 535.091 712.207 535.1C703.886 535.1 695.559 535.043 687.238 535.14C684.876 535.166 684.183 534.38 684.202 532.316C684.294 523.829 684.246 515.342 684.236 506.85C684.236 504.155 684.028 503.931 681.084 503.953C673.49 504.014 674.528 503.158 674.484 509.88C674.436 517.344 674.484 524.808 674.484 532.273C674.484 534.951 674.29 535.109 671.298 535.109H647.536C643.478 535.109 643.468 535.109 643.468 531.526C643.468 485.207 643.468 438.888 643.468 392.57C643.468 388.104 643.531 383.639 643.439 379.178C643.4 377.246 644.239 376.609 646.31 376.609C668.452 376.653 690.597 376.653 712.745 376.609C715.461 376.609 715.699 377.782 715.699 379.731C715.647 405.197 715.634 430.662 715.66 456.125ZM684.241 440.23C684.241 430.571 684.241 420.911 684.241 411.252C684.241 404.543 684.896 405.671 677.888 405.544C674.639 405.496 674.494 405.671 674.494 408.618C674.494 428.815 674.46 449.012 674.494 469.174C674.494 475.804 673.524 474.882 680.973 474.996C684.057 475.044 684.231 474.847 684.236 471.997C684.246 461.421 684.248 450.833 684.241 440.23Z" fill="#1F1F1F"/>
<path d="M643.455 624.979C643.455 599.662 643.455 574.342 643.455 549.02C643.455 545.749 643.494 545.727 647.121 545.727C655.038 545.727 662.959 545.727 670.883 545.727C674.374 545.727 674.481 545.828 674.481 548.879C674.481 579.321 674.481 609.763 674.481 640.205C674.481 644.109 674.481 644.118 678.676 644.122C684.781 644.122 684.233 644.662 684.233 639.024C684.233 609.097 684.233 579.172 684.233 549.248C684.233 545.735 684.233 545.735 688.141 545.735C696.143 545.735 704.143 545.735 712.141 545.735C715.584 545.735 715.652 545.806 715.652 548.945C715.652 579.68 715.652 610.415 715.652 641.149C715.652 661.124 715.652 681.099 715.652 701.074C715.652 704.147 715.492 704.239 712.078 704.231C703.916 704.209 695.755 704.231 687.593 704.204C684.325 704.204 684.243 704.125 684.238 701.091C684.238 692.674 684.17 684.262 684.238 675.849C684.262 673.781 683.539 672.96 681.187 673.017C673.472 673.215 674.505 672.139 674.461 679.072C674.413 686.536 674.394 694 674.5 701.464C674.529 703.581 673.686 704.261 671.392 704.239C663.148 704.151 654.904 704.213 646.66 704.213C643.581 704.213 643.445 704.09 643.44 701.179C643.434 675.772 643.439 650.371 643.455 624.979Z" fill="#1F1F1F"/>
<path d="M558.572 455.879C558.572 430.932 558.572 405.982 558.572 381.031C558.572 376.641 558.572 376.641 563.489 376.641C584.827 376.641 606.164 376.641 627.501 376.641C631.264 376.641 631.269 376.641 631.269 380.048C631.269 397.826 631.317 415.612 631.22 433.382C631.22 435.226 630.531 437.109 629.901 438.901C628.66 442.457 627.059 445.926 625.968 449.504C625.449 451.224 625.405 453.034 625.842 454.773C626.972 458.883 628.664 462.865 629.843 466.966C630.66 469.549 631.12 472.214 631.21 474.9C631.327 493.92 631.273 512.945 631.269 531.979C631.269 535.052 631.225 535.083 627.908 535.087C619.587 535.087 611.26 535.022 602.939 535.127C600.466 535.158 599.767 534.35 599.777 532.181C599.85 513.599 599.598 495.014 599.947 476.419C600.058 470.426 598.933 464.924 595.742 459.84C592.939 455.374 592.183 451.313 596.038 447.01C599.704 442.914 600.049 438.027 599.889 432.916C599.617 424.363 599.821 415.792 599.806 407.239C599.806 404.434 599.607 404.284 596.489 404.245C595.359 404.245 594.229 404.245 593.095 404.245C589.7 404.245 589.603 404.346 589.603 407.498C589.603 438.526 589.603 469.553 589.603 500.581C589.603 511.119 589.603 521.656 589.603 532.194C589.603 534.947 589.424 535.109 586.504 535.109C578.183 535.109 569.857 535.052 561.535 535.131C559.338 535.131 558.558 534.504 558.563 532.497C558.617 506.967 558.629 481.433 558.596 455.897L558.572 455.879Z" fill="#1F1F1F"/>
<path d="M727.412 455.841C727.412 430.521 727.412 405.202 727.412 379.882C727.412 376.712 727.475 376.668 730.908 376.668C752.808 376.668 774.709 376.668 796.612 376.668C799.933 376.668 800.05 376.765 800.05 379.741C800.05 392.33 800.016 404.918 800.098 417.501C800.098 419.552 799.279 420.162 797.111 420.136C788.79 420.061 780.463 420.048 772.142 420.136C769.838 420.162 768.956 419.473 769.033 417.361C769.164 413.778 769.033 410.187 769.092 406.604C769.126 404.891 768.321 404.215 766.473 404.294C764.858 404.378 763.239 404.378 761.624 404.294C759.466 404.162 758.84 405.08 758.84 406.929C758.876 438.542 758.876 470.155 758.84 501.768C758.84 503.901 759.723 504.56 761.987 504.525C770.231 504.389 769.053 505.434 769.067 498.15C769.106 477.074 769.106 455.999 769.067 434.924C769.067 431.617 769.067 431.626 772.709 431.626C780.711 431.626 788.712 431.6 796.713 431.626C799.899 431.626 800.064 431.789 800.064 434.564C800.064 467.125 800.064 499.689 800.064 532.257C800.064 534.399 799.434 535.216 796.927 535.207C774.704 535.137 752.479 535.137 730.253 535.207C727.494 535.207 727.344 533.991 727.344 532.077C727.383 506.687 727.391 481.294 727.368 455.898L727.412 455.841Z" fill="#1F1F1F"/>
<path d="M631.283 655.913C631.283 670.918 631.283 685.919 631.283 700.918C631.283 704.176 631.283 704.167 627.592 704.167L562.374 704.193C559.294 704.193 559.086 704.027 559.086 701.208C559.086 683.938 559.086 666.668 559.086 649.398C559.086 646.381 559.197 646.276 562.48 646.271C570.644 646.271 578.805 646.271 586.965 646.271C589.933 646.271 590.093 646.434 590.097 649.169C590.097 656.853 590.097 664.537 590.097 672.225C590.097 675.074 590.291 675.272 593.361 675.237C600.669 675.149 599.83 676.115 599.854 669.428C599.883 659.479 599.854 649.525 599.854 639.571C599.854 636.634 599.694 636.498 596.397 636.498L562.219 636.533C559.27 636.533 559.1 636.392 559.096 633.644C559.096 605.324 559.096 577.004 559.096 548.684C559.096 545.839 559.256 545.707 562.379 545.707H627.597C631.273 545.707 631.283 545.707 631.283 548.978C631.283 564.053 631.283 579.128 631.283 594.202C631.283 597.403 631.225 597.451 627.825 597.451H603.336C599.942 597.451 599.869 597.39 599.864 594.211C599.864 588.652 599.864 583.089 599.864 577.526C599.864 574.738 599.67 574.598 596.513 574.607C595.382 574.659 594.249 574.659 593.119 574.607C590.723 574.378 590.054 575.388 590.068 577.421C590.146 586.568 590.146 595.716 590.068 604.863C590.068 606.962 590.859 607.668 593.172 607.655C604.65 607.576 616.124 607.616 627.602 607.62C631.263 607.62 631.288 607.651 631.288 610.9C631.304 625.904 631.302 640.909 631.283 655.913Z" fill="#1F1F1F"/>
<path d="M811.745 497.077C811.745 485.439 811.745 473.802 811.745 462.166C811.745 459.409 811.895 459.26 814.844 459.255C823.165 459.255 831.491 459.29 839.813 459.194C842.058 459.168 842.756 459.901 842.722 461.881C842.655 474.978 842.684 488.08 842.693 501.182C842.693 504.339 842.781 504.449 846.18 504.44C853.386 504.418 852.445 505.147 852.484 498.697C852.523 491.233 852.15 483.769 852.601 476.304C852.964 470.232 851.796 464.594 848.406 459.51C845.356 454.935 845.496 451.014 849.036 446.777C851.815 443.453 852.741 439.581 852.586 435.251C852.242 425.895 852.426 416.516 852.533 407.151C852.533 404.921 851.679 404.214 849.284 404.258C841.675 404.372 842.747 403.524 842.747 410.207C842.698 421.772 842.684 433.337 842.781 444.893C842.781 447.119 841.971 447.804 839.551 447.778C831.307 447.673 823.063 447.69 814.819 447.778C812.516 447.778 811.721 447.084 811.725 444.981C811.774 423.11 811.769 401.231 811.711 379.345C811.711 377.391 812.385 376.609 814.621 376.609C836.769 376.662 858.914 376.662 881.056 376.609C883.297 376.609 883.995 377.351 883.99 379.323C883.937 397.544 884.068 415.766 883.85 433.991C883.816 436.81 882.763 439.827 881.367 442.386C877.827 448.854 877.652 455.159 880.916 461.705C883.733 467.361 884.102 473.371 884.039 479.518C883.859 497.011 883.966 514.499 883.956 531.992C883.956 535.017 883.898 535.065 880.562 535.065C858.659 535.065 836.756 535.065 814.853 535.065C811.881 535.065 811.73 534.925 811.725 532.172C811.732 520.486 811.738 508.788 811.745 497.077Z" fill="#1F1F1F"/>
<path d="M811.785 624.978C811.785 599.591 811.785 574.205 811.785 548.821C811.785 545.783 811.877 545.726 815.15 545.721L879.647 545.699C884.011 545.699 884.011 545.699 884.011 549.721V669.302C884.011 673.012 884.011 673.02 879.826 673.02C868.757 673.02 857.687 673.02 846.618 673.02C843.374 673.02 843.223 673.157 843.223 676.164C843.223 684.507 843.252 692.849 843.223 701.191C843.223 704.041 843.078 704.155 839.931 704.164C831.69 704.164 823.446 704.164 815.199 704.164C811.863 704.164 811.77 704.107 811.766 701.125C811.775 675.747 811.782 650.365 811.785 624.978ZM853.004 609.408C853.004 599.823 853.043 590.238 853.004 580.658C852.97 573.765 854.023 574.735 846.303 574.594C843.97 574.55 843.218 575.31 843.228 577.396C843.286 597.659 843.228 617.926 843.286 638.189C843.286 644.889 842.093 644.051 849.847 644.108C852.801 644.108 853.009 643.928 853.009 641.228C853 630.62 852.99 620.013 852.98 609.408H853.004Z" fill="#1F1F1F"/>
<rect x="852.898" y="681.625" width="31.4438" height="22.1558" rx="3" fill="#1F1F1F"/>
</svg>
