<svg width="710" height="515" viewBox="0 0 710 515" fill="none" xmlns="http://www.w3.org/2000/svg">
<g clip-path="url(#clip0_532_8)">
<path d="M710 0H0V515H710V0Z" fill="#141414"/>
<path d="M305.748 274H295.648V253.95L288.198 274H283.698L276.248 253.95V274H266.148V240.65H280.098L285.948 256.65L291.798 240.65H305.748V274ZM336.468 274H311.168V240.65H336.468V249.45H321.268V252.75H336.118V261.55H321.268V265.2H336.468V274ZM370.803 274H359.303L354.703 263.5H351.053V274H340.953V240.65H358.753C366.553 240.65 370.753 245.85 370.753 252.1C370.753 257.85 367.403 260.9 364.753 262.2L370.803 274ZM357.203 254.7C358.903 254.7 360.503 253.9 360.503 252.05C360.503 250.25 358.903 249.45 357.203 249.45H351.053V254.7H357.203ZM391.39 274.6C380.94 274.6 373.04 267.6 373.04 257.35C373.04 247.05 380.94 240.1 391.39 240.1C400.14 240.1 404.54 245.2 406.54 249.8L397.84 253.85C396.99 251.25 394.39 249 391.39 249C386.54 249 383.29 252.7 383.29 257.35C383.29 262 386.54 265.7 391.39 265.7C394.39 265.7 396.99 263.45 397.84 260.85L406.54 264.85C404.59 269.3 400.14 274.6 391.39 274.6ZM441.853 274H431.753V261.25H419.803V274H409.703V240.65H419.803V252.45H431.753V240.65H441.853V274Z" fill="white"/>
</g>
<defs>
<clipPath id="clip0_532_8">
<rect width="710" height="515" fill="white"/>
</clipPath>
</defs>
</svg>
