<svg width="710" height="515" viewBox="0 0 710 515" fill="none" xmlns="http://www.w3.org/2000/svg">
<g clip-path="url(#clip0_532_5)">
<path d="M710 0H0V515H710V0Z" fill="#141414"/>
<path d="M236.895 273H214.145V239.65H224.245V264.2H236.895V273ZM256.425 273.6C246.125 273.6 238.175 266.6 238.175 256.35C238.175 246.1 246.125 239.1 256.425 239.1C266.725 239.1 274.675 246.1 274.675 256.35C274.675 266.6 266.725 273.6 256.425 273.6ZM256.425 264.7C261.275 264.7 264.425 261 264.425 256.35C264.425 251.7 261.275 248 256.425 248C251.575 248 248.425 251.7 248.425 256.35C248.425 261 251.575 264.7 256.425 264.7ZM294.807 273.6C284.707 273.6 276.457 267 276.457 256.35C276.457 245.65 284.707 239.1 294.807 239.1C302.757 239.1 307.357 243.5 309.457 247.8L300.957 252.15C300.007 250.1 297.807 248 294.807 248C289.957 248 286.707 251.7 286.707 256.35C286.707 261 289.957 264.7 294.807 264.7C296.707 264.7 298.957 264 300.007 263.2V262H293.807V253.2H310.057V266.85C306.357 270.95 301.357 273.6 294.807 273.6ZM330.986 273.6C320.686 273.6 312.736 266.6 312.736 256.35C312.736 246.1 320.686 239.1 330.986 239.1C341.286 239.1 349.236 246.1 349.236 256.35C349.236 266.6 341.286 273.6 330.986 273.6ZM330.986 264.7C335.836 264.7 338.986 261 338.986 256.35C338.986 251.7 335.836 248 330.986 248C326.136 248 322.986 251.7 322.986 256.35C322.986 261 326.136 264.7 330.986 264.7ZM362.917 273H352.817V239.65H378.117V248.45H362.917V251.75H377.767V260.55H362.917V273ZM398.857 273.6C388.557 273.6 380.607 266.6 380.607 256.35C380.607 246.1 388.557 239.1 398.857 239.1C409.157 239.1 417.107 246.1 417.107 256.35C417.107 266.6 409.157 273.6 398.857 273.6ZM398.857 264.7C403.707 264.7 406.857 261 406.857 256.35C406.857 251.7 403.707 248 398.857 248C394.007 248 390.857 251.7 390.857 256.35C390.857 261 394.007 264.7 398.857 264.7ZM443.438 273H420.688V239.65H430.788V264.2H443.438V273ZM457.595 273H447.495V239.65H457.595V273ZM479.423 273.6C469.123 273.6 461.173 266.6 461.173 256.35C461.173 246.1 469.123 239.1 479.423 239.1C489.723 239.1 497.673 246.1 497.673 256.35C497.673 266.6 489.723 273.6 479.423 273.6ZM479.423 264.7C484.273 264.7 487.423 261 487.423 256.35C487.423 251.7 484.273 248 479.423 248C474.573 248 471.423 251.7 471.423 256.35C471.423 261 474.573 264.7 479.423 264.7Z" fill="white"/>
</g>
<defs>
<clipPath id="clip0_532_5">
<rect width="710" height="515" fill="white"/>
</clipPath>
</defs>
</svg>
