<svg width="710" height="515" viewBox="0 0 710 515" fill="none" xmlns="http://www.w3.org/2000/svg">
<g clip-path="url(#clip0_532_17)">
<path d="M710 0H0V515H710V0Z" fill="#141414"/>
<path d="M405.549 307.007L406.007 306.559C406.16 306.409 406.342 306.289 406.543 306.208C406.744 306.126 406.959 306.084 407.176 306.084C407.393 306.084 407.609 306.126 407.809 306.208C408.01 306.289 408.192 306.409 408.345 306.559L440.891 338.348L420.317 285.755L419.915 284.724C414.571 284.05 409.524 281.936 405.341 278.618C401.158 275.3 398.004 270.909 396.232 265.939C395.363 263.868 394.873 261.664 394.785 259.428C394.784 259.413 394.784 259.398 394.785 259.383C394.757 259.105 394.732 258.83 394.715 258.555C394.645 257.506 394.633 256.454 394.68 255.404C394.989 248.679 397.742 242.281 402.445 237.36C407.148 232.439 413.494 229.317 420.342 228.554L420.426 228.337L441 175.748L408.37 207.619C408.082 207.9 407.693 208.057 407.287 208.057C406.881 208.057 406.491 207.9 406.204 207.619L405.746 207.172C405.592 207.023 405.47 206.845 405.386 206.649C405.303 206.453 405.26 206.243 405.26 206.03C405.26 205.818 405.303 205.608 405.386 205.412C405.47 205.216 405.592 205.038 405.746 204.889L438.292 173.1L384.44 193.195L384.088 193.322C383.274 199.981 380.066 206.14 375.036 210.704C370.006 215.268 363.481 217.939 356.623 218.243C355.548 218.288 354.472 218.277 353.398 218.209C353.116 218.192 352.835 218.168 352.549 218.14H352.504C350.215 218.051 347.96 217.571 345.842 216.72C340.723 214.984 336.205 211.883 332.798 207.768C329.392 203.652 327.233 198.688 326.567 193.436L325.651 193.092L271.813 173L304.444 204.871C304.731 205.152 304.892 205.532 304.892 205.929C304.892 206.326 304.731 206.706 304.444 206.987L303.986 207.434C303.833 207.584 303.651 207.704 303.45 207.785C303.249 207.867 303.034 207.909 302.817 207.909C302.6 207.909 302.384 207.867 302.184 207.785C301.983 207.704 301.801 207.584 301.648 207.434L269.102 175.645L289.676 228.238L290.077 229.252C295.422 229.928 300.469 232.045 304.65 235.366C308.832 238.687 311.983 243.081 313.75 248.055V248.075C314.62 250.139 315.114 252.335 315.208 254.565C315.209 254.58 315.209 254.595 315.208 254.61C315.236 254.888 315.261 255.163 315.278 255.439C315.348 256.487 315.36 257.539 315.313 258.589C315.004 265.314 312.251 271.712 307.548 276.633C302.845 281.554 296.499 284.676 289.651 285.439L289.567 285.656L269 338.245L301.63 306.374C301.918 306.093 302.307 305.936 302.713 305.936C303.119 305.936 303.509 306.093 303.796 306.374L304.254 306.821C304.408 306.97 304.53 307.148 304.614 307.344C304.697 307.54 304.74 307.75 304.74 307.963C304.74 308.175 304.697 308.385 304.614 308.581C304.53 308.777 304.408 308.955 304.254 309.104L271.708 340.893L325.553 320.798L326.592 320.406C327.283 315.184 329.45 310.253 332.85 306.167C336.25 302.081 340.749 299.001 345.842 297.273C347.961 296.425 350.218 295.946 352.507 295.86H352.553C352.838 295.832 353.12 295.808 353.401 295.791C354.475 295.723 355.552 295.712 356.627 295.757C363.512 296.059 370.062 298.748 375.1 303.342C380.138 307.936 383.335 314.133 384.116 320.822L384.338 320.905L438.18 341L405.549 309.129C405.406 308.99 405.292 308.824 405.215 308.642C405.137 308.46 405.097 308.265 405.097 308.068C405.097 307.87 405.137 307.675 405.215 307.493C405.292 307.311 405.406 307.146 405.549 307.007ZM347.004 264.804C345.423 263.26 344.347 261.292 343.911 259.151C343.475 257.009 343.699 254.79 344.554 252.773C345.41 250.755 346.858 249.031 348.717 247.818C350.576 246.605 352.761 245.958 354.996 245.958C357.232 245.958 359.417 246.605 361.276 247.818C363.134 249.031 364.583 250.755 365.439 252.773C366.294 254.79 366.518 257.009 366.082 259.151C365.646 261.292 364.57 263.26 362.989 264.804C361.94 265.829 360.694 266.642 359.322 267.197C357.951 267.752 356.481 268.038 354.996 268.038C353.512 268.038 352.042 267.752 350.671 267.197C349.299 266.642 348.053 265.829 347.004 264.804Z" fill="white"/>
</g>
<defs>
<clipPath id="clip0_532_17">
<rect width="710" height="515" fill="white"/>
</clipPath>
</defs>
</svg>
