<svg width="710" height="515" viewBox="0 0 710 515" fill="none" xmlns="http://www.w3.org/2000/svg">
<g clip-path="url(#clip0_532_2)">
<path d="M710 0H0V515H710V0Z" fill="#141414"/>
<path d="M306.993 274H296.893V253.95L289.443 274H284.943L277.493 253.95V274H267.393V240.65H281.343L287.193 256.65L293.043 240.65H306.993V274ZM346.113 274H334.663L333.463 270.1H321.463L320.263 274H308.813L321.113 240.65H333.813L346.113 274ZM330.763 261.3L327.463 250.55L324.163 261.3H330.763ZM377.761 274H366.261L361.661 263.5H358.011V274H347.911V240.65H365.711C373.511 240.65 377.711 245.85 377.711 252.1C377.711 257.85 374.361 260.9 371.711 262.2L377.761 274ZM364.161 254.7C365.861 254.7 367.461 253.9 367.461 252.05C367.461 250.25 365.861 249.45 364.161 249.45H358.011V254.7H364.161ZM413.548 274H401.248L393.748 262.25L391.898 264.75V274H381.798V240.65H391.898V253.15L400.648 240.65H412.998L400.398 256.15L413.548 274ZM428.293 274.6C421.193 274.6 416.343 272.5 412.793 269.3L418.043 261.8C420.543 264.2 424.293 266.1 428.793 266.1C430.693 266.1 432.493 265.6 432.493 264.3C432.493 261.1 413.893 264.35 413.893 251.2C413.893 245.55 418.593 240.15 427.743 240.15C433.193 240.15 438.093 241.7 441.893 244.8L436.493 251.95C433.593 249.75 429.843 248.65 426.693 248.65C424.693 248.65 424.143 249.3 424.143 250.15C424.143 253.3 442.693 250.6 442.693 263C442.693 270.35 437.243 274.6 428.293 274.6Z" fill="white"/>
</g>
<defs>
<clipPath id="clip0_532_2">
<rect width="710" height="515" fill="white"/>
</clipPath>
</defs>
</svg>
