<svg width="710" height="515" viewBox="0 0 710 515" fill="none" xmlns="http://www.w3.org/2000/svg">
<g clip-path="url(#clip0_532_11)">
<path d="M710 0H0V515H710V0Z" fill="#141414"/>
<path d="M214.213 271.929H205V242.486H214.213V271.929ZM248.401 271.929H239.553L228.333 257.009V271.929H219.119V242.486H228.606L239.188 256.435V242.486H248.401V271.929ZM274.166 271.929H264.953V242.486H281.19C288.306 242.486 292.137 247.076 292.137 252.594C292.137 258.068 288.306 262.659 281.19 262.659H274.166V271.929ZM280.005 254.89C281.555 254.89 282.787 254.139 282.787 252.594C282.787 251.005 281.555 250.255 280.005 250.255H274.166V254.89H280.005ZM322.381 271.929H311.891L307.695 262.659H304.365V271.929H295.152V242.486H311.389C318.504 242.486 322.335 247.076 322.335 252.594C322.335 257.671 319.28 260.363 316.862 261.511L322.381 271.929ZM309.975 254.89C311.526 254.89 312.985 254.183 312.985 252.55C312.985 250.961 311.526 250.255 309.975 250.255H304.365V254.89H309.975ZM341.069 272.459C331.673 272.459 324.421 266.279 324.421 257.229C324.421 248.18 331.673 242 341.069 242C350.465 242 357.717 248.18 357.717 257.229C357.717 266.279 350.465 272.459 341.069 272.459ZM341.069 264.601C345.493 264.601 348.367 261.335 348.367 257.229C348.367 253.124 345.493 249.857 341.069 249.857C336.645 249.857 333.772 253.124 333.772 257.229C333.772 261.335 336.645 264.601 341.069 264.601ZM376.081 272.459C366.868 272.459 359.342 266.632 359.342 257.229C359.342 247.783 366.868 242 376.081 242C383.333 242 387.529 245.885 389.445 249.681L381.691 253.521C380.825 251.711 378.818 249.857 376.081 249.857C371.657 249.857 368.692 253.124 368.692 257.229C368.692 261.335 371.657 264.601 376.081 264.601C377.814 264.601 379.867 263.983 380.825 263.277V262.217H375.169V254.448H389.992V266.499C386.617 270.119 382.056 272.459 376.081 272.459ZM421.308 271.929H410.818L406.622 262.659H403.292V271.929H394.079V242.486H410.316C417.431 242.486 421.263 247.076 421.263 252.594C421.263 257.671 418.207 260.363 415.789 261.511L421.308 271.929ZM408.902 254.89C410.453 254.89 411.913 254.183 411.913 252.55C411.913 250.961 410.453 250.255 408.902 250.255H403.292V254.89H408.902ZM448.069 271.929H424.991V242.486H448.069V250.255H434.204V253.168H447.75V260.937H434.204V264.16H448.069V271.929ZM463.974 272.459C457.497 272.459 453.073 270.605 449.834 267.779L454.624 261.158C456.904 263.277 460.325 264.954 464.43 264.954C466.163 264.954 467.805 264.513 467.805 263.365C467.805 260.54 450.838 263.409 450.838 251.8C450.838 246.812 455.125 242.044 463.472 242.044C468.443 242.044 472.913 243.413 476.38 246.149L471.454 252.462C468.808 250.52 465.388 249.548 462.514 249.548C460.69 249.548 460.188 250.122 460.188 250.873C460.188 253.654 477.109 251.27 477.109 262.217C477.109 268.706 472.138 272.459 463.974 272.459ZM491.945 272.459C485.468 272.459 481.044 270.605 477.806 267.779L482.595 261.158C484.875 263.277 488.296 264.954 492.401 264.954C494.134 264.954 495.776 264.513 495.776 263.365C495.776 260.54 478.809 263.409 478.809 251.8C478.809 246.812 483.097 242.044 491.443 242.044C496.415 242.044 500.885 243.413 504.351 246.149L499.425 252.462C496.78 250.52 493.359 249.548 490.485 249.548C488.661 249.548 488.159 250.122 488.159 250.873C488.159 253.654 505.081 251.27 505.081 262.217C505.081 268.706 500.109 272.459 491.945 272.459Z" fill="white"/>
</g>
<defs>
<clipPath id="clip0_532_11">
<rect width="710" height="515" fill="white"/>
</clipPath>
</defs>
</svg>
