<svg width="1080" height="1080" viewBox="0 0 1080 1080" fill="none" xmlns="http://www.w3.org/2000/svg">
<rect width="1080" height="1080" fill="#0B0B0B"/>
<path d="M742.727 735.738C744.582 735.737 746.361 736.471 747.674 737.78L867.99 858.096L790.908 648.871C762.63 647.976 735.809 636.114 716.122 615.794C696.435 595.474 685.427 568.293 685.427 540C685.427 511.707 696.435 484.526 716.122 464.206C735.809 443.886 762.63 432.024 790.908 431.129L868 221.894L747.674 342.22C746.352 343.477 744.589 344.167 742.764 344.144C740.94 344.12 739.195 343.385 737.906 342.094C736.615 340.804 735.88 339.06 735.856 337.236C735.832 335.411 736.523 333.649 737.78 332.326L858.096 212.009L648.871 289.092C647.976 317.37 636.114 344.19 615.794 363.878C595.474 383.564 568.293 394.573 540 394.573C511.707 394.573 484.526 383.564 464.206 363.878C443.886 344.19 432.024 317.37 431.129 289.092L221.894 212L342.22 332.326C343.477 333.649 344.167 335.411 344.144 337.236C344.12 339.06 343.385 340.804 342.094 342.094C340.804 343.385 339.06 344.12 337.236 344.144C335.411 344.167 333.649 343.477 332.326 342.22L212.009 221.903L289.092 431.129C317.37 432.024 344.19 443.886 363.878 464.206C383.564 484.526 394.573 511.707 394.573 540C394.573 568.293 383.564 595.474 363.878 615.794C344.19 636.114 317.37 647.976 289.092 648.871L212 858.106L332.326 737.78C333.649 736.523 335.411 735.832 337.236 735.856C339.06 735.88 340.804 736.615 342.094 737.906C343.385 739.195 344.12 740.94 344.144 742.764C344.167 744.589 343.477 746.352 342.22 747.674L221.903 867.99L431.129 790.908C432.024 762.63 443.886 735.809 464.206 716.122C484.526 696.435 511.707 685.427 540 685.427C568.293 685.427 595.474 696.435 615.794 716.122C636.114 735.809 647.976 762.63 648.871 790.908L858.106 868L737.78 747.674C736.801 746.697 736.134 745.451 735.863 744.093C735.593 742.736 735.731 741.329 736.261 740.052C736.79 738.773 737.688 737.681 738.839 736.912C739.99 736.145 741.344 735.737 742.727 735.738ZM514.33 565.67C509.251 560.593 505.793 554.123 504.391 547.079C502.989 540.036 503.707 532.736 506.455 526.1C509.202 519.465 513.856 513.794 519.827 509.804C525.799 505.813 532.818 503.684 540 503.684C547.182 503.684 554.201 505.813 560.173 509.804C566.144 513.794 570.798 519.465 573.545 526.1C576.293 532.736 577.011 540.036 575.609 547.079C574.207 554.123 570.749 560.593 565.67 565.67C558.861 572.477 549.628 576.3 540 576.3C530.372 576.3 521.139 572.477 514.33 565.67Z" fill="white"/>
</svg>
