<svg width="1920" height="1080" viewBox="0 0 1920 1080" fill="none" xmlns="http://www.w3.org/2000/svg">
<rect width="1920" height="1080" fill="#0D0D0D"/>
<path d="M418.83 710.8V499V460.6V410.8H560.43C560.43 446.8 560.43 482.5 560.43 518.5L535.53 533.2L560.43 547.6C560.43 601.9 560.43 656.5 560.43 710.8H418.83ZM468.93 661H510.63V576.4L485.43 562L468.93 571.6V661ZM468.93 513.7L510.63 489.7V460.6H468.93V513.7ZM625.668 460.6V544.3L667.368 520V460.6H625.668ZM667.368 605.5L643.368 591.7L625.668 601.9V710.8H575.568V501.4V460.6V410.8H717.468C717.468 456.7 717.468 502.9 717.468 549.1C693.468 562.6 693.468 562.6 693.468 562.6L717.468 576.7V634.3V710.8H667.368V605.5ZM824.1 710.8V583.9L782.4 607.9V710.8H732.6V491.2V460.6V410.8H874.2C874.2 510.7 874.2 610.9 874.2 710.8H824.1ZM782.4 550L824.1 526.3V460.6H782.4V550ZM935.238 410.8V460.6V497.2V514.9L950.538 506.2L985.338 486.1V460.6V410.8H1031.24V459.7V460.6V517.3L1000.64 535L1031.24 552.4V610.3V661V710.8H985.338V661V583.9L950.538 563.8L935.238 572.5V661V710.8H889.338V661V598.9V541.3V528.4V471.1V460.6V410.8H935.238ZM1046.37 661L1096.47 632.2V661H1138.17V576.1L1046.37 628.9V483.4V460.6V410.8H1187.97V460.6L1138.17 489.4V460.6H1096.47V542.5L1187.97 489.7V710.8H1046.37V661ZM1253.21 460.6V661H1294.91V460.6H1253.21ZM1203.11 460.6V410.8H1345.01V710.8H1203.11V504.7V460.6ZM1360.14 710.8V494.5V460.6V410.8H1410.24L1451.94 459.4V410.8H1502.04C1502.04 510.7 1502.04 610.9 1502.04 710.8H1451.94V535.9L1410.24 487.6V710.8H1360.14Z" fill="white"/>
</svg>
