<svg width="1920" height="1080" viewBox="0 0 1920 1080" fill="none" xmlns="http://www.w3.org/2000/svg">
<rect width="1920" height="1080" fill="#0D0D0D"/>
<path d="M586 708.607C604.436 621.934 622.909 535.125 641.418 448.183H714.685L698.012 527.228H712.867C718.559 500.928 724.215 474.702 729.963 448.109H803.229C798.051 472.28 793.02 495.826 787.878 519.923L752.365 549.691L775.134 579.423C770.03 603.556 764.925 627.745 759.655 652.705L673.92 711.323L703.3 572.43H688.426C682.679 599.188 676.968 625.653 671.166 652.76L588.093 709.653L586 708.607Z" fill="white"/>
<path d="M1282.95 549.727L1305.81 579.293C1300.79 603.091 1295.64 627.561 1290.35 652.704L1204.53 711.433C1214.62 663.716 1224.19 618.678 1233.91 572.705H1218.98L1201.72 652.924L1116.02 711.414L1172.02 448.219H1245.22L1228.6 527.135H1243.45C1249.16 500.634 1254.82 474.39 1260.51 448.035H1333.78C1328.6 472.242 1323.55 495.752 1318.39 519.904L1282.95 549.727Z" fill="white"/>
<path d="M1113.48 652.394H951.689C966.233 584.031 980.647 516.309 995.154 448.166H1156.95C1142.38 516.383 1128.01 584.123 1113.48 652.394ZM1059.26 491.515L1034.52 608.513H1049.43C1057.7 569.642 1065.96 531.028 1074.28 491.515H1059.26Z" fill="white"/>
<path d="M857.766 608.347H872.456C875.652 594.106 878.883 579.644 882.244 564.668L958.375 549.986L936.725 652.302H774.859C789.384 583.92 803.78 516.088 818.25 448H891.553C880.224 501.571 869.041 554.574 857.766 608.347Z" fill="white"/>
</svg>
