<svg width="1920" height="1080" viewBox="0 0 1920 1080" fill="none" xmlns="http://www.w3.org/2000/svg">
<rect width="1920" height="1080" fill="#0D0D0D"/>
<path d="M679.477 650H669.809L654.281 628.467C650.473 631.885 646.42 635.107 642.123 638.135C637.924 641.064 633.48 643.652 628.793 645.898C624.105 648.047 619.271 649.756 614.291 651.025C609.408 652.295 604.428 652.93 599.35 652.93C588.314 652.93 577.914 651.074 568.148 647.363C558.48 643.652 549.984 638.281 542.66 631.25C535.434 624.121 529.721 615.43 525.521 605.176C521.322 594.922 519.223 583.252 519.223 570.166C519.223 557.959 521.322 546.777 525.521 536.621C529.721 526.367 535.434 517.578 542.66 510.254C549.984 502.93 558.48 497.266 568.148 493.262C577.914 489.16 588.314 487.109 599.35 487.109C604.428 487.109 609.457 487.744 614.438 489.014C619.418 490.283 624.252 492.041 628.939 494.287C633.627 496.533 638.07 499.17 642.27 502.197C646.566 505.225 650.57 508.496 654.281 512.012L669.809 493.408H679.477V650ZM639.193 570.166C639.193 564.697 638.119 559.424 635.971 554.346C633.92 549.17 631.088 544.629 627.475 540.723C623.861 536.719 619.613 533.545 614.73 531.201C609.945 528.76 604.818 527.539 599.35 527.539C593.881 527.539 588.705 528.467 583.822 530.322C579.037 532.178 574.838 534.912 571.225 538.525C567.709 542.139 564.926 546.631 562.875 552.002C560.824 557.275 559.799 563.33 559.799 570.166C559.799 577.002 560.824 583.105 562.875 588.477C564.926 593.75 567.709 598.193 571.225 601.807C574.838 605.42 579.037 608.154 583.822 610.01C588.705 611.865 593.881 612.793 599.35 612.793C604.818 612.793 609.945 611.621 614.73 609.277C619.613 606.836 623.861 603.662 627.475 599.756C631.088 595.752 633.92 591.211 635.971 586.133C638.119 580.957 639.193 575.635 639.193 570.166ZM742.26 450.488C742.26 454.199 741.527 457.666 740.062 460.889C738.695 464.111 736.791 466.943 734.35 469.385C731.908 471.729 729.027 473.633 725.707 475.098C722.484 476.465 719.018 477.148 715.307 477.148C711.596 477.148 708.08 476.465 704.76 475.098C701.537 473.633 698.705 471.729 696.264 469.385C693.92 466.943 692.016 464.111 690.551 460.889C689.184 457.666 688.5 454.199 688.5 450.488C688.5 446.875 689.184 443.457 690.551 440.234C692.016 436.914 693.92 434.082 696.264 431.738C698.705 429.297 701.537 427.393 704.76 426.025C708.08 424.561 711.596 423.828 715.307 423.828C719.018 423.828 722.484 424.561 725.707 426.025C729.027 427.393 731.908 429.297 734.35 431.738C736.791 434.082 738.695 436.914 740.062 440.234C741.527 443.457 742.26 446.875 742.26 450.488ZM735.375 650H695.092V493.115H735.375V650ZM908.602 650H898.934L883.406 628.467C879.598 631.885 875.545 635.107 871.248 638.135C867.049 641.064 862.605 643.652 857.918 645.898C853.23 648.047 848.396 649.756 843.416 651.025C838.533 652.295 833.553 652.93 828.475 652.93C817.439 652.93 807.039 650.879 797.273 646.777C787.605 642.578 779.109 636.816 771.785 629.492C764.559 622.07 758.846 613.33 754.646 603.271C750.447 593.115 748.348 582.08 748.348 570.166C748.348 558.35 750.447 547.363 754.646 537.207C758.846 527.051 764.559 518.262 771.785 510.84C779.109 503.418 787.605 497.607 797.273 493.408C807.039 489.209 817.439 487.109 828.475 487.109C831.99 487.109 835.604 487.402 839.314 487.988C843.123 488.574 846.785 489.551 850.301 490.918C853.914 492.188 857.283 493.896 860.408 496.045C863.533 498.193 866.17 500.83 868.318 503.955V430.713H908.602V650ZM868.318 570.166C868.318 564.697 867.244 559.424 865.096 554.346C863.045 549.17 860.213 544.629 856.6 540.723C852.986 536.719 848.738 533.545 843.855 531.201C839.07 528.76 833.943 527.539 828.475 527.539C823.006 527.539 817.83 528.516 812.947 530.469C808.162 532.422 803.963 535.254 800.35 538.965C796.834 542.578 794.051 547.021 792 552.295C789.949 557.568 788.924 563.525 788.924 570.166C788.924 575.928 789.949 581.396 792 586.572C794.051 591.748 796.834 596.289 800.35 600.195C803.963 604.102 808.162 607.178 812.947 609.424C817.83 611.67 823.006 612.793 828.475 612.793C833.943 612.793 839.07 611.621 843.855 609.277C848.738 606.836 852.986 603.662 856.6 599.756C860.213 595.752 863.045 591.211 865.096 586.133C867.244 580.957 868.318 575.635 868.318 570.166ZM1080.33 570.166C1080.33 581.885 1078.23 592.822 1074.03 602.979C1069.83 613.037 1064.12 621.777 1056.89 629.199C1049.66 636.523 1041.17 642.334 1031.4 646.631C1021.73 650.83 1011.33 652.93 1000.2 652.93C989.166 652.93 978.766 650.83 969 646.631C959.332 642.334 950.836 636.523 943.512 629.199C936.285 621.777 930.572 613.037 926.373 602.979C922.174 592.822 920.074 581.885 920.074 570.166C920.074 558.252 922.174 547.217 926.373 537.061C930.572 526.904 936.285 518.164 943.512 510.84C950.836 503.418 959.332 497.607 969 493.408C978.766 489.209 989.166 487.109 1000.2 487.109C1011.33 487.109 1021.73 489.111 1031.4 493.115C1041.17 497.021 1049.66 502.637 1056.89 509.961C1064.12 517.188 1069.83 525.928 1074.03 536.182C1078.23 546.338 1080.33 557.666 1080.33 570.166ZM1040.04 570.166C1040.04 563.721 1038.97 557.91 1036.82 552.734C1034.77 547.461 1031.94 542.969 1028.33 539.258C1024.71 535.449 1020.46 532.568 1015.58 530.615C1010.8 528.564 1005.67 527.539 1000.2 527.539C994.732 527.539 989.557 528.564 984.674 530.615C979.889 532.568 975.689 535.449 972.076 539.258C968.561 542.969 965.777 547.461 963.727 552.734C961.676 557.91 960.65 563.721 960.65 570.166C960.65 576.221 961.676 581.836 963.727 587.012C965.777 592.188 968.561 596.68 972.076 600.488C975.689 604.297 979.889 607.324 984.674 609.57C989.557 611.719 994.732 612.793 1000.2 612.793C1005.67 612.793 1010.8 611.768 1015.58 609.717C1020.46 607.666 1024.71 604.785 1028.33 601.074C1031.94 597.363 1034.77 592.871 1036.82 587.598C1038.97 582.324 1040.04 576.514 1040.04 570.166ZM1251.06 570.166C1251.06 581.885 1248.96 592.822 1244.76 602.979C1240.56 613.037 1234.85 621.777 1227.62 629.199C1220.39 636.523 1211.9 642.334 1202.13 646.631C1192.46 650.83 1182.06 652.93 1170.93 652.93C1159.9 652.93 1149.5 650.83 1139.73 646.631C1130.06 642.334 1121.57 636.523 1114.24 629.199C1107.02 621.777 1101.3 613.037 1097.1 602.979C1092.9 592.822 1090.8 581.885 1090.8 570.166C1090.8 558.252 1092.9 547.217 1097.1 537.061C1101.3 526.904 1107.02 518.164 1114.24 510.84C1121.57 503.418 1130.06 497.607 1139.73 493.408C1149.5 489.209 1159.9 487.109 1170.93 487.109C1182.06 487.109 1192.46 489.111 1202.13 493.115C1211.9 497.021 1220.39 502.637 1227.62 509.961C1234.85 517.188 1240.56 525.928 1244.76 536.182C1248.96 546.338 1251.06 557.666 1251.06 570.166ZM1210.78 570.166C1210.78 563.721 1209.7 557.91 1207.55 552.734C1205.5 547.461 1202.67 542.969 1199.06 539.258C1195.44 535.449 1191.2 532.568 1186.31 530.615C1181.53 528.564 1176.4 527.539 1170.93 527.539C1165.46 527.539 1160.29 528.564 1155.4 530.615C1150.62 532.568 1146.42 535.449 1142.81 539.258C1139.29 542.969 1136.51 547.461 1134.46 552.734C1132.41 557.91 1131.38 563.721 1131.38 570.166C1131.38 576.221 1132.41 581.836 1134.46 587.012C1136.51 592.188 1139.29 596.68 1142.81 600.488C1146.42 604.297 1150.62 607.324 1155.4 609.57C1160.29 611.719 1165.46 612.793 1170.93 612.793C1176.4 612.793 1181.53 611.768 1186.31 609.717C1191.2 607.666 1195.44 604.785 1199.06 601.074C1202.67 597.363 1205.5 592.871 1207.55 587.598C1209.7 582.324 1210.78 576.514 1210.78 570.166ZM1301.46 650H1261.18V430.713H1301.46V568.994L1361.08 493.408H1407.08L1355.07 558.74L1407.08 650H1361.08L1329.29 593.018L1301.46 629.932V650Z" fill="white"/>
</svg>
