<svg width="1080" height="1080" viewBox="0 0 1080 1080" fill="none" xmlns="http://www.w3.org/2000/svg">
<g clip-path="url(#clip0_544_899)">
<path d="M1080 0H0V1080H1080V0Z" fill="black"/>
<path d="M1080 0H0V1080H1080V0Z" fill="#F3F3F3"/>
<path d="M1079.82 -0.173055L-0.18457 1079.83L0.168983 1080.18L1080.17 0.180499L1079.82 -0.173055Z" fill="#999999"/>
<path d="M0.168983 -0.18003L-0.18457 0.173523L1079.82 1080.17L1080.17 1079.82L0.168983 -0.18003Z" fill="#999999"/>
<g opacity="0.45">
<path opacity="0.31" d="M709.71 709.71L540 772.23L172.3 907.7L307.77 540L370.29 370.29L511.72 511.72C504.433 519.264 500.402 529.368 500.493 539.856C500.584 550.344 504.791 560.376 512.207 567.793C519.623 575.209 529.656 579.416 540.144 579.507C550.632 579.598 560.736 575.566 568.28 568.28L709.71 709.71Z" fill="#545454"/>
<path opacity="0.31" d="M907.7 172.3L772.23 540L709.71 709.71L568.28 568.28C575.566 560.736 579.598 550.632 579.507 540.144C579.416 529.656 575.209 519.624 567.793 512.207C560.376 504.791 550.344 500.584 539.856 500.493C529.368 500.402 519.264 504.434 511.72 511.72L370.29 370.29L540 307.77L907.7 172.3Z" fill="#545454"/>
<path opacity="0.31" d="M709.71 370.29L568.28 511.72C560.736 504.434 550.632 500.402 540.144 500.493C529.656 500.584 519.623 504.791 512.207 512.207C504.791 519.624 500.584 529.656 500.493 540.144C500.402 550.632 504.433 560.736 511.72 568.28L370.29 709.71L307.77 540L172.3 172.3L540 307.77L709.71 370.29Z" fill="#545454"/>
<path opacity="0.31" d="M907.7 907.7L540 772.23L370.29 709.71L511.72 568.28C519.264 575.566 529.368 579.598 539.856 579.507C550.344 579.416 560.376 575.209 567.793 567.793C575.209 560.376 579.416 550.344 579.507 539.856C579.598 529.368 575.566 519.264 568.28 511.72L709.71 370.29L772.23 540L907.7 907.7Z" fill="#545454"/>
</g>
<path d="M152.71 163.61L163.61 152.72L322.11 311.21C323.55 312.658 324.358 314.618 324.358 316.66C324.358 318.702 323.55 320.662 322.11 322.11C320.662 323.55 318.702 324.358 316.66 324.358C314.618 324.358 312.658 323.55 311.21 322.11L152.71 163.61Z" fill="#B2B2B2"/>
<path d="M927.29 916.39L916.39 927.28L757.89 768.79C756.45 767.342 755.642 765.382 755.642 763.34C755.642 761.298 756.45 759.338 757.89 757.89C759.338 756.45 761.297 755.642 763.34 755.642C765.382 755.642 767.341 756.45 768.79 757.89L927.29 916.39Z" fill="#B2B2B2"/>
<path d="M916.39 152.71L927.28 163.61L768.79 322.11C767.341 323.55 765.382 324.358 763.34 324.358C761.297 324.358 759.338 323.55 757.89 322.11C756.45 320.662 755.642 318.702 755.642 316.66C755.642 314.618 756.45 312.658 757.89 311.21L916.39 152.71Z" fill="#B2B2B2"/>
<path d="M163.61 927.29L152.72 916.39L311.21 757.89C312.658 756.45 314.617 755.642 316.66 755.642C318.702 755.642 320.661 756.45 322.11 757.89C323.55 759.338 324.358 761.298 324.358 763.34C324.358 765.382 323.55 767.342 322.11 768.79L163.61 927.29Z" fill="#B2B2B2"/>
</g>
<defs>
<clipPath id="clip0_544_899">
<rect width="1080" height="1080" fill="white"/>
</clipPath>
</defs>
</svg>
