<svg width="1080" height="1080" viewBox="0 0 1080 1080" fill="none" xmlns="http://www.w3.org/2000/svg">
<g clip-path="url(#clip0_544_936)">
<path d="M1080 0H0V1080H1080V0Z" fill="black"/>
<path d="M1080 0H0V1080H1080V0Z" fill="#F3F3F3"/>
<path d="M1080 539.75H0V540.25H1080V539.75Z" fill="#999999"/>
<path d="M540.25 0H539.75V1080H540.25V0Z" fill="#999999"/>
<g opacity="0.45">
<path opacity="0.31" d="M709.71 709.71L540 772.23L189.56 901.34L322.11 768.79C322.857 768.081 323.453 767.23 323.865 766.287C324.277 765.344 324.496 764.328 324.51 763.299C324.523 762.27 324.33 761.249 323.942 760.295C323.554 759.342 322.98 758.476 322.252 757.748C321.524 757.021 320.658 756.446 319.705 756.058C318.752 755.671 317.73 755.478 316.701 755.491C315.672 755.504 314.656 755.723 313.713 756.135C312.77 756.547 311.919 757.144 311.21 757.89L178.65 890.45L307.77 540L370.29 370.29L511.72 511.72C504.434 519.264 500.402 529.368 500.493 539.856C500.585 550.344 504.791 560.376 512.208 567.793C519.624 575.209 529.657 579.416 540.144 579.507C550.632 579.598 560.736 575.566 568.28 568.28L709.71 709.71Z" fill="#545454"/>
<path opacity="0.31" d="M901.35 189.55L772.23 540L709.71 709.71L568.28 568.28C575.566 560.736 579.598 550.632 579.507 540.144C579.416 529.656 575.209 519.624 567.793 512.207C560.376 504.791 550.344 500.584 539.856 500.493C529.368 500.402 519.264 504.434 511.72 511.72L370.29 370.29L540 307.77L890.44 178.66L757.89 311.21C757.144 311.919 756.547 312.77 756.135 313.713C755.723 314.656 755.504 315.672 755.491 316.701C755.478 317.73 755.671 318.751 756.058 319.705C756.446 320.658 757.021 321.524 757.748 322.252C758.476 322.979 759.342 323.554 760.295 323.942C761.249 324.329 762.27 324.522 763.299 324.509C764.328 324.496 765.344 324.277 766.287 323.865C767.23 323.453 768.081 322.856 768.79 322.11L901.35 189.55Z" fill="#545454"/>
<path opacity="0.31" d="M709.71 370.29L568.28 511.72C560.736 504.434 550.632 500.402 540.144 500.493C529.656 500.584 519.624 504.791 512.207 512.207C504.791 519.624 500.584 529.656 500.493 540.144C500.402 550.632 504.434 560.736 511.72 568.28L370.29 709.71L307.77 540L178.66 189.56L311.21 322.11C312.668 323.495 314.609 324.255 316.619 324.23C318.63 324.204 320.55 323.394 321.972 321.972C323.394 320.55 324.204 318.629 324.23 316.619C324.255 314.609 323.495 312.668 322.11 311.21L189.55 178.65L540 307.77L709.71 370.29Z" fill="#545454"/>
<path opacity="0.31" d="M757.89 768.79L890.45 901.35L540 772.23L370.29 709.71L511.72 568.28C519.264 575.566 529.368 579.598 539.856 579.507C550.344 579.416 560.376 575.209 567.793 567.793C575.209 560.376 579.416 550.344 579.507 539.856C579.598 529.368 575.566 519.264 568.28 511.72L709.71 370.29L772.23 540L901.34 890.44L768.79 757.89C768.081 757.144 767.23 756.547 766.287 756.135C765.344 755.723 764.328 755.504 763.299 755.491C762.27 755.478 761.249 755.671 760.295 756.058C759.342 756.446 758.476 757.021 757.748 757.748C757.021 758.476 756.446 759.342 756.058 760.295C755.671 761.249 755.478 762.27 755.491 763.299C755.504 764.328 755.723 765.344 756.135 766.287C756.547 767.23 757.144 768.081 757.89 768.79Z" fill="#545454"/>
</g>
<g opacity="0.49">
<path opacity="0.52" d="M820 660C886.274 660 940 606.274 940 540C940 473.726 886.274 420 820 420C753.726 420 700 473.726 700 540C700 606.274 753.726 660 820 660Z" fill="#898989"/>
<path opacity="0.52" d="M260 660C326.274 660 380 606.274 380 540C380 473.726 326.274 420 260 420C193.726 420 140 473.726 140 540C140 606.274 193.726 660 260 660Z" fill="#898989"/>
<path opacity="0.52" d="M540 940C606.274 940 660 886.274 660 820C660 753.726 606.274 700 540 700C473.726 700 420 753.726 420 820C420 886.274 473.726 940 540 940Z" fill="#898989"/>
<path opacity="0.52" d="M540 380C606.274 380 660 326.274 660 260C660 193.726 606.274 140 540 140C473.726 140 420 193.726 420 260C420 326.274 473.726 380 540 380Z" fill="#898989"/>
</g>
</g>
<defs>
<clipPath id="clip0_544_936">
<rect width="1080" height="1080" fill="white"/>
</clipPath>
</defs>
</svg>
