<svg width="1920" height="540" viewBox="0 0 1920 540" fill="none" xmlns="http://www.w3.org/2000/svg">
<rect width="1920" height="540" fill="black"/>
<path d="M787.48 241.36V255.44H772.44V298H754.68V255.44H739.8V241.36H787.48ZM844.697 241.36V298H826.937V275.92H810.057V298H792.297V241.36H810.057V261.76H826.937V241.36H844.697ZM870.448 255.52V262.48H888.048V275.84H870.448V283.84H890.448V298H852.688V241.36H890.448V255.52H870.448ZM932.894 298.56C926.121 298.56 920.521 296.987 916.094 293.84C911.721 290.64 909.348 285.973 908.974 279.84H927.854C928.121 283.093 929.561 284.72 932.174 284.72C933.134 284.72 933.934 284.507 934.574 284.08C935.268 283.6 935.614 282.88 935.614 281.92C935.614 280.587 934.894 279.52 933.454 278.72C932.014 277.867 929.774 276.907 926.734 275.84C923.108 274.56 920.094 273.307 917.694 272.08C915.348 270.853 913.321 269.067 911.614 266.72C909.908 264.373 909.081 261.36 909.134 257.68C909.134 254 910.068 250.88 911.934 248.32C913.854 245.707 916.441 243.733 919.694 242.4C923.001 241.067 926.708 240.4 930.814 240.4C937.748 240.4 943.241 242 947.294 245.2C951.401 248.4 953.561 252.907 953.774 258.72H934.654C934.601 257.12 934.201 255.973 933.454 255.28C932.708 254.587 931.801 254.24 930.734 254.24C929.988 254.24 929.374 254.507 928.894 255.04C928.414 255.52 928.174 256.213 928.174 257.12C928.174 258.4 928.868 259.467 930.254 260.32C931.694 261.12 933.961 262.107 937.054 263.28C940.628 264.613 943.561 265.893 945.854 267.12C948.201 268.347 950.228 270.053 951.934 272.24C953.641 274.427 954.494 277.173 954.494 280.48C954.494 283.947 953.641 287.067 951.934 289.84C950.228 292.56 947.748 294.693 944.494 296.24C941.241 297.787 937.374 298.56 932.894 298.56ZM1005.21 241.36V255.44H990.174V298H972.414V255.44H957.534V241.36H1005.21ZM1037.63 298.56C1032.3 298.56 1027.39 297.307 1022.91 294.8C1018.48 292.293 1014.96 288.827 1012.35 284.4C1009.74 279.973 1008.43 274.987 1008.43 269.44C1008.43 263.893 1009.74 258.907 1012.35 254.48C1014.96 250.053 1018.48 246.613 1022.91 244.16C1027.39 241.653 1032.3 240.4 1037.63 240.4C1042.96 240.4 1047.84 241.653 1052.27 244.16C1056.7 246.613 1060.19 250.053 1062.75 254.48C1065.36 258.907 1066.67 263.893 1066.67 269.44C1066.67 274.987 1065.36 279.973 1062.75 284.4C1060.19 288.827 1056.67 292.293 1052.19 294.8C1047.76 297.307 1042.91 298.56 1037.63 298.56ZM1037.63 282C1041.15 282 1043.87 280.88 1045.79 278.64C1047.71 276.347 1048.67 273.28 1048.67 269.44C1048.67 265.547 1047.71 262.48 1045.79 260.24C1043.87 257.947 1041.15 256.8 1037.63 256.8C1034.06 256.8 1031.31 257.947 1029.39 260.24C1027.47 262.48 1026.51 265.547 1026.51 269.44C1026.51 273.28 1027.47 276.347 1029.39 278.64C1031.31 280.88 1034.06 282 1037.63 282ZM1101.56 298L1090.92 277.68H1090.84V298H1073.08V241.36H1099.48C1104.06 241.36 1107.98 242.187 1111.24 243.84C1114.49 245.44 1116.92 247.653 1118.52 250.48C1120.17 253.253 1121 256.4 1121 259.92C1121 263.707 1119.93 267.067 1117.8 270C1115.72 272.933 1112.7 275.04 1108.76 276.32L1121.08 298H1101.56ZM1090.84 265.84H1097.88C1099.58 265.84 1100.86 265.467 1101.72 264.72C1102.57 263.92 1103 262.693 1103 261.04C1103 259.547 1102.54 258.373 1101.64 257.52C1100.78 256.667 1099.53 256.24 1097.88 256.24H1090.84V265.84ZM1181.07 241.36L1160.75 280.8V298H1142.99V280.8L1122.67 241.36H1142.99L1152.03 261.44L1161.07 241.36H1181.07Z" fill="white"/>
</svg>
