<svg width="1080" height="1080" viewBox="0 0 1080 1080" fill="none" xmlns="http://www.w3.org/2000/svg">
<path d="M331.6 579.249L512.3 747.949C519.8 754.949 529.7 758.849 540 758.849C550.3 758.849 560.2 754.949 567.7 747.949L748.4 579.249C778.8 550.949 796 511.249 796 469.749V463.949C796 394.049 745.5 334.449 676.6 322.949C631 315.349 584.6 330.249 552 362.849L540 374.849L528 362.849C495.4 330.249 449 315.349 403.4 322.949C334.5 334.449 284 394.049 284 463.949V469.749C284 511.249 301.2 550.949 331.6 579.249Z" fill="#CCCCCC"/>
</svg>
