<svg width="1080" height="1080" viewBox="0 0 1080 1080" fill="none" xmlns="http://www.w3.org/2000/svg">
<path d="M827.8 539.5C827.8 557.5 812.8 571.6 795.8 571.6H763.8L764.5 731.8C764.5 734.5 764.3 737.2 764 739.9V756C764 778.1 746.1 796 724 796H708C706.9 796 705.8 796 704.7 795.9C703.3 796 701.9 796 700.5 796H668H644C621.9 796 604 778.1 604 756V732V668C604 650.3 589.7 636 572 636H508C490.3 636 476 650.3 476 668V732V756C476 778.1 458.1 796 436 796H412H380.1C378.6 796 377.1 795.9 375.6 795.8C374.4 795.9 373.2 796 372 796H356C333.9 796 316 778.1 316 756V644C316 643.1 316 642.1 316.1 641.2V571.6H284C266 571.6 252 557.6 252 539.5C252 530.5 255 522.5 262 515.5L518.4 292C525.4 285 533.4 284 540.4 284C547.4 284 555.4 286 561.4 291L816.8 515.5C824.8 522.5 828.8 530.5 827.8 539.5Z" fill="#CCCCCC"/>
</svg>
