<svg width="1080" height="1080" viewBox="0 0 1080 1080" fill="none" xmlns="http://www.w3.org/2000/svg">
<g clip-path="url(#clip0_544_966)">
<path d="M1080 0H0V1080H1080V0Z" fill="black"/>
<path d="M1080 0H0V1080H1080V0Z" fill="#F3F3F3"/>
<path d="M1080 539.75H0V540.25H1080V539.75Z" fill="#D2D2D2"/>
<path d="M540.25 0H539.75V1080H540.25V0Z" fill="#D2D2D2"/>
<path d="M1079.81 -0.173055L-0.185547 1079.83L0.168007 1080.18L1080.17 0.180499L1079.81 -0.173055Z" fill="#D2D2D2"/>
<path d="M0.168007 -0.18003L-0.185547 0.173523L1079.81 1080.17L1080.17 1079.82L0.168007 -0.18003Z" fill="#D2D2D2"/>
<g opacity="0.45">
<path opacity="0.31" d="M763.34 755.64C765.383 755.638 767.344 756.448 768.79 757.89L901.34 890.44L816.42 659.94C785.267 658.955 755.719 645.886 734.031 623.501C712.342 601.115 700.215 571.169 700.215 540C700.215 508.831 712.342 478.885 734.031 456.499C755.719 434.114 785.267 421.046 816.42 420.06L901.35 189.55L768.79 322.11C767.333 323.495 765.392 324.255 763.381 324.23C761.371 324.204 759.45 323.394 758.028 321.972C756.607 320.55 755.797 318.629 755.771 316.619C755.745 314.609 756.506 312.668 757.89 311.21L890.44 178.66L659.94 263.58C658.955 294.733 645.886 324.281 623.501 345.97C601.115 367.658 571.169 379.786 540 379.786C508.831 379.786 478.885 367.658 456.5 345.97C434.114 324.281 421.046 294.733 420.06 263.58L189.55 178.65L322.11 311.21C323.495 312.668 324.256 314.609 324.23 316.619C324.204 318.629 323.394 320.55 321.972 321.972C320.551 323.394 318.63 324.204 316.619 324.23C314.609 324.255 312.668 323.495 311.21 322.11L178.66 189.56L263.58 420.06C294.734 421.046 324.281 434.114 345.97 456.499C367.659 478.885 379.786 508.831 379.786 540C379.786 571.169 367.659 601.115 345.97 623.501C324.281 645.886 294.734 658.955 263.58 659.94L178.65 890.45L311.21 757.89C312.668 756.505 314.609 755.745 316.619 755.771C318.63 755.796 320.551 756.606 321.972 758.028C323.394 759.45 324.204 761.371 324.23 763.381C324.256 765.391 323.495 767.332 322.11 768.79L189.56 901.34L420.06 816.42C421.046 785.267 434.114 755.719 456.5 734.03C478.885 712.342 508.831 700.214 540 700.214C571.169 700.214 601.115 712.342 623.501 734.03C645.886 755.719 658.955 785.267 659.94 816.42L890.45 901.35L757.89 768.79C756.811 767.713 756.076 766.34 755.778 764.845C755.48 763.35 755.633 761.8 756.217 760.392C756.8 758.984 757.789 757.78 759.057 756.934C760.325 756.088 761.816 755.638 763.34 755.64ZM511.72 568.28C506.125 562.686 502.314 555.559 500.77 547.8C499.225 540.04 500.017 531.997 503.044 524.687C506.071 517.377 511.198 511.129 517.776 506.734C524.355 502.338 532.089 499.991 540 499.991C547.912 499.991 555.646 502.338 562.224 506.734C568.803 511.129 573.93 517.377 576.957 524.687C579.984 531.997 580.775 540.04 579.231 547.8C577.687 555.559 573.876 562.686 568.28 568.28C560.779 575.779 550.607 579.991 540 579.991C529.394 579.991 519.222 575.779 511.72 568.28Z" fill="#898989"/>
</g>
</g>
<defs>
<clipPath id="clip0_544_966">
<rect width="1080" height="1080" fill="white"/>
</clipPath>
</defs>
</svg>
