<svg width="1080" height="1080" viewBox="0 0 1080 1080" fill="none" xmlns="http://www.w3.org/2000/svg">
<g clip-path="url(#clip0_549_1057)">
<path d="M1080 0H0V1080H1080V0Z" fill="black"/>
<path d="M1080 0H0V1080H1080V0Z" fill="#F3F3F3"/>
<path d="M1080 539.75H0V540.25H1080V539.75Z" fill="black"/>
<path d="M1080.25 540.5H-0.25V539.5H1080.25V540.5Z" fill="#020202"/>
<path d="M540.25 0H539.75V1080H540.25V0Z" fill="black"/>
<path d="M540.5 -0.25H539.5V1080.25H540.5V-0.25Z" fill="#020202"/>
<path d="M1079.82 -0.172933L-0.18457 1079.83L0.168983 1080.18L1080.17 0.180621L1079.82 -0.172933Z" fill="black"/>
<path d="M1079.82 -0.526486L-0.538086 1079.83L0.169021 1080.53L1080.52 0.180621L1079.82 -0.526486Z" fill="#020202"/>
<path d="M0.168983 -0.180214L-0.18457 0.17334L1079.82 1080.17L1080.17 1079.82L0.168983 -0.180214Z" fill="black"/>
<path d="M0.169021 -0.533767L-0.538086 0.17334L1079.82 1080.53L1080.52 1079.82L0.169021 -0.533767Z" fill="#020202"/>
<path d="M709.91 710.61L369.39 370.1L370.12 369.83L908.54 171.46L908.16 172.46L709.91 710.61ZM371.2 370.49L709.51 708.8L906.85 173.15L371.2 370.49Z" fill="#020202"/>
<path d="M171.46 908.54L370.1 369.39L710.61 709.91L709.88 710.17L171.46 908.54ZM370.46 371.2L173.15 906.85L708.8 709.51L370.46 371.2Z" fill="#020202"/>
<path d="M908.54 908.54L907.54 908.16L369.39 709.91L709.91 369.39L710.17 370.12L908.54 908.54ZM371.2 709.54L906.85 906.85L709.51 371.2L371.2 709.54Z" fill="#020202"/>
<path d="M370.1 710.61L369.83 709.88L171.46 171.46L710.61 370.1L370.1 710.61ZM173.1 173.15L370.49 708.8L708.8 370.49L173.1 173.15Z" fill="#020202"/>
</g>
<defs>
<clipPath id="clip0_549_1057">
<rect width="1080" height="1080" fill="white"/>
</clipPath>
</defs>
</svg>
