<svg width="270" height="270" viewBox="0 0 270 270" fill="none" xmlns="http://www.w3.org/2000/svg">
<path d="M148.271 117.429L173.576 92.1095C163.447 81.9747 149.554 77 134.907 77C120.406 77 105.135 81.8759 95.574 91.4462L118.681 114.567L123.136 110.109L104.914 91.8766C112.743 86.5268 123.602 83.3368 134.725 83.317H134.907C146.054 83.317 156.313 86.515 164.331 92.4451L145.194 111.594L143.817 112.971L139.346 108.518L153.279 94.5731C147.991 91.2765 141.836 89.6064 134.891 89.6064C127.946 89.6064 121.195 91.3001 116.104 94.1586L127.749 105.821L134.907 112.983L139.346 117.429L137.929 118.85L134.907 121.875L130.452 117.421L132.681 115.186L128.226 110.745L126.581 112.391L125.997 112.975L121.542 117.433L120.378 118.617L124.829 123.075L126.013 121.89L134.922 130.805L143.832 121.89L147.968 126.028L152.423 121.57L148.271 117.429ZM134.907 104.061L127.508 96.6736C129.938 96.1685 132.413 95.9119 134.895 95.9076C137.364 95.8989 139.826 96.1785 142.23 96.7407L134.907 104.061Z" fill="white"/>
<path d="M121.541 152.447L96.2358 177.766C106.365 187.901 120.258 192.876 134.906 192.876C149.411 192.876 164.673 188 174.234 178.429L151.127 155.309L146.672 159.767L164.894 177.999C157.066 183.349 146.207 186.539 135.079 186.57H134.902C123.743 186.57 113.515 183.361 105.477 177.431L124.615 158.282L125.992 156.904L130.447 161.358L116.518 175.306C121.805 178.603 127.961 180.273 134.906 180.273C141.85 180.273 148.626 178.579 153.708 175.721L142.063 164.066L134.906 156.904L130.451 152.447L131.883 151.014L134.906 147.989L139.345 152.443L137.115 154.677L141.586 159.119L142.596 158.108L143.815 156.888L148.27 152.431L149.434 151.246L144.98 146.789L143.815 147.973L134.906 139.059L125.996 147.973L121.86 143.836L117.406 148.309L121.541 152.447ZM134.906 165.831L142.292 173.222C139.862 173.724 137.387 173.979 134.906 173.984C132.44 173.996 129.98 173.72 127.578 173.163L134.906 165.831Z" fill="white"/>
<path d="M152.406 148.309L177.711 173.629C187.84 163.494 192.812 149.592 192.812 134.937C192.812 120.424 187.939 105.152 178.374 95.5859L155.267 118.706L159.718 123.164L177.944 104.931C183.287 112.764 186.479 123.63 186.514 134.763V134.941C186.514 146.106 183.303 156.34 177.376 164.382L158.238 145.234L156.857 143.856L161.312 139.379L175.253 153.335C178.552 148.045 180.221 141.886 180.221 134.937C180.221 127.988 178.52 121.217 175.647 116.124L163.999 127.775L156.837 134.937L152.406 139.379L150.974 137.945L147.947 134.921L152.402 130.464L154.632 132.694L159.075 128.253L157.429 126.606L156.845 126.022L152.39 121.565L151.207 120.4L146.752 124.853L147.935 126.038L139.03 134.953L147.939 143.868L143.804 148.005L148.259 152.463L152.406 148.309ZM165.783 134.937L173.15 127.534C173.654 129.966 173.911 132.442 173.915 134.925C173.927 137.393 173.651 139.853 173.094 142.257L165.783 134.937Z" fill="white"/>
<path d="M117.406 121.565L92.1009 96.2461C81.9718 106.381 77 120.282 77 134.938C77 149.451 81.8732 164.723 91.4341 174.289L114.545 151.169L110.09 146.715L91.8681 164.948C86.5214 157.114 83.3332 146.249 83.3134 135.115V134.938C83.3134 123.772 86.5214 113.539 92.4521 105.497L111.59 124.645L112.967 126.023L108.496 130.48L94.5632 116.54C91.2684 121.83 89.5992 127.989 89.5992 134.938C89.5992 141.887 91.292 148.669 94.1489 153.751L105.805 142.1L112.963 134.938L117.418 130.48L118.85 131.914L121.873 134.938L117.41 139.379L115.177 137.149L110.722 141.622L112.371 143.268L112.955 143.853L117.41 148.31L118.594 149.475L123.049 145.021L121.865 143.837L130.775 134.922L121.865 126.007L126 121.869L121.541 117.428L117.406 121.565ZM104.045 134.938L96.6585 142.329C96.157 139.897 95.9018 137.421 95.8969 134.938C95.8891 132.47 96.1685 130.009 96.7295 127.606L104.045 134.938Z" fill="white"/>
</svg>
