<svg width="270" height="270" viewBox="0 0 270 270" fill="none" xmlns="http://www.w3.org/2000/svg">
<path d="M135.475 83.4609C125.19 83.458 115.135 86.5052 106.582 92.2172C98.0287 97.9292 91.3615 106.049 87.4235 115.551C83.4855 125.052 82.4536 135.508 84.4583 145.596C86.463 155.684 91.4143 164.951 98.686 172.224C105.958 179.498 115.223 184.452 125.31 186.46C135.398 188.467 145.854 187.438 155.356 183.503C164.859 179.568 172.981 172.903 178.695 164.351C184.41 155.8 187.46 145.746 187.46 135.46C187.44 121.678 181.957 108.465 172.213 98.7182C162.469 88.9711 149.258 83.4846 135.475 83.4609ZM176.093 159.831L159.846 176.078L146.961 163.193V181.419H123.974V163.193L111.09 176.078L94.8428 159.831L107.772 146.946H89.5015V123.96H107.772L94.8875 111.075L111.09 94.8279L123.974 107.757V89.4866H146.961V107.757L159.846 94.8279L176.093 111.075L163.208 123.96H181.434V146.946H163.208L176.093 159.831Z" fill="white"/>
<path d="M135.475 78C124.11 77.9971 112.999 81.3645 103.548 87.6765C94.0965 93.9885 86.7294 102.961 82.3782 113.461C78.0269 123.96 76.8869 135.513 79.1023 146.661C81.3177 157.808 86.789 168.047 94.8243 176.085C102.86 184.122 113.098 189.596 124.244 191.814C135.391 194.033 146.945 192.896 157.445 188.547C167.946 184.199 176.92 176.834 183.235 167.384C189.549 157.935 192.92 146.825 192.92 135.46C192.92 120.223 186.868 105.61 176.095 94.8348C165.323 84.0595 150.711 78.0039 135.475 78ZM173.861 173.846C164.333 183.351 151.608 188.969 138.165 189.604C124.722 190.239 111.524 185.847 101.143 177.282C90.762 168.717 83.942 156.593 82.0121 143.274C80.0821 129.955 83.1805 116.394 90.7034 105.235C98.2263 94.0759 109.635 86.1174 122.705 82.9108C135.776 79.7041 149.572 81.479 161.406 87.8895C173.239 94.3 182.261 104.887 186.715 117.587C191.168 130.287 190.734 144.19 185.495 156.587C182.771 163.039 178.819 168.9 173.861 173.846Z" fill="white"/>
</svg>
