<svg width="270" height="270" viewBox="0 0 270 270" fill="none" xmlns="http://www.w3.org/2000/svg">
<path d="M170.246 83.3984C176.452 87.4072 181.735 92.6901 185.744 98.8965L179.873 111.374C179.727 111.682 179.651 112.018 179.651 112.359C179.651 112.7 179.727 113.036 179.873 113.344C180.53 114.726 184.191 124.452 183.327 132.29H165.068C164.58 125.782 162.014 119.603 157.749 114.664L172.177 100.236C172.58 99.8347 172.82 99.2978 172.851 98.7295C172.881 98.1611 172.699 97.6017 172.341 97.1596C169.26 93.4389 165.676 90.1655 161.693 87.4339L170.246 83.3984Z" fill="white"/>
<path d="M123.614 73.1599C130.837 71.6134 138.307 71.6134 145.531 73.1599L150.2 86.1199C150.302 86.444 150.481 86.7389 150.721 86.9795C150.961 87.2201 151.255 87.3994 151.579 87.5022C155.414 88.5102 163.137 92.5095 167.422 98.4625L154.498 111.403C149.558 107.14 143.379 104.575 136.872 104.087V83.6901C136.875 83.1193 136.666 82.5679 136.285 82.143C135.904 81.7182 135.378 81.4503 134.81 81.3916C130.004 80.94 125.158 81.161 120.412 82.0483L123.614 73.1599Z" fill="white"/>
<path d="M83.4004 98.8965C87.4116 92.6921 92.694 87.4097 98.8985 83.3984L111.376 89.2693C111.993 89.5583 112.765 89.6535 113.346 89.2693C118.11 86.0351 127.245 85.5688 132.295 85.8151V104.075C125.778 104.562 119.591 107.131 114.646 111.403L100.238 96.956C99.8365 96.5517 99.299 96.3109 98.7298 96.2806C98.1607 96.2503 97.6006 96.4325 97.1582 96.7918C93.4351 99.8786 90.1616 103.47 87.4325 107.463L83.4004 98.8965Z" fill="white"/>
<path d="M72 134.565C71.9985 130.882 72.3892 127.209 73.1656 123.608L86.119 118.952C86.4449 118.854 86.7415 118.676 86.9826 118.436C87.2236 118.195 87.4018 117.899 87.5014 117.573C88.3223 114.145 93.8385 105.26 98.4617 101.73L111.402 114.641C107.135 119.58 104.568 125.759 104.08 132.267H83.6925C83.1218 132.264 82.5703 132.473 82.1455 132.855C81.7206 133.236 81.4528 133.761 81.3941 134.329C80.9424 139.136 81.1635 143.982 82.0508 148.727L73.1656 145.522C72.389 141.922 71.9983 138.249 72 134.565Z" fill="white"/>
<path d="M98.8985 185.74C92.6951 181.729 87.4128 176.448 83.4004 170.245L89.2713 157.768C89.421 157.464 89.4989 157.13 89.4989 156.791C89.4989 156.452 89.421 156.118 89.2713 155.814C87.5671 152.501 84.809 142.68 85.817 136.865H104.08C104.567 143.376 107.134 149.557 111.402 154.498L96.9711 168.922C96.5676 169.324 96.3275 169.86 96.2972 170.429C96.2669 170.997 96.4485 171.557 96.8069 171.999C99.8874 175.719 103.474 178.989 107.462 181.715L98.8985 185.74Z" fill="white"/>
<path d="M145.531 195.974C138.307 197.52 130.837 197.52 123.613 195.974L118.954 183.011C118.853 182.685 118.674 182.389 118.433 182.148C118.192 181.907 117.897 181.727 117.572 181.625C113.303 180.541 105.318 175.301 101.729 170.665L114.653 157.744C119.592 162.009 125.771 164.573 132.278 165.06V185.447C132.275 186.018 132.485 186.569 132.866 186.994C133.247 187.419 133.773 187.687 134.34 187.745C139.147 188.197 143.993 187.976 148.739 187.089L145.531 195.974Z" fill="white"/>
<path d="M185.744 170.241C181.734 176.446 176.451 181.727 170.246 185.736L157.768 179.868C157.467 179.701 157.128 179.614 156.783 179.614C156.439 179.614 156.1 179.701 155.798 179.868C153.339 181.467 142.7 184.222 136.849 183.323V165.06C143.358 164.574 149.538 162.009 154.478 157.744L168.906 172.169C169.307 172.572 169.844 172.812 170.413 172.842C170.981 172.873 171.54 172.691 171.983 172.333C175.7 169.253 178.971 165.671 181.698 161.688L185.744 170.241Z" fill="white"/>
<path d="M195.982 145.526L183.016 150.195C182.693 150.302 182.4 150.483 182.16 150.723C181.919 150.962 181.738 151.255 181.63 151.577C180.422 155.629 176.192 163.444 170.673 167.42L157.749 154.496C162.015 149.556 164.581 143.376 165.068 136.867H185.452C186.022 136.87 186.573 136.661 186.998 136.281C187.423 135.9 187.691 135.375 187.75 134.808C188.202 130.002 187.981 125.156 187.094 120.41L195.989 123.612C197.538 130.834 197.538 138.303 195.989 145.526H195.982Z" fill="white"/>
</svg>
