<svg width="270" height="270" viewBox="0 0 270 270" fill="none" xmlns="http://www.w3.org/2000/svg">
<path d="M135.084 131.863C138.213 124.175 148.139 105.724 174.824 92.8255C152.382 71.6534 117.551 71.8641 95.4174 92.6221C113.463 100.725 128.229 113.14 135.084 131.863ZM158.548 90.1658L160.328 91.1105C150.173 98.0722 142.761 104.543 135.132 115.923C127.764 104.296 120.29 97.8143 109.837 90.9761L111.69 90.0205C126.299 82.4811 144.167 82.5683 158.548 90.1658Z" fill="white"/>
<path d="M179.663 97.9258C156.182 108.263 143.157 122.83 136.188 146.476L135.073 150.269C128.682 128.592 119.872 110.868 90.4828 97.9258C81.7808 108.342 77.0094 121.482 77 135.056C77 163.579 98.0143 188.025 125.917 192.396C125.917 187.4 125.314 168.938 123.886 161.511C118.495 133.534 107.635 122.397 95.5474 116.148C85.2328 134.406 92.3684 159.771 111.613 172.386L110.454 161.486C100.688 151.556 96.7791 140.917 98.4976 128.956L98.81 126.801L100.481 128.192C114.582 139.899 119.043 164.749 118.676 183.014L117.06 182.396C88.9423 171.692 73.6248 136.844 93.1604 107.173C115.032 118.862 131.672 135.961 131.821 192.893H138.325C138.47 135.961 155.113 118.862 176.982 107.173C196.517 136.844 181.203 171.692 153.083 182.386L151.466 183.003C151.117 164.749 155.56 139.899 169.646 128.192L171.321 126.801L171.634 128.956C173.352 140.917 169.454 151.556 159.677 161.468L158.514 172.368C177.77 159.753 184.895 134.377 174.569 116.133C162.496 122.383 151.637 133.534 146.23 161.497C144.799 168.92 144.199 187.382 144.199 192.381C172.099 188.021 193.117 163.564 193.117 135.042C193.112 121.477 188.351 108.343 179.663 97.9258Z" fill="white"/>
</svg>
