<svg width="270" height="270" viewBox="0 0 270 270" fill="none" xmlns="http://www.w3.org/2000/svg">
<path d="M141.501 192L133.593 136.647L192.891 136.647L192.891 192L141.501 192ZM173.112 172.18L173.112 156.493L156.207 156.493L158.484 172.18L173.112 172.18Z" fill="white"/>
<path d="M129.404 136.507L137.311 191.86L78.0129 191.86L78.0129 136.507L129.404 136.507ZM97.792 156.327L97.792 172.014L114.698 172.014L112.42 156.327L97.792 156.327Z" fill="white"/>
<path d="M114.702 96.8731L78 96.8731L78 77.159L137.307 77.159L129.415 132.417L78 132.417L78 112.75L112.394 112.75L114.702 96.8731Z" fill="white"/>
<rect x="78.0195" y="90.3473" width="19.7032" height="37.0248" fill="white"/>
<path d="M156.112 112.565L192.9 112.565L192.9 132.291L133.454 132.291L141.365 77L192.9 77L192.9 96.6781L158.425 96.6781L156.112 112.565Z" fill="white"/>
</svg>
