<svg width="270" height="270" viewBox="0 0 270 270" fill="none" xmlns="http://www.w3.org/2000/svg">
<path d="M141.5 192L133.593 136.647L192.891 136.647L192.891 192L141.5 192ZM173.112 172.18L173.112 156.493L156.206 156.493L158.484 172.18L173.112 172.18Z" fill="white"/>
<path d="M129.403 136.507L137.31 191.86L78.0117 191.86L78.0117 136.507L129.403 136.507ZM97.7907 156.327L97.7907 172.014L114.697 172.014L112.419 156.327L97.7907 156.327Z" fill="white"/>
<path d="M114.702 96.8732L78 96.8732L78 77.1591L137.307 77.1591L129.415 132.417L78 132.417L78 112.751L112.394 112.751L114.702 96.8732Z" fill="white"/>
<rect x="78.0195" y="90.3477" width="19.7032" height="37.0248" fill="white"/>
<path d="M156.11 112.565L192.898 112.565L192.898 132.291L133.453 132.291L141.363 77L192.898 77L192.898 96.6781L158.424 96.6781L156.11 112.565Z" fill="white"/>
</svg>
