<svg width="270" height="270" viewBox="0 0 270 270" fill="none" xmlns="http://www.w3.org/2000/svg">
<path d="M112.07 175.208L125.331 175.208L125.328 128.698L92.1352 128.7L92.1362 108.758L125.329 108.757L125.335 95.5004L78.8805 95.4531L78.8764 175.21L92.1278 175.209L92.1296 141.957L112.071 141.956L112.07 175.208ZM145.337 175.162L191.787 175.214L191.791 95.4572L178.524 95.4629L178.523 128.716L158.581 128.717L158.588 95.4689L145.346 95.4894L145.344 141.994L178.542 141.997L178.541 161.939L145.323 161.915L145.337 175.162ZM161.921 125.386L175.178 125.381L175.2 78.9558L95.468 78.945L95.4673 92.1965L128.715 92.1997L128.704 112.132L95.4663 112.138L95.4656 125.4L141.97 125.397L141.971 92.1941L161.913 92.1931L161.921 125.386ZM95.4175 191.751L175.174 191.717L175.17 178.461L141.942 178.477L141.943 158.536L175.186 158.534L175.192 145.278L128.688 145.28L128.681 178.478L108.739 178.479L108.746 145.281L95.4844 145.282L95.4175 191.751Z" fill="white"/>
</svg>
