<svg width="270" height="270" viewBox="0 0 270 270" fill="none" xmlns="http://www.w3.org/2000/svg">
<path d="M146.983 145.546L146.731 146.107L168.787 159.168L135 188L101.213 159.163L123.269 146.101L123.017 145.54L95.9412 153.568L77 125.275L84.7703 93.842L113.134 83L134.983 100.3L156.866 83L185.23 93.842L193 125.275L174.059 153.568L146.983 145.546ZM166.591 118.884C166.591 119.744 166.846 120.585 167.324 121.301C167.801 122.016 168.48 122.574 169.275 122.903C170.069 123.232 170.943 123.318 171.786 123.151C172.63 122.983 173.404 122.568 174.012 121.96C174.62 121.352 175.034 120.576 175.202 119.733C175.37 118.889 175.284 118.014 174.955 117.219C174.626 116.424 174.069 115.745 173.354 115.267C172.639 114.789 171.798 114.534 170.938 114.534C169.787 114.534 168.683 114.991 167.868 115.806C167.054 116.621 166.597 117.726 166.597 118.878L166.591 118.884ZM156.434 108.715C156.434 109.575 156.689 110.416 157.167 111.131C157.645 111.847 158.323 112.404 159.118 112.734C159.912 113.063 160.786 113.149 161.63 112.981C162.473 112.813 163.248 112.399 163.856 111.791C164.464 111.182 164.878 110.407 165.045 109.563C165.213 108.719 165.127 107.845 164.798 107.05C164.469 106.255 163.912 105.576 163.197 105.098C162.482 104.62 161.641 104.364 160.782 104.364C159.629 104.364 158.523 104.823 157.707 105.639C156.892 106.454 156.434 107.561 156.434 108.715ZM156.434 129.048C156.433 129.908 156.687 130.75 157.164 131.466C157.641 132.182 158.32 132.74 159.114 133.071C159.908 133.401 160.783 133.488 161.626 133.32C162.47 133.153 163.245 132.739 163.854 132.131C164.462 131.523 164.877 130.748 165.045 129.904C165.213 129.06 165.127 128.185 164.798 127.39C164.47 126.594 163.912 125.915 163.197 125.436C162.482 124.958 161.642 124.703 160.782 124.703C159.63 124.703 158.525 125.16 157.709 125.975C156.894 126.79 156.436 127.895 156.434 129.048ZM146.277 118.878C146.278 119.737 146.534 120.577 147.012 121.29C147.49 122.004 148.168 122.56 148.961 122.888C149.755 123.216 150.628 123.301 151.47 123.133C152.311 122.965 153.084 122.551 153.691 121.943C154.298 121.335 154.711 120.561 154.878 119.718C155.045 118.876 154.959 118.002 154.63 117.209C154.301 116.415 153.744 115.737 153.031 115.26C152.317 114.783 151.478 114.528 150.619 114.528C150.048 114.528 149.483 114.641 148.956 114.859C148.429 115.078 147.95 115.398 147.547 115.803C147.144 116.207 146.824 116.686 146.606 117.214C146.388 117.742 146.277 118.307 146.277 118.878ZM94.7367 120.908C94.7367 121.174 94.7892 121.438 94.8911 121.684C94.993 121.93 95.1424 122.154 95.3307 122.343C95.519 122.531 95.7426 122.681 95.9886 122.783C96.2347 122.885 96.4984 122.937 96.7647 122.937H103.762V129.967C103.762 130.505 103.976 131.021 104.356 131.402C104.736 131.782 105.252 131.996 105.79 131.996H109.846C110.384 131.996 110.9 131.782 111.28 131.402C111.66 131.021 111.874 130.505 111.874 129.967V122.943H118.899C119.437 122.943 119.953 122.729 120.333 122.348C120.714 121.968 120.927 121.451 120.927 120.913V116.855C120.927 116.316 120.714 115.799 120.334 115.418C119.953 115.036 119.438 114.821 118.899 114.82H111.874V107.795C111.874 107.257 111.66 106.741 111.28 106.36C110.9 105.98 110.384 105.766 109.846 105.766H105.79C105.252 105.766 104.736 105.98 104.356 106.36C103.976 106.741 103.762 107.257 103.762 107.795V114.82H96.7423C96.2039 114.821 95.6881 115.036 95.3079 115.418C94.9278 115.799 94.7143 116.316 94.7143 116.855L94.7367 120.908Z" fill="white"/>
</svg>
