<svg width="270" height="270" viewBox="0 0 270 270" fill="none" xmlns="http://www.w3.org/2000/svg">
<path d="M155.15 125.18V124.594C155.174 121.52 155.196 118.446 155.216 115.372C155.226 115.07 155.196 114.768 155.128 114.474C155.038 114.071 154.824 113.707 154.516 113.433C154.208 113.159 153.821 112.989 153.411 112.948C153.216 112.918 153.019 112.903 152.822 112.903C149.796 112.903 146.768 112.903 143.738 112.903C143.313 112.878 142.888 112.959 142.503 113.138C142.133 113.321 141.824 113.607 141.614 113.962C141.404 114.317 141.302 114.725 141.319 115.137C141.319 116.152 141.319 117.166 141.319 118.178V118.703C141.123 118.604 140.979 118.535 140.838 118.46L131.423 113.437C130.63 112.984 129.718 112.78 128.808 112.851C127.991 112.918 127.216 113.244 126.596 113.78C123.907 116.111 121.217 118.439 118.524 120.763C114.742 124.032 110.964 127.303 107.19 130.576C106.97 130.78 106.677 130.888 106.377 130.878C95.4303 130.878 84.4815 130.878 73.5308 130.878H73V83.974H197.633H197.677L197.721 83.9878C197.815 84.303 197.851 130.104 197.752 130.825C197.63 130.825 197.5 130.855 197.37 130.855C186.877 130.855 176.382 130.855 165.887 130.855C165.678 130.858 165.471 130.811 165.284 130.717C161.998 128.942 158.715 127.158 155.434 125.363C155.34 125.31 155.255 125.249 155.15 125.18Z" fill="white"/>
<path d="M144.622 125.258V117.159H151.005C150.98 120.653 150.955 124.144 150.931 127.664C151.378 127.918 151.81 128.167 152.246 128.407C156.382 130.685 160.52 132.96 164.661 135.232C164.803 135.293 164.921 135.398 164.998 135.531C165.076 135.664 165.109 135.818 165.093 135.971C165.082 147.071 165.082 158.169 165.093 169.265V169.818H107.35C107.35 169.646 107.331 169.486 107.331 169.326V163.825C107.331 154.737 107.331 145.651 107.331 136.568C107.321 136.406 107.351 136.244 107.418 136.096C107.485 135.948 107.587 135.819 107.715 135.719C114.758 129.613 121.8 123.501 128.84 117.383C128.965 117.275 129.092 117.17 129.238 117.048L144.622 125.258Z" fill="white"/>
<path d="M164.992 153.958H107.229V189.409H164.992V153.958Z" fill="white"/>
<path d="M197.693 80H73V89.7798H197.693V80Z" fill="white"/>
</svg>
