<svg width="270" height="270" viewBox="0 0 270 270" fill="none" xmlns="http://www.w3.org/2000/svg">
<path d="M155.15 125.18V124.594C155.174 121.52 155.196 118.446 155.216 115.372C155.226 115.07 155.196 114.768 155.128 114.474C155.038 114.071 154.824 113.707 154.516 113.433C154.208 113.159 153.821 112.989 153.411 112.948C153.216 112.918 153.019 112.903 152.822 112.904C149.796 112.904 146.768 112.904 143.738 112.904C143.313 112.878 142.888 112.959 142.503 113.139C142.133 113.321 141.824 113.607 141.614 113.962C141.404 114.317 141.302 114.725 141.319 115.137C141.319 116.152 141.319 117.166 141.319 118.178V118.703C141.123 118.604 140.979 118.535 140.838 118.46L131.423 113.437C130.63 112.984 129.718 112.78 128.808 112.851C127.991 112.919 127.216 113.244 126.596 113.78C123.907 116.111 121.217 118.439 118.524 120.763C114.742 124.032 110.964 127.303 107.19 130.576C106.97 130.78 106.677 130.889 106.377 130.878C95.4303 130.878 84.4815 130.878 73.5308 130.878H73V83.9741H197.633H197.677L197.721 83.9879C197.815 84.3031 197.851 130.104 197.752 130.825C197.63 130.825 197.5 130.856 197.37 130.856C186.877 130.856 176.382 130.856 165.887 130.856C165.677 130.859 165.471 130.811 165.284 130.717C161.998 128.943 158.715 127.158 155.434 125.363C155.34 125.31 155.255 125.249 155.15 125.18Z" fill="white"/>
<path d="M144.622 125.259V117.159H151.005C150.98 120.653 150.955 124.145 150.93 127.664C151.378 127.918 151.809 128.167 152.246 128.407C156.381 130.685 160.52 132.96 164.661 135.233C164.802 135.294 164.92 135.398 164.997 135.531C165.075 135.664 165.108 135.818 165.092 135.971C165.081 147.071 165.081 158.169 165.092 169.265V169.818H107.349C107.349 169.647 107.33 169.486 107.33 169.326V163.825C107.33 154.737 107.33 145.652 107.33 136.568C107.32 136.406 107.351 136.244 107.417 136.096C107.484 135.948 107.586 135.819 107.714 135.719C114.758 129.613 121.8 123.501 128.84 117.383C128.964 117.275 129.091 117.17 129.238 117.048L144.622 125.259Z" fill="white"/>
<path d="M164.993 153.958H107.23V189.409H164.993V153.958Z" fill="white"/>
<path d="M197.693 80H73V89.7798H197.693V80Z" fill="white"/>
</svg>
