<svg width="270" height="270" viewBox="0 0 270 270" fill="none" xmlns="http://www.w3.org/2000/svg">
<path d="M151.391 132.063V131.582C151.41 129.061 151.428 126.539 151.445 124.017C151.453 123.769 151.428 123.522 151.372 123.28C151.299 122.95 151.124 122.651 150.871 122.426C150.618 122.201 150.301 122.062 149.964 122.028C149.804 122.004 149.643 121.991 149.481 121.992C146.999 121.992 144.515 121.992 142.029 121.992C141.681 121.971 141.332 122.037 141.016 122.185C140.712 122.335 140.459 122.569 140.287 122.86C140.115 123.152 140.031 123.486 140.045 123.824C140.045 124.657 140.045 125.489 140.045 126.319V126.75C139.884 126.668 139.766 126.611 139.65 126.55L131.926 122.43C131.276 122.058 130.528 121.89 129.781 121.949C129.111 122.004 128.476 122.271 127.967 122.711C125.761 124.623 123.554 126.533 121.345 128.439C118.243 131.121 115.144 133.805 112.047 136.49C111.867 136.657 111.627 136.746 111.381 136.737C102.4 136.737 93.4187 136.737 84.4354 136.737H84V98.26H186.241H186.277L186.314 98.2714C186.391 98.5299 186.42 136.102 186.339 136.694C186.239 136.694 186.132 136.719 186.026 136.719C177.417 136.719 168.808 136.719 160.198 136.719C160.027 136.721 159.857 136.682 159.704 136.605C157.008 135.149 154.315 133.685 151.624 132.213C151.547 132.17 151.477 132.12 151.391 132.063Z" fill="white"/>
<path d="M142.754 132.127V125.483H147.991C147.97 128.349 147.95 131.213 147.929 134.1C148.297 134.309 148.65 134.513 149.009 134.71C152.401 136.579 155.796 138.445 159.193 140.309C159.309 140.359 159.406 140.445 159.469 140.554C159.533 140.663 159.56 140.789 159.547 140.915C159.538 150.021 159.538 159.125 159.547 168.228V168.681H112.178C112.178 168.54 112.162 168.409 112.162 168.277V163.765C112.162 156.31 112.162 148.856 112.162 141.405C112.155 141.272 112.18 141.139 112.234 141.018C112.289 140.897 112.373 140.79 112.478 140.708C118.256 135.7 124.033 130.686 129.808 125.667C129.91 125.578 130.014 125.492 130.134 125.392L142.754 132.127Z" fill="white"/>
<path d="M159.464 155.67H112.08V184.753H159.464V155.67Z" fill="white"/>
<path d="M186.29 95H84V103.023H186.29V95Z" fill="white"/>
</svg>
