<svg width="270" height="270" viewBox="0 0 270 270" fill="none" xmlns="http://www.w3.org/2000/svg">
<path fill-rule="evenodd" clip-rule="evenodd" d="M143.887 157.673L157.756 162.232L155.89 178.46L143.887 157.673Z" fill="white"/>
<path fill-rule="evenodd" clip-rule="evenodd" d="M143.887 157.662C161.381 141.208 172.245 118.918 174.427 95.001H197.999C196.823 111 192.497 126.608 185.271 140.93C178.044 155.252 168.06 168.005 155.89 178.457L143.887 157.662Z" fill="white"/>
<path fill-rule="evenodd" clip-rule="evenodd" d="M143.887 157.662C161.381 141.208 172.245 118.918 174.427 95.001L184.381 104.947C180.655 126.189 170.745 145.859 155.89 161.493V178.457L149.617 167.583L143.887 157.662Z" fill="white"/>
<path fill-rule="evenodd" clip-rule="evenodd" d="M103.95 148.662C117.862 142.489 129.335 131.878 136.573 118.49H86.5595L73 95.001H167.858C165.51 118.885 153.913 140.904 135.544 156.349L150.726 182.656C144.511 187.453 137.847 191.639 130.826 195.154L103.95 148.662Z" fill="white"/>
<path opacity="0.3" fill-rule="evenodd" clip-rule="evenodd" d="M167.855 95.001C165.508 118.885 153.91 140.904 135.542 156.349L150.724 182.656H137.081L119.883 152.719C132.338 145.19 142.669 133.873 149.528 118.423C151.224 114.634 152.623 110.718 153.71 106.712L167.855 95.001Z" fill="white"/>
<mask id="mask0_2_338" style="mask-type:luminance" maskUnits="userSpaceOnUse" x="73" y="95" width="81" height="101">
<path d="M86.5595 118.489H136.573C129.335 131.877 117.862 142.488 103.95 148.661L130.793 195.153C137.813 191.638 144.478 187.452 150.693 182.655H137.083L119.885 152.718C132.34 145.189 142.671 133.872 149.53 118.422C151.227 114.633 152.625 110.717 153.713 106.711H94.3221L73 95L86.5595 118.489Z" fill="white"/>
</mask>
<g mask="url(#mask0_2_338)">
<path d="M153.679 95H73V195.153H153.679V95Z" fill="white"/>
</g>
<path fill-rule="evenodd" clip-rule="evenodd" d="M103.949 148.661L130.792 195.153C137.812 191.638 144.477 187.453 150.692 182.656H137.082L119.884 152.718L103.949 148.661Z" fill="white"/>
<path fill-rule="evenodd" clip-rule="evenodd" d="M86.5595 118.49H136.606L153.679 106.745H94.2551L73 95.001L86.5595 118.49Z" fill="white"/>
<path opacity="0.3" fill-rule="evenodd" clip-rule="evenodd" d="M138.154 180.808L122.353 153.379C135.352 145.09 144.938 133.337 151.212 119.259C152.943 115.371 154.363 111.351 155.461 107.239L156.088 104.913H94.7487L73 95.001L94.2635 106.712H153.654C152.567 110.718 151.168 114.634 149.472 118.423C142.671 133.906 132.34 145.19 119.885 152.719L137.083 182.623H150.726L138.154 180.808Z" fill="white"/>
<path opacity="0.3" fill-rule="evenodd" clip-rule="evenodd" d="M184.377 104.947C180.652 126.189 170.741 145.859 155.887 161.493V178.457L157.752 162.229C172.57 146.414 182.454 126.62 186.193 105.273L186.36 104.319L174.423 95.001L184.377 104.947Z" fill="white"/>
<path opacity="0.5" fill-rule="evenodd" clip-rule="evenodd" d="M184.376 104.947L197.994 95.001H174.422L184.376 104.947Z" fill="white"/>
</svg>
