<svg width="270" height="270" viewBox="0 0 270 270" fill="none" xmlns="http://www.w3.org/2000/svg">
<path d="M83 152.934C83.011 161.645 86.3539 170.022 92.3435 176.347C98.333 182.672 106.515 186.467 115.213 186.952V118.917C106.515 119.4 98.3312 123.194 92.3413 129.519C86.3514 135.845 83.0091 144.223 83 152.934Z" fill="white"/>
<path d="M154.847 151.035C163.557 150.573 171.757 146.787 177.758 140.458C183.759 134.129 187.105 125.74 187.105 117.018C187.105 108.296 183.759 99.9064 177.758 93.5776C171.757 87.2488 163.557 83.463 154.847 83V151.035Z" fill="white"/>
<path d="M133.38 187.002H151.141V169.24C147.403 177.001 141.141 183.263 133.38 187.002Z" fill="white"/>
<path d="M118.917 117.018V186.954C127.615 186.471 135.799 182.677 141.789 176.352C147.78 170.026 151.123 161.648 151.133 152.936V83C142.435 83.4835 134.251 87.277 128.26 93.6024C122.27 99.9279 118.927 108.306 118.917 117.018Z" fill="white"/>
</svg>
