<svg width="270" height="270" viewBox="0 0 270 270" fill="none" xmlns="http://www.w3.org/2000/svg">
<path d="M179.941 170C181.948 153.575 183.94 137.247 185.95 120.822H176.142C174.143 137.155 172.137 153.542 170.123 169.982H150.503C152.505 153.582 154.502 137.229 156.509 120.796H146.702C144.697 137.178 142.698 153.528 140.686 169.964H62C64.8095 146.96 67.6155 123.972 70.4181 101H90.0434C88.0414 117.407 86.0445 133.753 84.0451 150.191H93.8526C95.8572 133.797 97.8592 117.438 99.8688 101.015H119.492C117.492 117.374 115.498 133.714 113.488 150.168H123.293C125.289 133.831 127.293 117.442 129.304 101H208C205.185 124.039 202.377 147.039 199.574 170H179.941Z" fill="white"/>
</svg>
