<svg width="270" height="270" viewBox="0 0 270 270" fill="none" xmlns="http://www.w3.org/2000/svg">
<path d="M98.903 117.405C95.7506 126.342 93.1088 135.367 90.7967 144.679C88.5779 153.614 86.6471 162.907 84.8418 172.704C99.9408 180.837 117.256 184.905 134.612 184.905C151.968 184.905 169.282 180.837 184.382 172.704C182.577 162.907 180.646 153.614 178.427 144.679C176.116 135.377 173.48 126.361 170.33 117.433C161.132 114.504 147.852 113.027 134.471 113.027C121.166 113.027 108.008 114.482 98.903 117.405ZM79.0191 141.783C81.6592 131.15 84.7218 120.848 88.47 110.589L89.4151 108.001L91.9854 107.006C102.54 102.907 118.576 100.875 134.471 100.875C150.475 100.875 166.635 102.924 177.213 106.983L179.794 107.973L180.751 110.592C184.499 120.85 187.561 131.153 190.202 141.786C192.854 152.467 195.064 163.361 197.105 174.801L197.833 178.894L194.23 181.045C176.346 191.723 155.456 197.063 134.609 197.063C113.762 197.063 92.8693 191.723 74.9878 181.045L71.3856 178.894L72.1131 174.801C74.1591 163.358 76.3687 152.464 79.0209 141.783H79.0191Z" fill="white"/>
<path fill-rule="evenodd" clip-rule="evenodd" d="M94.1617 112.658C86.8265 132.733 82.1587 153.058 78.0922 175.847C111.894 196.034 157.313 196.034 191.114 175.847C187.049 153.058 182.381 132.733 175.045 112.658C155.343 105.098 113.86 105.005 94.1617 112.658Z" fill="black"/>
<path fill-rule="evenodd" clip-rule="evenodd" d="M96.159 114.285C89.1511 133.458 84.6924 152.867 80.8102 174.632C96.9501 184.271 115.865 189.09 134.779 189.09C109.974 170.438 116.28 122.494 134.779 108.837C120.171 108.823 105.563 110.631 96.159 114.285Z" fill="black"/>
<path fill-rule="evenodd" clip-rule="evenodd" d="M101.746 121.447C95.7867 136.386 91.9936 151.511 88.6909 168.469C101.4 175.42 115.697 179.608 134.603 179.608C153.509 179.608 167.806 175.42 180.516 168.469C177.212 151.51 173.419 136.386 167.46 121.447C151.452 116.695 117.755 116.62 101.746 121.447Z" fill="white"/>
<path fill-rule="evenodd" clip-rule="evenodd" d="M116.928 134.407C122.575 134.407 127.154 140.818 127.154 148.727C127.154 156.636 122.575 163.047 116.928 163.047C111.28 163.047 106.705 156.636 106.705 148.727C106.705 140.818 111.283 134.407 116.931 134.407H116.928Z" fill="black"/>
<path fill-rule="evenodd" clip-rule="evenodd" d="M152.28 134.407C157.928 134.407 162.506 140.818 162.506 148.727C162.506 156.636 157.928 163.047 152.28 163.047C146.633 163.047 142.054 156.636 142.054 148.727C142.054 140.818 146.633 134.407 152.28 134.407Z" fill="black"/>
<path fill-rule="evenodd" clip-rule="evenodd" d="M129.696 89.9434H133.337H135.87H139.511L142.677 104.508H135.87H133.337H126.529L129.696 89.9434Z" fill="white"/>
<path fill-rule="evenodd" clip-rule="evenodd" d="M134.613 73C136.805 73 138.947 73.65 140.77 74.8677C142.592 76.0855 144.013 77.8163 144.851 79.8414C145.69 81.8664 145.91 84.0947 145.482 86.2445C145.054 88.3943 143.999 90.3689 142.449 91.9188C140.899 93.4686 138.924 94.5241 136.774 94.9516C134.625 95.3791 132.396 95.1596 130.371 94.3207C128.346 93.4818 126.616 92.0613 125.398 90.2387C124.18 88.4162 123.53 86.2735 123.531 84.0816C123.531 82.6263 123.817 81.1853 124.374 79.8407C124.931 78.4962 125.747 77.2746 126.776 76.2455C127.806 75.2165 129.027 74.4002 130.372 73.8434C131.716 73.2865 133.157 72.9999 134.613 73Z" fill="white"/>
<path fill-rule="evenodd" clip-rule="evenodd" d="M138.249 76.9293C139.037 76.9292 139.808 77.1629 140.464 77.601C141.12 78.039 141.631 78.6617 141.933 79.3902C142.235 80.1187 142.314 80.9204 142.16 81.6939C142.006 82.4673 141.626 83.1778 141.069 83.7355C140.511 84.2931 139.801 84.6729 139.027 84.8268C138.254 84.9807 137.452 84.9018 136.724 84.6C135.995 84.2983 135.372 83.7873 134.934 83.1316C134.496 82.4759 134.262 81.705 134.262 80.9164C134.262 80.3928 134.365 79.8744 134.565 79.3907C134.766 78.9069 135.059 78.4674 135.43 78.0971C135.8 77.7269 136.239 77.4332 136.723 77.2328C137.207 77.0325 137.725 76.9293 138.249 76.9293Z" fill="black"/>
<path fill-rule="evenodd" clip-rule="evenodd" d="M76.1285 125.038L85.9565 123.756C83.0123 136.285 80.0679 148.815 77.1233 161.347C74.4155 159.358 71.7078 157.369 69 155.378C70.8841 144.978 73.0271 134.729 76.1285 125.038Z" fill="white"/>
<path fill-rule="evenodd" clip-rule="evenodd" d="M193.081 125.038L183.253 123.756L192.086 161.347C194.794 159.358 197.502 157.369 200.21 155.378C198.326 144.978 196.183 134.729 193.081 125.038Z" fill="white"/>
<path fill-rule="evenodd" clip-rule="evenodd" d="M102.355 79.4111L109.828 75.2379L117.832 87.5108L113.146 89.3173L121.531 97.5327L105.008 89.3076L110.83 86.1456L102.355 79.4111Z" fill="white"/>
<path fill-rule="evenodd" clip-rule="evenodd" d="M165.564 84.8595L160.792 80.2456L152.447 89.9481L155.595 92.1329L147.749 98.2375L161.672 93.1738L157.937 89.6571L165.564 84.8595Z" fill="white"/>
</svg>
