<svg width="270" height="270" viewBox="0 0 270 270" fill="none" xmlns="http://www.w3.org/2000/svg">
<path d="M190 107.918V128.48C184.621 131.749 178.958 134.528 173.078 136.782V189.756C167.503 191.157 161.853 192.24 156.154 193V141.754C149.192 143.161 142.106 143.867 135.002 143.861C127.897 143.867 120.81 143.161 113.847 141.754V192.992C108.149 192.232 102.499 191.149 96.9252 189.749V136.782C91.0441 134.528 85.3794 131.749 80 128.48L80 107.918C85.2184 112.062 90.8967 115.596 96.9237 118.452C102.341 121.026 108.012 123.031 113.846 124.436C120.765 126.15 127.87 127.013 135 127.005C142.13 127.013 149.234 126.15 156.153 124.436V106.948C149.308 109.087 142.174 110.165 135 110.145C127.826 110.165 120.691 109.087 113.846 106.948C107.884 105.143 102.192 102.55 96.9237 99.2366V78C101.822 82.7116 107.561 86.47 113.846 89.0818C120.549 91.8629 127.739 93.2949 135 93.2954C142.261 93.295 149.45 91.8629 156.153 89.0818C162.438 86.4706 168.179 82.7121 173.078 78V118.452C179.104 115.596 184.782 112.062 190 107.918Z" fill="white"/>
</svg>
