<svg width="270" height="270" viewBox="0 0 270 270" fill="none" xmlns="http://www.w3.org/2000/svg">
<path d="M185 110.185V128.869C180.11 131.839 174.962 134.364 169.616 136.413V184.547C164.548 185.82 159.412 186.804 154.231 187.494V140.93C147.902 142.209 141.46 142.85 135.001 142.844C128.543 142.85 122.1 142.209 115.77 140.93V187.487C110.59 186.797 105.454 185.813 100.387 184.54V136.413C95.0401 134.364 89.8903 131.839 85 128.869L85 110.185C89.744 113.95 94.9061 117.162 100.385 119.756C105.31 122.095 110.465 123.918 115.769 125.194C122.059 126.751 128.518 127.535 135 127.528C141.482 127.535 147.94 126.751 154.23 125.194V109.304C148.007 111.247 141.522 112.227 135 112.208C128.478 112.227 121.992 111.247 115.769 109.304C110.349 107.664 105.175 105.307 100.385 102.297V83C104.838 87.2811 110.056 90.6962 115.769 93.0695C121.863 95.5965 128.399 96.8977 135 96.8981C141.601 96.8977 148.136 95.5965 154.23 93.0695C159.944 90.6968 165.163 87.2816 169.616 83V119.756C175.095 117.161 180.256 113.95 185 110.185Z" fill="white"/>
</svg>
