<svg width="270" height="270" viewBox="0 0 270 270" fill="none" xmlns="http://www.w3.org/2000/svg">
<path d="M77 154.855C77.0122 164.552 80.7338 173.878 87.4017 180.92C94.0696 187.961 103.179 192.185 112.861 192.725V116.984C103.178 117.523 94.0676 121.746 87.3993 128.788C80.7309 135.83 77.0101 145.157 77 154.855Z" fill="white"/>
<path d="M156.984 152.741C166.68 152.226 175.809 148.011 182.49 140.965C189.171 133.92 192.895 124.58 192.895 114.87C192.895 105.161 189.171 95.8212 182.49 88.7756C175.809 81.7301 166.68 77.5154 156.984 77V152.741Z" fill="white"/>
<path d="M133.086 192.781H152.859V173.008C148.697 181.647 141.726 188.619 133.086 192.781Z" fill="white"/>
<path d="M116.984 114.87V192.728C126.668 192.19 135.779 187.966 142.448 180.925C149.117 173.883 152.839 164.556 152.85 154.857V77C143.166 77.5382 134.056 81.7614 127.386 88.8032C120.717 95.8451 116.996 105.172 116.984 114.87Z" fill="white"/>
</svg>
