<svg width="270" height="270" viewBox="0 0 270 270" fill="none" xmlns="http://www.w3.org/2000/svg">
<path fill-rule="evenodd" clip-rule="evenodd" d="M142.467 157.879L155.276 162.09L153.553 177.077L142.467 157.879Z" fill="white"/>
<path fill-rule="evenodd" clip-rule="evenodd" d="M142.467 157.872C158.624 142.675 168.658 122.089 170.673 100H192.443C191.357 114.776 187.362 129.191 180.688 142.419C174.014 155.646 164.792 167.424 153.553 177.077L142.467 157.872Z" fill="white"/>
<path fill-rule="evenodd" clip-rule="evenodd" d="M142.467 157.872C158.624 142.675 168.658 122.089 170.673 100L179.866 109.186C176.425 128.804 167.272 146.97 153.553 161.41V177.077L147.759 167.034L142.467 157.872Z" fill="white"/>
<path fill-rule="evenodd" clip-rule="evenodd" d="M105.584 149.559C118.433 143.858 129.029 134.058 135.714 121.693H89.5231L77 100H164.607C162.439 122.059 151.728 142.394 134.764 156.659L148.785 180.956C143.045 185.386 136.89 189.251 130.406 192.498L105.584 149.559Z" fill="white"/>
<path opacity="0.3" fill-rule="evenodd" clip-rule="evenodd" d="M164.606 100C162.438 122.059 151.727 142.394 134.763 156.659L148.784 180.956H136.184L120.301 153.306C131.804 146.353 141.345 135.9 147.68 121.631C149.247 118.132 150.538 114.516 151.542 110.816L164.606 100Z" fill="white"/>
<mask id="mask0_2_346" style="mask-type:luminance" maskUnits="userSpaceOnUse" x="77" y="100" width="75" height="93">
<path d="M89.5251 121.694H135.716C129.031 134.059 118.435 143.859 105.586 149.56L130.378 192.498C136.861 189.252 143.016 185.387 148.757 180.956H136.187L120.304 153.307C131.807 146.354 141.348 135.901 147.683 121.632C149.25 118.133 150.541 114.517 151.546 110.816H96.6944L77.0021 100.001L89.5251 121.694Z" fill="white"/>
</mask>
<g mask="url(#mask0_2_346)">
<path d="M151.515 100.001H77.0021V192.498H151.515V100.001Z" fill="white"/>
</g>
<path fill-rule="evenodd" clip-rule="evenodd" d="M105.581 149.561L130.372 192.499C136.856 189.253 143.011 185.388 148.751 180.957H136.182L120.298 153.308L105.581 149.561Z" fill="white"/>
<path fill-rule="evenodd" clip-rule="evenodd" d="M89.5231 121.693H135.745L151.513 110.847H96.6305L77 100L89.5231 121.693Z" fill="white"/>
<path opacity="0.3" fill-rule="evenodd" clip-rule="evenodd" d="M137.174 179.248L122.581 153.916C134.586 146.26 143.439 135.406 149.234 122.404C150.832 118.813 152.144 115.101 153.158 111.302L153.737 109.155H97.0863L77 100L96.6382 110.816H151.489C150.485 114.516 149.193 118.132 147.627 121.631C141.346 135.931 131.805 146.353 120.301 153.306L136.185 180.925H148.785L137.174 179.248Z" fill="white"/>
<path opacity="0.3" fill-rule="evenodd" clip-rule="evenodd" d="M179.866 109.186C176.426 128.804 167.272 146.97 153.553 161.41V177.077L155.276 162.09C168.961 147.483 178.09 129.203 181.543 109.487L181.697 108.606L170.673 100L179.866 109.186Z" fill="white"/>
<path opacity="0.5" fill-rule="evenodd" clip-rule="evenodd" d="M179.866 109.186L192.443 100H170.672L179.866 109.186Z" fill="white"/>
</svg>
