<svg width="270" height="270" viewBox="0 0 270 270" fill="none" xmlns="http://www.w3.org/2000/svg">
<path d="M97.2099 210.57L97.2099 188.982L134.606 167.392L134.606 167.389L153.303 156.599L153.303 156.594L171.997 145.804L172 145.804L172 167.389L171.997 167.392L153.303 178.184L134.606 188.979L134.606 188.982L97.2099 210.57Z" fill="white"/>
<path d="M97.2099 167.391L97.2099 102.623L172 59.4449L172 81.03L171.997 81.03L153.303 91.8252L153.303 91.8278L115.907 113.418L115.907 135.006L134.601 124.211L134.606 124.213L134.606 124.208L153.3 113.418L153.303 113.418L153.303 135.006L153.3 135.006L134.606 145.801L115.907 156.594L97.2099 167.391Z" fill="white"/>
</svg>
