<svg width="270" height="270" viewBox="0 0 270 270" fill="none" xmlns="http://www.w3.org/2000/svg">
<path d="M106.53 132.043L132.447 157.793L124.173 166.136C112.95 154.769 101.714 143.389 90.4648 131.995L144.523 74.8545C163.563 93.7748 182.599 112.691 201.631 131.604C201.515 131.728 201.419 131.84 201.316 131.944C195.184 138.176 189.052 144.408 182.92 150.639C171.584 162.159 160.249 173.679 148.916 185.2C144.129 190.067 139.343 194.934 134.558 199.802C134.318 200.047 134.031 200.241 133.714 200.372C124.885 204.092 116.057 207.815 107.231 211.542C107.079 211.615 106.912 211.652 106.743 211.651C106.854 211.536 106.964 211.42 107.074 211.305C113.559 204.665 120.045 198.025 126.53 191.385C135.22 182.487 143.909 173.587 152.599 164.687C160.816 156.271 169.033 147.855 177.25 139.438C179.282 137.356 181.315 135.274 183.348 133.191C183.695 132.834 183.994 132.446 184.081 131.925C184.205 131.185 183.916 130.601 183.428 130.093C182.826 129.466 182.214 128.85 181.608 128.229C170.303 116.681 158.997 105.132 147.691 93.5836C147.559 93.4427 147.419 93.3095 147.272 93.1843C146.5 92.5571 145.441 92.5782 144.694 93.2331C144.569 93.3419 144.455 93.4623 144.339 93.5802L124.122 114.142C118.37 119.992 112.618 125.843 106.866 131.694C106.761 131.799 106.66 131.907 106.53 132.043Z" fill="white"/>
<path d="M163.946 132.004L138.127 105.342C140.739 102.729 143.345 100.139 145.984 97.502L178.902 132.024L124.563 188.357L69 131.506C69.0827 131.406 69.1386 131.33 69.2035 131.263C77.7781 122.444 86.3531 113.626 94.9284 104.808C100.408 99.1727 105.888 93.537 111.367 87.9007C115.741 83.4025 120.112 78.9025 124.481 74.4005C124.768 74.108 125.053 74 125.455 74C130.047 74.0113 134.639 74.0127 139.231 74.0041C139.393 74.0041 139.555 74.0041 139.772 74.0041C139.667 74.2573 139.501 74.3798 139.366 74.5209C137.364 76.614 135.361 78.7053 133.357 80.7948C127.7 86.7001 122.044 92.6055 116.388 98.5111C111.753 103.352 107.119 108.193 102.484 113.033C98.0685 117.644 93.652 122.255 89.235 126.865C88.2525 127.89 87.2719 128.917 86.2931 129.945C86.1047 130.146 85.932 130.361 85.7764 130.588C85.3254 131.238 85.3295 132.019 85.7834 132.677C85.9129 132.871 86.0591 133.054 86.2203 133.223C96.5321 143.7 106.846 154.175 117.161 164.648C118.96 166.476 120.761 168.303 122.561 170.13C122.727 170.295 122.892 170.468 123.083 170.599C123.761 171.064 124.613 171.061 125.299 170.597C125.479 170.47 125.647 170.326 125.8 170.167C138.42 157.549 151.04 144.931 163.658 132.312C163.743 132.223 163.826 132.132 163.946 132.004Z" fill="white"/>
</svg>
