<svg width="270" height="270" viewBox="0 0 270 270" fill="none" xmlns="http://www.w3.org/2000/svg">
<path d="M106.529 132.043L132.446 157.793L124.172 166.136C112.949 154.769 101.713 143.389 90.4637 131.995L144.522 74.8544C163.562 93.7748 182.598 112.691 201.63 131.604C201.514 131.728 201.418 131.84 201.315 131.944C195.183 138.176 189.051 144.408 182.918 150.639C171.583 162.159 160.248 173.679 148.915 185.2C144.128 190.066 139.342 194.933 134.557 199.801C134.317 200.047 134.03 200.241 133.713 200.372C124.883 204.091 116.056 207.815 107.23 211.542C107.078 211.615 106.911 211.652 106.742 211.651C106.853 211.536 106.963 211.42 107.073 211.305C113.558 204.665 120.043 198.025 126.529 191.385C135.219 182.486 143.908 173.587 152.598 164.687C160.815 156.271 169.032 147.855 177.249 139.438C179.281 137.356 181.314 135.274 183.347 133.191C183.694 132.834 183.993 132.446 184.08 131.925C184.204 131.185 183.915 130.601 183.427 130.093C182.825 129.466 182.213 128.85 181.607 128.229C170.302 116.681 158.996 105.132 147.69 93.5835C147.558 93.4427 147.418 93.3094 147.271 93.1843C146.499 92.5571 145.44 92.5782 144.692 93.2331C144.568 93.3419 144.454 93.4623 144.337 93.5802L124.121 114.142C118.368 119.992 112.616 125.843 106.864 131.694C106.76 131.799 106.658 131.907 106.529 132.043Z" fill="white"/>
<path d="M163.946 132.004L138.127 105.342C140.739 102.729 143.345 100.139 145.984 97.502L178.902 132.024L124.563 188.357L69 131.506C69.0827 131.406 69.1386 131.33 69.2035 131.263C77.7781 122.444 86.3531 113.626 94.9284 104.808C100.408 99.1727 105.888 93.537 111.367 87.9007C115.741 83.4025 120.112 78.9025 124.481 74.4005C124.768 74.108 125.053 74 125.455 74C130.047 74.0113 134.639 74.0127 139.231 74.0041C139.393 74.0041 139.555 74.0041 139.772 74.0041C139.667 74.2573 139.501 74.3798 139.366 74.5209C137.364 76.614 135.361 78.7053 133.357 80.7948C127.7 86.7001 122.044 92.6055 116.388 98.5111C111.753 103.352 107.119 108.193 102.484 113.033C98.0685 117.644 93.652 122.255 89.235 126.865C88.2525 127.89 87.2719 128.917 86.2931 129.945C86.1047 130.146 85.932 130.361 85.7764 130.588C85.3254 131.238 85.3295 132.019 85.7834 132.677C85.9129 132.871 86.0591 133.054 86.2203 133.223C96.5321 143.7 106.846 154.175 117.161 164.648C118.96 166.476 120.761 168.303 122.561 170.13C122.727 170.295 122.892 170.468 123.083 170.599C123.761 171.064 124.613 171.061 125.299 170.597C125.479 170.47 125.647 170.326 125.8 170.167C138.42 157.549 151.04 144.931 163.658 132.312C163.743 132.223 163.826 132.132 163.946 132.004Z" fill="white"/>
</svg>
