<svg width="270" height="270" viewBox="0 0 270 270" fill="none" xmlns="http://www.w3.org/2000/svg">
<path d="M103 200.918L103 182.217L135.396 163.513L135.396 163.511L151.593 154.164L151.593 154.159L167.788 144.812L167.79 144.812L167.79 163.511L167.788 163.513L151.593 172.863L135.396 182.215L135.396 182.217L103 200.918Z" fill="white"/>
<path d="M103 163.513L103 107.405L167.79 70L167.79 88.699L167.788 88.699L151.593 98.0508L151.593 98.0531L119.197 116.757L119.197 135.458L135.392 126.106L135.396 126.108L135.396 126.104L151.591 116.757L151.593 116.757L151.593 135.458L151.591 135.458L135.396 144.81L119.197 154.159L103 163.513Z" fill="white"/>
</svg>
