<svg width="270" height="270" viewBox="0 0 270 270" fill="none" xmlns="http://www.w3.org/2000/svg">
<path d="M106.871 177.36V168.428C106.871 168.288 106.865 168.148 106.871 168.008C106.878 167.754 106.772 167.575 106.566 167.418C105.481 166.59 104.395 165.763 103.329 164.908C102.748 164.442 102.203 163.928 101.656 163.421C101.074 162.882 100.494 162.34 99.9396 161.773C98.5949 160.394 97.3287 158.941 96.1467 157.421C94.5356 155.353 93.1248 153.153 91.8754 150.852C90.758 148.801 89.7921 146.671 88.9855 144.479C88.1281 142.14 87.4672 139.747 86.9663 137.306C86.6296 135.659 86.3831 133.994 86.228 132.319C86.1457 131.437 86.1135 130.55 86.0655 129.665C86.0357 129.118 85.9905 128.57 86.0017 128.023C86.0263 126.857 86.0764 125.692 86.1278 124.527C86.201 122.868 86.4143 121.224 86.6963 119.591C87.3218 115.965 88.3155 112.445 89.7389 109.048C90.9755 106.083 92.5006 103.246 94.2922 100.58C95.4067 98.9223 96.5958 97.3182 97.9306 95.831C98.8027 94.8584 99.6706 93.878 100.604 92.966C102.312 91.2899 104.142 89.7426 106.079 88.3367C107.771 87.1105 109.536 85.9877 111.364 84.9743C113.297 83.9091 115.303 82.9826 117.368 82.2017C119.846 81.2587 122.396 80.5175 124.993 79.9853C126.721 79.6328 128.466 79.3748 130.222 79.2127C132.22 79.0263 134.229 78.9623 136.236 79.0211C142.379 79.207 148.432 80.5498 154.077 82.9789C158.332 84.8044 162.229 87.2229 165.808 90.1566C167.378 91.4462 168.862 92.8357 170.253 94.3165C171.928 96.0909 173.466 97.9902 174.853 99.9979C176.321 102.121 177.62 104.355 178.74 106.68C180.06 109.435 181.131 112.284 181.899 115.242C182.38 117.098 182.782 118.968 183.042 120.867C183.231 122.243 183.364 123.624 183.45 125.012C183.545 126.529 183.528 128.047 183.49 129.562C183.45 131.182 183.29 132.798 183.068 134.406C182.383 139.354 180.933 144.165 178.77 148.667C177.646 151.029 176.33 153.295 174.835 155.441C173.791 156.934 172.669 158.37 171.472 159.744C170.384 160.997 169.208 162.165 168.013 163.311C167.18 164.11 166.286 164.846 165.393 165.577C164.634 166.197 163.843 166.778 163.055 167.361C162.816 167.536 162.687 167.74 162.7 168.036C162.707 168.187 162.7 168.339 162.7 168.491C162.7 174.352 162.698 180.213 162.695 186.074C162.7 186.541 162.661 187.007 162.579 187.467C162.428 188.266 162.003 188.988 161.377 189.509C160.751 190.029 159.964 190.316 159.15 190.319C156.978 190.333 154.807 190.323 152.635 190.323C152.589 190.323 152.542 190.323 152.495 190.319C152.174 190.296 152.084 190.212 152.06 189.892C152.048 189.742 152.052 189.589 152.052 189.437C152.052 186.226 152.026 183.016 152.064 179.805C152.08 178.459 151.135 177.162 150.027 176.721C148.674 176.183 147.195 176.463 146.244 177.469C145.709 178.035 145.369 178.704 145.326 179.5C145.298 180.071 145.263 180.642 145.262 181.213C145.256 184.003 145.255 186.793 145.259 189.584C145.263 189.724 145.259 189.864 145.247 190.004C145.223 190.218 145.152 190.284 144.937 190.313C144.844 190.323 144.75 190.326 144.657 190.324C142.695 190.324 140.734 190.324 138.773 190.324C138.228 190.324 138.182 190.275 138.181 189.715C138.18 187.251 138.18 184.788 138.181 182.324C138.181 181.495 138.186 180.666 138.179 179.837C138.17 178.907 137.834 178.108 137.178 177.446C136.197 176.457 134.693 176.152 133.43 176.742C132.121 177.352 131.392 178.379 131.39 179.857C131.386 183.102 131.386 186.348 131.39 189.594C131.39 190.315 131.382 190.324 130.674 190.324H125C124.259 190.324 124.245 190.31 124.245 189.551C124.245 186.294 124.245 183.036 124.245 179.779C124.245 179 124.005 178.314 123.513 177.713C123.073 177.168 122.476 176.773 121.803 176.582C121.129 176.391 120.414 176.413 119.753 176.645C118.391 177.114 117.524 178.323 117.456 179.851C117.449 180.015 117.451 180.178 117.451 180.342C117.451 183.424 117.451 186.506 117.451 189.588C117.456 189.729 117.452 189.869 117.44 190.009C117.415 190.221 117.343 190.289 117.126 190.315C117.01 190.325 116.893 190.328 116.776 190.325C114.687 190.325 112.597 190.325 110.507 190.325C108.607 190.322 107.19 189.082 106.934 187.2C106.895 186.911 106.875 186.62 106.875 186.329C106.87 183.338 106.868 180.348 106.871 177.36ZM158.629 137.94C159.493 138.01 160.855 137.309 161.46 136.381C161.894 135.713 162.102 135 162.077 134.198C162.05 133.338 161.77 132.58 161.183 131.976C160.142 130.905 159.058 129.877 157.992 128.83C157.734 128.577 157.473 128.325 157.224 128.063C157.029 127.857 157.035 127.76 157.213 127.55C157.251 127.506 157.293 127.466 157.335 127.424C158.301 126.459 159.267 125.493 160.232 124.527C160.545 124.214 160.879 123.919 161.163 123.581C161.867 122.746 162.116 121.773 161.915 120.703C161.543 118.72 159.61 117.432 157.631 117.816C156.793 117.978 156.123 118.417 155.529 119.003C154.981 119.545 154.439 120.091 153.894 120.636C153.324 121.206 152.754 121.775 152.184 122.344C151.837 122.69 151.777 122.687 151.419 122.335C151.344 122.261 151.27 122.187 151.196 122.112C150.172 121.089 149.152 120.061 148.121 119.045C147.883 118.806 147.622 118.589 147.342 118.399C146.1 117.575 144.809 117.536 143.496 118.216C142.128 118.925 141.4 120.584 141.687 121.999C141.83 122.725 142.186 123.392 142.71 123.916C143.151 124.364 143.626 124.781 144.076 125.223C144.833 125.969 145.584 126.719 146.331 127.475C146.611 127.758 146.606 127.842 146.319 128.141C146.263 128.199 146.205 128.258 146.146 128.316C145.583 128.857 145.014 129.393 144.456 129.94C143.864 130.52 143.293 131.122 142.694 131.694C141.844 132.507 141.463 133.495 141.553 134.658C141.63 135.635 142.041 136.454 142.803 137.077C143.536 137.675 144.371 137.973 145.33 137.928C146.221 137.886 147.001 137.587 147.639 136.973C148.9 135.758 150.141 134.524 151.391 133.299C151.466 133.225 151.541 133.152 151.621 133.084C151.747 132.979 151.876 132.983 152.001 133.087C152.055 133.132 152.106 133.18 152.156 133.228C153.389 134.437 154.622 135.646 155.854 136.857C156.571 137.566 157.434 137.912 158.629 137.94ZM127.606 121.297C127.659 120.77 127.484 120.213 127.207 119.669C127.022 119.304 126.752 119.024 126.466 118.749C125.606 117.92 124.574 117.628 123.408 117.803C122.554 117.929 121.855 118.359 121.254 118.959C120.112 120.095 118.977 121.235 117.835 122.374C117.526 122.681 117.447 122.68 117.144 122.386C116.257 121.525 115.371 120.662 114.487 119.798C114.178 119.496 113.871 119.192 113.571 118.882C113.007 118.3 112.323 117.955 111.53 117.809C109.656 117.464 107.724 118.78 107.371 120.653C107.134 121.906 107.491 122.981 108.36 123.898C108.577 124.126 108.803 124.346 109.028 124.567C109.979 125.496 110.931 126.425 111.883 127.354C112.329 127.792 112.328 127.818 111.871 128.265C111.588 128.542 111.284 128.799 111.003 129.078C110.033 130.04 109.068 131.006 108.107 131.976C107.946 132.145 107.804 132.331 107.685 132.533C106.967 133.719 107.09 135.514 107.969 136.58C109.313 138.211 111.802 138.433 113.377 136.913C114.603 135.73 115.812 134.531 117.028 133.336C117.479 132.892 117.491 132.89 117.942 133.34C119.024 134.421 120.101 135.506 121.188 136.582C122.027 137.412 122.971 137.992 124.224 137.932C125.589 137.866 126.626 137.262 127.283 136.089C128.026 134.758 127.934 133.417 127.01 132.212C126.489 131.532 125.83 130.956 125.22 130.346C124.453 129.579 123.669 128.828 122.9 128.063C122.699 127.863 122.708 127.76 122.889 127.552C122.959 127.472 123.035 127.4 123.109 127.326C124.265 126.17 125.42 125.015 126.576 123.859C127.262 123.176 127.641 122.367 127.606 121.297Z" fill="white"/>
</svg>
