<svg width="270" height="270" viewBox="0 0 270 270" fill="none" xmlns="http://www.w3.org/2000/svg">
<g clip-path="url(#clip0_2_451)">
<path d="M103.333 108.427H88.8203V162.066H103.333V108.427Z" fill="white"/>
<path d="M142.758 128.03V181.669H88.8203V167.237H128.246V128.03H142.758Z" fill="white"/>
<path d="M162.47 88.8237H88.8203V103.256H162.47V88.8237Z" fill="white"/>
<path d="M182.18 88.8237H167.668V162.066H182.18V88.8237Z" fill="white"/>
<path d="M182.182 167.237V181.669H147.958V122.859H123.047V162.066H108.535V108.427H162.471V167.237H182.182Z" fill="white"/>
</g>
<rect x="78" y="186.7" width="102.983" height="5.72129" transform="rotate(-90 78 186.7)" fill="white"/>
<rect x="187.27" y="186.7" width="102.983" height="5.72129" transform="rotate(-90 187.27 186.7)" fill="white"/>
<rect x="193" y="83.7212" width="114.998" height="5.72129" transform="rotate(180 193 83.7212)" fill="white"/>
<rect x="193" y="192.43" width="114.998" height="5.72129" transform="rotate(180 193 192.43)" fill="white"/>
<rect x="78" y="186.7" width="102.983" height="5.72129" transform="rotate(-90 78 186.7)" fill="white"/>
<rect x="187.27" y="186.7" width="102.983" height="5.72129" transform="rotate(-90 187.27 186.7)" fill="white"/>
<rect x="193" y="83.7212" width="114.998" height="5.72129" transform="rotate(180 193 83.7212)" fill="white"/>
<rect x="193" y="192.43" width="114.998" height="5.72129" transform="rotate(180 193 192.43)" fill="white"/>
<defs>
<clipPath id="clip0_2_451">
<rect x="88.8203" y="88.8237" width="93.3612" height="92.8454" fill="white"/>
</clipPath>
</defs>
</svg>
