<svg width="294" height="78" viewBox="0 0 294 78" fill="none" xmlns="http://www.w3.org/2000/svg">
<g clip-path="url(#clip0_1_10)">
<path d="M23.58 38.665C25.5 39.115 26.985 40.045 28.035 41.455C29.115 42.835 29.655 44.44 29.655 46.27C29.655 49.06 28.725 51.22 26.865 52.75C25.035 54.25 22.395 55 18.945 55H2.25V23.14H18.495C21.735 23.14 24.285 23.845 26.145 25.255C28.005 26.665 28.935 28.72 28.935 31.42C28.935 33.28 28.44 34.855 27.45 36.145C26.49 37.405 25.2 38.245 23.58 38.665ZM12.24 35.56H16.11C17.01 35.56 17.67 35.38 18.09 35.02C18.54 34.66 18.765 34.105 18.765 33.355C18.765 32.575 18.54 32.005 18.09 31.645C17.67 31.255 17.01 31.06 16.11 31.06H12.24V35.56ZM16.785 46.99C17.685 46.99 18.345 46.825 18.765 46.495C19.215 46.135 19.44 45.565 19.44 44.785C19.44 43.255 18.555 42.49 16.785 42.49H12.24V46.99H16.785ZM43.0017 47.44H52.6317V55H33.0117V23.14H43.0017V47.44ZM76.2054 50.185H65.5854L64.0104 55H53.5254L65.1804 23.14H76.7004L88.3104 55H77.7804L76.2054 50.185ZM73.7754 42.67L70.8954 33.805L68.0154 42.67H73.7754ZM103.855 23.14C107.185 23.14 110.095 23.815 112.585 25.165C115.105 26.515 117.04 28.39 118.39 30.79C119.74 33.19 120.415 35.92 120.415 38.98C120.415 42.01 119.74 44.74 118.39 47.17C117.04 49.6 115.105 51.52 112.585 52.93C110.095 54.31 107.185 55 103.855 55H90.5801V23.14H103.855ZM102.955 46.09C105.205 46.09 106.99 45.475 108.31 44.245C109.63 43.015 110.29 41.26 110.29 38.98C110.29 36.7 109.63 34.945 108.31 33.715C106.99 32.485 105.205 31.87 102.955 31.87H100.57V46.09H102.955ZM134.012 31.105V35.02H143.912V42.535H134.012V47.035H145.262V55H124.022V23.14H145.262V31.105H134.012ZM187.322 23.14V55H177.377V39.115L172.472 55H163.922L159.017 39.115V55H149.027V23.14H161.267L168.287 42.265L175.127 23.14H187.322ZM212.26 50.185H201.64L200.065 55H189.58L201.235 23.14H212.755L224.365 55H213.835L212.26 50.185ZM209.83 42.67L206.95 33.805L204.07 42.67H209.83ZM242.655 55L236.67 43.57H236.625V55H226.635V23.14H241.485C244.065 23.14 246.27 23.605 248.1 24.535C249.93 25.435 251.295 26.68 252.195 28.27C253.125 29.83 253.59 31.6 253.59 33.58C253.59 35.71 252.99 37.6 251.79 39.25C250.62 40.9 248.925 42.085 246.705 42.805L253.635 55H242.655ZM236.625 36.91H240.585C241.545 36.91 242.265 36.7 242.745 36.28C243.225 35.83 243.465 35.14 243.465 34.21C243.465 33.37 243.21 32.71 242.7 32.23C242.22 31.75 241.515 31.51 240.585 31.51H236.625V36.91ZM276.041 55L266.771 41.185V55H256.781V23.14H266.771V36.55L275.906 23.14H287.201L276.221 38.395L287.921 55H276.041Z" fill="white"/>
</g>
<defs>
<clipPath id="clip0_1_10">
<rect width="294" height="78" fill="white"/>
</clipPath>
</defs>
</svg>
