<svg width="1080" height="1080" viewBox="0 0 1080 1080" fill="none" xmlns="http://www.w3.org/2000/svg">
<rect width="1080" height="1080" fill="#111111"/>
<path d="M717.387 711.271C719.01 711.27 720.567 711.913 721.715 713.058L826.993 818.336L759.546 635.262C734.802 634.479 711.334 624.1 694.108 606.321C676.882 588.54 667.25 564.757 667.25 540C667.25 515.245 676.882 491.46 694.108 473.68C711.334 455.901 734.802 445.521 759.546 444.739L827 261.657L721.715 366.942C720.557 368.042 719.016 368.646 717.42 368.626C715.823 368.605 714.297 367.962 713.168 366.833C712.039 365.704 711.396 364.178 711.375 362.581C711.355 360.984 711.958 359.443 713.058 358.285L818.336 253.008L635.262 320.455C634.479 345.199 624.1 368.667 606.321 385.893C588.54 403.119 564.757 412.751 540 412.751C515.245 412.751 491.46 403.119 473.68 385.893C455.901 368.667 445.521 345.199 444.739 320.455L261.657 253L366.942 358.285C368.042 359.443 368.646 360.984 368.626 362.581C368.605 364.178 367.962 365.704 366.833 366.833C365.704 367.962 364.178 368.605 362.581 368.626C360.984 368.646 359.443 368.042 358.285 366.942L253.008 261.665L320.455 444.739C345.199 445.521 368.667 455.901 385.893 473.68C403.119 491.46 412.751 515.245 412.751 540C412.751 564.757 403.119 588.54 385.893 606.321C368.667 624.1 345.199 634.479 320.455 635.262L253 818.344L358.285 713.058C359.443 711.958 360.984 711.355 362.581 711.375C364.178 711.396 365.704 712.039 366.833 713.168C367.962 714.297 368.605 715.823 368.626 717.42C368.646 719.016 368.042 720.557 366.942 721.715L261.665 826.993L444.739 759.546C445.521 734.802 455.901 711.334 473.68 694.108C491.46 676.882 515.245 667.25 540 667.25C564.757 667.25 588.54 676.882 606.321 694.108C624.1 711.334 634.479 734.802 635.262 759.546L818.344 827L713.058 721.715C712.201 720.86 711.617 719.77 711.38 718.583C711.144 717.394 711.265 716.164 711.729 715.046C712.193 713.927 712.978 712.971 713.984 712.3C714.992 711.627 716.176 711.27 717.387 711.271ZM517.539 562.461C513.095 558.019 510.068 552.358 508.842 546.196C507.615 540.031 508.244 533.644 510.647 527.838C513.052 522.032 517.124 517.07 522.349 513.579C527.574 510.087 533.716 508.224 540 508.224C546.284 508.224 552.427 510.087 557.651 513.579C562.876 517.07 566.948 522.032 569.353 527.838C571.757 533.644 572.385 540.031 571.159 546.196C569.933 552.358 566.906 558.019 562.461 562.461C556.504 568.417 548.424 571.763 540 571.763C531.576 571.763 523.496 568.417 517.539 562.461Z" fill="white"/>
</svg>
