<svg width="150" height="150" viewBox="0 0 150 150" fill="none" xmlns="http://www.w3.org/2000/svg">
<path d="M120.546 118.959C120.968 118.958 121.372 119.125 121.67 119.423L148.998 146.751L131.49 99.2283C125.067 99.0251 118.975 96.3308 114.503 91.7155C110.032 87.1001 107.531 80.9263 107.531 74.5C107.531 68.0737 110.032 61.8999 114.503 57.2845C118.975 52.6692 125.067 49.9749 131.49 49.7717L149 2.24727L121.67 29.5773C121.369 29.8628 120.969 30.0197 120.555 30.0143C120.14 30.009 119.744 29.842 119.451 29.5489C119.158 29.2558 118.991 28.8597 118.986 28.4453C118.98 28.0308 119.137 27.6306 119.423 27.3301L146.751 0.00206373L99.2283 17.5101C99.0251 23.9331 96.3308 30.0249 91.7155 34.4966C87.1001 38.9682 80.9263 41.4685 74.5 41.4685C68.0737 41.4685 61.8999 38.9682 57.2845 34.4966C52.6692 30.0249 49.9749 23.9331 49.7717 17.5101L2.24727 0L29.5773 27.3301C29.8628 27.6306 30.0197 28.0308 30.0143 28.4453C30.009 28.8597 29.842 29.2558 29.5489 29.5489C29.2558 29.842 28.8597 30.009 28.4453 30.0143C28.0308 30.0197 27.6306 29.8628 27.3301 29.5773L0.00206373 2.24933L17.5101 49.7717C23.9331 49.9749 30.0249 52.6692 34.4966 57.2845C38.9682 61.8999 41.4685 68.0737 41.4685 74.5C41.4685 80.9263 38.9682 87.1001 34.4966 91.7155C30.0249 96.3308 23.9331 99.0251 17.5101 99.2283L0 146.753L27.3301 119.423C27.6306 119.137 28.0308 118.98 28.4453 118.986C28.8597 118.991 29.2558 119.158 29.5489 119.451C29.842 119.744 30.009 120.14 30.0143 120.555C30.0197 120.969 29.8628 121.369 29.5773 121.67L2.24933 148.998L49.7717 131.49C49.9749 125.067 52.6692 118.975 57.2845 114.503C61.8999 110.032 68.0737 107.531 74.5 107.531C80.9263 107.531 87.1001 110.032 91.7155 114.503C96.3308 118.975 99.0251 125.067 99.2283 131.49L146.753 149L119.423 121.67C119.2 121.448 119.049 121.165 118.987 120.857C118.926 120.548 118.957 120.229 119.078 119.939C119.198 119.648 119.402 119.4 119.663 119.226C119.925 119.051 120.232 118.958 120.546 118.959ZM68.6695 80.3305C67.5159 79.1773 66.7303 77.7078 66.4119 76.108C66.0935 74.5081 66.2566 72.85 66.8807 71.3429C67.5047 69.8358 68.5618 68.5478 69.9179 67.6414C71.2744 66.735 72.8687 66.2513 74.5 66.2513C76.1313 66.2513 77.7256 66.735 79.082 67.6414C80.4382 68.5478 81.4952 69.8358 82.1193 71.3429C82.7434 72.85 82.9065 74.5081 82.5881 76.108C82.2697 77.7078 81.484 79.1773 80.3305 80.3305C78.7839 81.8765 76.6869 82.7449 74.5 82.7449C72.3131 82.7449 70.2161 81.8765 68.6695 80.3305Z" fill="white"/>
</svg>
