<svg width="294" height="78" viewBox="0 0 294 78" fill="none" xmlns="http://www.w3.org/2000/svg">
<g clip-path="url(#clip0_1_10)">
<path d="M21.58 38.665C23.5 39.115 24.985 40.045 26.035 41.455C27.115 42.835 27.655 44.44 27.655 46.27C27.655 49.06 26.725 51.22 24.865 52.75C23.035 54.25 20.395 55 16.945 55H0.25V23.14H16.495C19.735 23.14 22.285 23.845 24.145 25.255C26.005 26.665 26.935 28.72 26.935 31.42C26.935 33.28 26.44 34.855 25.45 36.145C24.49 37.405 23.2 38.245 21.58 38.665ZM10.24 35.56H14.11C15.01 35.56 15.67 35.38 16.09 35.02C16.54 34.66 16.765 34.105 16.765 33.355C16.765 32.575 16.54 32.005 16.09 31.645C15.67 31.255 15.01 31.06 14.11 31.06H10.24V35.56ZM14.785 46.99C15.685 46.99 16.345 46.825 16.765 46.495C17.215 46.135 17.44 45.565 17.44 44.785C17.44 43.255 16.555 42.49 14.785 42.49H10.24V46.99H14.785ZM41.0017 47.44H50.6317V55H31.0117V23.14H41.0017V47.44ZM74.2054 50.185H63.5854L62.0104 55H51.5254L63.1804 23.14H74.7004L86.3104 55H75.7804L74.2054 50.185ZM71.7754 42.67L68.8954 33.805L66.0154 42.67H71.7754ZM101.855 23.14C105.185 23.14 108.095 23.815 110.585 25.165C113.105 26.515 115.04 28.39 116.39 30.79C117.74 33.19 118.415 35.92 118.415 38.98C118.415 42.01 117.74 44.74 116.39 47.17C115.04 49.6 113.105 51.52 110.585 52.93C108.095 54.31 105.185 55 101.855 55H88.5801V23.14H101.855ZM100.955 46.09C103.205 46.09 104.99 45.475 106.31 44.245C107.63 43.015 108.29 41.26 108.29 38.98C108.29 36.7 107.63 34.945 106.31 33.715C104.99 32.485 103.205 31.87 100.955 31.87H98.5701V46.09H100.955ZM132.012 31.105V35.02H141.912V42.535H132.012V47.035H143.262V55H122.022V23.14H143.262V31.105H132.012ZM185.322 23.14V55H175.377V39.115L170.472 55H161.922L157.017 39.115V55H147.027V23.14H159.267L166.287 42.265L173.127 23.14H185.322ZM210.26 50.185H199.64L198.065 55H187.58L199.235 23.14H210.755L222.365 55H211.835L210.26 50.185ZM207.83 42.67L204.95 33.805L202.07 42.67H207.83ZM240.655 55L234.67 43.57H234.625V55H224.635V23.14H239.485C242.065 23.14 244.27 23.605 246.1 24.535C247.93 25.435 249.295 26.68 250.195 28.27C251.125 29.83 251.59 31.6 251.59 33.58C251.59 35.71 250.99 37.6 249.79 39.25C248.62 40.9 246.925 42.085 244.705 42.805L251.635 55H240.655ZM234.625 36.91H238.585C239.545 36.91 240.265 36.7 240.745 36.28C241.225 35.83 241.465 35.14 241.465 34.21C241.465 33.37 241.21 32.71 240.7 32.23C240.22 31.75 239.515 31.51 238.585 31.51H234.625V36.91ZM274.041 55L264.771 41.185V55H254.781V23.14H264.771V36.55L273.906 23.14H285.201L274.221 38.395L285.921 55H274.041Z" fill="white"/>
</g>
<defs>
<clipPath id="clip0_1_10">
<rect width="294" height="78" fill="white"/>
</clipPath>
</defs>
</svg>
