<svg width="1080" height="1080" viewBox="0 0 1080 1080" fill="none" xmlns="http://www.w3.org/2000/svg">
<rect width="1080" height="1080" fill="#0D0D0D"/>
<path d="M540.044 528.123C552.595 497.276 592.42 423.248 699.488 371.495C609.446 286.548 469.695 287.394 380.892 370.679C453.296 403.188 512.537 453.002 540.044 528.123ZM634.183 360.824L641.326 364.614C600.583 392.546 570.845 418.51 540.234 464.169C510.671 417.519 480.686 391.511 438.748 364.075L446.182 360.241C504.797 329.991 576.487 330.341 634.183 360.824Z" fill="white"/>
<path d="M718.904 391.965C624.693 433.44 572.434 491.884 544.475 586.758L540 601.978C514.359 515.005 479.01 443.892 361.096 391.965C326.182 433.759 307.038 486.479 307 540.939C307 655.378 391.314 753.46 503.266 770.997C503.266 750.952 500.846 676.881 495.117 647.083C473.485 534.831 429.914 490.149 381.416 465.074C340.032 538.33 368.661 640.1 445.876 690.715L441.226 646.981C402.043 607.139 386.358 564.454 393.253 516.462L394.506 507.818L401.212 513.401C457.785 560.372 475.686 660.072 474.214 733.357L467.727 730.878C354.915 687.931 293.458 548.112 371.839 429.066C459.593 475.964 526.356 544.569 526.954 772.995H553.046C553.63 544.569 620.407 475.964 708.147 429.066C786.528 548.112 725.085 687.931 612.259 730.834L605.772 733.313C604.372 660.072 622.2 560.372 678.715 513.401L685.435 507.818L686.689 516.462C693.584 564.454 677.943 607.139 638.716 646.908L634.051 690.642C711.31 640.027 739.895 538.213 698.467 465.016C650.028 490.091 606.457 534.831 584.766 647.025C579.023 676.808 576.618 750.879 576.618 770.939C688.555 753.445 772.883 655.32 772.883 540.881C772.865 486.455 753.764 433.76 718.904 391.965Z" fill="white"/>
</svg>
