<svg width="1080" height="1080" viewBox="0 0 1080 1080" fill="none" xmlns="http://www.w3.org/2000/svg">
<rect width="1080" height="1080" fill="#0D0D0D"/>
<path d="M456.749 682.693L504.205 682.69L504.196 516.256L385.413 516.262L385.417 444.9L504.2 444.894L504.22 397.456L337.981 397.287L337.966 682.699L385.387 682.696L385.393 563.701L456.755 563.697L456.749 682.693ZM575.798 682.527L742.019 682.714L742.034 397.301L694.56 397.321L694.554 516.317L623.192 516.321L623.216 397.343L575.831 397.416L575.822 563.833L694.622 563.844L694.619 635.206L575.747 635.124L575.798 682.527ZM635.145 504.403L682.584 504.383L682.663 338.25L397.34 338.212L397.337 385.633L516.315 385.644L516.276 456.971L397.334 456.994L397.331 504.451L563.748 504.442L563.754 385.624L635.116 385.62L635.145 504.403ZM397.159 741.892L682.572 741.77L682.556 694.332L563.649 694.391L563.653 623.029L682.613 623.023L682.633 575.585L516.217 575.593L516.193 694.394L444.831 694.398L444.855 575.597L397.399 575.6L397.159 741.892Z" fill="white"/>
</svg>
