<svg width="1080" height="1080" viewBox="0 0 1080 1080" fill="none" xmlns="http://www.w3.org/2000/svg">
<rect width="1080" height="1080" fill="#0D0D0D"/>
<path d="M539.606 311.07C494.416 311.057 450.237 324.446 412.657 349.542C375.077 374.639 345.784 410.317 328.481 452.063C311.179 493.809 306.645 539.748 315.453 584.071C324.262 628.394 346.016 669.109 377.965 701.068C409.915 733.026 450.624 754.792 494.944 763.613C539.265 772.434 585.205 767.913 626.956 750.623C668.707 733.333 704.393 704.049 729.501 666.476C754.608 628.904 768.009 584.729 768.009 539.539C767.923 478.983 743.833 420.931 701.02 378.106C658.206 335.28 600.161 311.174 539.606 311.07ZM718.066 646.616L646.682 718L590.071 661.389V741.468H489.074V661.389L432.464 718L361.08 646.616L417.886 590.005H337.612V489.008H417.886L361.276 432.397L432.464 361.013L489.074 417.82V337.545H590.071V417.82L646.682 361.013L718.066 432.397L661.456 489.008H741.534V590.005H661.456L718.066 646.616Z" fill="white"/>
<path d="M539.605 287.08C489.671 287.067 440.854 301.863 399.328 329.595C357.803 357.328 325.434 396.753 306.316 442.882C287.198 489.012 282.189 539.775 291.923 588.752C301.657 637.729 325.696 682.719 361.001 718.033C396.305 753.346 441.289 777.397 490.263 787.144C539.238 796.89 590.002 791.895 636.137 772.788C682.272 753.682 721.704 721.324 749.448 679.806C777.192 638.288 792 589.474 792 539.54C792 472.595 765.41 408.39 718.079 361.047C670.748 313.703 606.55 287.097 539.605 287.08ZM708.26 708.195C666.401 749.96 610.491 774.643 551.426 777.433C492.361 780.224 434.373 760.923 388.763 723.291C343.152 685.659 313.187 632.393 304.708 573.873C296.228 515.353 309.842 455.773 342.895 406.743C375.948 357.712 426.073 322.746 483.501 308.656C540.928 294.567 601.545 302.365 653.537 330.531C705.529 358.697 745.171 405.212 764.738 461.012C784.305 516.811 782.395 577.897 759.38 632.366C747.409 660.713 730.048 686.466 708.26 708.195Z" fill="white"/>
</svg>
