<svg width="1080" height="1080" viewBox="0 0 1080 1080" fill="none" xmlns="http://www.w3.org/2000/svg">
<rect width="1080" height="1080" fill="#0D0D0D"/>
<path d="M594.354 468.705L697.445 365.555C656.18 324.266 599.578 304 539.906 304C480.829 304 418.618 323.864 379.667 362.853L473.804 457.044L491.954 438.885L417.717 364.606C449.611 342.812 493.85 329.816 539.167 329.735H539.906C585.319 329.735 627.115 342.764 659.781 366.923L581.815 444.932L576.205 450.546L557.991 432.403L614.753 375.592C593.212 362.162 568.135 355.358 539.842 355.358C511.549 355.358 484.044 362.258 463.307 373.903L510.746 421.417L539.906 450.594L557.991 468.705L552.22 474.496L539.906 486.817L521.757 468.673L530.84 459.569L512.691 441.474L505.987 448.182L503.608 450.562L485.459 468.721L480.717 473.547L498.85 491.706L503.673 486.881L539.971 523.2L576.269 486.881L593.116 503.737L611.265 485.578L594.354 468.705ZM539.906 414.243L509.765 384.149C519.665 382.092 529.747 381.046 539.858 381.029C549.918 380.993 559.947 382.132 569.742 384.423L539.906 414.243Z" fill="white"/>
<path d="M485.459 611.371L382.367 714.521C423.633 755.81 480.234 776.076 539.906 776.076C598.999 776.076 661.179 756.212 700.129 717.223L605.992 623.032L587.843 641.191L662.079 715.47C630.185 737.264 585.946 750.26 540.613 750.389H539.89C494.429 750.389 452.761 737.312 420.016 713.153L497.981 635.144L503.592 629.53L521.741 647.673L464.995 704.5C486.536 717.931 511.613 724.734 539.906 724.734C568.199 724.734 595.8 717.834 616.505 706.189L569.067 658.707L539.906 629.53L521.757 611.371L527.592 605.532L539.906 593.211L557.991 611.355L548.908 620.458L567.122 638.554L571.237 634.436L576.204 629.466L594.353 611.306L599.096 606.481L580.946 588.322L576.204 593.147L539.906 556.828L503.608 593.147L486.761 576.29L468.612 594.514L485.459 611.371ZM539.906 665.897L569.999 696.007C560.098 698.051 550.016 699.092 539.906 699.112C529.859 699.16 519.841 698.037 510.054 695.766L539.906 665.897Z" fill="white"/>
<path d="M611.2 594.515L714.291 697.665C755.557 656.376 775.812 599.743 775.812 540.037C775.812 480.91 755.959 418.695 716.992 379.723L622.854 473.914L640.987 492.073L715.24 417.795C737.006 449.706 750.011 493.971 750.155 539.329V540.053C750.155 585.54 737.07 627.231 712.925 659.995L634.959 581.985L629.333 576.372L647.482 558.132L704.276 614.991C717.715 593.438 724.515 568.346 724.515 540.037C724.515 511.728 717.587 484.143 705.884 463.394L658.429 510.86L629.252 540.037L611.2 558.132L605.364 552.293L593.034 539.973L611.184 521.813L620.266 530.901L638.367 512.806L631.664 506.099L629.284 503.718L611.135 485.559L606.313 480.814L588.164 498.957L592.986 503.782L556.704 540.101L593.002 576.42L576.155 593.277L594.304 611.436L611.2 594.515ZM665.695 540.037L695.708 509.878C697.764 519.784 698.809 529.872 698.827 539.989C698.874 550.041 697.752 560.065 695.483 569.858L665.695 540.037Z" fill="white"/>
<path d="M468.612 485.562L365.521 382.412C324.255 423.701 304 480.335 304 540.04C304 599.167 323.853 661.382 362.804 700.355L456.957 606.164L438.808 588.02L364.572 662.299C342.79 630.387 329.801 586.122 329.721 540.764V540.04C329.721 494.553 342.79 452.862 366.951 420.098L444.917 498.108L450.527 503.721L432.314 521.881L375.552 465.086C362.129 486.64 355.329 511.732 355.329 540.04C355.329 568.349 362.225 595.982 373.864 616.683L421.35 569.218L450.511 540.04L468.66 521.881L474.496 527.72L486.809 540.04L468.628 558.135L459.529 549.048L441.38 567.271L448.1 573.979L450.479 576.359L468.628 594.518L473.451 599.263L491.6 581.12L486.777 576.295L523.075 539.976L486.777 503.657L503.624 486.801L485.459 468.705L468.612 485.562ZM414.181 540.04L384.088 570.15C382.045 560.244 381.005 550.156 380.985 540.04C380.953 529.986 382.092 519.962 384.377 510.171L414.181 540.04Z" fill="white"/>
</svg>
