<svg width="1080" height="1080" viewBox="0 0 1080 1080" fill="none" xmlns="http://www.w3.org/2000/svg">
<rect width="1080" height="1080" fill="#0D0D0D"/>
<path d="M540.526 311.924C495.323 311.911 451.13 325.304 413.539 350.408C375.947 375.512 346.644 411.201 329.336 452.96C312.029 494.719 307.493 540.673 316.304 585.01C325.115 629.346 346.876 670.074 378.836 702.043C410.795 734.011 451.517 755.784 495.851 764.608C540.185 773.431 586.14 768.909 627.904 751.613C669.668 734.318 705.365 705.025 730.48 667.441C755.596 629.856 769.001 585.667 769.001 540.464C768.914 479.889 744.817 421.819 701.991 378.98C659.164 336.141 601.101 312.028 540.526 311.924ZM736.698 594.411L717.473 641.034L648.094 612.263L701.191 665.36L665.488 701.063L612.391 647.966L641.097 717.411L594.408 737.028L565.767 667.191V742.455H515.286V667.191L486.514 736.57L439.89 716.953L468.597 647.573L415.5 701.128L379.535 665.425L432.632 612.328L363.514 641.034L343.897 594.346L413.276 565.639H338.535V515.223H413.603L344.224 486.451L363.841 439.828L433.22 468.534L379.535 415.437L415.5 379.472L468.597 432.569L439.89 363.452L486.514 343.834L515.286 413.148V338.407H565.767V413.475L594.474 344.161L641.162 363.779L612.391 433.158L665.488 379.472L701.191 415.175L648.094 468.273L717.473 439.566L736.763 486.19L667.253 515.223H742.518V565.705H667.253L736.698 594.411Z" fill="white"/>
<path d="M540.527 287.924C490.577 287.911 441.745 302.711 400.207 330.452C358.668 358.194 326.29 397.63 307.166 443.775C288.042 489.919 283.031 540.698 292.768 589.69C302.505 638.682 326.552 683.686 361.867 719.01C397.183 754.335 442.18 778.394 491.17 788.143C540.159 797.893 590.94 792.895 637.089 773.783C683.238 754.671 722.683 722.303 750.435 680.772C778.187 639.24 793 590.412 793 540.462C793 473.496 766.402 409.272 719.056 361.914C671.71 314.555 607.493 287.941 540.527 287.924ZM709.235 709.17C667.363 750.947 611.435 775.638 552.352 778.43C493.268 781.221 435.262 761.914 389.638 724.27C344.013 686.627 314.039 633.344 305.557 574.806C297.074 516.268 310.692 456.669 343.755 407.624C376.819 358.578 426.959 323.6 484.405 309.507C541.851 295.413 602.486 303.214 654.494 331.388C706.502 359.563 746.157 406.092 765.73 461.909C785.303 517.726 783.392 578.832 760.37 633.317C748.38 661.664 731.015 687.422 709.235 709.17Z" fill="white"/>
</svg>
