<svg width="1080" height="1080" viewBox="0 0 1080 1080" fill="none" xmlns="http://www.w3.org/2000/svg">
<rect width="1080" height="1080" fill="#0D0D0D"/>
<path d="M559.157 720.33L534.413 547.115L719.973 547.115L719.973 720.33L559.157 720.33ZM658.079 658.307L658.079 609.219L605.176 609.219L612.304 658.307L658.079 658.307Z" fill="white"/>
<path d="M521.304 546.676L546.048 719.891L360.488 719.891L360.488 546.676L521.304 546.676ZM422.382 608.698L422.382 657.787L475.285 657.787L468.157 608.698L422.382 608.698Z" fill="white"/>
<path d="M475.299 422.649L360.448 422.649L360.448 360.958L546.035 360.958L521.338 533.875L360.448 533.875L360.448 472.333L468.077 472.333L475.299 422.649Z" fill="white"/>
<rect x="360.51" y="402.23" width="61.6568" height="115.86" fill="white"/>
<path d="M604.88 471.757L720 471.757L720 533.484L533.979 533.484L558.733 360.465L720 360.465L720 422.043L612.12 422.043L604.88 471.757Z" fill="white"/>
</svg>
