<svg width="1080" height="1080" viewBox="0 0 1080 1080" fill="none" xmlns="http://www.w3.org/2000/svg">
<rect width="1080" height="1080" fill="#0D0D0D"/>
<path d="M456.481 682.425L503.938 682.423L503.928 515.988L385.146 515.995L385.15 444.633L503.932 444.626L503.952 397.188L337.713 397.019L337.699 682.431L385.119 682.429L385.126 563.433L456.488 563.429L456.481 682.425ZM575.531 682.259L741.752 682.446L741.766 397.034L694.292 397.054L694.286 516.05L622.924 516.053L622.948 397.075L575.563 397.149L575.554 563.565L694.355 563.577L694.351 634.939L575.48 634.856L575.531 682.259ZM634.878 504.135L682.316 504.115L682.396 337.983L397.072 337.944L397.07 385.365L516.048 385.377L516.009 456.703L397.066 456.727L397.064 504.183L563.48 504.175L563.486 385.356L634.848 385.353L634.878 504.135ZM396.892 741.624L682.304 741.503L682.289 694.064L563.382 694.124L563.385 622.762L682.346 622.756L682.366 575.317L515.949 575.326L515.925 694.126L444.564 694.13L444.587 575.33L397.131 575.332L396.892 741.624Z" fill="white"/>
</svg>
