<svg width="1089" height="1080" viewBox="0 0 1089 1080" fill="none" xmlns="http://www.w3.org/2000/svg">
<g clip-path="url(#clip0_927_808)">
<rect width="1089" height="1080" fill="#0D0D0D"/>
<rect width="1089" height="1080" rx="10" fill="#0D0D0D"/>
<path d="M220 651.912C235.982 576.777 251.995 501.526 268.041 426.157H331.553L317.1 494.679H329.978C334.912 471.881 339.815 449.147 344.797 426.094H408.31C403.821 447.046 399.46 467.458 395.003 488.347L364.217 514.152L383.956 539.926C379.53 560.847 375.105 581.815 370.537 603.452L296.215 654.267L321.684 533.864H308.791C303.808 557.06 298.858 580.002 293.828 603.5L221.815 652.819L220 651.912Z" fill="#141414"/>
<path d="M824.164 514.185L843.982 539.815C839.631 560.445 835.163 581.657 830.579 603.453L756.178 654.363C764.933 612.999 773.226 573.957 781.647 534.104H768.705L753.743 603.644L679.453 654.347L728.003 426.19H791.452L777.047 494.601H789.924C794.875 471.628 799.777 448.877 804.712 426.031H868.225C863.736 447.016 859.359 467.396 854.886 488.333L824.164 514.185Z" fill="#141414"/>
<path d="M677.269 603.189H537.016C549.623 543.926 562.118 485.22 574.694 426.148H714.947C702.324 485.284 689.86 544.005 677.269 603.189ZM630.263 463.727L608.822 565.149H621.747C628.91 531.453 636.073 497.98 643.284 463.727H630.263Z" fill="#141414"/>
<path d="M455.589 565.001H468.323C471.093 552.655 473.894 540.118 476.807 527.136L542.803 514.409L524.036 603.104H383.719C396.31 543.825 408.79 485.024 421.333 426H484.878C475.056 472.44 465.362 518.386 455.589 565.001Z" fill="#141414"/>
</g>
<defs>
<clipPath id="clip0_927_808">
<rect width="1089" height="1080" fill="white"/>
</clipPath>
</defs>
</svg>
