<svg width="1920" height="1080" viewBox="0 0 1920 1080" fill="none" xmlns="http://www.w3.org/2000/svg">
<rect width="1920" height="1080" fill="#0D0D0D"/>
<path d="M715 624.844C727.086 568.024 739.196 511.115 751.33 454.118H799.362L788.431 505.938H798.17C801.902 488.697 805.609 471.504 809.377 454.07H857.409C854.014 469.916 850.715 485.352 847.345 501.149L824.064 520.664L838.991 540.155C835.644 555.976 832.297 571.834 828.843 588.197L772.638 626.625L791.898 535.571H782.148C778.38 553.113 774.636 570.462 770.832 588.233L716.372 625.53L715 624.844Z" fill="white"/>
<path d="M1171.9 520.69L1186.88 540.072C1183.59 555.673 1180.22 571.715 1176.75 588.198L1120.48 626.698C1127.1 595.417 1133.38 565.892 1139.74 535.753H1129.96L1118.64 588.342L1062.46 626.686L1099.18 454.144H1147.16L1136.27 505.879H1146C1149.75 488.505 1153.46 471.301 1157.19 454.023H1205.22C1201.82 469.893 1198.51 485.305 1195.13 501.138L1171.9 520.69Z" fill="white"/>
<path d="M1060.8 587.995H954.734C964.268 543.178 973.718 498.782 983.228 454.109H1089.29C1079.75 498.83 1070.32 543.238 1060.8 587.995ZM1025.25 482.528L1009.04 559.228H1018.81C1024.23 533.745 1029.65 508.431 1035.1 482.528H1025.25Z" fill="white"/>
<path d="M893.164 559.119H902.794C904.889 549.782 907.007 540.301 909.21 530.484L959.119 520.859L944.927 587.934H838.812C848.334 543.105 857.772 498.637 867.258 454H915.313C907.886 489.12 900.555 523.866 893.164 559.119Z" fill="white"/>
</svg>
