<svg width="1920" height="1080" viewBox="0 0 1920 1080" fill="none" xmlns="http://www.w3.org/2000/svg">
<rect width="1920" height="1080" fill="#0D0D0D"/>
<path d="M692.575 603.07H706.555L722.632 511.967H757.582L735.447 638.02H651.567L686.051 442.3H721.001L717.273 463.27H766.203L759.912 498.22H710.982L692.575 603.07ZM833.289 638.02H749.409L780.165 463.27H864.045L841.91 589.09H792.98L790.417 603.07H839.347L833.289 638.02ZM822.804 498.22H808.824L799.038 554.14H813.018L822.804 498.22ZM946.975 547.15L931.131 638.02H896.181L905.967 582.1H891.987L882.201 638.02H847.251L881.735 442.3H916.685L906.666 498.22H920.879L927.17 463.27H961.887L949.538 533.17H900.608L898.045 547.15H946.975ZM986.101 603.07H1000.08L1016.16 511.967H1051.11L1028.97 638.02H945.093L979.577 442.3H1014.53L1010.8 463.27H1059.73L1053.44 498.22H1004.51L986.101 603.07ZM1141.49 554.14H1092.56L1090 568.12H1138.93L1126.81 638.02H1092.1L1098.16 603.07H1083.94L1077.88 638.02H1042.93L1073.69 463.27H1157.57L1141.49 554.14ZM1112.83 519.19L1116.33 498.22H1102.35L1098.85 519.19H1112.83ZM1166.64 491.23H1201.59L1175.73 638.02H1140.78L1166.64 491.23ZM1175.26 442.3H1210.21L1203.92 477.25H1168.97L1175.26 442.3ZM1224.65 638.02L1220.92 658.99H1185.97L1220.45 463.27H1304.33L1273.58 638.02H1224.65ZM1249.11 498.22L1230.71 603.07H1244.69L1263.09 498.22H1249.11Z" fill="white"/>
</svg>
