<svg width="1080" height="1080" viewBox="0 0 1080 1080" fill="none" xmlns="http://www.w3.org/2000/svg">
<rect width="1080" height="1080" fill="#0D0D0D"/>
<path d="M367.838 589.5H376.838L387.188 530.85H409.688L395.438 612H341.438L363.638 486H386.138L383.738 499.5H415.238L411.188 522H379.688L367.838 589.5ZM458.426 612H404.426L424.226 499.5H478.226L463.976 580.5H432.476L430.826 589.5H462.326L458.426 612ZM451.676 522H442.676L436.376 558H445.376L451.676 522ZM531.615 553.5L521.415 612H498.915L505.215 576H496.215L489.915 612H467.415L489.615 486H512.115L505.665 522H514.815L518.865 499.5H541.215L533.265 544.5H501.765L500.115 553.5H531.615ZM556.803 589.5H565.803L576.153 530.85H598.653L584.403 612H530.403L552.603 486H575.103L572.703 499.5H604.203L600.153 522H568.653L556.803 589.5ZM656.841 558H625.341L623.691 567H655.191L647.391 612H625.041L628.941 589.5H619.791L615.891 612H593.391L613.191 499.5H667.191L656.841 558ZM638.391 535.5L640.641 522H631.641L629.391 535.5H638.391ZM673.029 517.5H695.529L678.879 612H656.379L673.029 517.5ZM678.579 486H701.079L697.029 508.5H674.529L678.579 486ZM710.374 612L707.974 625.5H685.474L707.674 499.5H761.674L741.874 612H710.374ZM726.124 522L714.274 589.5H723.274L735.124 522H726.124Z" fill="white"/>
</svg>
