<svg width="1440" height="1080" viewBox="0 0 1440 1080" fill="none" xmlns="http://www.w3.org/2000/svg">
<rect width="1440" height="1080" fill="#0D0D0D"/>
<path d="M727.172 639.314C727.172 609.407 727.172 579.494 727.172 549.573C727.172 545.817 727.23 545.766 731.341 545.766H809.414C814.123 545.766 814.135 545.766 814.135 549.874V728.817C814.135 733.034 814.135 733.018 809.542 733.018H731.474C727.253 733.018 727.183 732.982 727.183 729.055C727.183 699.148 727.183 669.235 727.183 639.314H727.172ZM776.527 639.397C776.527 621.854 776.527 604.312 776.527 586.772C776.527 578.804 777.409 580.028 768.74 579.955C765.047 579.924 764.856 580.127 764.856 583.509C764.856 619.716 764.856 655.924 764.856 692.132C764.856 699.788 763.822 698.751 772.474 698.829C776.341 698.86 776.538 698.683 776.538 695.13C776.527 676.556 776.517 657.978 776.509 639.397H776.527Z" fill="white"/>
<path d="M713.102 439.943C713.102 469.77 713.102 499.596 713.102 529.419C713.102 533.196 713.102 533.237 708.968 533.248C699.004 533.248 689.034 533.18 679.07 533.294C676.243 533.325 675.412 532.397 675.436 529.959C675.546 519.932 675.488 509.904 675.476 499.872C675.476 496.687 675.227 496.423 671.702 496.449C662.609 496.521 663.852 495.51 663.799 503.451C663.741 512.27 663.799 521.088 663.799 529.907C663.799 533.071 663.567 533.258 659.985 533.258H631.533C626.673 533.258 626.661 533.258 626.661 529.025C626.661 474.302 626.661 419.579 626.661 364.856C626.661 359.58 626.737 354.305 626.627 349.035C626.58 346.752 627.585 346 630.064 346C656.576 346.052 683.092 346.052 709.612 346C712.864 346 713.148 347.385 713.148 349.688C713.087 379.775 713.071 409.86 713.102 439.943ZM675.482 421.165C675.482 409.752 675.482 398.34 675.482 386.928C675.482 379.002 676.266 380.335 667.876 380.185C663.985 380.128 663.811 380.335 663.811 383.816C663.811 407.678 663.77 431.539 663.811 455.36C663.811 463.192 662.65 462.103 671.568 462.238C675.261 462.295 675.47 462.062 675.476 458.695C675.488 446.2 675.49 433.69 675.482 421.165Z" fill="white"/>
<path d="M626.646 639.421C626.646 609.51 626.646 579.597 626.646 549.68C626.646 545.815 626.692 545.789 631.035 545.789C640.515 545.789 649.999 545.789 659.487 545.789C663.668 545.789 663.795 545.908 663.795 549.514C663.795 585.479 663.795 621.445 663.795 657.41C663.795 662.022 663.795 662.032 668.818 662.037C676.128 662.037 675.472 662.675 675.472 656.015C675.472 620.658 675.472 585.303 675.472 549.949C675.472 545.799 675.472 545.799 680.152 545.799C689.733 545.799 699.312 545.799 708.888 545.799C713.011 545.799 713.092 545.882 713.092 549.591C713.092 585.903 713.092 622.214 713.092 658.526C713.092 682.124 713.092 705.723 713.092 729.322C713.092 732.954 712.901 733.062 708.813 733.052C699.041 733.026 689.268 733.052 679.496 733.021C675.582 733.021 675.484 732.928 675.478 729.343C675.478 719.399 675.397 709.46 675.478 699.521C675.507 697.078 674.642 696.108 671.826 696.175C662.588 696.409 663.824 695.138 663.772 703.329C663.714 712.147 663.691 720.966 663.819 729.784C663.853 732.284 662.843 733.088 660.097 733.062C650.226 732.959 640.355 733.031 630.484 733.031C626.797 733.031 626.634 732.886 626.628 729.447C626.621 699.429 626.626 669.421 626.646 639.421Z" fill="white"/>
<path d="M525.012 439.663C525.012 410.188 525.012 380.712 525.012 351.234C525.012 346.047 525.012 346.047 530.899 346.047C556.448 346.047 581.996 346.047 607.544 346.047C612.05 346.047 612.056 346.047 612.056 350.072C612.056 371.076 612.114 392.09 611.998 413.083C611.998 415.262 611.174 417.487 610.419 419.603C608.932 423.805 607.016 427.903 605.71 432.131C605.087 434.163 605.036 436.301 605.559 438.356C606.912 443.211 608.938 447.916 610.349 452.761C611.328 455.813 611.878 458.961 611.986 462.134C612.126 484.606 612.062 507.083 612.056 529.57C612.056 533.201 612.004 533.237 608.032 533.242C598.068 533.242 588.099 533.165 578.135 533.289C575.174 533.325 574.337 532.371 574.349 529.808C574.436 507.856 574.134 485.898 574.552 463.929C574.686 456.848 573.339 450.349 569.518 444.342C566.162 439.066 565.256 434.268 569.872 429.184C574.262 424.345 574.674 418.571 574.483 412.533C574.157 402.428 574.401 392.302 574.384 382.197C574.384 378.883 574.146 378.706 570.412 378.66C569.059 378.66 567.706 378.66 566.348 378.66C562.283 378.66 562.167 378.779 562.167 382.504C562.167 419.161 562.167 455.818 562.167 492.475C562.167 504.925 562.167 517.374 562.167 529.824C562.167 533.076 561.952 533.268 558.457 533.268C548.493 533.268 538.523 533.201 528.559 533.294C525.929 533.294 524.994 532.553 525 530.182C525.066 500.019 525.079 469.853 525.041 439.684L525.012 439.663Z" fill="white"/>
<path d="M727.183 439.616C727.183 409.703 727.183 379.789 727.183 349.875C727.183 346.13 727.258 346.078 731.369 346.078C757.591 346.078 783.815 346.078 810.041 346.078C814.018 346.078 814.158 346.192 814.158 349.709C814.158 364.581 814.117 379.453 814.216 394.32C814.216 396.743 813.234 397.464 810.639 397.433C800.675 397.345 790.705 397.329 780.742 397.433C777.983 397.464 776.927 396.65 777.02 394.154C777.176 389.922 777.02 385.678 777.089 381.445C777.13 379.422 776.166 378.624 773.954 378.717C772.02 378.816 770.081 378.816 768.147 378.717C765.563 378.561 764.814 379.645 764.814 381.829C764.857 419.178 764.857 456.527 764.814 493.876C764.814 496.397 765.871 497.175 768.583 497.134C778.454 496.973 777.043 498.207 777.06 489.602C777.107 464.702 777.107 439.803 777.06 414.904C777.06 410.998 777.06 411.008 781.421 411.008C791.002 411.008 800.582 410.977 810.163 411.008C813.978 411.008 814.175 411.2 814.175 414.478C814.175 452.948 814.175 491.421 814.175 529.897C814.175 532.428 813.42 533.393 810.418 533.383C783.809 533.3 757.198 533.3 730.585 533.383C727.282 533.383 727.102 531.946 727.102 529.684C727.148 499.687 727.158 469.687 727.131 439.684L727.183 439.616Z" fill="white"/>
<path d="M612.064 675.984C612.064 693.71 612.064 711.434 612.064 729.154C612.064 733.003 612.064 732.992 607.645 732.992L529.554 733.024C525.867 733.024 525.617 732.826 525.617 729.496C525.617 709.093 525.617 688.689 525.617 668.286C525.617 664.722 525.751 664.597 529.682 664.592C539.456 664.592 549.228 664.592 558.998 664.592C562.552 664.592 562.744 664.784 562.749 668.016C562.749 677.094 562.749 686.171 562.749 695.255C562.749 698.621 562.982 698.855 566.657 698.813C575.407 698.709 574.403 699.85 574.432 691.95C574.467 680.196 574.432 668.436 574.432 656.676C574.432 653.206 574.24 653.045 570.292 653.045L529.368 653.087C525.838 653.087 525.635 652.921 525.629 649.673C525.629 616.215 525.629 582.757 525.629 549.298C525.629 545.937 525.82 545.781 529.56 545.781H607.651C612.052 545.781 612.064 545.781 612.064 549.646C612.064 567.456 612.064 585.266 612.064 603.075C612.064 606.857 611.994 606.914 607.924 606.914H578.601C574.537 606.914 574.449 606.841 574.444 603.086C574.444 596.519 574.444 589.946 574.444 583.374C574.444 580.08 574.211 579.914 570.431 579.924C569.077 579.987 567.721 579.987 566.367 579.924C563.498 579.655 562.697 580.848 562.715 583.249C562.807 594.056 562.807 604.863 562.715 615.67C562.715 618.15 563.661 618.985 566.431 618.969C580.175 618.876 593.913 618.923 607.657 618.928C612.04 618.928 612.069 618.964 612.069 622.803C612.089 640.53 612.087 658.257 612.064 675.984Z" fill="white"/>
<path d="M828.15 488.325C828.15 474.575 828.15 460.827 828.15 447.081C828.15 443.823 828.33 443.647 831.86 443.641C841.824 443.641 851.794 443.683 861.758 443.569C864.446 443.538 865.282 444.404 865.242 446.743C865.16 462.217 865.195 477.696 865.207 493.175C865.207 496.905 865.311 497.035 869.382 497.024C878.01 496.998 876.884 497.859 876.93 490.239C876.976 481.421 876.529 472.602 877.069 463.784C877.505 456.61 876.105 449.949 872.047 443.942C868.395 438.537 868.563 433.905 872.802 428.899C876.129 424.972 877.238 420.397 877.052 415.282C876.64 404.228 876.86 393.148 876.988 382.083C876.988 379.448 875.966 378.613 873.098 378.665C863.987 378.8 865.271 377.798 865.271 385.694C865.213 399.357 865.195 413.02 865.311 426.674C865.311 429.304 864.342 430.113 861.444 430.082C851.573 429.957 841.702 429.978 831.831 430.082C829.073 430.082 828.121 429.262 828.127 426.777C828.185 400.937 828.179 375.089 828.109 349.232C828.109 346.923 828.916 346 831.593 346C858.113 346.062 884.629 346.062 911.142 346C913.824 346 914.66 346.877 914.655 349.206C914.591 370.733 914.747 392.261 914.486 413.793C914.445 417.124 913.185 420.687 911.513 423.712C907.275 431.353 907.065 438.802 910.973 446.536C914.347 453.217 914.788 460.319 914.713 467.581C914.498 488.247 914.625 508.909 914.614 529.575C914.614 533.149 914.544 533.206 910.549 533.206C884.324 533.206 858.098 533.206 831.872 533.206C828.313 533.206 828.133 533.04 828.127 529.788C828.135 515.982 828.142 502.162 828.15 488.325Z" fill="white"/>
<path d="M828.211 639.428C828.211 609.435 828.211 579.444 828.211 549.454C828.211 545.864 828.321 545.797 832.24 545.792L909.466 545.766C914.692 545.766 914.692 545.766 914.692 550.517V691.795C914.692 696.178 914.692 696.188 909.681 696.188C896.427 696.188 883.173 696.188 869.918 696.188C866.034 696.188 865.854 696.349 865.854 699.902C865.854 709.758 865.889 719.614 865.854 729.47C865.854 732.837 865.68 732.972 861.911 732.982C852.044 732.982 842.173 732.982 832.298 732.982C828.304 732.982 828.193 732.915 828.188 729.392C828.199 699.41 828.207 669.422 828.211 639.428ZM877.566 621.034C877.566 609.71 877.612 598.386 877.566 587.067C877.525 578.923 878.785 580.07 869.541 579.904C866.748 579.852 865.848 580.749 865.86 583.213C865.929 607.153 865.86 631.097 865.929 655.037C865.929 662.953 864.501 661.962 873.786 662.03C877.322 662.03 877.571 661.817 877.571 658.627C877.56 646.094 877.548 633.563 877.537 621.034H877.566Z" fill="white"/>
<rect x="876.922" y="707" width="37.6586" height="25.862" rx="2" fill="white"/>
</svg>
