<svg width="1087" height="1080" viewBox="0 0 1087 1080" fill="none" xmlns="http://www.w3.org/2000/svg">
<rect width="1087" height="1080" fill="#0D0D0D"/>
<path d="M562.406 798.818C562.406 721.243 562.406 643.651 562.406 566.04C562.406 556.299 562.557 556.164 573.22 556.164H775.734C787.948 556.164 787.978 556.164 787.978 566.821V1030.98C787.978 1041.92 787.978 1041.88 776.065 1041.88H573.567C562.617 1041.88 562.436 1041.78 562.436 1031.6C562.436 954.021 562.436 876.428 562.436 798.818H562.406ZM690.427 799.033C690.427 753.527 690.427 708.026 690.427 662.529C690.427 641.861 692.716 645.037 670.23 644.848C660.651 644.768 660.154 645.292 660.154 654.065C660.154 747.983 660.154 841.902 660.154 935.82C660.154 955.68 657.473 952.989 679.914 953.191C689.945 953.272 690.457 952.814 690.457 943.597C690.427 895.418 690.402 847.23 690.382 799.033H690.427Z" fill="#161616"/>
<path d="M525.912 281.676C525.912 359.045 525.912 436.408 525.912 513.768C525.912 523.563 525.912 523.671 515.189 523.698C489.344 523.698 463.484 523.523 437.639 523.819C430.304 523.899 428.15 521.491 428.21 515.167C428.496 489.158 428.346 463.149 428.316 437.126C428.316 428.864 427.668 428.178 418.526 428.245C394.94 428.434 398.163 425.81 398.028 446.41C397.877 469.284 398.028 492.158 398.028 515.032C398.028 523.24 397.425 523.724 388.132 523.724H314.332C301.726 523.724 301.696 523.724 301.696 512.745C301.696 370.8 301.696 228.855 301.696 86.9102C301.696 73.2261 301.892 59.542 301.606 45.8714C301.485 39.951 304.091 38 310.522 38C379.291 38.1346 448.071 38.1346 516.861 38C525.295 38 526.033 41.5926 526.033 47.5668C525.872 125.608 525.832 203.644 525.912 281.676ZM428.331 232.968C428.331 203.366 428.331 173.764 428.331 144.163C428.331 123.603 430.364 127.061 408.601 126.671C398.51 126.523 398.058 127.061 398.058 136.089C398.058 197.984 397.952 259.879 398.058 321.666C398.058 341.983 395.045 339.158 418.179 339.507C427.758 339.655 428.301 339.05 428.316 330.317C428.346 297.908 428.351 265.458 428.331 232.968Z" fill="#161616"/>
<path d="M301.655 799.103C301.655 721.52 301.655 643.927 301.655 566.326C301.655 556.302 301.776 556.234 313.042 556.234C337.632 556.234 362.232 556.234 386.842 556.234C397.686 556.234 398.017 556.544 398.017 565.895C398.017 659.186 398.017 752.476 398.017 845.766C398.017 857.728 398.017 857.755 411.045 857.769C430.007 857.769 428.305 859.424 428.305 842.147C428.305 750.435 428.305 658.728 428.305 567.026C428.305 556.261 428.305 556.261 440.445 556.261C465.296 556.261 490.142 556.261 514.983 556.261C525.676 556.261 525.887 556.477 525.887 566.097C525.887 660.285 525.887 754.472 525.887 848.659C525.887 909.872 525.887 971.085 525.887 1032.3C525.887 1041.72 525.39 1042 514.787 1041.97C489.439 1041.9 464.091 1041.97 438.743 1041.89C428.591 1041.89 428.335 1041.65 428.32 1032.35C428.32 1006.56 428.109 980.777 428.32 954.997C428.396 948.659 426.151 946.143 418.847 946.318C394.884 946.924 398.092 943.627 397.957 964.873C397.806 987.747 397.746 1010.62 398.077 1033.5C398.168 1039.98 395.547 1042.07 388.423 1042C362.819 1041.73 337.215 1041.92 311.611 1041.92C302.047 1041.92 301.625 1041.54 301.61 1032.62C301.59 954.759 301.605 876.92 301.655 799.103Z" fill="#161616"/>
<path d="M38.0302 280.953C38.0302 204.5 38.0302 128.043 38.0302 51.5803C38.0302 38.125 38.0302 38.125 53.3023 38.125C119.572 38.125 185.841 38.125 252.11 38.125C263.798 38.125 263.813 38.125 263.813 48.5663C263.813 103.047 263.964 157.555 263.662 212.008C263.662 217.66 261.524 223.432 259.566 228.922C255.71 239.821 250.74 250.45 247.351 261.416C245.737 266.688 245.603 272.234 246.96 277.563C250.469 290.157 255.725 302.361 259.385 314.928C261.924 322.844 263.35 331.011 263.632 339.242C263.994 397.531 263.828 455.833 263.813 514.161C263.813 523.58 263.677 523.674 253.376 523.688C227.531 523.688 201.67 523.486 175.825 523.809C168.144 523.903 165.975 521.427 166.005 514.78C166.231 457.837 165.448 400.881 166.533 343.898C166.879 325.531 163.385 308.671 153.475 293.09C144.769 279.406 142.42 266.96 154.393 253.774C165.78 241.22 166.849 226.244 166.352 210.582C165.508 184.371 166.141 158.106 166.096 131.895C166.096 123.297 165.478 122.84 155.794 122.719C152.285 122.719 148.775 122.719 145.251 122.719C134.708 122.719 134.407 123.028 134.407 132.689C134.407 227.774 134.407 322.858 134.407 417.942C134.407 450.235 134.407 482.528 134.407 514.821C134.407 523.257 133.85 523.755 124.783 523.755C98.9378 523.755 73.0777 523.58 47.2326 523.822C40.4099 523.822 37.985 521.898 38.0001 515.749C38.1708 437.511 38.2059 359.264 38.1055 281.007L38.0302 280.953Z" fill="#161616"/>
<path d="M562.437 280.83C562.437 203.237 562.437 125.645 562.437 48.0524C562.437 38.3377 562.633 38.2031 573.297 38.2031C641.313 38.2031 709.335 38.2031 777.361 38.2031C787.678 38.2031 788.04 38.4991 788.04 47.6219C788.04 86.1983 787.934 124.775 788.19 163.338C788.19 169.621 785.645 171.492 778.913 171.411C753.067 171.182 727.207 171.142 701.362 171.411C694.208 171.492 691.467 169.379 691.708 162.907C692.115 151.928 691.708 140.921 691.889 129.942C691.994 124.694 689.494 122.622 683.756 122.864C678.739 123.12 673.711 123.12 668.694 122.864C661.992 122.46 660.049 125.273 660.049 130.937C660.16 227.816 660.16 324.694 660.049 421.573C660.049 428.112 662.79 430.13 669.824 430.023C695.428 429.606 691.768 432.808 691.813 410.486C691.934 345.9 691.934 281.314 691.813 216.729C691.813 206.597 691.813 206.624 703.124 206.624C727.975 206.624 752.826 206.543 777.677 206.624C787.573 206.624 788.085 207.122 788.085 215.625C788.085 315.41 788.085 415.204 788.085 515.007C788.085 521.573 786.127 524.076 778.34 524.049C709.32 523.833 640.294 523.833 571.263 524.049C562.693 524.049 562.227 520.322 562.227 514.455C562.347 436.647 562.372 358.831 562.302 281.005L562.437 280.83Z" fill="#161616"/>
<path d="M263.833 893.948C263.833 939.929 263.833 985.902 263.833 1031.87C263.833 1041.85 263.833 1041.82 252.372 1041.82L49.8131 1041.9C40.2492 1041.9 39.6016 1041.39 39.6016 1032.75C39.6016 979.829 39.6016 926.904 39.6016 873.98C39.6016 864.736 39.948 864.413 50.1444 864.4C75.4975 864.4 100.846 864.4 126.189 864.4C135.406 864.4 135.903 864.898 135.918 873.28C135.918 896.827 135.918 920.374 135.918 943.934C135.918 952.667 136.521 953.272 146.054 953.165C168.752 952.896 166.146 955.856 166.221 935.363C166.312 904.874 166.221 874.37 166.221 843.867C166.221 834.865 165.724 834.448 155.483 834.448L49.3311 834.556C40.1739 834.556 39.6467 834.125 39.6317 825.702C39.6317 738.915 39.6317 652.128 39.6317 565.341C39.6317 556.622 40.1287 556.219 49.8281 556.219H252.387C263.803 556.219 263.833 556.219 263.833 566.243C263.833 612.44 263.833 658.636 263.833 704.833C263.833 714.642 263.652 714.79 253.095 714.79H177.035C166.492 714.79 166.267 714.602 166.251 704.86C166.251 687.825 166.251 670.778 166.251 653.73C166.251 645.185 165.649 644.755 155.844 644.782C152.332 644.944 148.813 644.944 145.301 644.782C137.861 644.082 135.783 647.177 135.828 653.407C136.069 681.439 136.069 709.471 135.828 737.503C135.828 743.934 138.283 746.101 145.467 746.06C181.117 745.818 216.752 745.939 252.402 745.953C263.773 745.953 263.848 746.047 263.848 756.004C263.898 801.985 263.893 847.966 263.833 893.948Z" fill="#161616"/>
<path d="M824.332 407.174C824.332 371.509 824.332 335.848 824.332 300.191C824.332 291.741 824.799 291.283 833.956 291.27C859.801 291.27 885.661 291.378 911.506 291.082C918.48 291.001 920.649 293.248 920.543 299.316C920.332 339.454 920.423 379.604 920.453 419.755C920.453 429.429 920.724 429.766 931.282 429.739C953.663 429.672 950.741 431.905 950.861 412.139C950.982 389.265 949.822 366.391 951.223 343.517C952.352 324.908 948.723 307.632 938.195 292.05C928.721 278.03 929.158 266.014 940.153 253.03C948.783 242.844 951.66 230.977 951.178 217.71C950.108 189.036 950.681 160.296 951.012 131.595C951.012 124.76 948.361 122.594 940.921 122.728C917.29 123.078 920.618 120.481 920.618 140.96C920.468 176.402 920.423 211.843 920.724 247.258C920.724 254.079 918.209 256.178 910.693 256.098C885.089 255.775 859.485 255.829 833.881 256.098C826.727 256.098 824.257 253.972 824.272 247.527C824.422 180.501 824.407 113.453 824.227 46.3827C824.227 40.3951 826.32 38 833.263 38C902.053 38.1615 970.833 38.1615 1039.6 38C1046.56 38 1048.73 40.274 1048.71 46.3154C1048.55 102.155 1048.96 157.995 1048.28 213.848C1048.17 222.486 1044.9 231.73 1040.57 239.575C1029.57 259.394 1029.03 278.716 1039.17 298.778C1047.92 316.109 1049.06 334.529 1048.86 353.366C1048.31 406.972 1048.64 460.565 1048.61 514.171C1048.61 523.442 1048.43 523.59 1038.07 523.59C970.039 523.59 902.013 523.59 833.986 523.59C824.754 523.59 824.287 523.159 824.272 514.723C824.292 478.914 824.312 443.064 824.332 407.174Z" fill="#161616"/>
<path d="M824.49 799.114C824.49 721.315 824.49 643.521 824.49 565.731C824.49 556.42 824.776 556.245 834.942 556.231L1035.26 556.164C1048.81 556.164 1048.81 556.164 1048.81 568.489V934.945C1048.81 946.315 1048.81 946.342 1035.81 946.342C1001.43 946.342 967.055 946.342 932.675 946.342C922.599 946.342 922.132 946.759 922.132 955.976C922.132 981.541 922.222 1007.11 922.132 1032.67C922.132 1041.4 921.68 1041.75 911.905 1041.78C886.311 1041.78 860.707 1041.78 835.093 1041.78C824.731 1041.78 824.445 1041.61 824.43 1032.47C824.46 954.698 824.48 876.913 824.49 799.114ZM952.51 751.401C952.51 722.028 952.631 692.655 952.51 663.295C952.405 642.171 955.673 645.144 931.696 644.714C924.451 644.579 922.117 646.907 922.147 653.298C922.328 715.395 922.147 777.504 922.328 839.601C922.328 860.134 918.623 857.564 942.705 857.739C951.878 857.739 952.525 857.187 952.525 848.912C952.495 816.404 952.465 783.9 952.435 751.401H952.51Z" fill="#161616"/>
<rect x="950.852" y="974.406" width="97.682" height="67.0828" rx="2" fill="#161616"/>
</svg>
