<svg width="1087" height="1080" viewBox="0 0 1087 1080" fill="none" xmlns="http://www.w3.org/2000/svg">
<rect width="1087" height="1080" fill="#0D0D0D"/>
<rect x="362" y="360" width="363" height="360" fill="#2D2D2D"/>
<path d="M549.094 626.331C549.094 600.353 549.094 574.368 549.094 548.378C549.094 545.115 549.144 545.07 552.715 545.07H620.533C624.624 545.07 624.634 545.07 624.634 548.639V704.077C624.634 707.74 624.634 707.727 620.644 707.727H552.831C549.164 707.727 549.104 707.695 549.104 704.284C549.104 678.306 549.104 652.321 549.104 626.331H549.094ZM591.966 626.403C591.966 611.164 591.966 595.926 591.966 580.69C591.966 573.769 592.732 574.832 585.202 574.769C581.994 574.742 581.828 574.918 581.828 577.856C581.828 609.307 581.828 640.759 581.828 672.211C581.828 678.862 580.93 677.96 588.445 678.028C591.804 678.055 591.976 677.902 591.976 674.815C591.966 658.681 591.957 642.543 591.951 626.403H591.966Z" fill="#0D0D0D"/>
<path d="M536.876 453.142C536.876 479.051 536.876 504.959 536.876 530.866C536.876 534.146 536.876 534.182 533.285 534.191C524.63 534.191 515.969 534.132 507.314 534.232C504.858 534.259 504.137 533.452 504.157 531.334C504.253 522.624 504.202 513.914 504.192 505.2C504.192 502.433 503.975 502.203 500.914 502.226C493.015 502.289 494.095 501.41 494.049 508.309C493.999 515.969 494.049 523.629 494.049 531.289C494.049 534.038 493.848 534.2 490.736 534.2H466.021C461.799 534.2 461.789 534.2 461.789 530.523C461.789 482.988 461.789 435.453 461.789 387.918C461.789 383.336 461.855 378.753 461.759 374.175C461.719 372.192 462.591 371.539 464.745 371.539C487.775 371.584 510.808 371.584 533.844 371.539C536.669 371.539 536.916 372.742 536.916 374.743C536.862 400.877 536.849 427.011 536.876 453.142ZM504.197 436.831C504.197 426.917 504.197 417.004 504.197 407.091C504.197 400.206 504.878 401.364 497.59 401.233C494.211 401.184 494.059 401.364 494.059 404.388C494.059 425.115 494.024 445.842 494.059 466.534C494.059 473.338 493.051 472.392 500.798 472.509C504.006 472.558 504.187 472.356 504.192 469.431C504.202 458.578 504.204 447.711 504.197 436.831Z" fill="#0D0D0D"/>
<path d="M461.776 626.426C461.776 600.445 461.776 574.461 461.776 548.473C461.776 545.116 461.816 545.094 465.589 545.094C473.824 545.094 482.062 545.094 490.303 545.094C493.935 545.094 494.046 545.197 494.046 548.329C494.046 579.57 494.046 610.812 494.046 642.053C494.046 646.059 494.046 646.068 498.409 646.072C504.759 646.072 504.189 646.627 504.189 640.841C504.189 610.128 504.189 579.417 504.189 548.708C504.189 545.103 504.189 545.103 508.254 545.103C516.576 545.103 524.897 545.103 533.216 545.103C536.797 545.103 536.867 545.175 536.867 548.397C536.867 579.938 536.867 611.48 536.867 643.022C536.867 663.521 536.867 684.02 536.867 704.519C536.867 707.674 536.701 707.768 533.15 707.759C524.661 707.737 516.173 707.759 507.684 707.732C504.285 707.732 504.199 707.651 504.194 704.537C504.194 695.899 504.123 687.266 504.194 678.633C504.219 676.51 503.467 675.668 501.021 675.726C492.997 675.929 494.071 674.825 494.026 681.94C493.975 689.6 493.955 697.26 494.066 704.92C494.096 707.092 493.219 707.791 490.833 707.768C482.259 707.678 473.684 707.741 465.11 707.741C461.907 707.741 461.766 707.615 461.761 704.628C461.754 678.553 461.759 652.486 461.776 626.426Z" fill="#0D0D0D"/>
<path d="M373.487 452.897C373.487 427.294 373.487 401.69 373.487 376.084C373.487 371.578 373.487 371.578 378.601 371.578C400.794 371.578 422.986 371.578 445.179 371.578C449.093 371.578 449.098 371.578 449.098 375.075C449.098 393.319 449.148 411.573 449.047 429.809C449.047 431.701 448.331 433.634 447.675 435.473C446.384 439.123 444.72 442.682 443.585 446.355C443.044 448.12 442.999 449.977 443.454 451.762C444.629 455.979 446.389 460.066 447.615 464.275C448.465 466.926 448.943 469.661 449.037 472.417C449.158 491.937 449.103 511.461 449.098 530.995C449.098 534.149 449.052 534.18 445.602 534.185C436.947 534.185 428.287 534.117 419.632 534.226C417.06 534.257 416.333 533.428 416.343 531.202C416.419 512.133 416.157 493.059 416.52 473.976C416.636 467.826 415.466 462.18 412.147 456.962C409.232 452.379 408.445 448.211 412.455 443.795C416.268 439.591 416.626 434.576 416.459 429.331C416.177 420.553 416.389 411.758 416.374 402.98C416.374 400.101 416.167 399.948 412.924 399.907C411.749 399.907 410.573 399.907 409.393 399.907C405.863 399.907 405.762 400.011 405.762 403.246C405.762 435.088 405.762 466.93 405.762 498.773C405.762 509.587 405.762 520.401 405.762 531.216C405.762 534.041 405.575 534.208 402.539 534.208C393.884 534.208 385.223 534.149 376.568 534.23C374.284 534.23 373.472 533.586 373.477 531.526C373.534 505.326 373.546 479.122 373.512 452.915L373.487 452.897Z" fill="#0D0D0D"/>
<path d="M549.102 452.853C549.102 426.869 549.102 400.884 549.102 374.9C549.102 371.647 549.167 371.602 552.738 371.602C575.516 371.602 598.295 371.602 621.076 371.602C624.531 371.602 624.652 371.701 624.652 374.756C624.652 387.674 624.617 400.593 624.703 413.507C624.703 415.611 623.85 416.238 621.596 416.211C612.941 416.134 604.281 416.121 595.625 416.211C593.23 416.238 592.312 415.53 592.392 413.363C592.529 409.686 592.392 406 592.453 402.323C592.488 400.566 591.651 399.872 589.729 399.953C588.049 400.039 586.365 400.039 584.686 399.953C582.441 399.818 581.79 400.76 581.79 402.657C581.827 435.1 581.827 467.543 581.79 499.986C581.79 502.176 582.708 502.851 585.064 502.815C593.638 502.676 592.413 503.748 592.428 496.273C592.468 474.644 592.468 453.015 592.428 431.387C592.428 427.994 592.428 428.003 596.216 428.003C604.538 428.003 612.86 427.976 621.182 428.003C624.496 428.003 624.667 428.17 624.667 431.017C624.667 464.434 624.667 497.853 624.667 531.275C624.667 533.474 624.012 534.312 621.404 534.303C598.29 534.231 575.175 534.231 552.058 534.303C549.188 534.303 549.031 533.055 549.031 531.09C549.072 505.034 549.08 478.974 549.056 452.912L549.102 452.853Z" fill="#0D0D0D"/>
<path d="M449.107 658.186C449.107 673.584 449.107 688.98 449.107 704.372C449.107 707.715 449.107 707.706 445.269 707.706L377.435 707.733C374.233 707.733 374.016 707.562 374.016 704.669C374.016 686.946 374.016 669.222 374.016 651.499C374.016 648.403 374.132 648.295 377.546 648.291C386.037 648.291 394.525 648.291 403.012 648.291C406.099 648.291 406.265 648.457 406.27 651.265C406.27 659.15 406.27 667.035 406.27 674.925C406.27 677.85 406.472 678.053 409.665 678.017C417.266 677.926 416.393 678.918 416.418 672.055C416.449 661.845 416.418 651.63 416.418 641.415C416.418 638.4 416.252 638.26 412.822 638.26L377.274 638.296C374.207 638.296 374.031 638.152 374.026 635.331C374.026 606.268 374.026 577.204 374.026 548.141C374.026 545.221 374.192 545.086 377.44 545.086H445.274C449.097 545.086 449.107 545.086 449.107 548.443C449.107 563.913 449.107 579.384 449.107 594.854C449.107 598.139 449.047 598.189 445.511 598.189H420.04C416.509 598.189 416.434 598.126 416.429 594.863C416.429 589.159 416.429 583.45 416.429 577.741C416.429 574.879 416.227 574.735 412.943 574.744C411.767 574.798 410.589 574.798 409.413 574.744C406.921 574.51 406.225 575.546 406.24 577.633C406.321 587.02 406.321 596.407 406.24 605.795C406.24 607.949 407.062 608.674 409.468 608.661C421.407 608.58 433.34 608.62 445.279 608.625C449.087 608.625 449.112 608.656 449.112 611.991C449.129 627.389 449.127 642.787 449.107 658.186Z" fill="#0D0D0D"/>
<path d="M636.809 495.169C636.809 483.226 636.809 471.283 636.809 459.342C636.809 456.513 636.965 456.359 640.032 456.355C648.687 456.355 657.347 456.391 666.002 456.292C668.337 456.265 669.064 457.017 669.028 459.049C668.958 472.491 668.988 485.937 668.998 499.382C668.998 502.622 669.089 502.735 672.624 502.726C680.119 502.703 679.141 503.451 679.181 496.832C679.222 489.172 678.833 481.512 679.302 473.852C679.681 467.62 678.465 461.834 674.94 456.616C671.767 451.921 671.913 447.897 675.595 443.549C678.485 440.138 679.449 436.164 679.287 431.721C678.929 422.119 679.121 412.494 679.232 402.883C679.232 400.594 678.344 399.868 675.852 399.913C667.939 400.03 669.053 399.161 669.053 406.019C669.003 417.887 668.988 429.756 669.089 441.616C669.089 443.9 668.246 444.603 665.73 444.576C657.155 444.468 648.581 444.486 640.006 444.576C637.611 444.576 636.784 443.864 636.789 441.706C636.839 419.26 636.834 396.807 636.773 374.346C636.773 372.341 637.475 371.539 639.8 371.539C662.836 371.593 685.869 371.593 708.899 371.539C711.229 371.539 711.956 372.301 711.951 374.324C711.895 393.024 712.031 411.723 711.804 430.428C711.769 433.32 710.675 436.416 709.222 439.043C705.54 445.68 705.358 452.151 708.753 458.869C711.683 464.673 712.067 470.842 712.001 477.15C711.814 495.102 711.925 513.049 711.915 531.001C711.915 534.105 711.855 534.155 708.385 534.155C685.604 534.155 662.823 534.155 640.042 534.155C636.95 534.155 636.794 534.011 636.789 531.186C636.795 519.194 636.802 507.188 636.809 495.169Z" fill="#0D0D0D"/>
<path d="M636.864 626.43C636.864 600.377 636.864 574.325 636.864 548.274C636.864 545.156 636.96 545.097 640.364 545.093L707.446 545.07C711.986 545.07 711.986 545.07 711.986 549.198V671.918C711.986 675.725 711.986 675.734 707.633 675.734C696.12 675.734 684.606 675.734 673.093 675.734C669.719 675.734 669.563 675.874 669.563 678.961C669.563 687.522 669.593 696.083 669.563 704.645C669.563 707.569 669.411 707.686 666.138 707.695C657.567 707.695 648.992 707.695 640.415 707.695C636.945 707.695 636.849 707.637 636.844 704.577C636.854 678.533 636.861 652.484 636.864 626.43ZM679.736 610.452C679.736 600.615 679.776 590.779 679.736 580.947C679.701 573.872 680.795 574.868 672.765 574.724C670.339 574.679 669.558 575.459 669.568 577.599C669.628 598.394 669.568 619.194 669.628 639.989C669.628 646.865 668.387 646.004 676.452 646.063C679.524 646.063 679.741 645.878 679.741 643.107C679.731 632.22 679.721 621.335 679.711 610.452H679.736Z" fill="#0D0D0D"/>
<rect x="679.172" y="685.117" width="32.7121" height="22.4649" rx="2" fill="#0D0D0D"/>
</svg>
