<svg width="1440" height="1080" viewBox="0 0 1440 1080" fill="none" xmlns="http://www.w3.org/2000/svg">
<rect width="1440" height="1080" fill="#0D0D0D"/>
<rect x="527" y="347" width="387" height="387" fill="white"/>
<rect x="527" y="347" width="387" height="387" stroke="#FF3A3A"/>
<path d="M727.398 624.877C727.398 599.563 727.398 574.244 727.398 548.918C727.398 545.739 727.447 545.695 730.88 545.695H796.084C800.017 545.695 800.027 545.695 800.027 549.173V700.634C800.027 704.204 800.027 704.19 796.191 704.19H730.992C727.466 704.19 727.408 704.16 727.408 700.836C727.408 675.522 727.408 650.203 727.408 624.877H727.398ZM768.618 624.947C768.618 610.098 768.618 595.25 768.618 580.404C768.618 573.66 769.355 574.696 762.115 574.634C759.031 574.608 758.871 574.779 758.871 577.642C758.871 608.289 758.871 638.936 758.871 669.583C758.871 676.064 758.007 675.186 765.233 675.251C768.463 675.278 768.627 675.129 768.627 672.121C768.618 656.399 768.61 640.675 768.603 624.947H768.618Z" fill="#1F1F1F"/>
<path d="M715.66 456.125C715.66 481.371 715.66 506.616 715.66 531.86C715.66 535.056 715.66 535.091 712.207 535.1C703.886 535.1 695.559 535.043 687.238 535.14C684.876 535.166 684.183 534.38 684.202 532.316C684.294 523.829 684.246 515.342 684.236 506.85C684.236 504.155 684.028 503.931 681.084 503.953C673.49 504.014 674.528 503.158 674.484 509.88C674.436 517.344 674.484 524.808 674.484 532.273C674.484 534.951 674.29 535.109 671.298 535.109H647.536C643.478 535.109 643.468 535.109 643.468 531.526C643.468 485.207 643.468 438.888 643.468 392.57C643.468 388.104 643.531 383.639 643.439 379.178C643.4 377.246 644.239 376.609 646.31 376.609C668.452 376.653 690.597 376.653 712.745 376.609C715.461 376.609 715.699 377.782 715.699 379.731C715.647 405.197 715.634 430.662 715.66 456.125ZM684.241 440.23C684.241 430.571 684.241 420.911 684.241 411.252C684.241 404.543 684.896 405.671 677.888 405.544C674.639 405.496 674.494 405.671 674.494 408.618C674.494 428.815 674.46 449.012 674.494 469.174C674.494 475.804 673.524 474.882 680.973 474.996C684.057 475.044 684.231 474.847 684.236 471.997C684.246 461.421 684.248 450.833 684.241 440.23Z" fill="#1F1F1F"/>
<path d="M643.455 624.979C643.455 599.662 643.455 574.342 643.455 549.02C643.455 545.749 643.494 545.727 647.121 545.727C655.038 545.727 662.959 545.727 670.883 545.727C674.374 545.727 674.481 545.828 674.481 548.879C674.481 579.321 674.481 609.763 674.481 640.205C674.481 644.109 674.481 644.118 678.676 644.122C684.781 644.122 684.233 644.662 684.233 639.024C684.233 609.097 684.233 579.172 684.233 549.248C684.233 545.735 684.233 545.735 688.141 545.735C696.143 545.735 704.143 545.735 712.141 545.735C715.584 545.735 715.652 545.806 715.652 548.945C715.652 579.68 715.652 610.415 715.652 641.149C715.652 661.124 715.652 681.099 715.652 701.074C715.652 704.147 715.492 704.239 712.078 704.231C703.916 704.209 695.755 704.231 687.593 704.204C684.325 704.204 684.243 704.125 684.238 701.091C684.238 692.674 684.17 684.262 684.238 675.849C684.262 673.781 683.539 672.96 681.187 673.017C673.472 673.215 674.505 672.139 674.461 679.072C674.413 686.536 674.394 694 674.5 701.464C674.529 703.581 673.686 704.261 671.392 704.239C663.148 704.151 654.904 704.213 646.66 704.213C643.581 704.213 643.445 704.09 643.44 701.179C643.434 675.772 643.439 650.371 643.455 624.979Z" fill="#1F1F1F"/>
<path d="M558.572 455.879C558.572 430.932 558.572 405.982 558.572 381.031C558.572 376.641 558.572 376.641 563.489 376.641C584.827 376.641 606.164 376.641 627.501 376.641C631.264 376.641 631.269 376.641 631.269 380.048C631.269 397.826 631.317 415.612 631.22 433.382C631.22 435.226 630.531 437.109 629.901 438.901C628.66 442.457 627.059 445.926 625.968 449.504C625.449 451.224 625.405 453.034 625.842 454.773C626.972 458.883 628.664 462.865 629.843 466.966C630.66 469.549 631.12 472.214 631.21 474.9C631.327 493.92 631.273 512.945 631.269 531.979C631.269 535.052 631.225 535.083 627.908 535.087C619.587 535.087 611.26 535.022 602.939 535.127C600.466 535.158 599.767 534.35 599.777 532.181C599.85 513.599 599.598 495.014 599.947 476.419C600.058 470.426 598.933 464.924 595.742 459.84C592.939 455.374 592.183 451.313 596.038 447.01C599.704 442.914 600.049 438.027 599.889 432.916C599.617 424.363 599.821 415.792 599.806 407.239C599.806 404.434 599.607 404.284 596.489 404.245C595.359 404.245 594.229 404.245 593.095 404.245C589.7 404.245 589.603 404.346 589.603 407.498C589.603 438.526 589.603 469.553 589.603 500.581C589.603 511.119 589.603 521.656 589.603 532.194C589.603 534.947 589.424 535.109 586.504 535.109C578.183 535.109 569.857 535.052 561.535 535.131C559.338 535.131 558.558 534.504 558.563 532.497C558.617 506.967 558.629 481.433 558.596 455.897L558.572 455.879Z" fill="#1F1F1F"/>
<path d="M727.412 455.837C727.412 430.517 727.412 405.198 727.412 379.878C727.412 376.708 727.475 376.664 730.908 376.664C752.808 376.664 774.709 376.664 796.612 376.664C799.933 376.664 800.05 376.761 800.05 379.738C800.05 392.326 800.016 404.914 800.098 417.497C800.098 419.548 799.279 420.158 797.111 420.132C788.79 420.057 780.463 420.044 772.142 420.132C769.838 420.158 768.956 419.469 769.033 417.357C769.164 413.774 769.033 410.183 769.092 406.6C769.126 404.887 768.321 404.211 766.473 404.29C764.858 404.374 763.239 404.374 761.624 404.29C759.466 404.159 758.84 405.076 758.84 406.925C758.876 438.538 758.876 470.151 758.84 501.764C758.84 503.898 759.723 504.556 761.987 504.521C770.231 504.385 769.053 505.43 769.067 498.146C769.106 477.07 769.106 455.995 769.067 434.92C769.067 431.614 769.067 431.622 772.709 431.622C780.711 431.622 788.712 431.596 796.713 431.622C799.899 431.622 800.064 431.785 800.064 434.56C800.064 467.121 800.064 499.685 800.064 532.253C800.064 534.395 799.434 535.212 796.927 535.203C774.704 535.133 752.479 535.133 730.253 535.203C727.494 535.203 727.344 533.987 727.344 532.073C727.383 506.683 727.391 481.29 727.368 455.894L727.412 455.837Z" fill="#1F1F1F"/>
<path d="M631.283 655.91C631.283 670.914 631.283 685.915 631.283 700.914C631.283 704.172 631.283 704.163 627.592 704.163L562.374 704.19C559.294 704.19 559.086 704.023 559.086 701.204C559.086 683.934 559.086 666.664 559.086 649.394C559.086 646.377 559.197 646.272 562.48 646.268C570.644 646.268 578.805 646.268 586.965 646.268C589.933 646.268 590.093 646.43 590.097 649.165C590.097 656.849 590.097 664.533 590.097 672.221C590.097 675.07 590.291 675.268 593.361 675.233C600.669 675.145 599.83 676.111 599.854 669.424C599.883 659.475 599.854 649.521 599.854 639.567C599.854 636.63 599.694 636.494 596.397 636.494L562.219 636.529C559.27 636.529 559.1 636.388 559.096 633.64C559.096 605.32 559.096 577 559.096 548.68C559.096 545.835 559.256 545.703 562.379 545.703H627.597C631.273 545.703 631.283 545.703 631.283 548.974C631.283 564.049 631.283 579.124 631.283 594.198C631.283 597.399 631.225 597.447 627.825 597.447H603.336C599.942 597.447 599.869 597.386 599.864 594.207C599.864 588.648 599.864 583.085 599.864 577.522C599.864 574.734 599.67 574.594 596.513 574.603C595.382 574.656 594.249 574.656 593.119 574.603C590.723 574.374 590.054 575.384 590.068 577.417C590.146 586.564 590.146 595.712 590.068 604.859C590.068 606.958 590.859 607.665 593.172 607.651C604.65 607.572 616.124 607.612 627.602 607.616C631.263 607.616 631.288 607.647 631.288 610.896C631.304 625.901 631.302 640.905 631.283 655.91Z" fill="#1F1F1F"/>
<path d="M811.745 497.077C811.745 485.439 811.745 473.802 811.745 462.166C811.745 459.409 811.895 459.26 814.844 459.255C823.165 459.255 831.491 459.29 839.813 459.194C842.058 459.168 842.756 459.901 842.722 461.881C842.655 474.978 842.684 488.08 842.693 501.182C842.693 504.339 842.781 504.449 846.18 504.44C853.386 504.418 852.445 505.147 852.484 498.697C852.523 491.233 852.15 483.769 852.601 476.304C852.964 470.232 851.796 464.594 848.406 459.51C845.356 454.935 845.496 451.014 849.036 446.777C851.815 443.453 852.741 439.581 852.586 435.251C852.242 425.895 852.426 416.516 852.533 407.151C852.533 404.921 851.679 404.214 849.284 404.258C841.675 404.372 842.747 403.524 842.747 410.207C842.698 421.772 842.684 433.337 842.781 444.893C842.781 447.119 841.971 447.804 839.551 447.778C831.307 447.673 823.063 447.69 814.819 447.778C812.516 447.778 811.721 447.084 811.725 444.981C811.774 423.11 811.769 401.231 811.711 379.345C811.711 377.391 812.385 376.609 814.621 376.609C836.769 376.662 858.914 376.662 881.056 376.609C883.297 376.609 883.995 377.351 883.99 379.323C883.937 397.544 884.068 415.766 883.85 433.991C883.816 436.81 882.763 439.827 881.367 442.386C877.827 448.854 877.652 455.159 880.916 461.705C883.733 467.361 884.102 473.371 884.039 479.518C883.859 497.011 883.966 514.499 883.956 531.992C883.956 535.017 883.898 535.065 880.562 535.065C858.659 535.065 836.756 535.065 814.853 535.065C811.881 535.065 811.73 534.925 811.725 532.172C811.732 520.486 811.738 508.788 811.745 497.077Z" fill="#1F1F1F"/>
<path d="M811.785 624.974C811.785 599.587 811.785 574.201 811.785 548.817C811.785 545.779 811.877 545.722 815.15 545.717L879.647 545.695C884.011 545.695 884.011 545.695 884.011 549.717V669.298C884.011 673.008 884.011 673.017 879.826 673.017C868.757 673.017 857.687 673.017 846.618 673.017C843.374 673.017 843.223 673.153 843.223 676.16C843.223 684.503 843.252 692.845 843.223 701.187C843.223 704.037 843.078 704.151 839.931 704.16C831.69 704.16 823.446 704.16 815.199 704.16C811.863 704.16 811.77 704.103 811.766 701.121C811.775 675.743 811.782 650.361 811.785 624.974ZM853.004 609.404C853.004 599.819 853.043 590.234 853.004 580.654C852.97 573.761 854.023 574.731 846.303 574.59C843.97 574.547 843.218 575.306 843.228 577.392C843.286 597.655 843.228 617.922 843.286 638.185C843.286 644.885 842.093 644.047 849.847 644.104C852.801 644.104 853.009 643.924 853.009 641.224C853 630.616 852.99 620.009 852.98 609.404H853.004Z" fill="#1F1F1F"/>
<rect x="852.898" y="681.625" width="31.4438" height="22.1558" rx="3" fill="#1F1F1F"/>
</svg>
