<svg width="1087" height="1080" viewBox="0 0 1087 1080" fill="none" xmlns="http://www.w3.org/2000/svg">
<rect width="1087" height="1080" fill="#0D0D0D"/>
<path d="M550.055 632.838C550.055 605.019 550.055 577.194 550.055 549.362C550.055 545.869 550.109 545.82 553.933 545.82H626.555C630.936 545.82 630.946 545.82 630.946 549.642V716.091C630.946 720.014 630.946 719.999 626.674 719.999H554.057C550.13 719.999 550.066 719.966 550.066 716.313C550.066 688.494 550.066 660.669 550.066 632.838H550.055ZM595.964 632.915C595.964 616.596 595.964 600.279 595.964 583.963C595.964 576.552 596.785 577.691 588.721 577.623C585.286 577.594 585.108 577.782 585.108 580.928C585.108 614.608 585.108 648.288 585.108 681.967C585.108 689.089 584.146 688.124 592.194 688.197C595.791 688.226 595.974 688.062 595.974 684.756C595.964 667.479 595.955 650.199 595.947 632.915H595.964Z" fill="white"/>
<path d="M536.971 447.384C536.971 475.129 536.971 502.872 536.971 530.613C536.971 534.126 536.971 534.165 533.125 534.174C523.857 534.174 514.583 534.112 505.315 534.218C502.685 534.247 501.912 533.383 501.934 531.115C502.037 521.788 501.983 512.461 501.972 503.129C501.972 500.167 501.74 499.92 498.461 499.945C490.003 500.012 491.159 499.071 491.11 506.459C491.056 514.661 491.11 522.864 491.11 531.067C491.11 534.01 490.894 534.184 487.562 534.184H461.097C456.576 534.184 456.565 534.184 456.565 530.247C456.565 479.344 456.565 428.442 456.565 377.54C456.565 372.632 456.635 367.725 456.533 362.823C456.489 360.7 457.424 360 459.73 360C484.391 360.048 509.056 360.048 533.725 360C536.749 360 537.014 361.288 537.014 363.431C536.956 391.417 536.942 419.401 536.971 447.384ZM501.977 429.917C501.977 419.301 501.977 408.686 501.977 398.071C501.977 390.698 502.706 391.938 494.902 391.798C491.283 391.745 491.121 391.938 491.121 395.176C491.121 417.371 491.083 439.567 491.121 461.724C491.121 469.01 490.041 467.997 498.337 468.123C501.772 468.176 501.966 467.958 501.972 464.827C501.983 453.205 501.984 441.568 501.977 429.917Z" fill="white"/>
<path d="M456.551 632.938C456.551 605.116 456.551 577.291 456.551 549.463C456.551 545.868 456.594 545.844 460.634 545.844C469.452 545.844 478.274 545.844 487.099 545.844C490.988 545.844 491.107 545.955 491.107 549.308C491.107 582.763 491.107 616.217 491.107 649.672C491.107 653.961 491.107 653.971 495.778 653.976C502.578 653.976 501.968 654.569 501.968 648.374C501.968 615.485 501.968 582.599 501.968 549.714C501.968 545.853 501.968 545.853 506.321 545.853C515.233 545.853 524.143 545.853 533.051 545.853C536.886 545.853 536.961 545.931 536.961 549.381C536.961 583.157 536.961 616.933 536.961 650.709C536.961 672.661 536.961 694.612 536.961 716.563C536.961 719.941 536.783 720.042 532.981 720.033C523.891 720.008 514.801 720.033 505.711 720.004C502.071 720.004 501.979 719.917 501.973 716.583C501.973 707.333 501.898 698.088 501.973 688.843C502 686.57 501.196 685.668 498.576 685.73C489.983 685.947 491.134 684.765 491.085 692.384C491.031 700.587 491.009 708.79 491.128 716.993C491.161 719.318 490.221 720.066 487.666 720.042C478.484 719.946 469.302 720.013 460.121 720.013C456.691 720.013 456.54 719.878 456.534 716.679C456.527 688.757 456.533 660.844 456.551 632.938Z" fill="white"/>
<path d="M362.011 447.127C362.011 419.71 362.011 392.292 362.011 364.872C362.011 360.047 362.011 360.047 367.487 360.047C391.252 360.047 415.017 360.047 438.781 360.047C442.973 360.047 442.978 360.047 442.978 363.791C442.978 383.328 443.032 402.875 442.924 422.403C442.924 424.429 442.157 426.499 441.455 428.468C440.072 432.376 438.29 436.188 437.075 440.121C436.496 442.011 436.448 444 436.934 445.911C438.193 450.427 440.078 454.804 441.39 459.31C442.301 462.149 442.812 465.078 442.913 468.029C443.043 488.932 442.983 509.84 442.978 530.757C442.978 534.134 442.929 534.168 439.235 534.173C429.967 534.173 420.693 534.101 411.425 534.216C408.671 534.25 407.893 533.362 407.904 530.979C407.985 510.559 407.704 490.134 408.093 469.699C408.217 463.113 406.964 457.067 403.41 451.479C400.288 446.572 399.446 442.109 403.739 437.38C407.823 432.878 408.206 427.508 408.028 421.891C407.725 412.492 407.952 403.073 407.936 393.674C407.936 390.59 407.715 390.426 404.242 390.383C402.983 390.383 401.725 390.383 400.461 390.383C396.68 390.383 396.572 390.494 396.572 393.958C396.572 428.056 396.572 462.154 396.572 496.252C396.572 507.832 396.572 519.413 396.572 530.993C396.572 534.019 396.372 534.197 393.121 534.197C383.853 534.197 374.579 534.134 365.311 534.221C362.864 534.221 361.995 533.531 362 531.326C362.061 503.269 362.074 475.209 362.038 447.146L362.011 447.127Z" fill="white"/>
<path d="M550.068 447.078C550.068 419.253 550.068 391.428 550.068 363.602C550.068 360.119 550.138 360.07 553.962 360.07C578.353 360.07 602.746 360.07 627.141 360.07C630.841 360.07 630.97 360.176 630.97 363.448C630.97 377.282 630.932 391.115 631.024 404.944C631.024 407.198 630.111 407.869 627.697 407.84C618.429 407.758 609.155 407.743 599.887 407.84C597.322 407.869 596.339 407.111 596.425 404.79C596.571 400.853 596.425 396.906 596.49 392.968C596.528 391.087 595.631 390.343 593.573 390.43C591.774 390.522 589.971 390.522 588.172 390.43C585.769 390.286 585.072 391.294 585.072 393.325C585.112 428.067 585.112 462.808 585.072 497.549C585.072 499.894 586.055 500.618 588.577 500.579C597.759 500.43 596.447 501.578 596.463 493.573C596.506 470.412 596.506 447.252 596.463 424.091C596.463 420.457 596.463 420.467 600.519 420.467C609.431 420.467 618.343 420.438 627.254 420.467C630.803 420.467 630.986 420.646 630.986 423.695C630.986 459.479 630.986 495.265 630.986 531.055C630.986 533.41 630.284 534.307 627.492 534.298C602.741 534.221 577.988 534.221 553.233 534.298C550.16 534.298 549.992 532.961 549.992 530.857C550.035 502.955 550.044 475.049 550.019 447.141L550.068 447.078Z" fill="white"/>
<path d="M442.981 666.948C442.981 683.437 442.981 699.923 442.981 716.406C442.981 719.986 442.981 719.977 438.871 719.977L366.232 720.005C362.803 720.005 362.57 719.822 362.57 716.724C362.57 697.745 362.57 678.766 362.57 659.787C362.57 656.472 362.695 656.357 366.351 656.352C375.443 656.352 384.533 656.352 393.621 656.352C396.926 656.352 397.105 656.53 397.11 659.536C397.11 667.98 397.11 676.424 397.11 684.873C397.11 688.005 397.326 688.222 400.745 688.183C408.884 688.087 407.95 689.148 407.977 681.8C408.009 670.866 407.977 659.927 407.977 648.989C407.977 645.76 407.799 645.611 404.126 645.611L366.059 645.65C362.776 645.65 362.587 645.495 362.581 642.475C362.581 611.352 362.581 580.23 362.581 549.107C362.581 545.981 362.759 545.836 366.238 545.836H438.876C442.97 545.836 442.981 545.836 442.981 549.431C442.981 565.997 442.981 582.564 442.981 599.13C442.981 602.648 442.916 602.701 439.13 602.701H411.855C408.074 602.701 407.993 602.633 407.988 599.14C407.988 593.031 407.988 586.917 407.988 580.804C407.988 577.74 407.772 577.586 404.256 577.595C402.996 577.653 401.734 577.653 400.475 577.595C397.807 577.344 397.061 578.454 397.078 580.688C397.164 590.741 397.164 600.793 397.078 610.846C397.078 613.152 397.958 613.929 400.534 613.914C413.319 613.827 426.098 613.871 438.882 613.876C442.96 613.876 442.987 613.91 442.987 617.48C443.005 633.969 443.003 650.459 442.981 666.948Z" fill="white"/>
<path d="M643.983 492.388C643.983 479.598 643.983 466.81 643.983 454.023C643.983 450.993 644.151 450.829 647.434 450.824C656.703 450.824 665.976 450.863 675.244 450.757C677.745 450.728 678.523 451.534 678.485 453.71C678.409 468.103 678.442 482.502 678.453 496.9C678.453 500.369 678.55 500.49 682.336 500.48C690.362 500.456 689.314 501.257 689.357 494.169C689.401 485.966 688.985 477.763 689.487 469.56C689.892 462.887 688.59 456.692 684.815 451.104C681.418 446.076 681.574 441.767 685.517 437.111C688.612 433.458 689.644 429.203 689.471 424.445C689.087 414.163 689.293 403.856 689.411 393.564C689.411 391.113 688.461 390.336 685.793 390.384C677.318 390.51 678.512 389.578 678.512 396.922C678.458 409.632 678.442 422.341 678.55 435.041C678.55 437.488 677.648 438.24 674.953 438.211C665.771 438.095 656.589 438.115 647.407 438.211C644.842 438.211 643.956 437.449 643.962 435.138C644.016 411.102 644.01 387.058 643.945 363.006C643.945 360.859 644.696 360 647.186 360C671.854 360.058 696.519 360.058 721.18 360C723.676 360 724.453 360.815 724.448 362.982C724.389 383.006 724.535 403.031 724.291 423.06C724.254 426.158 723.082 429.473 721.526 432.286C717.583 439.393 717.389 446.322 721.024 453.517C724.162 459.732 724.572 466.337 724.502 473.092C724.302 492.316 724.421 511.535 724.41 530.758C724.41 534.083 724.345 534.136 720.63 534.136C696.235 534.136 671.84 534.136 647.445 534.136C644.134 534.136 643.967 533.981 643.962 530.956C643.969 518.115 643.976 505.259 643.983 492.388Z" fill="white"/>
<path d="M644.045 632.944C644.045 605.045 644.045 577.147 644.045 549.251C644.045 545.912 644.148 545.849 647.793 545.844L719.627 545.82C724.488 545.82 724.488 545.82 724.488 550.24V681.654C724.488 685.731 724.488 685.741 719.827 685.741C707.498 685.741 695.17 685.741 682.841 685.741C679.228 685.741 679.06 685.89 679.06 689.196C679.06 698.363 679.093 707.531 679.06 716.699C679.06 719.831 678.898 719.956 675.393 719.966C666.215 719.966 657.033 719.966 647.847 719.966C644.131 719.966 644.029 719.903 644.023 716.627C644.034 688.737 644.041 660.843 644.045 632.944ZM689.954 615.834C689.954 605.3 689.997 594.767 689.954 584.238C689.916 576.663 691.088 577.729 682.49 577.575C679.892 577.527 679.055 578.361 679.066 580.653C679.13 602.921 679.066 625.194 679.13 647.463C679.13 654.826 677.802 653.904 686.438 653.967C689.727 653.967 689.959 653.769 689.959 650.802C689.949 639.144 689.938 627.488 689.927 615.834H689.954Z" fill="white"/>
<rect x="689.352" y="695.797" width="35.0294" height="24.0563" rx="2" fill="white"/>
</svg>
