<svg width="1089" height="1080" viewBox="0 0 1089 1080" fill="none" xmlns="http://www.w3.org/2000/svg">
<g clip-path="url(#clip0_927_888)">
<rect width="1089" height="1080" fill="#0D0D0D"/>
<rect width="1089" height="1080" rx="10" fill="#0D0D0D"/>
<path d="M672.052 635C677.771 590.009 683.446 545.286 689.172 500.295H661.227C655.53 545.034 649.814 589.919 644.078 634.951H588.174C593.878 590.03 599.568 545.236 605.287 500.224H577.342C571.631 545.095 565.934 589.882 560.2 634.901H336C344.005 571.889 352 508.922 359.986 446H415.904C410.2 490.942 404.51 535.714 398.813 580.741H426.758C432.47 535.834 438.174 491.027 443.9 446.042H499.811C494.114 490.85 488.432 535.608 482.706 580.677H510.643C516.33 535.928 522.04 491.036 527.771 446H752C743.98 509.106 735.978 572.106 727.992 635H672.052Z" fill="#141414"/>
</g>
<defs>
<clipPath id="clip0_927_888">
<rect width="1089" height="1080" fill="white"/>
</clipPath>
</defs>
</svg>
