<svg width="2726" height="1362" viewBox="0 0 2726 1362" fill="none" xmlns="http://www.w3.org/2000/svg">
<rect width="2726" height="1362" fill="black"/>
<path d="M724.902 703H748.902L776.502 546.6H836.502L798.502 763H654.502L713.702 427H773.702L767.302 463H851.302L840.502 523H756.502L724.902 703ZM966.47 763H822.47L875.27 463H1019.27L981.27 679H897.27L892.87 703H976.87L966.47 763ZM948.47 523H924.47L907.67 619H931.67L948.47 523ZM1161.64 607L1134.44 763H1074.44L1091.24 667H1067.24L1050.44 763H990.439L1049.64 427H1109.64L1092.44 523H1116.84L1127.64 463H1187.24L1166.04 583H1082.04L1077.64 607H1161.64ZM1228.81 703H1252.81L1280.41 546.6H1340.41L1302.41 763H1158.41L1217.61 427H1277.61L1271.21 463H1355.21L1344.41 523H1260.41L1228.81 703ZM1495.58 619H1411.58L1407.18 643H1491.18L1470.38 763H1410.78L1421.18 703H1396.78L1386.38 763H1326.38L1379.18 463H1523.18L1495.58 619ZM1446.38 559L1452.38 523H1428.38L1422.38 559H1446.38ZM1538.75 511H1598.75L1554.35 763H1494.35L1538.75 511ZM1553.55 427H1613.55L1602.75 487H1542.75L1553.55 427ZM1638.33 763L1631.93 799H1571.93L1631.13 463H1775.13L1722.33 763H1638.33ZM1680.33 523L1648.73 703H1672.73L1704.33 523H1680.33Z" fill="white"/>
</svg>
