<svg width="2726" height="1363" viewBox="0 0 2726 1363" fill="none" xmlns="http://www.w3.org/2000/svg">
<rect width="2726" height="1363" fill="black"/>
<path d="M848.902 778H872.902L900.502 621.6H960.502L922.502 838H778.502L837.702 502H897.702L891.302 538H975.302L964.502 598H880.502L848.902 778ZM1090.47 838H946.47L999.27 538H1143.27L1105.27 754H1021.27L1016.87 778H1100.87L1090.47 838ZM1072.47 598H1048.47L1031.67 694H1055.67L1072.47 598ZM1285.64 682L1258.44 838H1198.44L1215.24 742H1191.24L1174.44 838H1114.44L1173.64 502H1233.64L1216.44 598H1240.84L1251.64 538H1311.24L1290.04 658H1206.04L1201.64 682H1285.64ZM1352.81 778H1376.81L1404.41 621.6H1464.41L1426.41 838H1282.41L1341.61 502H1401.61L1395.21 538H1479.21L1468.41 598H1384.41L1352.81 778ZM1619.58 694H1535.58L1531.18 718H1615.18L1594.38 838H1534.78L1545.18 778H1520.78L1510.38 838H1450.38L1503.18 538H1647.18L1619.58 694ZM1570.38 634L1576.38 598H1552.38L1546.38 634H1570.38ZM1662.75 586H1722.75L1678.35 838H1618.35L1662.75 586ZM1677.55 502H1737.55L1726.75 562H1666.75L1677.55 502ZM1762.33 838L1755.93 874H1695.93L1755.13 538H1899.13L1846.33 838H1762.33ZM1804.33 598L1772.73 778H1796.73L1828.33 598H1804.33Z" fill="white"/>
</svg>
