<svg width="2726" height="1363" viewBox="0 0 2726 1363" fill="none" xmlns="http://www.w3.org/2000/svg">
<rect width="2726" height="1363" fill="black"/>
<path d="M815.902 809H839.902L867.502 652.6H927.502L889.502 869H745.502L804.702 533H864.702L858.302 569H942.302L931.502 629H847.502L815.902 809ZM1057.47 869H913.47L966.27 569H1110.27L1072.27 785H988.27L983.87 809H1067.87L1057.47 869ZM1039.47 629H1015.47L998.67 725H1022.67L1039.47 629ZM1252.64 713L1225.44 869H1165.44L1182.24 773H1158.24L1141.44 869H1081.44L1140.64 533H1200.64L1183.44 629H1207.84L1218.64 569H1278.24L1257.04 689H1173.04L1168.64 713H1252.64ZM1319.81 809H1343.81L1371.41 652.6H1431.41L1393.41 869H1249.41L1308.61 533H1368.61L1362.21 569H1446.21L1435.41 629H1351.41L1319.81 809ZM1586.58 725H1502.58L1498.18 749H1582.18L1561.38 869H1501.78L1512.18 809H1487.78L1477.38 869H1417.38L1470.18 569H1614.18L1586.58 725ZM1537.38 665L1543.38 629H1519.38L1513.38 665H1537.38ZM1629.75 617H1689.75L1645.35 869H1585.35L1629.75 617ZM1644.55 533H1704.55L1693.75 593H1633.75L1644.55 533ZM1729.33 869L1722.93 905H1662.93L1722.13 569H1866.13L1813.33 869H1729.33ZM1771.33 629L1739.73 809H1763.73L1795.33 629H1771.33Z" fill="white"/>
</svg>
