<svg width="360" height="180" viewBox="0 0 360 180" fill="none" xmlns="http://www.w3.org/2000/svg">
<rect width="360" height="180" fill="black"/>
<path d="M100 117.684C103.939 99.1646 107.886 80.6163 111.841 62.0391H127.496L123.934 78.9287H127.108C128.324 73.3093 129.533 67.7056 130.761 62.0234H146.416C145.309 67.188 144.234 72.2192 143.136 77.368L135.547 83.7286L140.413 90.0813C139.322 95.238 138.231 100.406 137.105 105.74L118.786 118.265L125.064 88.5872H121.886C120.657 94.3047 119.437 99.9594 118.197 105.751L100.447 117.908L100 117.684Z" fill="white"/>
<path d="M248.918 83.7365L253.803 90.0539C252.731 95.1387 251.63 100.367 250.5 105.74L232.161 118.288C234.319 108.093 236.363 98.4693 238.439 88.6461H235.249L231.561 105.787L213.249 118.284L225.216 62.047H240.855L237.305 78.9092H240.479C241.699 73.2466 242.907 67.639 244.124 62.0078H259.779C258.672 67.1802 257.593 72.2035 256.491 77.3641L248.918 83.7365Z" fill="white"/>
<path d="M212.708 105.673H178.137C181.245 91.0655 184.325 76.5954 187.425 62.0352H221.995C218.884 76.6111 215.811 91.0851 212.708 105.673ZM201.122 71.2976L195.837 96.2967H199.023C200.788 87.9911 202.554 79.7404 204.331 71.2976H201.122Z" fill="white"/>
<path d="M158.069 96.2616H161.208C161.89 93.2185 162.581 90.1285 163.299 86.9286L179.566 83.7914L174.94 105.653H140.354C143.457 91.0421 146.533 76.5485 149.625 62H165.288C162.867 73.4467 160.478 84.7718 158.069 96.2616Z" fill="white"/>
</svg>
