<svg width="360" height="180" viewBox="0 0 360 180" fill="none" xmlns="http://www.w3.org/2000/svg">
<rect width="360" height="180" fill="black"/>
<path d="M133.246 108H131.635L129.047 104.411C128.412 104.981 127.737 105.518 127.021 106.022C126.321 106.511 125.58 106.942 124.799 107.316C124.018 107.674 123.212 107.959 122.382 108.171C121.568 108.382 120.738 108.488 119.892 108.488C118.052 108.488 116.319 108.179 114.691 107.561C113.08 106.942 111.664 106.047 110.443 104.875C109.239 103.687 108.287 102.238 107.587 100.529C106.887 98.8203 106.537 96.8753 106.537 94.6943C106.537 92.6598 106.887 90.7962 107.587 89.1035C108.287 87.3945 109.239 85.9297 110.443 84.709C111.664 83.4883 113.08 82.5443 114.691 81.877C116.319 81.1934 118.052 80.8516 119.892 80.8516C120.738 80.8516 121.576 80.9574 122.406 81.1689C123.236 81.3805 124.042 81.6735 124.823 82.0479C125.604 82.4222 126.345 82.8617 127.045 83.3662C127.761 83.8708 128.428 84.416 129.047 85.002L131.635 81.9014H133.246V108ZM126.532 94.6943C126.532 93.7829 126.353 92.904 125.995 92.0576C125.653 91.195 125.181 90.4382 124.579 89.7871C123.977 89.1198 123.269 88.5908 122.455 88.2002C121.658 87.7933 120.803 87.5898 119.892 87.5898C118.98 87.5898 118.118 87.7445 117.304 88.0537C116.506 88.363 115.806 88.8187 115.204 89.4209C114.618 90.0231 114.154 90.7718 113.812 91.667C113.471 92.5459 113.3 93.555 113.3 94.6943C113.3 95.8337 113.471 96.8509 113.812 97.7461C114.154 98.625 114.618 99.3656 115.204 99.9678C115.806 100.57 116.506 101.026 117.304 101.335C118.118 101.644 118.98 101.799 119.892 101.799C120.803 101.799 121.658 101.604 122.455 101.213C123.269 100.806 123.977 100.277 124.579 99.626C125.181 98.9587 125.653 98.2018 125.995 97.3555C126.353 96.4928 126.532 95.6058 126.532 94.6943ZM143.71 74.748C143.71 75.3665 143.588 75.9443 143.344 76.4814C143.116 77.0186 142.799 77.4906 142.392 77.8975C141.985 78.2881 141.505 78.6055 140.951 78.8496C140.414 79.0775 139.836 79.1914 139.218 79.1914C138.599 79.1914 138.013 79.0775 137.46 78.8496C136.923 78.6055 136.451 78.2881 136.044 77.8975C135.653 77.4906 135.336 77.0186 135.092 76.4814C134.864 75.9443 134.75 75.3665 134.75 74.748C134.75 74.1458 134.864 73.5762 135.092 73.0391C135.336 72.4857 135.653 72.0137 136.044 71.623C136.451 71.2161 136.923 70.8988 137.46 70.6709C138.013 70.4268 138.599 70.3047 139.218 70.3047C139.836 70.3047 140.414 70.4268 140.951 70.6709C141.505 70.8988 141.985 71.2161 142.392 71.623C142.799 72.0137 143.116 72.4857 143.344 73.0391C143.588 73.5762 143.71 74.1458 143.71 74.748ZM142.562 108H135.849V81.8525H142.562V108ZM171.434 108H169.822L167.234 104.411C166.6 104.981 165.924 105.518 165.208 106.022C164.508 106.511 163.768 106.942 162.986 107.316C162.205 107.674 161.399 107.959 160.569 108.171C159.756 108.382 158.925 108.488 158.079 108.488C156.24 108.488 154.507 108.146 152.879 107.463C151.268 106.763 149.852 105.803 148.631 104.582C147.426 103.345 146.474 101.888 145.774 100.212C145.075 98.5192 144.725 96.68 144.725 94.6943C144.725 92.7249 145.075 90.8939 145.774 89.2012C146.474 87.5085 147.426 86.0436 148.631 84.8066C149.852 83.5697 151.268 82.6012 152.879 81.9014C154.507 81.2015 156.24 80.8516 158.079 80.8516C158.665 80.8516 159.267 80.9004 159.886 80.998C160.521 81.0957 161.131 81.2585 161.717 81.4863C162.319 81.6979 162.881 81.9827 163.401 82.3408C163.922 82.6989 164.362 83.1383 164.72 83.6592V71.4521H171.434V108ZM164.72 94.6943C164.72 93.7829 164.541 92.904 164.183 92.0576C163.841 91.195 163.369 90.4382 162.767 89.7871C162.164 89.1198 161.456 88.5908 160.643 88.2002C159.845 87.7933 158.991 87.5898 158.079 87.5898C157.168 87.5898 156.305 87.7526 155.491 88.0781C154.694 88.4036 153.994 88.8757 153.392 89.4941C152.806 90.0964 152.342 90.8369 152 91.7158C151.658 92.5947 151.487 93.5876 151.487 94.6943C151.487 95.6546 151.658 96.5661 152 97.4287C152.342 98.2913 152.806 99.0482 153.392 99.6992C153.994 100.35 154.694 100.863 155.491 101.237C156.305 101.612 157.168 101.799 158.079 101.799C158.991 101.799 159.845 101.604 160.643 101.213C161.456 100.806 162.164 100.277 162.767 99.626C163.369 98.9587 163.841 98.2018 164.183 97.3555C164.541 96.4928 164.72 95.6058 164.72 94.6943ZM200.055 94.6943C200.055 96.6475 199.705 98.4704 199.005 100.163C198.305 101.84 197.353 103.296 196.148 104.533C194.944 105.754 193.528 106.722 191.9 107.438C190.289 108.138 188.556 108.488 186.7 108.488C184.861 108.488 183.128 108.138 181.5 107.438C179.889 106.722 178.473 105.754 177.252 104.533C176.048 103.296 175.095 101.84 174.396 100.163C173.696 98.4704 173.346 96.6475 173.346 94.6943C173.346 92.7087 173.696 90.8695 174.396 89.1768C175.095 87.484 176.048 86.0273 177.252 84.8066C178.473 83.5697 179.889 82.6012 181.5 81.9014C183.128 81.2015 184.861 80.8516 186.7 80.8516C188.556 80.8516 190.289 81.1852 191.9 81.8525C193.528 82.5036 194.944 83.4395 196.148 84.6602C197.353 85.8646 198.305 87.3213 199.005 89.0303C199.705 90.723 200.055 92.611 200.055 94.6943ZM193.341 94.6943C193.341 93.6201 193.162 92.6517 192.804 91.7891C192.462 90.9102 191.99 90.1615 191.388 89.543C190.785 88.9082 190.077 88.4281 189.264 88.1025C188.466 87.7607 187.612 87.5898 186.7 87.5898C185.789 87.5898 184.926 87.7607 184.112 88.1025C183.315 88.4281 182.615 88.9082 182.013 89.543C181.427 90.1615 180.963 90.9102 180.621 91.7891C180.279 92.6517 180.108 93.6201 180.108 94.6943C180.108 95.7035 180.279 96.6393 180.621 97.502C180.963 98.3646 181.427 99.1133 182.013 99.748C182.615 100.383 183.315 100.887 184.112 101.262C184.926 101.62 185.789 101.799 186.7 101.799C187.612 101.799 188.466 101.628 189.264 101.286C190.077 100.944 190.785 100.464 191.388 99.8457C191.99 99.2272 192.462 98.4785 192.804 97.5996C193.162 96.7207 193.341 95.7523 193.341 94.6943ZM228.51 94.6943C228.51 96.6475 228.16 98.4704 227.46 100.163C226.76 101.84 225.808 103.296 224.604 104.533C223.399 105.754 221.983 106.722 220.355 107.438C218.744 108.138 217.011 108.488 215.155 108.488C213.316 108.488 211.583 108.138 209.955 107.438C208.344 106.722 206.928 105.754 205.707 104.533C204.503 103.296 203.55 101.84 202.851 100.163C202.151 98.4704 201.801 96.6475 201.801 94.6943C201.801 92.7087 202.151 90.8695 202.851 89.1768C203.55 87.484 204.503 86.0273 205.707 84.8066C206.928 83.5697 208.344 82.6012 209.955 81.9014C211.583 81.2015 213.316 80.8516 215.155 80.8516C217.011 80.8516 218.744 81.1852 220.355 81.8525C221.983 82.5036 223.399 83.4395 224.604 84.6602C225.808 85.8646 226.76 87.3213 227.46 89.0303C228.16 90.723 228.51 92.611 228.51 94.6943ZM221.796 94.6943C221.796 93.6201 221.617 92.6517 221.259 91.7891C220.917 90.9102 220.445 90.1615 219.843 89.543C219.241 88.9082 218.533 88.4281 217.719 88.1025C216.921 87.7607 216.067 87.5898 215.155 87.5898C214.244 87.5898 213.381 87.7607 212.567 88.1025C211.77 88.4281 211.07 88.9082 210.468 89.543C209.882 90.1615 209.418 90.9102 209.076 91.7891C208.734 92.6517 208.563 93.6201 208.563 94.6943C208.563 95.7035 208.734 96.6393 209.076 97.502C209.418 98.3646 209.882 99.1133 210.468 99.748C211.07 100.383 211.77 100.887 212.567 101.262C213.381 101.62 214.244 101.799 215.155 101.799C216.067 101.799 216.921 101.628 217.719 101.286C218.533 100.944 219.241 100.464 219.843 99.8457C220.445 99.2272 220.917 98.4785 221.259 97.5996C221.617 96.7207 221.796 95.7523 221.796 94.6943ZM236.91 108H230.196V71.4521H236.91V94.499L246.847 81.9014H254.513L245.846 92.79L254.513 108H246.847L241.549 98.5029L236.91 104.655V108Z" fill="white"/>
</svg>
