<svg width="2726" height="1362" viewBox="0 0 2726 1362" fill="none" xmlns="http://www.w3.org/2000/svg">
<rect width="2726" height="1362" fill="black"/>
<path d="M640.274 868.4V586V534.8V468.4H829.074C829.074 516.4 829.074 564 829.074 612L795.874 631.6L829.074 650.8C829.074 723.2 829.074 796 829.074 868.4H640.274ZM707.074 802H762.674V689.2L729.074 670L707.074 682.8V802ZM707.074 605.6L762.674 573.6V534.8H707.074V605.6ZM916.058 534.8V646.4L971.658 614V534.8H916.058ZM971.658 728L939.658 709.6L916.058 723.2V868.4H849.258V589.2V534.8V468.4H1038.46C1038.46 529.6 1038.46 591.2 1038.46 652.8C1006.46 670.8 1006.46 670.8 1006.46 670.8L1038.46 689.6V766.4V868.4H971.658V728ZM1180.63 868.4V699.2L1125.03 731.2V868.4H1058.63V575.6V534.8V468.4H1247.43C1247.43 601.6 1247.43 735.2 1247.43 868.4H1180.63ZM1125.03 654L1180.63 622.4V534.8H1125.03V654ZM1328.82 468.4V534.8V583.6V607.2L1349.22 595.6L1395.62 568.8V534.8V468.4H1456.82V533.6V534.8V610.4L1416.02 634L1456.82 657.2V734.4V802V868.4H1395.62V802V699.2L1349.22 672.4L1328.82 684V802V868.4H1267.62V802V719.2V642.4V625.2V548.8V534.8V468.4H1328.82ZM1476.99 802L1543.79 763.6V802H1599.39V688.8L1476.99 759.2V565.2V534.8V468.4H1665.79V534.8L1599.39 573.2V534.8H1543.79V644L1665.79 573.6V868.4H1476.99V802ZM1752.78 534.8V802H1808.38V534.8H1752.78ZM1685.98 534.8V468.4H1875.18V868.4H1685.98V593.6V534.8ZM1895.35 868.4V580V534.8V468.4H1962.15L2017.75 533.2V468.4H2084.55C2084.55 601.6 2084.55 735.2 2084.55 868.4H2017.75V635.2L1962.15 570.8V868.4H1895.35Z" fill="white"/>
</svg>
