<svg width="360" height="180" viewBox="0 0 360 180" fill="none" xmlns="http://www.w3.org/2000/svg">
<rect width="360" height="180" fill="black"/>
<path d="M100 124.684C103.939 106.165 107.886 87.6163 111.841 69.0391H127.496L123.934 85.9287H127.108C128.324 80.3093 129.533 74.7056 130.761 69.0234H146.416C145.309 74.188 144.234 79.2192 143.136 84.368L135.547 90.7286L140.413 97.0813C139.322 102.238 138.231 107.406 137.105 112.74L118.786 125.265L125.064 95.5872H121.886C120.657 101.305 119.437 106.959 118.197 112.751L100.447 124.908L100 124.684Z" fill="white"/>
<path d="M248.918 90.7365L253.803 97.0539C252.731 102.139 251.63 107.367 250.5 112.74L232.161 125.288C234.319 115.093 236.363 105.469 238.439 95.6461H235.249L231.561 112.787L213.249 125.284L225.216 69.047H240.855L237.305 85.9092H240.479C241.699 80.2466 242.907 74.639 244.124 69.0078H259.779C258.672 74.1802 257.593 79.2035 256.491 84.3641L248.918 90.7365Z" fill="white"/>
<path d="M212.708 112.673H178.137C181.245 98.0655 184.325 83.5954 187.425 69.0352H221.995C218.884 83.6111 215.811 98.0851 212.708 112.673ZM201.122 78.2976L195.837 103.297H199.023C200.788 94.9911 202.554 86.7404 204.331 78.2976H201.122Z" fill="white"/>
<path d="M158.069 103.262H161.208C161.89 100.219 162.581 97.1285 163.299 93.9286L179.566 90.7914L174.94 112.653H140.354C143.457 98.0421 146.533 83.5485 149.625 69H165.288C162.867 80.4467 160.478 91.7718 158.069 103.262Z" fill="white"/>
</svg>
