<svg width="360" height="180" viewBox="0 0 360 180" fill="none" xmlns="http://www.w3.org/2000/svg">
<rect width="360" height="180" fill="black"/>
<path d="M114.113 104.5H117.113L120.563 84.95H128.063L123.313 112H105.313L112.713 70H120.213L119.413 74.5H129.913L128.563 82H118.063L114.113 104.5ZM144.309 112H126.309L132.909 74.5H150.909L146.159 101.5H135.659L135.109 104.5H145.609L144.309 112ZM142.059 82H139.059L136.959 94H139.959L142.059 82ZM168.705 92.5L165.305 112H157.805L159.905 100H156.905L154.805 112H147.305L154.705 70H162.205L160.055 82H163.105L164.455 74.5H171.905L169.255 89.5H158.755L158.205 92.5H168.705ZM177.101 104.5H180.101L183.551 84.95H191.051L186.301 112H168.301L175.701 70H183.201L182.401 74.5H192.901L191.551 82H181.051L177.101 104.5ZM210.447 94H199.947L199.397 97H209.897L207.297 112H199.847L201.147 104.5H198.097L196.797 112H189.297L195.897 74.5H213.897L210.447 94ZM204.297 86.5L205.047 82H202.047L201.297 86.5H204.297ZM215.843 80.5H223.343L217.793 112H210.293L215.843 80.5ZM217.693 70H225.193L223.843 77.5H216.343L217.693 70ZM228.291 112L227.491 116.5H219.991L227.391 74.5H245.391L238.791 112H228.291ZM233.541 82L229.591 104.5H232.591L236.541 82H233.541Z" fill="white"/>
</svg>
