<svg width="360" height="180" viewBox="0 0 360 180" fill="none" xmlns="http://www.w3.org/2000/svg">
<rect width="360" height="180" fill="black"/>
<path d="M135.113 94.5H138.113L141.563 74.95H149.063L144.313 102H126.313L133.713 60H141.213L140.413 64.5H150.913L149.563 72H139.063L135.113 94.5ZM165.309 102H147.309L153.909 64.5H171.909L167.159 91.5H156.659L156.109 94.5H166.609L165.309 102ZM163.059 72H160.059L157.959 84H160.959L163.059 72ZM189.705 82.5L186.305 102H178.805L180.905 90H177.905L175.805 102H168.305L175.705 60H183.205L181.055 72H184.105L185.455 64.5H192.905L190.255 79.5H179.755L179.205 82.5H189.705ZM198.101 94.5H201.101L204.551 74.95H212.051L207.301 102H189.301L196.701 60H204.201L203.401 64.5H213.901L212.551 72H202.051L198.101 94.5ZM231.447 84H220.947L220.397 87H230.897L228.297 102H220.847L222.147 94.5H219.097L217.797 102H210.297L216.897 64.5H234.897L231.447 84ZM225.297 76.5L226.047 72H223.047L222.297 76.5H225.297ZM236.843 70.5H244.343L238.793 102H231.293L236.843 70.5ZM238.693 60H246.193L244.843 67.5H237.343L238.693 60ZM249.291 102L248.491 106.5H240.991L248.391 64.5H266.391L259.791 102H249.291ZM254.541 72L250.591 94.5H253.591L257.541 72H254.541Z" fill="white"/>
</svg>
