<svg width="360" height="180" viewBox="0 0 360 180" fill="none" xmlns="http://www.w3.org/2000/svg">
<rect width="360" height="180" fill="black"/>
<path d="M89.2217 113.3V78V71.6V63.3H112.822C112.822 69.3 112.822 75.25 112.822 81.25L108.672 83.7L112.822 86.1C112.822 95.15 112.822 104.25 112.822 113.3H89.2217ZM97.5717 105H104.522V90.9L100.322 88.5L97.5717 90.1V105ZM97.5717 80.45L104.522 76.45V71.6H97.5717V80.45ZM123.695 71.6V85.55L130.645 81.5V71.6H123.695ZM130.645 95.75L126.645 93.45L123.695 95.15V113.3H115.345V78.4V71.6V63.3H138.995C138.995 70.95 138.995 78.65 138.995 86.35C134.995 88.6 134.995 88.6 134.995 88.6L138.995 90.95V100.55V113.3H130.645V95.75ZM156.767 113.3V92.15L149.817 96.15V113.3H141.517V76.7V71.6V63.3H165.117C165.117 79.95 165.117 96.65 165.117 113.3H156.767ZM149.817 86.5L156.767 82.55V71.6H149.817V86.5ZM175.29 63.3V71.6V77.7V80.65L177.84 79.2L183.64 75.85V71.6V63.3H191.29V71.45V71.6V81.05L186.19 84L191.29 86.9V96.55V105V113.3H183.64V105V92.15L177.84 88.8L175.29 90.25V105V113.3H167.64V105V94.65V85.05V82.9V73.35V71.6V63.3H175.29ZM193.812 105L202.162 100.2V105H209.112V90.85L193.812 99.65V75.4V71.6V63.3H217.412V71.6L209.112 76.4V71.6H202.162V85.25L217.412 76.45V113.3H193.812V105ZM228.285 71.6V105H235.235V71.6H228.285ZM219.935 71.6V63.3H243.585V113.3H219.935V78.95V71.6ZM246.106 113.3V77.25V71.6V63.3H254.456L261.406 71.4V63.3H269.756C269.756 79.95 269.756 96.65 269.756 113.3H261.406V84.15L254.456 76.1V113.3H246.106Z" fill="white"/>
</svg>
