<svg width="2726" height="1362" viewBox="0 0 2726 1362" fill="none" xmlns="http://www.w3.org/2000/svg">
<rect width="2726" height="1362" fill="black"/>
<path d="M757.222 890.478C787.051 750.346 816.939 609.997 846.887 469.429H965.43L938.453 597.228H962.489C971.699 554.707 980.849 512.306 990.149 469.311H1108.69C1100.31 508.389 1092.17 546.458 1083.85 585.418L1026.39 633.546L1063.24 681.615C1054.98 720.634 1046.72 759.742 1038.19 800.096L899.474 894.869L947.01 670.31H922.945C913.645 713.572 904.406 756.36 895.017 800.185L760.609 892.169L757.222 890.478Z" fill="white"/>
<path d="M1884.87 633.604L1921.85 681.406C1913.73 719.881 1905.39 759.444 1896.84 800.094L1757.97 895.045C1774.31 817.898 1789.79 745.082 1805.51 670.753H1781.36L1753.43 800.45L1614.77 895.016L1705.39 469.487H1823.81L1796.92 597.077H1820.96C1830.2 554.231 1839.35 511.799 1848.56 469.19H1967.1C1958.72 508.328 1950.55 546.338 1942.21 585.386L1884.87 633.604Z" fill="white"/>
<path d="M1610.67 799.588H1348.9C1372.43 689.059 1395.75 579.569 1419.22 469.396H1680.99C1657.43 579.687 1634.17 689.208 1610.67 799.588ZM1522.94 539.482L1482.92 728.642H1507.04C1520.41 665.796 1533.78 603.366 1547.24 539.482H1522.94Z" fill="white"/>
<path d="M1196.93 728.379H1220.7C1225.87 705.354 1231.1 681.972 1236.53 657.759L1359.71 634.022L1324.68 799.444H1062.79C1086.29 688.886 1109.58 579.217 1133 469.133H1251.6C1233.27 555.746 1215.17 641.44 1196.93 728.379Z" fill="white"/>
</svg>
