<svg width="2726" height="1363" viewBox="0 0 2726 1363" fill="none" xmlns="http://www.w3.org/2000/svg">
<rect width="2726" height="1363" fill="black"/>
<path d="M757.222 944.137C787.051 803.903 816.939 663.45 846.887 522.78H965.43L938.453 650.672H962.489C971.699 608.12 980.849 565.688 990.149 522.661H1108.69C1100.31 561.768 1092.17 599.865 1083.85 638.854L1026.39 687.017L1063.24 735.122C1054.98 774.169 1046.72 813.306 1038.19 853.69L899.474 948.532L947.01 723.808H922.945C913.645 767.102 904.406 809.921 895.017 853.779L760.609 945.83L757.222 944.137Z" fill="white"/>
<path d="M1884.87 687.074L1921.85 734.911C1913.73 773.415 1905.39 813.006 1896.84 853.687L1757.97 948.708C1774.31 871.504 1789.79 798.635 1805.51 724.251H1781.36L1753.43 854.044L1614.77 948.678L1705.39 522.837H1823.81L1796.92 650.521H1820.96C1830.2 607.643 1839.35 565.181 1848.56 522.54H1967.1C1958.72 561.706 1950.55 599.744 1942.21 638.822L1884.87 687.074Z" fill="white"/>
<path d="M1610.67 853.181H1348.9C1372.43 742.571 1395.75 633 1419.22 522.746H1680.99C1657.43 633.119 1634.17 742.719 1610.67 853.181ZM1522.94 592.883L1482.92 782.182H1507.04C1520.41 719.29 1533.78 656.814 1547.24 592.883H1522.94Z" fill="white"/>
<path d="M1196.93 781.92H1220.7C1225.87 758.877 1231.1 735.478 1236.53 711.248L1359.71 687.493L1324.68 853.037H1062.79C1086.29 742.397 1109.58 632.648 1133 522.483H1251.6C1233.27 609.16 1215.17 694.916 1196.93 781.92Z" fill="white"/>
</svg>
