<svg width="360" height="180" viewBox="0 0 360 180" fill="none" xmlns="http://www.w3.org/2000/svg">
<rect width="360" height="180" fill="black"/>
<path d="M123.113 105.5H126.113L129.563 85.95H137.063L132.313 113H114.313L121.713 71H129.213L128.413 75.5H138.913L137.563 83H127.063L123.113 105.5ZM153.309 113H135.309L141.909 75.5H159.909L155.159 102.5H144.659L144.109 105.5H154.609L153.309 113ZM151.059 83H148.059L145.959 95H148.959L151.059 83ZM177.705 93.5L174.305 113H166.805L168.905 101H165.905L163.805 113H156.305L163.705 71H171.205L169.055 83H172.105L173.455 75.5H180.905L178.255 90.5H167.755L167.205 93.5H177.705ZM186.101 105.5H189.101L192.551 85.95H200.051L195.301 113H177.301L184.701 71H192.201L191.401 75.5H201.901L200.551 83H190.051L186.101 105.5ZM219.447 95H208.947L208.397 98H218.897L216.297 113H208.847L210.147 105.5H207.097L205.797 113H198.297L204.897 75.5H222.897L219.447 95ZM213.297 87.5L214.047 83H211.047L210.297 87.5H213.297ZM224.843 81.5H232.343L226.793 113H219.293L224.843 81.5ZM226.693 71H234.193L232.843 78.5H225.343L226.693 71ZM237.291 113L236.491 117.5H228.991L236.391 75.5H254.391L247.791 113H237.291ZM242.541 83L238.591 105.5H241.591L245.541 83H242.541Z" fill="white"/>
</svg>
