<svg width="2726" height="1363" viewBox="0 0 2726 1363" fill="none" xmlns="http://www.w3.org/2000/svg">
<rect width="2726" height="1363" fill="black"/>
<path d="M757.222 891.132C787.051 750.897 816.939 610.444 846.887 469.774H965.43L938.453 597.666H962.489C971.699 555.115 980.849 512.682 990.149 469.655H1108.69C1100.31 508.762 1092.17 546.86 1083.85 585.848L1026.39 634.011L1063.24 682.116C1054.98 721.163 1046.72 760.3 1038.19 800.684L899.474 895.526L947.01 670.802H922.945C913.645 714.096 904.406 756.915 895.017 800.773L760.609 892.824L757.222 891.132Z" fill="white"/>
<path d="M1884.87 634.068L1921.85 681.905C1913.73 720.409 1905.39 760.001 1896.84 800.681L1757.97 895.702C1774.31 818.498 1789.79 745.629 1805.51 671.245H1781.36L1753.43 801.038L1614.77 895.672L1705.39 469.831H1823.81L1796.92 597.515H1820.96C1830.2 554.637 1839.35 512.175 1848.56 469.534H1967.1C1958.72 508.701 1950.55 546.739 1942.21 585.816L1884.87 634.068Z" fill="white"/>
<path d="M1610.67 800.175H1348.9C1372.43 689.565 1395.75 579.994 1419.22 469.741H1680.99C1657.43 580.113 1634.17 689.714 1610.67 800.175ZM1522.94 539.878L1482.92 729.177H1507.04C1520.41 666.285 1533.78 603.809 1547.24 539.878H1522.94Z" fill="white"/>
<path d="M1196.93 728.914H1220.7C1225.87 705.871 1231.1 682.472 1236.53 658.242L1359.71 634.487L1324.68 800.031H1062.79C1086.29 689.391 1109.58 579.642 1133 469.478H1251.6C1233.27 556.154 1215.17 641.91 1196.93 728.914Z" fill="white"/>
</svg>
