<svg width="2726" height="1362" viewBox="0 0 2726 1362" fill="none" xmlns="http://www.w3.org/2000/svg">
<rect width="2726" height="1362" fill="black"/>
<path d="M988.969 827H976.078L955.375 798.289C950.297 802.846 944.893 807.143 939.164 811.18C933.565 815.086 927.641 818.536 921.391 821.531C915.141 824.396 908.695 826.674 902.055 828.367C895.544 830.06 888.904 830.906 882.133 830.906C867.419 830.906 853.552 828.432 840.531 823.484C827.641 818.536 816.312 811.375 806.547 802C796.911 792.495 789.294 780.906 783.695 767.234C778.096 753.562 775.297 738.003 775.297 720.555C775.297 704.279 778.096 689.37 783.695 675.828C789.294 662.156 796.911 650.438 806.547 640.672C816.312 630.906 827.641 623.354 840.531 618.016C853.552 612.547 867.419 609.812 882.133 609.812C888.904 609.812 895.609 610.659 902.25 612.352C908.891 614.044 915.336 616.388 921.586 619.383C927.836 622.378 933.76 625.893 939.359 629.93C945.089 633.966 950.427 638.328 955.375 643.016L976.078 618.211H988.969V827ZM935.258 720.555C935.258 713.263 933.826 706.232 930.961 699.461C928.227 692.56 924.451 686.505 919.633 681.297C914.815 675.958 909.151 671.727 902.641 668.602C896.26 665.346 889.424 663.719 882.133 663.719C874.841 663.719 867.94 664.956 861.43 667.43C855.049 669.904 849.451 673.549 844.633 678.367C839.945 683.185 836.234 689.174 833.5 696.336C830.766 703.367 829.398 711.44 829.398 720.555C829.398 729.669 830.766 737.807 833.5 744.969C836.234 752 839.945 757.924 844.633 762.742C849.451 767.56 855.049 771.206 861.43 773.68C867.94 776.154 874.841 777.391 882.133 777.391C889.424 777.391 896.26 775.828 902.641 772.703C909.151 769.448 914.815 765.216 919.633 760.008C924.451 754.669 928.227 748.615 930.961 741.844C933.826 734.943 935.258 727.846 935.258 720.555ZM1072.68 560.984C1072.68 565.932 1071.7 570.555 1069.75 574.852C1067.93 579.148 1065.39 582.924 1062.13 586.18C1058.88 589.305 1055.04 591.844 1050.61 593.797C1046.31 595.62 1041.69 596.531 1036.74 596.531C1031.79 596.531 1027.11 595.62 1022.68 593.797C1018.38 591.844 1014.61 589.305 1011.35 586.18C1008.23 582.924 1005.69 579.148 1003.73 574.852C1001.91 570.555 1001 565.932 1001 560.984C1001 556.167 1001.91 551.609 1003.73 547.312C1005.69 542.885 1008.23 539.109 1011.35 535.984C1014.61 532.729 1018.38 530.19 1022.68 528.367C1027.11 526.414 1031.79 525.438 1036.74 525.438C1041.69 525.438 1046.31 526.414 1050.61 528.367C1055.04 530.19 1058.88 532.729 1062.13 535.984C1065.39 539.109 1067.93 542.885 1069.75 547.312C1071.7 551.609 1072.68 556.167 1072.68 560.984ZM1063.5 827H1009.79V617.82H1063.5V827ZM1294.47 827H1281.58L1260.88 798.289C1255.8 802.846 1250.39 807.143 1244.66 811.18C1239.07 815.086 1233.14 818.536 1226.89 821.531C1220.64 824.396 1214.2 826.674 1207.55 828.367C1201.04 830.06 1194.4 830.906 1187.63 830.906C1172.92 830.906 1159.05 828.172 1146.03 822.703C1133.14 817.104 1121.81 809.422 1112.05 799.656C1102.41 789.76 1094.79 778.107 1089.2 764.695C1083.6 751.154 1080.8 736.44 1080.8 720.555C1080.8 704.799 1083.6 690.151 1089.2 676.609C1094.79 663.068 1102.41 651.349 1112.05 641.453C1121.81 631.557 1133.14 623.81 1146.03 618.211C1159.05 612.612 1172.92 609.812 1187.63 609.812C1192.32 609.812 1197.14 610.203 1202.09 610.984C1207.16 611.766 1212.05 613.068 1216.73 614.891C1221.55 616.583 1226.04 618.862 1230.21 621.727C1234.38 624.591 1237.89 628.107 1240.76 632.273V534.617H1294.47V827ZM1240.76 720.555C1240.76 713.263 1239.33 706.232 1236.46 699.461C1233.73 692.56 1229.95 686.505 1225.13 681.297C1220.32 675.958 1214.65 671.727 1208.14 668.602C1201.76 665.346 1194.92 663.719 1187.63 663.719C1180.34 663.719 1173.44 665.021 1166.93 667.625C1160.55 670.229 1154.95 674.005 1150.13 678.953C1145.45 683.771 1141.73 689.695 1139 696.727C1136.27 703.758 1134.9 711.701 1134.9 720.555C1134.9 728.237 1136.27 735.529 1139 742.43C1141.73 749.331 1145.45 755.385 1150.13 760.594C1154.95 765.802 1160.55 769.904 1166.93 772.898C1173.44 775.893 1180.34 777.391 1187.63 777.391C1194.92 777.391 1201.76 775.828 1208.14 772.703C1214.65 769.448 1220.32 765.216 1225.13 760.008C1229.95 754.669 1233.73 748.615 1236.46 741.844C1239.33 734.943 1240.76 727.846 1240.76 720.555ZM1523.44 720.555C1523.44 736.18 1520.64 750.763 1515.04 764.305C1509.44 777.716 1501.82 789.37 1492.19 799.266C1482.55 809.031 1471.22 816.779 1458.2 822.508C1445.31 828.107 1431.45 830.906 1416.6 830.906C1401.89 830.906 1388.02 828.107 1375 822.508C1362.11 816.779 1350.78 809.031 1341.02 799.266C1331.38 789.37 1323.76 777.716 1318.16 764.305C1312.57 750.763 1309.77 736.18 1309.77 720.555C1309.77 704.669 1312.57 689.956 1318.16 676.414C1323.76 662.872 1331.38 651.219 1341.02 641.453C1350.78 631.557 1362.11 623.81 1375 618.211C1388.02 612.612 1401.89 609.812 1416.6 609.812C1431.45 609.812 1445.31 612.482 1458.2 617.82C1471.22 623.029 1482.55 630.516 1492.19 640.281C1501.82 649.917 1509.44 661.57 1515.04 675.242C1520.64 688.784 1523.44 703.888 1523.44 720.555ZM1469.73 720.555C1469.73 711.961 1468.29 704.214 1465.43 697.312C1462.7 690.281 1458.92 684.292 1454.1 679.344C1449.28 674.266 1443.62 670.424 1437.11 667.82C1430.73 665.086 1423.89 663.719 1416.6 663.719C1409.31 663.719 1402.41 665.086 1395.9 667.82C1389.52 670.424 1383.92 674.266 1379.1 679.344C1374.41 684.292 1370.7 690.281 1367.97 697.312C1365.23 704.214 1363.87 711.961 1363.87 720.555C1363.87 728.628 1365.23 736.115 1367.97 743.016C1370.7 749.917 1374.41 755.906 1379.1 760.984C1383.92 766.062 1389.52 770.099 1395.9 773.094C1402.41 775.958 1409.31 777.391 1416.6 777.391C1423.89 777.391 1430.73 776.023 1437.11 773.289C1443.62 770.555 1449.28 766.714 1454.1 761.766C1458.92 756.818 1462.7 750.828 1465.43 743.797C1468.29 736.766 1469.73 729.018 1469.73 720.555ZM1751.08 720.555C1751.08 736.18 1748.28 750.763 1742.68 764.305C1737.08 777.716 1729.46 789.37 1719.83 799.266C1710.19 809.031 1698.86 816.779 1685.84 822.508C1672.95 828.107 1659.09 830.906 1644.24 830.906C1629.53 830.906 1615.66 828.107 1602.64 822.508C1589.75 816.779 1578.42 809.031 1568.66 799.266C1559.02 789.37 1551.4 777.716 1545.8 764.305C1540.21 750.763 1537.41 736.18 1537.41 720.555C1537.41 704.669 1540.21 689.956 1545.8 676.414C1551.4 662.872 1559.02 651.219 1568.66 641.453C1578.42 631.557 1589.75 623.81 1602.64 618.211C1615.66 612.612 1629.53 609.812 1644.24 609.812C1659.09 609.812 1672.95 612.482 1685.84 617.82C1698.86 623.029 1710.19 630.516 1719.83 640.281C1729.46 649.917 1737.08 661.57 1742.68 675.242C1748.28 688.784 1751.08 703.888 1751.08 720.555ZM1697.37 720.555C1697.37 711.961 1695.93 704.214 1693.07 697.312C1690.34 690.281 1686.56 684.292 1681.74 679.344C1676.92 674.266 1671.26 670.424 1664.75 667.82C1658.37 665.086 1651.53 663.719 1644.24 663.719C1636.95 663.719 1630.05 665.086 1623.54 667.82C1617.16 670.424 1611.56 674.266 1606.74 679.344C1602.05 684.292 1598.34 690.281 1595.61 697.312C1592.88 704.214 1591.51 711.961 1591.51 720.555C1591.51 728.628 1592.88 736.115 1595.61 743.016C1598.34 749.917 1602.05 755.906 1606.74 760.984C1611.56 766.062 1617.16 770.099 1623.54 773.094C1630.05 775.958 1636.95 777.391 1644.24 777.391C1651.53 777.391 1658.37 776.023 1664.75 773.289C1671.26 770.555 1676.92 766.714 1681.74 761.766C1686.56 756.818 1690.34 750.828 1693.07 743.797C1695.93 736.766 1697.37 729.018 1697.37 720.555ZM1818.28 827H1764.57V534.617H1818.28V718.992L1897.77 618.211H1959.1L1889.77 705.32L1959.1 827H1897.77L1855.39 751.023L1818.28 800.242V827Z" fill="white"/>
</svg>
