<svg width="1080" height="1080" viewBox="0 0 1080 1080" fill="none" xmlns="http://www.w3.org/2000/svg">
<rect width="1080" height="1080" fill="#0D0D0D"/>
<path d="M605.257 589C608.172 565.909 611.064 542.956 613.982 519.866H599.741C596.838 542.827 593.924 565.863 591.001 588.975H562.512C565.419 565.92 568.318 542.931 571.233 519.829H556.992C554.081 542.858 551.178 565.844 548.256 588.949H434C438.079 556.61 442.154 524.293 446.224 492H474.721C471.814 515.065 468.914 538.044 466.011 561.153H480.252C483.162 538.105 486.069 515.109 488.988 492.022H517.481C514.578 515.018 511.682 537.989 508.764 561.12H523.001C525.899 538.154 528.809 515.114 531.729 492H646C641.913 524.388 637.835 556.721 633.765 589H605.257Z" fill="white"/>
</svg>
