<svg width="1920" height="1080" viewBox="0 0 1920 1080" fill="none" xmlns="http://www.w3.org/2000/svg">
<rect width="1920" height="1080" fill="#0D0D0D"/>
<path d="M967.398 643.355C967.398 612.526 967.398 581.69 967.398 550.847C967.398 546.975 967.458 546.922 971.696 546.922H1052.18C1057.03 546.922 1057.04 546.922 1057.04 551.157V735.618C1057.04 739.965 1057.04 739.949 1052.31 739.949H971.834C967.482 739.949 967.41 739.912 967.41 735.864C967.41 705.035 967.41 674.199 967.41 643.355H967.398ZM1018.28 643.441C1018.28 625.356 1018.28 607.273 1018.28 589.192C1018.28 580.979 1019.19 582.241 1010.25 582.166C1006.44 582.134 1006.24 582.342 1006.24 585.829C1006.24 623.153 1006.24 660.477 1006.24 697.802C1006.24 705.694 1005.18 704.625 1014.1 704.705C1018.08 704.737 1018.29 704.555 1018.29 700.892C1018.28 681.745 1018.27 662.595 1018.26 643.441H1018.28Z" fill="white"/>
<path d="M952.902 437.84C952.902 468.587 952.902 499.332 952.902 530.076C952.902 533.969 952.902 534.011 948.64 534.022C938.369 534.022 928.092 533.952 917.821 534.07C914.906 534.102 914.05 533.145 914.074 530.632C914.187 520.295 914.127 509.959 914.116 499.617C914.116 496.334 913.858 496.061 910.225 496.088C900.852 496.163 902.133 495.12 902.079 503.307C902.019 512.397 902.079 521.488 902.079 530.578C902.079 533.84 901.839 534.033 898.146 534.033H868.817C863.807 534.033 863.795 534.033 863.795 529.669C863.795 473.259 863.795 416.848 863.795 360.437C863.795 354.999 863.873 349.561 863.759 344.128C863.712 341.775 864.747 341 867.303 341C894.633 341.053 921.967 341.053 949.304 341C952.656 341 952.95 342.428 952.95 344.802C952.886 375.816 952.87 406.829 952.902 437.84ZM914.122 418.483C914.122 406.718 914.122 394.954 914.122 383.19C914.122 375.02 914.93 376.394 906.28 376.239C902.27 376.18 902.091 376.394 902.091 379.982C902.091 404.58 902.049 429.177 902.091 453.732C902.091 461.807 900.894 460.684 910.087 460.823C913.894 460.881 914.11 460.641 914.116 457.17C914.127 444.291 914.129 431.395 914.122 418.483Z" fill="white"/>
<path d="M863.779 643.468C863.779 612.636 863.779 581.799 863.779 550.96C863.779 546.976 863.827 546.949 868.304 546.949C878.077 546.949 887.853 546.949 897.633 546.949C901.943 546.949 902.074 547.072 902.074 550.789C902.074 587.863 902.074 624.938 902.074 662.013C902.074 666.766 902.074 666.777 907.252 666.782C914.788 666.782 914.111 667.44 914.111 660.574C914.111 624.127 914.111 587.681 914.111 551.238C914.111 546.96 914.111 546.96 918.936 546.96C928.812 546.96 938.686 546.96 948.558 546.96C952.808 546.96 952.892 547.045 952.892 550.869C952.892 588.3 952.892 625.731 952.892 663.162C952.892 687.489 952.892 711.816 952.892 736.142C952.892 739.886 952.694 739.998 948.48 739.987C938.407 739.96 928.333 739.987 918.259 739.955C914.225 739.955 914.123 739.859 914.117 736.164C914.117 725.913 914.034 715.668 914.117 705.422C914.147 702.904 913.255 701.904 910.352 701.973C900.83 702.214 902.104 700.904 902.051 709.347C901.991 718.437 901.967 727.528 902.098 736.618C902.134 739.196 901.093 740.025 898.262 739.998C888.086 739.891 877.911 739.966 867.736 739.966C863.935 739.966 863.767 739.816 863.761 736.271C863.753 705.328 863.759 674.393 863.779 643.468Z" fill="white"/>
<path d="M759.012 437.558C759.012 407.174 759.012 376.789 759.012 346.402C759.012 341.055 759.012 341.055 765.081 341.055C791.418 341.055 817.754 341.055 844.09 341.055C848.735 341.055 848.741 341.055 848.741 345.204C848.741 366.855 848.801 388.517 848.681 410.158C848.681 412.404 847.831 414.698 847.053 416.88C845.521 421.211 843.545 425.435 842.199 429.793C841.557 431.888 841.504 434.092 842.043 436.21C843.438 441.215 845.527 446.065 846.981 451.06C847.99 454.206 848.557 457.451 848.669 460.722C848.813 483.887 848.747 507.057 848.741 530.237C848.741 533.98 848.687 534.018 844.593 534.023C834.322 534.023 824.045 533.943 813.773 534.071C810.721 534.109 809.859 533.125 809.871 530.483C809.961 507.853 809.649 485.218 810.08 462.572C810.218 455.273 808.829 448.573 804.891 442.381C801.431 436.943 800.498 431.996 805.256 426.756C809.781 421.767 810.206 415.815 810.009 409.591C809.673 399.175 809.925 388.737 809.907 378.32C809.907 374.903 809.661 374.721 805.813 374.673C804.418 374.673 803.023 374.673 801.623 374.673C797.433 374.673 797.313 374.796 797.313 378.636C797.313 416.423 797.313 454.211 797.313 491.999C797.313 504.832 797.313 517.666 797.313 530.499C797.313 533.852 797.092 534.05 793.489 534.05C783.217 534.05 772.94 533.98 762.669 534.077C759.958 534.077 758.994 533.312 759 530.868C759.068 499.775 759.082 468.679 759.042 437.579L759.012 437.558Z" fill="white"/>
<path d="M967.42 437.501C967.42 406.665 967.42 375.829 967.42 344.992C967.42 341.132 967.498 341.078 971.735 341.078C998.766 341.078 1025.8 341.078 1052.83 341.078C1056.93 341.078 1057.08 341.196 1057.08 344.821C1057.08 360.152 1057.03 375.483 1057.14 390.808C1057.14 393.305 1056.13 394.049 1053.45 394.017C1043.18 393.926 1032.9 393.91 1022.63 394.017C1019.79 394.049 1018.7 393.209 1018.79 390.637C1018.96 386.274 1018.79 381.9 1018.87 377.536C1018.91 375.451 1017.91 374.627 1015.63 374.723C1013.64 374.825 1011.64 374.825 1009.65 374.723C1006.98 374.563 1006.21 375.681 1006.21 377.932C1006.26 416.432 1006.26 454.933 1006.21 493.434C1006.21 496.033 1007.3 496.835 1010.1 496.792C1020.27 496.626 1018.82 497.899 1018.84 489.028C1018.88 463.36 1018.88 437.693 1018.84 412.026C1018.84 408 1018.84 408.01 1023.33 408.01C1033.21 408.01 1043.08 407.978 1052.96 408.01C1056.89 408.01 1057.09 408.208 1057.09 411.588C1057.09 451.243 1057.09 490.903 1057.09 530.566C1057.09 533.175 1056.32 534.17 1053.22 534.159C1025.79 534.073 998.361 534.073 970.927 534.159C967.521 534.159 967.336 532.678 967.336 530.346C967.384 499.425 967.394 468.499 967.366 437.57L967.42 437.501Z" fill="white"/>
<path d="M848.745 681.159C848.745 699.433 848.745 717.703 848.745 735.969C848.745 739.937 848.745 739.926 844.19 739.926L763.691 739.958C759.89 739.958 759.633 739.755 759.633 736.322C759.633 715.289 759.633 694.256 759.633 673.224C759.633 669.55 759.77 669.422 763.823 669.416C773.898 669.416 783.972 669.416 794.044 669.416C797.707 669.416 797.904 669.614 797.91 672.946C797.91 682.303 797.91 691.661 797.91 701.024C797.91 704.495 798.15 704.735 801.938 704.693C810.959 704.586 809.923 705.762 809.953 697.618C809.989 685.501 809.953 673.379 809.953 661.256C809.953 657.679 809.756 657.513 805.685 657.513L763.499 657.556C759.86 657.556 759.651 657.385 759.645 654.037C759.645 619.547 759.645 585.057 759.645 550.567C759.645 547.102 759.842 546.941 763.697 546.941H844.196C848.733 546.941 848.745 546.941 848.745 550.925C848.745 569.284 848.745 587.643 848.745 606.002C848.745 609.901 848.673 609.959 844.477 609.959H814.251C810.061 609.959 809.971 609.885 809.965 606.013C809.965 599.243 809.965 592.468 809.965 585.693C809.965 582.298 809.726 582.127 805.829 582.137C804.433 582.202 803.035 582.202 801.639 582.137C798.682 581.859 797.856 583.089 797.874 585.565C797.97 596.705 797.97 607.846 797.874 618.986C797.874 621.542 798.85 622.403 801.705 622.387C815.873 622.29 830.034 622.339 844.202 622.344C848.721 622.344 848.751 622.381 848.751 626.338C848.771 644.612 848.769 662.885 848.745 681.159Z" fill="white"/>
<path d="M1071.5 487.714C1071.5 473.54 1071.5 459.368 1071.5 445.198C1071.5 441.84 1071.68 441.658 1075.32 441.652C1085.59 441.652 1095.87 441.695 1106.14 441.578C1108.91 441.546 1109.77 442.439 1109.73 444.85C1109.65 460.801 1109.68 476.758 1109.69 492.714C1109.69 496.559 1109.8 496.692 1114 496.682C1122.89 496.655 1121.73 497.543 1121.78 489.687C1121.83 480.597 1121.37 471.507 1121.92 462.416C1122.37 455.021 1120.93 448.155 1116.75 441.963C1112.98 436.391 1113.15 431.616 1117.52 426.455C1120.95 422.408 1122.1 417.691 1121.9 412.419C1121.48 401.024 1121.71 389.602 1121.84 378.196C1121.84 375.479 1120.79 374.619 1117.83 374.672C1108.44 374.811 1109.76 373.779 1109.76 381.918C1109.7 396.002 1109.68 410.087 1109.8 424.161C1109.8 426.873 1108.8 427.707 1105.82 427.675C1095.64 427.546 1085.47 427.568 1075.29 427.675C1072.45 427.675 1071.47 426.83 1071.47 424.268C1071.53 397.632 1071.52 370.986 1071.45 344.331C1071.45 341.952 1072.29 341 1075.04 341C1102.38 341.064 1129.72 341.064 1157.05 341C1159.81 341 1160.67 341.904 1160.67 344.305C1160.6 366.496 1160.76 388.687 1160.49 410.884C1160.45 414.317 1159.15 417.991 1157.43 421.108C1153.06 428.985 1152.84 436.663 1156.87 444.636C1160.35 451.524 1160.8 458.844 1160.73 466.33C1160.51 487.634 1160.64 508.932 1160.63 530.236C1160.63 533.92 1160.55 533.979 1156.44 533.979C1129.4 533.979 1102.37 533.979 1075.33 533.979C1071.66 533.979 1071.48 533.808 1071.47 530.455C1071.48 516.224 1071.49 501.977 1071.5 487.714Z" fill="white"/>
<path d="M1071.56 643.473C1071.56 612.555 1071.56 581.638 1071.56 550.724C1071.56 547.023 1071.68 546.954 1075.72 546.949L1155.32 546.922C1160.71 546.922 1160.71 546.922 1160.71 551.82V697.454C1160.71 701.973 1160.71 701.983 1155.55 701.983C1141.88 701.983 1128.22 701.983 1114.56 701.983C1110.55 701.983 1110.37 702.149 1110.37 705.812C1110.37 715.972 1110.4 726.132 1110.37 736.292C1110.37 739.762 1110.19 739.901 1106.3 739.912C1096.13 739.912 1085.96 739.912 1075.78 739.912C1071.66 739.912 1071.55 739.842 1071.54 736.211C1071.55 705.304 1071.56 674.391 1071.56 643.473ZM1122.44 624.511C1122.44 612.838 1122.49 601.165 1122.44 589.497C1122.4 581.102 1123.7 582.284 1114.17 582.113C1111.29 582.059 1110.36 582.984 1110.37 585.524C1110.44 610.202 1110.37 634.885 1110.44 659.563C1110.44 667.723 1108.97 666.702 1118.54 666.771C1122.19 666.771 1122.45 666.552 1122.45 663.263C1122.43 650.344 1122.42 637.427 1122.41 624.511H1122.44Z" fill="white"/>
<rect x="1122" y="714" width="39" height="26" rx="2" fill="white"/>
</svg>
