<svg width="1920" height="1080" viewBox="0 0 1920 1080" fill="none" xmlns="http://www.w3.org/2000/svg">
<rect width="1920" height="1080" fill="#0D0D0D"/>
<path d="M970.15 634.614L957.181 543.828L1054.44 543.828L1054.44 634.614L970.15 634.614ZM1022 602.107L1022 576.378L994.27 576.378L998.005 602.107L1022 602.107Z" fill="white"/>
<path d="M950.311 543.597L963.28 634.383L866.023 634.383L866.023 543.597L950.311 543.597ZM898.464 576.104L898.464 601.833L926.191 601.833L922.455 576.104L898.464 576.104Z" fill="white"/>
<path d="M926.196 478.59L866 478.59L866 446.257L963.271 446.257L950.327 536.887L866 536.887L866 504.631L922.411 504.631L926.196 478.59Z" fill="white"/>
<rect x="866.031" y="467.887" width="32.3159" height="60.7254" fill="white"/>
<path d="M994.116 504.331L1054.45 504.331L1054.45 536.684L956.955 536.684L969.929 446L1054.45 446L1054.45 478.275L997.91 478.275L994.116 504.331Z" fill="white"/>
</svg>
