<svg width="1080" height="1080" viewBox="0 0 1080 1080" fill="none" xmlns="http://www.w3.org/2000/svg">
<rect width="1080" height="1080" fill="#0D0D0D"/>
<path d="M550.15 634.614L537.181 543.828L634.438 543.828L634.437 634.614L550.15 634.614ZM601.997 602.107L601.997 576.378L574.27 576.378L578.005 602.107L601.997 602.107Z" fill="white"/>
<path d="M530.311 543.597L543.28 634.383L446.023 634.383L446.023 543.597L530.311 543.597ZM478.464 576.104L478.464 601.833L506.191 601.833L502.455 576.104L478.464 576.104Z" fill="white"/>
<path d="M506.196 478.59L446 478.59L446 446.257L543.271 446.257L530.327 536.887L446 536.887L446 504.631L502.411 504.631L506.196 478.59Z" fill="white"/>
<rect x="446.031" y="467.887" width="32.3159" height="60.7254" fill="white"/>
<path d="M574.116 504.331L634.453 504.331L634.453 536.684L536.955 536.684L549.929 446L634.453 446L634.453 478.275L577.91 478.275L574.116 504.331Z" fill="white"/>
</svg>
