<svg width="1080" height="1080" viewBox="0 0 1080 1080" fill="none" xmlns="http://www.w3.org/2000/svg">
<rect width="1080" height="1080" fill="#0D0D0D"/>
<path fill-rule="evenodd" clip-rule="evenodd" d="M439.076 374.663C436.195 357.632 437.261 340.168 442.191 323.614C447.122 307.059 455.787 291.858 467.517 279.18C445.416 297.042 428.455 320.453 418.367 347.019C408.28 373.585 405.428 402.354 410.104 430.383C414.779 458.413 426.815 484.698 444.979 506.551C463.143 528.405 486.785 545.043 513.488 554.764C443.494 497.775 426.999 397.538 475.021 321.12C464.521 325.65 455.547 333.109 449.173 342.604C442.799 352.099 439.294 363.229 439.076 374.663ZM370.055 447.061C359.042 433.753 351.231 418.095 347.223 401.292C343.215 384.49 343.118 366.991 346.938 350.145C336.725 376.666 333.738 405.424 338.284 433.478C342.829 461.532 354.744 487.876 372.81 509.815C390.876 531.753 414.445 548.5 441.106 558.343C467.767 568.186 496.564 570.771 524.551 565.834C435.44 551.477 371.027 472.921 374.407 382.724C367.581 391.898 363.54 402.843 362.768 414.252C361.997 425.661 364.526 437.051 370.055 447.061ZM346.478 544.274C330.285 538.256 315.691 528.6 303.818 516.051C291.946 503.502 283.113 488.395 278 471.894C282.417 499.967 294.21 526.365 312.173 548.386C330.137 570.407 353.627 587.263 380.241 597.229C406.855 607.196 435.639 609.915 463.648 605.11C491.658 600.304 517.889 588.146 539.659 569.878C455.309 602 360.247 566.18 318.086 486.368C316.758 497.727 318.73 509.227 323.765 519.495C328.8 529.762 336.685 538.362 346.478 544.267V544.274ZM374.663 640.249C357.633 643.131 340.168 642.066 323.614 637.136C307.06 632.206 291.858 623.542 279.18 611.812C297.043 633.912 320.454 650.872 347.021 660.958C373.587 671.045 402.355 673.895 430.385 669.219C458.414 664.543 484.699 652.507 506.552 634.343C528.405 616.178 545.043 592.536 554.764 565.834C497.775 635.828 397.538 652.323 321.12 604.301C325.65 614.801 333.109 623.775 342.604 630.148C352.099 636.522 363.229 640.026 374.663 640.242V640.249ZM447.061 709.267C433.753 720.279 418.094 728.09 401.292 732.097C384.489 736.104 366.991 736.201 350.145 732.38C376.667 742.594 405.425 745.581 433.479 741.035C461.534 736.489 487.877 724.574 509.816 706.508C531.755 688.441 548.502 664.872 558.345 638.211C568.187 611.549 570.772 582.752 565.834 554.764C551.477 643.875 472.921 708.285 382.724 704.908C391.898 711.735 402.843 715.776 414.251 716.549C425.66 717.322 437.051 714.794 447.061 709.267ZM544.274 732.844C538.256 749.035 528.601 763.629 516.053 775.501C503.506 787.372 488.4 796.205 471.901 801.319C499.974 796.901 526.37 785.107 548.391 767.143C570.411 749.179 587.266 725.689 597.231 699.075C607.197 672.461 609.916 643.678 605.11 615.669C600.304 587.659 588.146 561.429 569.878 539.659C602 624.01 566.177 719.071 486.368 761.236C497.727 762.563 509.227 760.591 519.494 755.556C529.761 750.521 538.362 742.636 544.267 732.844H544.274ZM640.249 704.655C643.132 721.686 642.068 739.151 637.138 755.705C632.207 772.26 623.543 787.461 611.812 800.139C633.914 782.276 650.875 758.865 660.963 732.298C671.051 705.731 673.902 676.962 669.226 648.931C664.549 620.901 652.513 594.615 634.347 572.762C616.181 550.909 592.538 534.271 565.834 524.551C635.828 581.537 652.323 681.777 604.301 758.195C614.8 753.664 623.772 746.206 630.146 736.711C636.519 727.217 640.024 716.089 640.242 704.655H640.249ZM709.267 632.258C720.279 645.566 728.09 661.224 732.098 678.027C736.106 694.829 736.203 712.327 732.384 729.173C742.595 702.652 745.579 673.894 741.032 645.841C736.485 617.788 724.569 591.446 706.503 569.508C688.436 547.57 664.868 530.823 638.208 520.981C611.547 511.138 582.751 508.552 554.764 513.488C643.875 527.845 708.285 606.401 704.908 696.598C711.736 687.425 715.778 676.479 716.551 665.069C717.324 653.659 714.796 642.268 709.267 632.258ZM732.844 535.044C749.035 541.063 763.628 550.718 775.5 563.266C787.372 575.814 796.205 590.919 801.319 607.418C796.901 579.345 785.106 552.949 767.142 530.929C749.178 508.909 725.688 492.055 699.074 482.09C672.46 472.124 643.677 469.406 615.668 474.212C587.659 479.018 561.429 491.176 539.659 509.444C624.01 477.322 719.071 513.149 761.236 592.954C762.565 581.594 760.594 570.092 755.559 559.822C750.524 549.553 742.638 540.951 732.844 535.044ZM704.655 439.076C721.686 436.195 739.151 437.26 755.705 442.19C772.259 447.12 787.46 455.784 800.139 467.514C782.277 445.412 758.865 428.45 732.299 418.362C705.732 408.274 676.963 405.423 648.932 410.099C620.902 414.775 594.617 426.811 572.763 444.976C550.909 463.141 534.272 486.784 524.551 513.488C581.537 443.494 681.777 426.999 758.195 475.021C753.664 464.522 746.206 455.549 736.712 449.175C727.217 442.801 716.089 439.295 704.655 439.076ZM632.258 370.055C645.565 359.042 661.224 351.231 678.026 347.223C694.829 343.215 712.327 343.118 729.173 346.938C702.652 336.727 673.895 333.742 645.842 338.289C617.789 342.835 591.447 354.75 569.509 372.816C547.57 390.881 530.824 414.449 520.98 441.109C511.137 467.768 508.55 496.564 513.484 524.551C527.842 435.44 606.397 371.027 696.595 374.407C687.421 367.58 676.476 363.539 665.066 362.767C653.657 361.995 642.267 364.525 632.258 370.055ZM535.044 346.478C541.063 330.286 550.719 315.691 563.268 303.819C575.817 291.946 590.924 283.113 607.425 278C579.352 282.417 552.955 294.211 530.934 312.174C508.913 330.138 492.058 353.628 482.092 380.242C472.126 406.856 469.407 435.64 474.212 463.649C479.018 491.659 491.176 517.889 509.444 539.659C477.322 455.309 513.149 360.247 592.954 318.082C581.593 316.753 570.091 318.725 559.821 323.76C549.552 328.796 540.95 336.683 535.044 346.478Z" fill="white"/>
<mask id="mask0_692_559" style="mask-type:luminance" maskUnits="userSpaceOnUse" x="278" y="278" width="524" height="524">
<path d="M439.076 374.663C436.195 357.632 437.261 340.168 442.191 323.614C447.122 307.059 455.787 291.858 467.517 279.18C445.416 297.042 428.455 320.453 418.367 347.019C408.28 373.585 405.428 402.354 410.104 430.383C414.779 458.413 426.815 484.698 444.979 506.551C463.143 528.405 486.785 545.043 513.488 554.764C443.494 497.775 426.999 397.538 475.021 321.12C464.521 325.65 455.547 333.109 449.173 342.604C442.799 352.099 439.294 363.229 439.076 374.663ZM370.055 447.061C359.042 433.753 351.231 418.095 347.223 401.292C343.215 384.49 343.118 366.991 346.938 350.145C336.725 376.666 333.738 405.424 338.284 433.478C342.829 461.532 354.744 487.876 372.81 509.815C390.876 531.753 414.445 548.5 441.106 558.343C467.767 568.186 496.564 570.771 524.551 565.834C435.44 551.477 371.027 472.921 374.407 382.724C367.581 391.898 363.54 402.843 362.768 414.252C361.997 425.661 364.526 437.051 370.055 447.061ZM346.478 544.274C330.285 538.256 315.691 528.6 303.818 516.051C291.946 503.502 283.113 488.395 278 471.894C282.417 499.967 294.21 526.365 312.173 548.386C330.137 570.407 353.627 587.263 380.241 597.229C406.855 607.196 435.639 609.915 463.648 605.11C491.658 600.304 517.889 588.146 539.659 569.878C455.309 602 360.247 566.18 318.086 486.368C316.758 497.727 318.73 509.227 323.765 519.495C328.8 529.762 336.685 538.362 346.478 544.267V544.274ZM374.663 640.249C357.633 643.131 340.168 642.066 323.614 637.136C307.06 632.206 291.858 623.542 279.18 611.812C297.043 633.912 320.454 650.872 347.021 660.958C373.587 671.045 402.355 673.895 430.385 669.219C458.414 664.543 484.699 652.507 506.552 634.343C528.405 616.178 545.043 592.536 554.764 565.834C497.775 635.828 397.538 652.323 321.12 604.301C325.65 614.801 333.109 623.775 342.604 630.148C352.099 636.522 363.229 640.026 374.663 640.242V640.249ZM447.061 709.267C433.753 720.279 418.094 728.09 401.292 732.097C384.489 736.104 366.991 736.201 350.145 732.38C376.667 742.594 405.425 745.581 433.479 741.035C461.534 736.489 487.877 724.574 509.816 706.508C531.755 688.441 548.502 664.872 558.345 638.211C568.187 611.549 570.772 582.752 565.834 554.764C551.477 643.875 472.921 708.285 382.724 704.908C391.898 711.735 402.843 715.776 414.251 716.549C425.66 717.322 437.051 714.794 447.061 709.267ZM544.274 732.844C538.256 749.035 528.601 763.629 516.053 775.501C503.506 787.372 488.4 796.205 471.901 801.319C499.974 796.901 526.37 785.107 548.391 767.143C570.411 749.179 587.266 725.689 597.231 699.075C607.197 672.461 609.916 643.678 605.11 615.669C600.304 587.659 588.146 561.429 569.878 539.659C602 624.01 566.177 719.071 486.368 761.236C497.727 762.563 509.227 760.591 519.494 755.556C529.761 750.521 538.362 742.636 544.267 732.844H544.274ZM640.249 704.655C643.132 721.686 642.068 739.151 637.138 755.705C632.207 772.26 623.543 787.461 611.812 800.139C633.914 782.276 650.875 758.865 660.963 732.298C671.051 705.731 673.902 676.962 669.226 648.931C664.549 620.901 652.513 594.615 634.347 572.762C616.181 550.909 592.538 534.271 565.834 524.551C635.828 581.537 652.323 681.777 604.301 758.195C614.8 753.664 623.772 746.206 630.146 736.711C636.519 727.217 640.024 716.089 640.242 704.655H640.249ZM709.267 632.258C720.279 645.566 728.09 661.224 732.098 678.027C736.106 694.829 736.203 712.327 732.384 729.173C742.595 702.652 745.579 673.894 741.032 645.841C736.485 617.788 724.569 591.446 706.503 569.508C688.436 547.57 664.868 530.823 638.208 520.981C611.547 511.138 582.751 508.552 554.764 513.488C643.875 527.845 708.285 606.401 704.908 696.598C711.736 687.425 715.778 676.479 716.551 665.069C717.324 653.659 714.796 642.268 709.267 632.258ZM732.844 535.044C749.035 541.063 763.628 550.718 775.5 563.266C787.372 575.814 796.205 590.919 801.319 607.418C796.901 579.345 785.106 552.949 767.142 530.929C749.178 508.909 725.688 492.055 699.074 482.09C672.46 472.124 643.677 469.406 615.668 474.212C587.659 479.018 561.429 491.176 539.659 509.444C624.01 477.322 719.071 513.149 761.236 592.954C762.565 581.594 760.594 570.092 755.559 559.822C750.524 549.553 742.638 540.951 732.844 535.044ZM704.655 439.076C721.686 436.195 739.151 437.26 755.705 442.19C772.259 447.12 787.46 455.784 800.139 467.514C782.277 445.412 758.865 428.45 732.299 418.362C705.732 408.274 676.963 405.423 648.932 410.099C620.902 414.775 594.617 426.811 572.763 444.976C550.909 463.141 534.272 486.784 524.551 513.488C581.537 443.494 681.777 426.999 758.195 475.021C753.664 464.522 746.206 455.549 736.712 449.175C727.217 442.801 716.089 439.295 704.655 439.076ZM632.258 370.055C645.565 359.042 661.224 351.231 678.026 347.223C694.829 343.215 712.327 343.118 729.173 346.938C702.652 336.727 673.895 333.742 645.842 338.289C617.789 342.835 591.447 354.75 569.509 372.816C547.57 390.881 530.824 414.449 520.98 441.109C511.137 467.768 508.55 496.564 513.484 524.551C527.842 435.44 606.397 371.027 696.595 374.407C687.421 367.58 676.476 363.539 665.066 362.767C653.657 361.995 642.267 364.525 632.258 370.055ZM535.044 346.478C541.063 330.286 550.719 315.691 563.268 303.819C575.817 291.946 590.924 283.113 607.425 278C579.352 282.417 552.955 294.211 530.934 312.174C508.913 330.138 492.058 353.628 482.092 380.242C472.126 406.856 469.407 435.64 474.212 463.649C479.018 491.659 491.176 517.889 509.444 539.659C477.322 455.309 513.149 360.247 592.954 318.082C581.593 316.753 570.091 318.725 559.821 323.76C549.552 328.796 540.95 336.683 535.044 346.478Z" fill="white"/>
</mask>
<g mask="url(#mask0_692_559)">
<path d="M897.761 278H181.559V1001.79H897.761V278Z" fill="white"/>
</g>
</svg>
