<svg width="1080" height="1080" viewBox="0 0 1080 1080" fill="none" xmlns="http://www.w3.org/2000/svg">
<rect width="1080" height="1080" fill="#0D0D0D"/>
<path d="M540.527 311.922C495.324 311.909 451.131 325.302 413.54 350.406C375.948 375.51 346.645 411.199 329.337 452.958C312.03 494.717 307.494 540.671 316.305 585.008C325.116 629.344 346.877 670.072 378.837 702.041C410.796 734.009 451.518 755.782 495.852 764.606C540.186 773.429 586.141 768.907 627.905 751.611C669.669 734.316 705.366 705.023 730.481 667.439C755.597 629.854 769.002 585.666 769.002 540.462C768.915 479.887 744.818 421.817 701.992 378.978C659.165 336.139 601.102 312.026 540.527 311.922ZM736.699 594.409L717.474 641.032L648.095 612.261L701.192 665.358L665.489 701.061L612.392 647.964L641.098 717.409L594.409 737.026L565.768 667.189V742.453H515.287V667.189L486.515 736.568L439.891 716.951L468.598 647.572L415.501 701.126L379.536 665.423L432.633 612.326L363.515 641.032L343.898 594.344L413.277 565.637H338.536V515.221H413.604L344.225 486.449L363.842 439.826L433.221 468.532L379.536 415.435L415.501 379.47L468.598 432.567L439.891 363.45L486.515 343.832L515.287 413.146V338.405H565.768V413.473L594.474 344.159L641.163 363.777L612.392 433.156L665.489 379.47L701.192 415.174L648.095 468.271L717.474 439.564L736.764 486.188L667.254 515.221H742.519V565.703H667.254L736.699 594.409Z" fill="white"/>
<path d="M540.528 287.922C490.577 287.909 441.745 302.709 400.207 330.45C358.669 358.192 326.29 397.628 307.166 443.773C288.042 489.917 283.032 540.696 292.768 589.688C302.505 638.68 326.552 683.684 361.868 719.009C397.183 754.333 442.181 778.392 491.17 788.141C540.16 797.891 590.94 792.893 637.089 773.781C683.238 754.669 722.683 722.301 750.436 680.77C778.188 639.239 793 590.41 793 540.46C793 473.494 766.403 409.27 719.057 361.912C671.711 314.554 607.494 287.939 540.528 287.922ZM709.235 709.168C667.363 750.945 611.436 775.636 552.352 778.428C493.269 781.219 435.263 761.912 389.638 724.268C344.013 686.625 314.039 633.342 305.557 574.804C297.075 516.266 310.692 456.667 343.756 407.622C376.819 358.576 426.96 323.598 484.405 309.505C541.851 295.411 602.486 303.212 654.495 331.386C706.503 359.561 746.157 406.09 765.73 461.908C785.304 517.725 783.393 578.83 760.371 633.315C748.38 661.662 731.016 687.42 709.235 709.168Z" fill="white"/>
</svg>
