<svg width="1080" height="1080" viewBox="0 0 1080 1080" fill="none" xmlns="http://www.w3.org/2000/svg">
<rect width="1080" height="1080" fill="#0D0D0D"/>
<path d="M539.607 311.07C494.417 311.057 450.238 324.446 412.658 349.542C375.078 374.639 345.785 410.317 328.482 452.063C311.18 493.809 306.646 539.748 315.454 584.071C324.263 628.394 346.017 669.109 377.966 701.068C409.916 733.026 450.625 754.792 494.945 763.613C539.266 772.434 585.206 767.913 626.957 750.623C668.708 733.333 704.394 704.049 729.502 666.476C754.609 628.904 768.01 584.729 768.01 539.539C767.924 478.983 743.834 420.931 701.021 378.106C658.207 335.28 600.162 311.174 539.607 311.07ZM718.067 646.616L646.683 718L590.072 661.389V741.468H489.075V661.389L432.465 718L361.081 646.616L417.887 590.005H337.613V489.008H417.887L361.277 432.397L432.465 361.013L489.075 417.82V337.545H590.072V417.82L646.683 361.013L718.067 432.397L661.457 489.008H741.535V590.005H661.457L718.067 646.616Z" fill="white"/>
<path d="M539.605 287.082C489.671 287.069 440.854 301.865 399.328 329.597C357.803 357.33 325.434 396.754 306.316 442.884C287.198 489.014 282.189 539.777 291.923 588.754C301.657 637.731 325.696 682.721 361.001 718.035C396.305 753.348 441.289 777.399 490.263 787.146C539.238 796.892 590.002 791.897 636.137 772.79C682.272 753.684 721.704 721.326 749.448 679.808C777.192 638.289 792 589.476 792 539.542C792 472.597 765.41 408.392 718.079 361.049C670.748 313.705 606.55 287.099 539.605 287.082ZM708.26 708.197C666.401 749.962 610.491 774.644 551.426 777.435C492.361 780.226 434.373 760.925 388.763 723.293C343.152 685.661 313.187 632.395 304.708 573.875C296.228 515.355 309.842 455.775 342.895 406.745C375.948 357.714 426.073 322.747 483.501 308.658C540.928 294.569 601.545 302.367 653.537 330.533C705.529 358.699 745.171 405.214 764.738 461.014C784.305 516.813 782.395 577.899 759.38 632.367C747.409 660.715 730.048 686.468 708.26 708.197Z" fill="white"/>
</svg>
