<svg width="1080" height="1080" viewBox="0 0 1080 1080" fill="none" xmlns="http://www.w3.org/2000/svg">
<rect width="1080" height="1080" fill="#0D0D0D"/>
<path d="M415 793.414L415 721.074L540.314 648.726L540.314 648.717L602.967 612.56L602.967 612.543L665.61 576.386L665.619 576.386L665.619 648.717L665.61 648.726L602.967 684.891L540.314 721.065L540.314 721.074L415 793.414Z" fill="white"/>
<path d="M415 648.727L415 431.69L665.619 287.001L665.619 359.332L665.61 359.332L602.967 395.506L602.967 395.515L477.653 467.864L477.653 540.204L540.296 504.029L540.314 504.038L540.314 504.02L602.958 467.864L602.967 467.864L602.967 540.204L602.958 540.204L540.314 576.378L477.653 612.543L415 648.727Z" fill="white"/>
</svg>
