<svg width="1080" height="1080" viewBox="0 0 1080 1080" fill="none" xmlns="http://www.w3.org/2000/svg">
<rect width="1080" height="1080" fill="#0D0D0D"/>
<path d="M537.6 419.695C526.36 400.211 501.46 393.539 481.984 404.793C462.508 416.046 455.831 440.964 467.071 460.448C478.311 479.932 503.211 486.604 522.687 475.35C542.163 464.096 548.84 439.179 537.6 419.695Z" fill="#0D0D0D"/>
<path opacity="0.5" d="M485.26 403.067C476.917 408.906 471.062 417.66 468.849 427.602C466.635 437.545 468.224 447.955 473.301 456.782C478.379 465.608 486.577 472.209 496.28 475.285C505.983 478.362 516.487 477.689 525.722 473.4C521.093 476.64 515.841 478.881 510.3 479.981C504.759 481.081 499.051 481.015 493.538 479.788C488.024 478.561 482.827 476.2 478.276 472.854C473.725 469.508 469.92 465.251 467.102 460.354C464.285 455.456 462.517 450.025 461.91 444.406C461.304 438.787 461.873 433.103 463.581 427.716C465.288 422.328 468.098 417.354 471.83 413.11C475.562 408.867 480.136 405.446 485.26 403.067Z" fill="#0D0D0D"/>
<path d="M635.253 420.518C638.985 406.589 630.727 392.273 616.807 388.543C602.888 384.814 588.578 393.082 584.846 407.011C581.114 420.941 589.372 435.256 603.291 438.986C617.211 442.715 631.52 434.447 635.253 420.518Z" fill="#0D0D0D"/>
<path opacity="0.5" d="M599.105 390.044C593.791 393.796 590.069 399.397 588.666 405.751C587.263 412.104 588.281 418.752 591.52 424.392C594.76 430.032 599.988 434.258 606.18 436.242C612.372 438.226 619.081 437.825 624.995 435.117C622.028 437.191 618.662 438.626 615.111 439.329C611.561 440.032 607.903 439.988 604.371 439.2C600.839 438.413 597.51 436.899 594.594 434.754C591.679 432.609 589.241 429.881 587.437 426.743C585.632 423.605 584.5 420.125 584.112 416.524C583.724 412.924 584.088 409.282 585.183 405.83C586.277 402.378 588.077 399.191 590.468 396.472C592.859 393.753 595.789 391.561 599.072 390.036L599.105 390.044Z" fill="#0D0D0D"/>
<path d="M449.118 461.714L384 383.693V485.366V719.585H449.118V563.387L534.251 665.478L576.687 614.668L449.118 461.714Z" fill="white"/>
<path d="M576.687 614.668L696 471.604V573.276L619.071 665.478L576.687 716.34L534.251 665.478L576.687 614.668Z" fill="white"/>
<path d="M576.628 493.064L695.94 350V451.673L619.012 543.874L576.628 594.737L534.191 543.874L576.628 493.064Z" fill="white"/>
</svg>
