<svg width="1080" height="1080" viewBox="0 0 1080 1080" fill="none" xmlns="http://www.w3.org/2000/svg">
<rect width="1080" height="1080" fill="#0D0D0D"/>
<path d="M703.758 663C711.072 604.678 718.33 546.704 725.653 488.382H689.916C682.63 546.377 675.32 604.562 667.984 662.936H596.492C603.787 604.705 611.063 546.64 618.377 488.29H582.64C575.335 546.457 568.05 604.513 560.717 662.872H274C284.237 581.19 294.462 499.566 304.674 418H376.186C368.891 476.258 361.614 534.296 354.329 592.664H390.066C397.37 534.452 404.665 476.368 411.988 418.055H483.49C476.204 476.139 468.937 534.159 461.614 592.581H497.342C504.615 534.574 511.916 476.38 519.245 418H806C795.744 499.804 785.51 581.471 775.298 663H703.758Z" fill="white"/>
</svg>
