<svg width="1080" height="1080" viewBox="0 0 1080 1080" fill="none" xmlns="http://www.w3.org/2000/svg">
<rect width="1080" height="1080" fill="#0D0D0D"/>
<path d="M607.297 514.434V512.431C607.379 501.923 607.454 491.415 607.523 480.907C607.556 479.875 607.454 478.843 607.221 477.836C606.916 476.46 606.185 475.215 605.131 474.279C604.078 473.342 602.755 472.762 601.353 472.62C600.687 472.517 600.014 472.467 599.34 472.469C588.996 472.469 578.646 472.469 568.289 472.469C566.836 472.381 565.385 472.657 564.065 473.272C562.802 473.897 561.747 474.875 561.029 476.088C560.311 477.301 559.961 478.696 560.021 480.104C560.021 483.572 560.021 487.04 560.021 490.499V492.294C559.35 491.954 558.859 491.718 558.377 491.462L526.192 474.293C523.48 472.744 520.366 472.046 517.253 472.289C514.46 472.52 511.813 473.632 509.693 475.464C500.502 483.433 491.304 491.39 482.1 499.334C469.174 510.509 456.259 521.691 443.358 532.879C442.604 533.576 441.605 533.947 440.579 533.909C403.159 533.909 365.733 533.909 328.301 533.909H326.486V373.58H752.516H752.668L752.819 373.627C753.14 374.705 753.263 531.264 752.923 533.73C752.507 533.73 752.063 533.834 751.619 533.834C715.748 533.834 679.875 533.834 643.998 533.834C643.284 533.844 642.577 533.682 641.938 533.361C630.706 527.295 619.483 521.194 608.27 515.058C607.949 514.878 607.656 514.67 607.297 514.434Z" fill="white"/>
<path d="M571.312 514.708V487.021H593.131C593.046 498.965 592.961 510.899 592.876 522.929C594.407 523.798 595.881 524.648 597.374 525.471C611.51 533.257 625.656 541.034 639.812 548.801C640.294 549.01 640.697 549.367 640.962 549.821C641.228 550.275 641.341 550.802 641.286 551.324C641.248 589.267 641.248 627.204 641.286 665.134V667.024H443.905C443.905 666.438 443.839 665.89 443.839 665.342V646.537C443.839 615.474 443.839 584.416 443.839 553.365C443.807 552.812 443.91 552.258 444.138 551.753C444.367 551.248 444.715 550.806 445.152 550.464C469.229 529.594 493.3 508.701 517.365 487.786C517.79 487.417 518.225 487.058 518.726 486.643L571.312 514.708Z" fill="white"/>
<path d="M640.939 612.814H443.492V733.999H640.939V612.814Z" fill="white"/>
<path d="M752.721 360H326.486V393.43H752.721V360Z" fill="white"/>
</svg>
