<svg width="1080" height="1080" viewBox="0 0 1080 1080" fill="none" xmlns="http://www.w3.org/2000/svg">
<rect width="1080" height="1080" fill="#0D0D0D"/>
<path d="M650.85 504.826C651.429 505.394 651.817 505.739 652.167 506.116C671.978 527.986 684.472 553.446 689.648 582.493C691.518 592.814 692.263 603.307 691.869 613.789C691.157 631.777 687.625 649.203 680.661 665.832C665.628 701.728 640.624 728.246 605.647 745.385C592.597 751.782 578.804 755.935 564.455 758.295C553.892 760.016 543.175 760.598 532.489 760.031C504.317 758.592 478.426 750.064 455.095 734.177C428.019 715.741 408.796 691.125 397.426 660.33C393.32 649.245 390.752 637.793 389.29 626.063C388.484 619.599 387.882 613.142 388.02 606.63C388.295 593.572 390.154 580.728 393.446 568.101C399.154 546.188 408.712 526.044 421.424 507.357C429.852 494.968 439.453 483.55 450.04 472.957C463.913 459.064 476.362 444.029 486.982 427.507C500.363 406.692 510.455 384.424 516.474 360.378C518.188 353.531 521.352 341.61 521.621 325.686C521.662 323.326 521.633 321.362 521.597 320C521.976 320.195 522.616 320.527 523.404 320.94C523.404 320.94 532.593 325.615 539.932 330.332C552.506 338.415 564.071 347.733 574.13 358.838C583.039 368.672 590.39 379.523 595.425 391.859C600.459 404.195 602.729 417.007 601.957 430.302C601.425 439.457 599.055 448.197 595.462 456.613C594.172 459.623 592.668 462.539 591.248 465.491C591.03 465.881 590.791 466.257 590.53 466.62C590.076 466.458 589.671 466.336 589.295 466.159C580.979 462.254 567.252 458.009 553.438 456.089C539.574 454.155 528.579 455.757 521.991 456.763C504.071 459.501 491.609 465.483 486.707 468.119C480.805 471.291 475.392 475.138 470.623 479.866C463.773 486.656 460.088 494.929 459.118 504.46C458.231 513.165 459.677 521.6 462.205 529.891C464.732 538.182 468.358 546.042 472.543 553.635C472.687 553.924 472.849 554.204 473.027 554.474C473.534 555.183 473.568 555.833 472.914 556.484C472.626 556.803 472.36 557.142 472.119 557.498C440.425 599.109 453.29 659.234 499.246 684.216C509.423 689.749 520.308 693.01 531.849 694.121C578.528 698.614 620.18 664.581 624.805 617.759C627.026 595.264 621.097 574.973 607.377 556.993C606.585 555.954 606.429 555.22 607.117 554.022C610.423 548.298 613.247 542.308 615.56 536.115C616.016 534.896 616.646 534.532 617.866 534.392C630.715 532.914 640.378 526.526 646.865 515.35C648.491 512.546 649.605 509.521 650.411 506.383C650.514 505.974 650.639 505.569 650.85 504.826Z" fill="white"/>
<path d="M496.119 535.811C495.967 535.629 495.828 535.436 495.703 535.234C492.508 528.873 489.808 522.337 488.507 515.289C487.977 512.423 487.738 509.54 488.184 506.632C488.596 503.935 489.772 501.678 491.82 499.816C497.177 494.98 504.275 491.886 504.275 491.886C507.599 490.469 512.208 488.533 519.177 487.008C528.018 485.074 534.954 485.048 539.629 485.058C539.629 485.058 553.84 485.077 571.912 490.358C573.645 490.864 574.478 491.393 576.072 492.102C577.298 492.647 577.327 492.678 577.201 494.037C576.859 497.681 577.07 501.355 577.826 504.936C579.319 512.009 582.577 518.155 587.66 523.28C588.592 524.222 588.859 524.984 588.284 526.206C586.978 528.974 585.795 531.8 584.544 534.589C584.329 535.01 584.091 535.419 583.831 535.814C554.577 519.858 525.419 519.85 496.119 535.811Z" fill="white"/>
<path d="M569.007 609.284C569 613.096 568.242 616.869 566.776 620.387C565.31 623.906 563.165 627.101 560.464 629.791C557.763 632.481 554.559 634.612 551.034 636.062C547.509 637.513 543.733 638.256 539.921 638.247C523.881 638.224 510.904 625.219 510.925 609.192C510.949 593.123 524.067 580.124 540.173 580.211C556.089 580.297 569.066 593.381 569.007 609.284Z" fill="white"/>
</svg>
