<svg width="1080" height="1080" viewBox="0 0 1080 1080" fill="none" xmlns="http://www.w3.org/2000/svg">
<rect width="1080" height="1080" fill="#0D0D0D"/>
<path d="M342.91 719.643L453.113 394.474C451.537 404.289 449.658 415.455 447.441 427.743C446.043 435.473 445.646 437.319 441.202 461.007C439.122 472.094 437.043 483.18 434.965 494.266L428.723 527.533L422.483 560.79C420.402 571.879 418.321 582.968 416.241 594.057C414.167 605.121 412.1 616.195 410.226 627.401C418.824 622.232 427.134 616.779 435.494 611.41C443.854 606.041 452.157 600.664 460.487 595.286C468.875 589.873 477.262 584.459 485.647 579.043C494.032 573.627 502.424 568.218 510.824 562.817C519.214 557.407 527.6 551.992 535.984 546.572C544.312 541.187 552.632 535.795 560.944 530.398C569.329 524.982 577.722 519.576 586.124 514.181C594.526 508.786 602.914 503.375 611.289 497.946C619.619 492.57 627.95 487.194 636.28 481.818C644.664 476.411 653.052 471.011 661.533 465.546C662.053 466.38 661.673 467.102 661.547 467.779C659.073 481.02 656.589 494.258 654.093 507.495C643.714 562.733 633.333 617.972 622.95 673.212C622.737 674.494 622.411 675.755 621.976 676.98C624.652 630.437 627.627 583.916 630.563 536.885C598.355 557.601 566.628 578.112 534.801 598.441C502.94 618.8 470.968 638.985 439.045 659.249L343.331 720.018L342.91 719.643Z" fill="white"/>
<path d="M670.908 452.522C670.777 452.468 670.643 452.421 670.507 452.381C670.441 452.372 670.374 452.376 670.31 452.394C670.18 452.429 670.056 452.489 669.926 452.545C669.862 452.576 669.801 452.611 669.742 452.652C669.627 452.728 669.513 452.805 669.399 452.876L668.877 453.203L420.196 613.68C420.08 613.756 419.962 613.821 419.842 613.888C419.781 613.921 419.717 613.949 419.652 613.973C419.586 613.99 419.521 614.008 419.355 614.052C418.845 613.428 419.246 612.758 419.358 612.139C421.956 598.227 424.566 584.316 427.189 570.407C437.418 516.049 447.64 461.687 457.854 407.323C458.133 405.801 458.457 404.283 458.757 402.764L450.385 542.798C456.783 538.929 462.674 535.033 468.636 531.257C474.597 527.48 480.511 523.684 486.449 519.899L504.434 508.429C510.43 504.608 516.426 500.786 522.423 496.963C528.361 493.175 534.298 489.389 540.234 485.605C546.231 481.784 552.228 477.963 558.226 474.144C564.224 470.325 570.219 466.501 576.21 462.671L594.192 451.196C600.13 447.408 606.069 443.622 612.007 439.837C618.001 436.014 623.995 432.187 629.988 428.358C635.982 424.529 641.977 420.706 647.974 416.89L665.789 405.532C671.786 401.707 677.78 397.883 683.774 394.058C689.767 390.233 695.763 386.412 701.762 382.594C707.699 378.807 713.636 375.021 719.574 371.236C725.552 367.425 731.531 363.621 737.419 359.87C737.68 360.053 737.754 360.075 737.786 360.122C737.822 360.182 737.844 360.248 737.851 360.317C737.866 360.515 712.802 434.478 627.394 685.828C641.899 608.051 656.404 530.283 670.908 452.522Z" fill="white"/>
</svg>
