<svg width="1080" height="1080" viewBox="0 0 1080 1080" fill="none" xmlns="http://www.w3.org/2000/svg">
<rect width="1080" height="1080" fill="#0D0D0D"/>
<path d="M473.819 442.397L505.501 473.978L343.9 635.125L313.192 604.299L377.983 540.146L312 474.398L344.286 441.943L409.178 507.171L473.819 442.397Z" fill="white"/>
<path d="M442.624 343.119L472.61 313.015L538.392 379.435L605.366 312.008C616.43 323.156 626.639 333.465 636.931 343.908L570.83 409.505L635.302 473.709L604.275 504.719L442.624 343.119Z" fill="white"/>
<path d="M735.419 441.943L766.194 473.021L701.05 537.98L767 603.779C755.247 615.313 744.787 625.605 733.84 636.418L669.032 570.569L604.93 634.924C593.971 623.977 583.545 613.556 573.65 603.661L735.419 441.943Z" fill="white"/>
<path d="M474.121 767.257L442.221 735.104L507.348 670.38L442.506 606.059L474.591 573.924L636.04 735.289L605.55 765.51L540.86 700.232L474.121 767.257Z" fill="white"/>
</svg>
