<svg width="1080" height="1080" viewBox="0 0 1080 1080" fill="none" xmlns="http://www.w3.org/2000/svg">
<rect width="1080" height="1080" fill="#0D0D0D"/>
<path d="M582.751 600.804L581.862 602.774L659.629 648.678L540.5 750L421.371 648.658L499.138 602.755L498.249 600.785L402.784 628.996L336 529.565L363.397 419.102L463.405 381L540.441 441.797L617.595 381L717.603 419.102L745 529.565L678.216 628.996L582.751 600.804ZM651.886 507.106C651.886 510.13 652.785 513.086 654.469 515.6C656.153 518.114 658.547 520.073 661.348 521.23C664.149 522.388 667.231 522.69 670.204 522.1C673.177 521.511 675.909 520.054 678.052 517.916C680.196 515.778 681.656 513.054 682.247 510.089C682.839 507.123 682.535 504.049 681.375 501.256C680.215 498.462 678.25 496.075 675.73 494.395C673.209 492.715 670.245 491.818 667.214 491.818C663.154 491.818 659.26 493.427 656.389 496.29C653.518 499.154 651.905 503.037 651.905 507.086L651.886 507.106ZM616.074 471.369C616.074 474.392 616.973 477.348 618.657 479.862C620.341 482.376 622.735 484.336 625.536 485.493C628.337 486.65 631.419 486.953 634.392 486.363C637.366 485.773 640.097 484.317 642.241 482.179C644.384 480.041 645.844 477.317 646.436 474.351C647.027 471.386 646.724 468.312 645.563 465.518C644.403 462.725 642.439 460.337 639.918 458.657C637.397 456.977 634.434 456.081 631.402 456.081C627.337 456.081 623.438 457.691 620.563 460.558C617.689 463.425 616.074 467.314 616.074 471.369ZM616.074 542.824C616.07 545.849 616.966 548.806 618.648 551.323C620.329 553.84 622.722 555.802 625.523 556.962C628.323 558.123 631.406 558.428 634.38 557.84C637.355 557.253 640.088 555.798 642.234 553.661C644.379 551.524 645.841 548.8 646.434 545.834C647.027 542.867 646.725 539.793 645.565 536.998C644.406 534.203 642.441 531.814 639.92 530.134C637.399 528.453 634.435 527.556 631.402 527.556C627.34 527.556 623.444 529.164 620.57 532.027C617.696 534.889 616.079 538.773 616.074 542.824ZM580.262 507.086C580.266 510.105 581.167 513.055 582.852 515.564C584.536 518.072 586.928 520.026 589.726 521.178C592.524 522.331 595.601 522.631 598.569 522.039C601.537 521.448 604.263 519.992 606.402 517.856C608.541 515.72 609.997 512.999 610.586 510.038C611.175 507.077 610.871 504.008 609.712 501.219C608.553 498.431 606.59 496.047 604.073 494.37C601.556 492.693 598.597 491.799 595.571 491.799C593.559 491.799 591.566 492.194 589.708 492.963C587.849 493.731 586.161 494.858 584.739 496.277C583.317 497.697 582.19 499.383 581.422 501.238C580.654 503.092 580.26 505.08 580.262 507.086ZM398.537 514.218C398.537 515.155 398.722 516.082 399.081 516.947C399.441 517.813 399.967 518.599 400.631 519.261C401.295 519.923 402.084 520.449 402.951 520.807C403.819 521.166 404.749 521.35 405.688 521.35H430.359V546.055C430.359 547.947 431.112 549.761 432.453 551.098C433.794 552.435 435.613 553.187 437.509 553.187H451.81C453.707 553.187 455.525 552.435 456.866 551.098C458.207 549.761 458.961 547.947 458.961 546.055V521.37H483.731C485.627 521.37 487.446 520.618 488.787 519.281C490.128 517.943 490.881 516.129 490.881 514.238V499.974C490.881 498.081 490.128 496.265 488.788 494.925C487.448 493.584 485.629 492.828 483.731 492.823H458.961V468.138C458.961 466.246 458.207 464.432 456.866 463.095C455.525 461.757 453.707 461.006 451.81 461.006H437.509C435.613 461.006 433.794 461.757 432.453 463.095C431.112 464.432 430.359 466.246 430.359 468.138V492.823H405.609C403.71 492.828 401.892 493.584 400.551 494.925C399.211 496.265 398.458 498.081 398.458 499.974L398.537 514.218Z" fill="white"/>
</svg>
