<svg width="1920" height="1080" viewBox="0 0 1920 1080" fill="none" xmlns="http://www.w3.org/2000/svg">
<rect width="1920" height="1080" fill="#0D0D0D"/>
<path d="M906.146 725H901.824V720.972H901.727C900.848 722.502 899.757 723.657 898.455 724.438C897.153 725.22 895.639 725.61 893.914 725.61C891.505 725.61 889.56 724.91 888.079 723.511C886.598 722.111 885.857 720.264 885.857 717.969C885.857 715.739 886.606 713.908 888.104 712.476C889.601 711.043 891.757 710.124 894.573 709.717L901.849 708.74V708.154C901.849 706.087 901.352 704.598 900.359 703.687C899.383 702.775 898.064 702.319 896.404 702.319C895.086 702.319 893.8 702.572 892.547 703.076C891.294 703.581 890.105 704.338 888.982 705.347L886.614 702.71C888.063 701.375 889.609 700.391 891.253 699.756C892.913 699.105 894.728 698.779 896.697 698.779C899.822 698.779 902.174 699.585 903.753 701.196C905.348 702.808 906.146 705.225 906.146 708.447V725ZM901.849 714.551V712.085L895.745 712.915C893.873 713.175 892.474 713.647 891.546 714.331C890.618 715.015 890.154 716.089 890.154 717.554C890.154 719.002 890.586 720.125 891.448 720.923C892.327 721.72 893.418 722.119 894.72 722.119C896.868 722.119 898.593 721.411 899.896 719.995C901.198 718.563 901.849 716.748 901.849 714.551ZM943.711 725H937.754L926.67 712.646H926.572V725H922.227V687.988H926.572V711.133H926.67L937.192 699.39H942.808L931.162 711.719L943.711 725ZM958.425 693.97C957.562 693.97 956.846 693.685 956.276 693.115C955.707 692.546 955.422 691.854 955.422 691.04C955.422 690.194 955.707 689.494 956.276 688.94C956.846 688.371 957.562 688.086 958.425 688.086C959.287 688.086 960.004 688.371 960.573 688.94C961.159 689.494 961.452 690.194 961.452 691.04C961.452 691.854 961.159 692.546 960.573 693.115C960.004 693.685 959.287 693.97 958.425 693.97ZM960.549 725H956.203V699.39H960.549V725ZM998.773 725H992.816L981.732 712.646H981.635V725H977.289V687.988H981.635V711.133H981.732L992.255 699.39H997.87L986.225 711.719L998.773 725ZM1022.13 725.61C1018.31 725.61 1015.25 724.414 1012.97 722.021C1010.71 719.613 1009.58 716.423 1009.58 712.451C1009.58 708.171 1010.75 704.826 1013.1 702.417C1015.44 700.008 1018.64 698.796 1022.69 698.779C1026.53 698.763 1029.54 699.943 1031.7 702.319C1033.88 704.679 1034.97 707.926 1034.97 712.061C1034.97 716.178 1033.81 719.466 1031.48 721.924C1029.15 724.382 1026.04 725.61 1022.13 725.61ZM1022.42 721.997C1025.03 721.997 1027.02 721.151 1028.4 719.458C1029.8 717.749 1030.5 715.332 1030.5 712.207C1030.5 709.049 1029.8 706.624 1028.4 704.932C1027 703.239 1025.01 702.393 1022.42 702.393C1019.83 702.393 1017.78 703.28 1016.27 705.054C1014.77 706.812 1014.02 709.237 1014.02 712.329C1014.02 715.34 1014.78 717.708 1016.29 719.434C1017.81 721.143 1019.85 721.997 1022.42 721.997Z" fill="white"/>
<path d="M1055 456.771V492.353C1045.71 498.009 1035.93 502.817 1025.77 506.719V598.387C1016.14 600.81 1006.38 602.685 996.539 604V515.322C984.514 517.758 972.273 518.979 960.003 518.968C947.731 518.979 935.49 517.758 923.464 515.322V603.987C913.622 602.671 903.863 600.797 894.234 598.374V506.719C884.076 502.818 874.292 498.01 865 492.353V456.771C874.014 463.942 883.822 470.058 894.232 474.999C903.588 479.453 913.384 482.924 923.461 485.354C935.413 488.32 947.684 489.813 960 489.8C972.315 489.813 984.585 488.32 996.536 485.354V455.093C984.714 458.795 972.391 460.66 960 460.625C947.608 460.66 935.285 458.794 923.461 455.093C913.163 451.97 903.332 447.482 894.232 441.749V405C902.693 413.153 912.606 419.657 923.461 424.176C935.039 428.989 947.457 431.467 960 431.468C972.542 431.467 984.959 428.989 996.536 424.176C1007.39 419.658 1017.31 413.154 1025.77 405V474.999C1036.18 470.057 1045.99 463.941 1055 456.771Z" fill="white"/>
</svg>
