<svg width="1080" height="1080" viewBox="0 0 1080 1080" fill="none" xmlns="http://www.w3.org/2000/svg">
<rect width="1080" height="1080" fill="#0D0D0D"/>
<path d="M635 492.771V528.353C625.71 534.009 615.927 538.817 605.771 542.719V634.387C596.142 636.81 586.382 638.685 576.539 640V551.322C564.514 553.758 552.273 554.979 540.003 554.968C527.731 554.979 515.49 553.758 503.464 551.322V639.987C493.622 638.671 483.863 636.797 474.234 634.374V542.719C464.076 538.818 454.292 534.01 445 528.353V492.771C454.014 499.942 463.822 506.058 474.232 510.999C483.588 515.453 493.384 518.924 503.461 521.354C515.413 524.32 527.684 525.813 540 525.8C552.315 525.813 564.585 524.32 576.536 521.354V491.093C564.714 494.795 552.391 496.66 540 496.625C527.608 496.66 515.285 494.794 503.461 491.093C493.163 487.97 483.332 483.482 474.232 477.749V441C482.693 449.153 492.606 455.657 503.461 460.176C515.039 464.989 527.457 467.467 540 467.468C552.542 467.467 564.959 464.989 576.536 460.176C587.394 455.658 597.309 449.154 605.771 441V510.999C616.18 506.057 625.987 499.941 635 492.771Z" fill="white"/>
</svg>
