<svg width="1089" height="1080" viewBox="0 0 1089 1080" fill="none" xmlns="http://www.w3.org/2000/svg">
<g clip-path="url(#clip0_927_881)">
<rect width="1089" height="1080" fill="#0D0D0D"/>
<rect width="1089" height="1080" rx="10" fill="#0D0D0D"/>
<path d="M582.81 521.54V520.379C582.858 514.287 582.902 508.194 582.942 502.102C582.961 501.503 582.902 500.905 582.767 500.321C582.59 499.524 582.166 498.802 581.555 498.259C580.944 497.716 580.178 497.379 579.364 497.297C578.978 497.238 578.588 497.208 578.197 497.21C572.2 497.21 566.199 497.21 560.194 497.21C559.352 497.159 558.51 497.319 557.745 497.675C557.013 498.037 556.401 498.605 555.985 499.308C555.569 500.011 555.366 500.82 555.401 501.636C555.401 503.647 555.401 505.658 555.401 507.663V508.704C555.012 508.507 554.727 508.37 554.447 508.222L535.787 498.267C534.215 497.369 532.409 496.964 530.604 497.105C528.985 497.239 527.45 497.884 526.221 498.946C520.892 503.567 515.559 508.18 510.223 512.786C502.728 519.265 495.241 525.748 487.761 532.235C487.324 532.639 486.745 532.854 486.15 532.832C464.454 532.832 442.755 532.832 421.052 532.832H420V439.875H667.007H667.095L667.182 439.902C667.369 440.527 667.44 531.298 667.243 532.728C667.002 532.728 666.744 532.788 666.487 532.788C645.689 532.788 624.891 532.788 604.09 532.788C603.675 532.794 603.266 532.7 602.895 532.514C596.383 528.997 589.876 525.46 583.375 521.902C583.188 521.798 583.019 521.677 582.81 521.54Z" fill="white"/>
<path d="M561.95 521.698V505.645H574.6C574.551 512.57 574.502 519.49 574.452 526.464C575.34 526.968 576.195 527.461 577.06 527.938C585.256 532.452 593.458 536.961 601.665 541.465C601.945 541.586 602.179 541.793 602.332 542.056C602.486 542.319 602.552 542.624 602.52 542.927C602.498 564.926 602.498 586.921 602.52 608.913V610.009H488.081C488.081 609.669 488.042 609.351 488.042 609.033V598.131C488.042 580.121 488.042 562.114 488.042 544.111C488.024 543.79 488.083 543.469 488.216 543.176C488.349 542.883 488.55 542.627 488.804 542.429C502.764 530.328 516.72 518.215 530.672 506.089C530.919 505.875 531.171 505.667 531.461 505.426L561.95 521.698Z" fill="white"/>
<path d="M602.313 578.578H487.836V648.839H602.313V578.578Z" fill="white"/>
<path d="M667.126 432H420V451.382H667.126V432Z" fill="white"/>
</g>
<defs>
<clipPath id="clip0_927_881">
<rect width="1089" height="1080" fill="white"/>
</clipPath>
</defs>
</svg>
