<svg width="1920" height="1080" viewBox="0 0 1920 1080" fill="none" xmlns="http://www.w3.org/2000/svg">
<rect width="1920" height="1080" fill="#0D0D0D"/>
<path fill-rule="evenodd" clip-rule="evenodd" d="M893.229 650.96L880.535 628.075C805.633 588.969 938.451 483.63 974.27 460.785L948.59 506.689L1053.16 429L958.193 554.4L1006.63 525.158C1006.63 525.158 971.85 589.986 962.032 603.838C952.214 617.689 944.724 622.106 944.724 622.106L949.339 646.195L932.499 647.641L922.976 633.026L918.361 633.883L919.592 648.738L913.038 649.3L905.869 636.105L900.518 637.349L901.508 650.291L893.255 651L893.229 650.96ZM863.883 534.727L918.294 478.237C918.294 478.237 877.539 499.931 870.424 511.507C866.156 518.501 863.894 526.533 863.883 534.727ZM976.531 620.513C976.531 620.513 981.721 615.709 997.678 589.732C1013.63 563.755 1016.14 551.456 1016.14 551.456C1016.14 551.456 1013.26 593.774 1005.57 606.849C997.878 619.924 976.531 620.5 976.531 620.5V620.513ZM1017.31 505.512L1039.57 493.467L1062 460.865L1017.31 505.565V505.512ZM874.383 586.721C879.439 585.449 885.083 590.736 887.103 598.592C889.122 606.447 886.554 613.795 881.485 615.066C876.416 616.338 870.785 611.051 868.765 603.195C866.745 595.339 869.313 587.992 874.383 586.721ZM907.487 622.4L896.332 625.077L895.569 612.082L900.278 611.225L907.487 622.4ZM915.098 575.854C921.21 574.314 928.112 580.752 930.479 590.214C932.847 599.676 929.811 608.615 923.685 610.155C917.559 611.694 910.684 605.256 908.303 595.794C905.922 586.333 908.972 577.393 915.098 575.854Z" fill="white"/>
</svg>
