<svg width="1080" height="1080" viewBox="0 0 1080 1080" fill="none" xmlns="http://www.w3.org/2000/svg">
<rect width="1080" height="1080" fill="#FF3A3A"/>
<path fill-rule="evenodd" clip-rule="evenodd" d="M473.229 650.96L460.535 628.075C385.633 588.969 518.451 483.63 554.27 460.785L528.59 506.689L633.159 429L538.193 554.4L586.626 525.158C586.626 525.158 551.85 589.986 542.032 603.838C532.214 617.689 524.724 622.106 524.724 622.106L529.339 646.195L512.499 647.641L502.976 633.026L498.361 633.883L499.592 648.738L493.038 649.3L485.869 636.105L480.518 637.349L481.508 650.291L473.255 651L473.229 650.96ZM443.883 534.727L498.294 478.237C498.294 478.237 457.539 499.931 450.424 511.507C446.156 518.501 443.894 526.533 443.883 534.727ZM556.531 620.513C556.531 620.513 561.721 615.709 577.678 589.732C593.634 563.755 596.136 551.456 596.136 551.456C596.136 551.456 593.26 593.774 585.569 606.849C577.878 619.924 556.531 620.5 556.531 620.5V620.513ZM597.313 505.512L619.569 493.467L642 460.865L597.313 505.565V505.512ZM454.383 586.721C459.439 585.449 465.083 590.736 467.103 598.592C469.122 606.447 466.554 613.795 461.485 615.066C456.416 616.338 450.785 611.051 448.765 603.195C446.745 595.339 449.313 587.992 454.383 586.721ZM487.487 622.4L476.332 625.077L475.569 612.082L480.278 611.225L487.487 622.4ZM495.098 575.854C501.21 574.314 508.112 580.752 510.479 590.214C512.847 599.676 509.811 608.615 503.685 610.155C497.559 611.694 490.684 605.256 488.303 595.794C485.922 586.333 488.972 577.393 495.098 575.854Z" fill="white"/>
</svg>
