<svg width="1920" height="1080" viewBox="0 0 1920 1080" fill="none" xmlns="http://www.w3.org/2000/svg">
<g clip-path="url(#clip0_927_687)">
<rect width="1920" height="1080" fill="#0D0D0D"/>
<rect width="1920" height="1080" rx="10" fill="#0D0D0D"/>
<path d="M658.575 619.07H672.555L688.632 527.967H723.582L701.447 654.02H617.567L652.051 458.3H687.001L683.273 479.27H732.203L725.912 514.22H676.982L658.575 619.07ZM799.289 654.02H715.409L746.165 479.27H830.045L807.91 605.09H758.98L756.417 619.07H805.347L799.289 654.02ZM788.804 514.22H774.824L765.038 570.14H779.018L788.804 514.22ZM912.975 563.15L897.131 654.02H862.181L871.967 598.1H857.987L848.201 654.02H813.251L847.735 458.3H882.685L872.666 514.22H886.879L893.17 479.27H927.887L915.538 549.17H866.608L864.045 563.15H912.975ZM952.101 619.07H966.081L982.158 527.967H1017.11L994.973 654.02H911.093L945.577 458.3H980.527L976.799 479.27H1025.73L1019.44 514.22H970.508L952.101 619.07ZM1107.49 570.14H1058.56L1056 584.12H1104.93L1092.81 654.02H1058.1L1064.16 619.07H1049.94L1043.88 654.02H1008.93L1039.69 479.27H1123.57L1107.49 570.14ZM1078.83 535.19L1082.33 514.22H1068.35L1064.85 535.19H1078.83ZM1132.64 507.23H1167.59L1141.73 654.02H1106.78L1132.64 507.23ZM1141.26 458.3H1176.21L1169.92 493.25H1134.97L1141.26 458.3ZM1190.65 654.02L1186.92 674.99H1151.97L1186.45 479.27H1270.33L1239.58 654.02H1190.65ZM1215.11 514.22L1196.71 619.07H1210.69L1229.09 514.22H1215.11Z" fill="white"/>
</g>
<defs>
<clipPath id="clip0_927_687">
<rect width="1920" height="1080" fill="white"/>
</clipPath>
</defs>
</svg>
