<svg width="320" height="320" viewBox="0 0 320 320" fill="none" xmlns="http://www.w3.org/2000/svg">
<rect width="320" height="320" fill="black"/>
<path d="M217.015 217.746L217.532 217.229C217.704 217.055 217.909 216.918 218.135 216.823C218.362 216.73 218.605 216.68 218.85 216.68C219.095 216.68 219.337 216.73 219.564 216.823C219.79 216.918 219.995 217.055 220.168 217.229L256.877 253.938L233.672 193.206L233.219 192.014C227.191 191.236 221.498 188.795 216.781 184.964C212.062 181.132 208.504 176.062 206.507 170.322C205.526 167.931 204.974 165.386 204.874 162.804C204.872 162.787 204.872 162.769 204.874 162.752C204.842 162.431 204.815 162.113 204.795 161.795C204.716 160.584 204.702 159.37 204.755 158.157C205.103 150.391 208.209 143.004 213.513 137.321C218.818 131.638 225.975 128.033 233.699 127.152L233.794 126.901L257 66.1732L220.196 102.977C219.872 103.301 219.433 103.483 218.975 103.483C218.517 103.483 218.078 103.301 217.754 102.977L217.237 102.461C217.063 102.288 216.925 102.083 216.831 101.856C216.737 101.63 216.688 101.387 216.688 101.142C216.688 100.897 216.737 100.655 216.831 100.428C216.925 100.202 217.063 99.9965 217.237 99.8238L253.946 63.1152L193.206 86.3207L192.809 86.4676C191.89 94.1562 188.272 101.269 182.599 106.539C176.926 111.809 169.566 114.894 161.831 115.245C160.618 115.298 159.404 115.284 158.193 115.205C157.875 115.186 157.557 115.158 157.236 115.126H157.185C154.603 115.024 152.06 114.468 149.67 113.486C143.897 111.481 138.801 107.9 134.958 103.148C131.116 98.3963 128.682 92.6633 127.93 86.5986L126.898 86.2015L66.1732 63L102.977 99.8039C103.301 100.128 103.483 100.567 103.483 101.025C103.483 101.483 103.301 101.922 102.977 102.246L102.461 102.763C102.288 102.937 102.083 103.074 101.856 103.169C101.63 103.263 101.387 103.312 101.142 103.312C100.897 103.312 100.655 103.263 100.428 103.169C100.202 103.074 99.9965 102.937 99.8238 102.763L63.1152 66.0541L86.3207 126.786L86.7734 127.958C92.802 128.738 98.494 131.183 103.21 135.018C107.927 138.853 111.481 143.927 113.474 149.67V149.694C114.456 152.077 115.012 154.613 115.118 157.188C115.12 157.206 115.12 157.223 115.118 157.24C115.15 157.561 115.178 157.879 115.197 158.197C115.276 159.407 115.29 160.622 115.237 161.835C114.888 169.601 111.783 176.989 106.478 182.671C101.173 188.354 94.0167 191.959 86.2929 192.84L86.1976 193.091L63 253.819L99.8039 217.015C100.128 216.691 100.567 216.509 101.025 216.509C101.483 216.509 101.922 216.691 102.246 217.015L102.763 217.532C102.937 217.704 103.074 217.909 103.169 218.135C103.263 218.362 103.312 218.605 103.312 218.85C103.312 219.095 103.263 219.337 103.169 219.564C103.074 219.79 102.937 219.995 102.763 220.168L66.0541 256.877L126.786 233.672L127.958 233.219C128.737 227.189 131.182 221.495 135.017 216.777C138.852 212.057 143.926 208.502 149.67 206.507C152.061 205.526 154.606 204.974 157.188 204.874H157.24C157.561 204.842 157.879 204.815 158.197 204.795C159.407 204.716 160.622 204.702 161.835 204.755C169.601 205.103 176.989 208.209 182.671 213.513C188.354 218.818 191.959 225.975 192.84 233.699L193.091 233.794L253.819 257L217.015 220.196C216.853 220.036 216.726 219.845 216.637 219.635C216.55 219.424 216.506 219.198 216.506 218.971C216.506 218.743 216.55 218.518 216.637 218.308C216.726 218.097 216.853 217.906 217.015 217.746ZM150.981 169.011C149.198 167.229 147.984 164.957 147.492 162.484C147 160.011 147.253 157.448 148.219 155.118C149.183 152.789 150.817 150.798 152.913 149.397C155.01 147.996 157.475 147.249 159.996 147.249C162.517 147.249 164.983 147.996 167.079 149.397C169.175 150.798 170.809 152.789 171.774 155.118C172.739 157.448 172.992 160.011 172.5 162.484C172.008 164.957 170.794 167.229 169.011 169.011C167.827 170.196 166.422 171.135 164.875 171.776C163.328 172.416 161.67 172.746 159.996 172.746C158.322 172.746 156.664 172.416 155.117 171.776C153.571 171.135 152.165 170.196 150.981 169.011Z" fill="white"/>
</svg>
