<svg width="489" height="489" viewBox="0 0 489 489" fill="none" xmlns="http://www.w3.org/2000/svg">
<path d="M387.8 389.64L389.1 388.34C389.535 387.902 390.052 387.555 390.622 387.318C391.192 387.081 391.803 386.958 392.42 386.958C393.037 386.958 393.648 387.081 394.218 387.318C394.788 387.555 395.305 387.902 395.74 388.34L488.17 480.77L429.74 327.85L428.6 324.85C413.422 322.892 399.089 316.744 387.209 307.097C375.329 297.449 366.371 284.683 361.34 270.23C358.872 264.209 357.481 257.802 357.23 251.3C357.225 251.257 357.225 251.213 357.23 251.17C357.15 250.36 357.08 249.56 357.03 248.76C356.832 245.711 356.798 242.653 356.93 239.6C357.808 220.045 365.627 201.444 378.984 187.136C392.342 172.827 410.362 163.749 429.81 161.53L430.05 160.9L488.48 7.99001L395.81 100.66C394.994 101.475 393.888 101.933 392.735 101.933C391.582 101.933 390.476 101.475 389.66 100.66L388.36 99.36C387.922 98.925 387.575 98.4078 387.338 97.838C387.101 97.2682 386.978 96.6571 386.978 96.04C386.978 95.4228 387.101 94.8118 387.338 94.242C387.575 93.6722 387.922 93.155 388.36 92.72L480.79 0.289993L327.85 58.72L326.85 59.09C324.537 78.4492 315.427 96.3588 301.142 109.629C286.858 122.898 268.327 130.667 248.85 131.55C245.797 131.682 242.739 131.648 239.69 131.45C238.89 131.4 238.09 131.33 237.28 131.25H237.15C230.65 130.992 224.246 129.594 218.23 127.12C203.694 122.073 190.862 113.056 181.187 101.091C171.513 89.1257 165.382 74.6904 163.49 59.42L160.89 58.42L7.99001 0L100.66 92.67C101.475 93.4857 101.933 94.5918 101.933 95.745C101.933 96.8983 101.475 98.0043 100.66 98.82L99.36 100.12C98.925 100.558 98.4078 100.905 97.838 101.142C97.2682 101.379 96.6571 101.502 96.04 101.502C95.4228 101.502 94.8118 101.379 94.242 101.142C93.6722 100.905 93.155 100.558 92.72 100.12L0.289993 7.68999L58.72 160.61L59.86 163.56C75.0397 165.524 89.3716 171.68 101.247 181.337C113.123 190.994 122.072 203.77 127.09 218.23V218.29C129.562 224.29 130.963 230.676 131.23 237.16C131.235 237.203 131.235 237.247 131.23 237.29C131.31 238.1 131.38 238.9 131.43 239.7C131.628 242.749 131.662 245.807 131.53 248.86C130.652 268.415 122.833 287.016 109.476 301.324C96.1184 315.633 78.0981 324.711 58.65 326.93L58.41 327.56L0 480.47L92.67 387.8C93.4857 386.985 94.5918 386.527 95.745 386.527C96.8983 386.527 98.0043 386.985 98.82 387.8L100.12 389.1C100.558 389.535 100.905 390.052 101.142 390.622C101.379 391.192 101.502 391.803 101.502 392.42C101.502 393.037 101.379 393.648 101.142 394.218C100.905 394.788 100.558 395.305 100.12 395.74L7.68999 488.17L160.61 429.74L163.56 428.6C165.522 413.416 171.677 399.079 181.334 387.199C190.991 375.318 203.767 366.364 218.23 361.34C224.251 358.872 230.658 357.481 237.16 357.23H237.29C238.1 357.15 238.9 357.08 239.7 357.03C242.749 356.832 245.807 356.798 248.86 356.93C268.415 357.808 287.016 365.627 301.324 378.984C315.633 392.342 324.711 410.362 326.93 429.81L327.56 430.05L480.47 488.48L387.8 395.81C387.393 395.406 387.071 394.925 386.85 394.396C386.63 393.866 386.517 393.298 386.517 392.725C386.517 392.152 386.63 391.584 386.85 391.054C387.071 390.525 387.393 390.044 387.8 389.64ZM221.53 266.93C217.041 262.441 213.985 256.721 212.746 250.494C211.508 244.268 212.144 237.814 214.574 231.948C217.004 226.083 221.118 221.07 226.397 217.543C231.675 214.016 237.881 212.134 244.23 212.134C250.579 212.134 256.785 214.016 262.063 217.543C267.342 221.07 271.456 226.083 273.886 231.948C276.316 237.814 276.952 244.268 275.714 250.494C274.475 256.721 271.419 262.441 266.93 266.93C263.949 269.911 260.41 272.276 256.515 273.89C252.62 275.503 248.446 276.334 244.23 276.334C240.014 276.334 235.84 275.503 231.945 273.89C228.05 272.276 224.511 269.911 221.53 266.93Z" fill="white"/>
</svg>
