<svg width="240" height="240" viewBox="0 0 240 240" fill="none" xmlns="http://www.w3.org/2000/svg">
<path d="M190.534 191.438L191.173 190.799C191.386 190.584 191.64 190.414 191.92 190.297C192.2 190.181 192.501 190.12 192.804 190.12C193.107 190.12 193.407 190.181 193.687 190.297C193.967 190.414 194.221 190.584 194.435 190.799L239.848 236.212L211.14 161.079L210.58 159.605C203.123 158.643 196.08 155.623 190.244 150.883C184.407 146.143 180.005 139.87 177.534 132.769C176.321 129.811 175.638 126.663 175.514 123.469C175.512 123.448 175.512 123.426 175.514 123.405C175.475 123.007 175.441 122.614 175.416 122.221C175.319 120.723 175.302 119.22 175.367 117.72C175.798 108.113 179.64 98.9735 186.202 91.9437C192.765 84.9134 201.619 80.4532 211.174 79.3629L211.292 79.0534L240 3.92565L194.469 49.4563C194.068 49.8567 193.525 50.0817 192.959 50.0817C192.392 50.0817 191.849 49.8567 191.448 49.4563L190.809 48.8176C190.594 48.6038 190.423 48.3497 190.307 48.0698C190.19 47.7898 190.13 47.4896 190.13 47.1864C190.13 46.8831 190.19 46.5829 190.307 46.303C190.423 46.023 190.594 45.7689 190.809 45.5552L236.222 0.142479L161.079 28.8503L160.588 29.0321C159.452 38.5437 154.976 47.343 147.957 53.8629C140.939 60.3822 131.834 64.1993 122.265 64.6331C120.765 64.698 119.263 64.6813 117.764 64.584C117.371 64.5594 116.978 64.5251 116.58 64.4858H116.517C113.323 64.359 110.177 63.6721 107.221 62.4566C100.079 59.9769 93.7743 55.5467 89.0208 49.668C84.2678 43.7892 81.2555 36.6969 80.3259 29.1942L79.0485 28.7029L3.92565 0L49.4563 45.5306C49.8567 45.9314 50.0817 46.4748 50.0817 47.0414C50.0817 47.6081 49.8567 48.1515 49.4563 48.5522L48.8176 49.191C48.6038 49.4062 48.3497 49.5766 48.0698 49.6931C47.7898 49.8095 47.4896 49.87 47.1864 49.87C46.8831 49.87 46.5829 49.8095 46.303 49.6931C46.023 49.5766 45.7689 49.4062 45.5552 49.191L0.142479 3.77825L28.8503 78.9109L29.4104 80.3603C36.8685 81.3253 43.9101 84.3498 49.7447 89.0945C55.5796 93.8392 59.9764 100.116 62.4419 107.221V107.25C63.6564 110.198 64.3447 113.336 64.4759 116.521C64.4784 116.543 64.4784 116.564 64.4759 116.585C64.5152 116.983 64.5496 117.376 64.5742 117.769C64.6715 119.267 64.6882 120.77 64.6233 122.27C64.1919 131.878 60.3503 141.017 53.7877 148.047C47.2249 155.077 38.3712 159.537 28.8159 160.627L28.698 160.937L0 236.065L45.5306 190.534C45.9314 190.133 46.4748 189.908 47.0414 189.908C47.6081 189.908 48.1515 190.133 48.5522 190.534L49.191 191.173C49.4062 191.386 49.5766 191.64 49.6931 191.92C49.8095 192.2 49.87 192.501 49.87 192.804C49.87 193.107 49.8095 193.407 49.6931 193.687C49.5766 193.967 49.4062 194.221 49.191 194.435L3.77825 239.848L78.9109 211.14L80.3603 210.58C81.3243 203.12 84.3483 196.076 89.093 190.239C93.8377 184.401 100.115 180.002 107.221 177.534C110.179 176.321 113.327 175.638 116.521 175.514H116.585C116.983 175.475 117.376 175.441 117.769 175.416C119.267 175.319 120.77 175.302 122.27 175.367C131.878 175.798 141.017 179.64 148.047 186.202C155.077 192.765 159.537 201.619 160.627 211.174L160.937 211.292L236.065 240L190.534 194.469C190.334 194.271 190.176 194.035 190.067 193.775C189.959 193.514 189.904 193.235 189.904 192.954C189.904 192.672 189.959 192.393 190.067 192.133C190.176 191.873 190.334 191.636 190.534 191.438ZM108.842 131.148C106.637 128.943 105.135 126.132 104.526 123.073C103.918 120.014 104.231 116.843 105.425 113.961C106.618 111.079 108.64 108.616 111.233 106.883C113.827 105.15 116.876 104.226 119.995 104.226C123.114 104.226 126.164 105.15 128.757 106.883C131.35 108.616 133.372 111.079 134.566 113.961C135.76 116.843 136.072 120.014 135.464 123.073C134.855 126.132 133.354 128.943 131.148 131.148C129.683 132.613 127.945 133.775 126.031 134.568C124.117 135.36 122.066 135.768 119.995 135.768C117.924 135.768 115.873 135.36 113.959 134.568C112.046 133.775 110.307 132.613 108.842 131.148Z" fill="white"/>
</svg>
