<svg width="479" height="479" viewBox="0 0 479 479" fill="none" xmlns="http://www.w3.org/2000/svg">
<path d="M387.285 382.185C388.639 382.184 389.937 382.72 390.895 383.675L478.693 471.473L422.444 318.796C401.809 318.143 382.237 309.487 367.871 294.659C353.505 279.831 345.472 259.996 345.472 239.35C345.472 218.704 353.505 198.869 367.871 184.041C382.237 169.213 401.809 160.557 422.444 159.904L478.7 7.21992L390.895 95.0246C389.93 95.9419 388.644 96.4457 387.312 96.4286C385.981 96.4115 384.708 95.8749 383.767 94.9332C382.825 93.9915 382.289 92.7192 382.271 91.3876C382.254 90.0559 382.758 88.7703 383.675 87.8047L471.473 0.00663024L318.796 56.2557C318.143 76.891 309.487 96.4627 294.659 110.829C279.831 125.195 259.996 133.228 239.35 133.228C218.704 133.228 198.869 125.195 184.041 110.829C169.213 96.4627 160.557 76.891 159.904 56.2557L7.21992 0L95.0246 87.8047C95.9419 88.7703 96.4457 90.0559 96.4286 91.3876C96.4115 92.7192 95.8749 93.9915 94.9332 94.9332C93.9915 95.8749 92.7192 96.4115 91.3876 96.4286C90.0559 96.4457 88.7703 95.9419 87.8047 95.0246L0.00663024 7.22654L56.2557 159.904C76.891 160.557 96.4627 169.213 110.829 184.041C125.195 198.869 133.228 218.704 133.228 239.35C133.228 259.996 125.195 279.831 110.829 294.659C96.4627 309.487 76.891 318.143 56.2557 318.796L0 471.48L87.8047 383.675C88.7703 382.758 90.0559 382.254 91.3876 382.271C92.7192 382.289 93.9915 382.825 94.9332 383.767C95.8749 384.708 96.4115 385.981 96.4286 387.312C96.4457 388.644 95.9419 389.93 95.0246 390.895L7.22654 478.693L159.904 422.444C160.557 401.809 169.213 382.237 184.041 367.871C198.869 353.505 218.704 345.472 239.35 345.472C259.996 345.472 279.831 353.505 294.659 367.871C309.487 382.237 318.143 401.809 318.796 422.444L471.48 478.7L383.675 390.895C382.961 390.182 382.474 389.273 382.276 388.282C382.079 387.292 382.18 386.265 382.567 385.333C382.953 384.4 383.608 383.603 384.448 383.042C385.288 382.482 386.276 382.184 387.285 382.185ZM220.618 258.082C216.912 254.377 214.388 249.656 213.365 244.516C212.342 239.376 212.866 234.049 214.871 229.207C216.876 224.365 220.272 220.227 224.629 217.315C228.987 214.403 234.109 212.849 239.35 212.849C244.591 212.849 249.713 214.403 254.071 217.315C258.428 220.227 261.824 224.365 263.829 229.207C265.834 234.049 266.358 239.376 265.335 244.516C264.312 249.656 261.788 254.377 258.082 258.082C253.113 263.049 246.376 265.839 239.35 265.839C232.324 265.839 225.587 263.049 220.618 258.082Z" fill="white"/>
</svg>
