<svg width="1920" height="1080" viewBox="0 0 1920 1080" fill="none" xmlns="http://www.w3.org/2000/svg">
<rect width="1920" height="1080" fill="#FF3A3A"/>
<path d="M970.146 634.614L957.177 543.828L1054.43 543.828L1054.43 634.614L970.146 634.614ZM1021.99 602.107L1021.99 576.378L994.266 576.378L998.002 602.107L1021.99 602.107Z" fill="white"/>
<path d="M950.307 543.597L963.276 634.383L866.02 634.383L866.02 543.597L950.307 543.597ZM898.46 576.104L898.46 601.833L926.187 601.833L922.452 576.104L898.46 576.104Z" fill="white"/>
<path d="M926.196 478.59L866 478.59L866 446.257L963.271 446.257L950.327 536.887L866 536.887L866 504.631L922.411 504.631L926.196 478.59Z" fill="white"/>
<rect x="866.035" y="467.887" width="32.3159" height="60.7254" fill="white"/>
<path d="M994.112 504.331L1054.45 504.331L1054.45 536.684L956.951 536.684L969.925 446L1054.45 446L1054.45 478.275L997.907 478.275L994.112 504.331Z" fill="white"/>
</svg>
